<svg width="34" height="27" viewBox="0 0 34 27" fill="none" xmlns="http://www.w3.org/2000/svg">
<path d="M16.739 20.4899C16.6398 20.4087 16.5315 20.3335 16.4382 20.2402C13.3942 17.1962 10.3502 14.1522 7.30923 11.1082C6.59937 10.3984 6.28053 9.55012 6.50011 8.5545C6.86106 6.92723 8.53646 6.02185 10.0915 6.62945C10.4465 6.76781 10.7834 7.01446 11.0661 7.27915C11.8361 8.00406 12.5731 8.76807 13.322 9.51403C13.3702 9.56215 13.4243 9.60727 13.4604 9.64036C13.6559 9.32453 13.8033 9.00268 14.0259 8.74099C14.8922 7.72131 16.357 7.49873 17.497 8.19656C17.6624 8.29883 17.7166 8.27477 17.7858 8.09129C18.2339 6.87609 19.6236 6.13916 20.8779 6.461C21.1757 6.53921 21.4614 6.67757 21.7412 6.81594C21.8855 6.88512 21.9277 6.87309 21.9878 6.72269C22.3849 5.72707 23.1188 5.15557 24.1866 5.02924C25.1431 4.91494 25.9282 5.24581 26.5719 5.95267C28.2172 7.76343 29.8655 9.57418 31.5169 11.3819C32.332 12.2723 32.9607 13.2679 33.3186 14.4289C33.6765 15.593 33.7758 16.7691 33.5743 17.9783C33.3517 19.3198 32.8343 20.532 31.965 21.5727C31.4747 22.1593 30.9243 22.6977 30.3769 23.2361C29.7091 23.8888 29.0504 24.5596 28.3255 25.1431C27.3419 25.9342 26.1868 26.3944 24.9326 26.5598C24.4332 26.626 23.9279 26.6621 23.4256 26.6651C19.1875 26.6741 14.9463 26.6711 10.7082 26.6711C10.0194 26.6711 9.41477 26.4786 8.94553 25.9462C8.42216 25.3506 8.31989 24.6498 8.49435 23.9129C8.76205 22.7789 9.45387 21.9788 10.5608 21.6118C11.0811 21.4404 11.6436 21.3832 12.1911 21.296C13.3942 21.0975 14.5974 20.914 15.8036 20.7245C16.0261 20.6884 16.2517 20.6613 16.4743 20.6252C16.5495 20.6132 16.6217 20.5921 16.6969 20.5741C16.7119 20.55 16.724 20.526 16.739 20.5019V20.4899ZM17.4248 25.2484C19.4341 25.2484 21.4434 25.2514 23.4557 25.2454C23.8647 25.2454 24.2738 25.2243 24.6769 25.1702C25.9041 25.0077 26.996 24.5175 27.9044 23.6752C28.7135 22.9263 29.4775 22.1292 30.2656 21.3562C31.7064 19.9424 32.3922 18.24 32.2388 16.2186C32.1395 14.9222 31.6823 13.7582 30.8431 12.7626C30.2265 12.0316 29.5707 11.3338 28.927 10.6239C27.769 9.34859 26.608 8.07023 25.4439 6.8009C24.8243 6.12412 23.6813 6.31362 23.3263 7.15282C23.1037 7.6792 23.2241 8.15145 23.597 8.56954C23.8647 8.87033 23.9129 9.16812 23.7565 9.44785C23.5128 9.884 22.9714 9.93213 22.5864 9.55012C22.1202 9.0869 21.6569 8.62068 21.1877 8.15746C20.8478 7.82058 20.4267 7.71229 19.9755 7.83261C18.998 8.09129 18.6881 9.22527 19.386 9.96521C19.6807 10.278 19.9966 10.5728 20.2974 10.8826C20.52 11.1142 20.7576 11.3338 20.9411 11.5955C21.1486 11.8903 21.0313 12.2963 20.7275 12.4979C20.4448 12.6844 20.1049 12.6543 19.8281 12.3896C19.3649 11.9444 18.9137 11.4842 18.4595 11.033C17.9632 10.5367 17.479 10.0284 16.9676 9.55012C16.2247 8.8553 15.0576 9.21324 14.835 10.1998C14.7177 10.7202 14.9313 11.1353 15.2982 11.4962C16.1856 12.3745 17.0699 13.2559 17.9452 14.1462C18.0625 14.2665 18.1648 14.4259 18.2099 14.5854C18.2971 14.8952 18.1437 15.1869 17.864 15.3403C17.5812 15.4968 17.2534 15.4306 16.9706 15.1478C15.1418 13.319 13.313 11.4902 11.4842 9.66141C11.018 9.19519 10.5548 8.73197 10.0915 8.26575C9.70653 7.88073 9.25234 7.73635 8.72896 7.89878C7.80554 8.18754 7.54686 9.33957 8.25071 10.0464C10.8285 12.6332 13.4153 15.217 15.9991 17.8008C16.8864 18.6911 17.7767 19.5785 18.6641 20.4658C18.8837 20.6854 19.016 20.9381 18.9047 21.2539C18.7934 21.5727 18.5468 21.7051 18.2219 21.7532C17.0669 21.9277 15.9149 22.1141 14.7598 22.2976C13.686 22.4661 12.6122 22.6435 11.5353 22.7999C10.8315 22.9022 10.263 23.194 9.97724 23.8768C9.89302 24.0813 9.84189 24.3129 9.83888 24.5325C9.82986 24.9927 10.1397 25.2424 10.6751 25.2424C12.925 25.2424 15.1779 25.2424 17.4278 25.2424L17.4248 25.2484Z" fill="#A1A1A1"/>
<path d="M9.37819 0C11.5168 0.0360949 13.6223 0.851237 15.388 2.51762C16.5851 3.64558 17.4003 5.00816 17.8695 6.5813C18.0109 7.05655 17.8996 7.40847 17.5446 7.57691C17.1897 7.74235 16.7987 7.62504 16.6393 7.26409C16.4919 6.93924 16.4016 6.59032 16.2663 6.25945C15.5143 4.39455 14.2329 3.01091 12.4192 2.15968C10.2114 1.12195 7.97349 1.13097 5.77772 2.18374C3.74739 3.15529 2.35172 4.74347 1.74713 6.90314C0.868821 10.0374 1.68096 12.7475 4.08728 14.9493C4.90242 15.6922 5.86495 16.1916 6.92674 16.5044C7.10421 16.5585 7.28769 16.6367 7.42906 16.754C7.6727 16.9556 7.71181 17.3255 7.5584 17.5962C7.40199 17.876 7.0621 18.0083 6.72221 17.9151C5.42881 17.5541 4.26475 16.9526 3.24206 16.0833C1.96671 15.0004 1.04328 13.6709 0.501857 12.0858C0.0205916 10.6811 -0.12078 9.2463 0.104813 7.76942C0.357477 6.11808 1.00718 4.64721 2.05694 3.35983C3.1067 2.07245 4.42116 1.13699 5.98828 0.562478C6.99292 0.189498 8.03064 0.0180474 9.37819 0Z" fill="#A1A1A1"/>
<path d="M2.80555 9.22212C2.85067 6.45485 4.46291 4.12071 6.83314 3.23639C7.87989 2.84536 8.95672 2.69196 10.0606 2.88145C11.8022 3.18225 13.2189 4.02747 14.2416 5.48028C14.4943 5.84123 14.7078 6.23828 14.8823 6.64134C15.0176 6.95416 14.8342 7.29104 14.5244 7.44144C14.2266 7.58883 13.8626 7.50461 13.6701 7.21585C13.4295 6.85791 13.234 6.46989 12.9753 6.12698C12.2534 5.16746 11.2878 4.5719 10.1148 4.32224C7.39261 3.74172 4.80882 5.54044 4.29146 8.20244C3.89742 10.2418 4.90206 12.3744 6.72786 13.3821C6.94443 13.5024 7.17303 13.6197 7.34147 13.7911C7.57007 14.0197 7.54902 14.4077 7.35651 14.6604C7.17303 14.901 6.83314 14.9973 6.52633 14.8559C6.24058 14.7266 5.96085 14.5792 5.69916 14.4077C4.42681 13.5716 3.5485 12.4225 3.0913 10.9727C2.8988 10.3591 2.77547 9.72745 2.80254 9.21911L2.80555 9.22212Z" fill="#A1A1A1"/>
</svg>
