<svg width="36" height="35" viewBox="0 0 36 35" fill="none" xmlns="http://www.w3.org/2000/svg">
<path d="M35.9784 17.2366C35.9784 21.6027 35.9784 25.9688 35.9784 30.329C35.9784 31.2142 35.7571 31.4295 34.8659 31.4295C30.422 31.4295 25.9782 31.4355 21.5343 31.4175C21.0618 31.4175 20.8943 31.5431 20.9182 32.0156C20.9481 32.5599 20.9362 33.1102 20.9182 33.6604C20.8943 34.2465 20.5713 34.4977 19.9912 34.408C16.2112 33.8279 12.4312 33.2477 8.65119 32.6616C6.07338 32.2609 3.50155 31.8601 0.923733 31.4534C0.164145 31.3338 0.00265822 31.1484 0.00265822 30.3768C0.00265822 22.4939 0.00265822 14.6049 0.00265822 6.72197C0.00265822 6.25545 -0.00332278 5.78295 0.00265822 5.31644C0.0146202 4.84992 0.247879 4.57479 0.714398 4.46713C4.29104 3.64773 7.86768 2.82236 11.4443 1.99698C14.2614 1.34505 17.0724 0.699101 19.8895 0.0471713C20.5773 -0.114316 20.9122 0.136886 20.9302 0.830683C20.9422 1.34505 20.9302 1.8654 20.9302 2.37976C20.9302 3.00777 20.9302 3.01375 21.5941 3.01375C24.1121 3.01375 26.6301 3.01375 29.1481 3.01375C31.0859 3.01375 33.0298 3.01375 34.9676 3.01375C35.781 3.01375 35.9844 3.22906 35.9844 4.04846C35.9844 8.4445 35.9844 12.8405 35.9844 17.2366H35.9784ZM23.9327 9.12035C23.9386 9.29978 23.9506 9.44931 23.9506 9.60481C23.9506 10.6515 23.9506 11.6982 23.9506 12.7508C23.9506 13.6061 24.3453 14.27 25.081 14.6707C25.4339 14.8621 25.8765 14.9638 26.2832 14.9817C27.4495 15.0236 28.6218 14.9937 29.7881 14.9937C29.8359 16.172 28.8132 17.8347 27.5033 18.6062C25.1946 19.9579 23.0295 19.629 20.9661 17.8646C20.9481 18.1098 20.9242 18.2773 20.9242 18.4388C20.9242 19.0787 20.9242 19.7187 20.9242 20.3646C20.9242 21.0405 20.9242 21.0405 21.5881 21.0405C24.4949 21.0405 27.4076 21.0405 30.3144 21.0405C30.4998 21.0405 30.6912 21.0405 30.8766 21.0644C31.2534 21.1063 31.4747 21.3874 31.4328 21.6984C31.4029 21.9376 31.1637 22.1948 30.9484 22.3503C30.7929 22.458 30.5237 22.4281 30.3084 22.4281C27.3538 22.4281 24.3932 22.44 21.4386 22.4281C21.0498 22.4281 20.9122 22.5477 20.9242 22.9305C20.9422 23.5406 20.9242 24.1506 20.9242 24.7607C20.9242 25.291 21.1834 25.5581 21.7017 25.5621C24.5666 25.5621 27.4256 25.5621 30.2905 25.5621C30.4938 25.5621 30.739 25.5083 30.8886 25.604C31.1158 25.7475 31.4089 25.9868 31.4209 26.2021C31.4328 26.4174 31.1816 26.7165 30.9723 26.866C30.8048 26.9856 30.5237 26.9497 30.2905 26.9497C27.3957 26.9497 24.5008 26.9497 21.612 26.9497H20.9302C20.9302 27.8469 20.9481 28.6902 20.9242 29.5275C20.9063 29.9701 21.0857 30.0778 21.4984 30.0778C25.6612 30.0658 29.818 30.0658 33.9807 30.0778C34.4114 30.0778 34.5729 29.9761 34.5729 29.5036C34.5609 21.3216 34.5609 13.1396 34.5729 4.96356C34.5729 4.53292 34.4532 4.40732 34.0226 4.40732C29.8479 4.42527 25.6671 4.42527 21.4924 4.40732C21.0498 4.40732 20.9302 4.55685 20.9362 4.96356C20.9481 6.68609 20.9362 8.40263 20.9362 10.1252C20.9362 10.2567 20.9721 10.3823 21.002 10.5917C21.8871 9.82611 22.7843 9.25792 23.9446 9.1383L23.9327 9.12035ZM5.92983 17.2127C5.92983 19.1505 5.92983 21.0883 5.92983 23.0262C5.92983 23.6721 6.21094 24.0071 6.73727 23.9951C7.23369 23.9831 7.50882 23.6542 7.50882 23.0322C7.50882 22.0154 7.52676 20.9986 7.50284 19.9819C7.49088 19.5811 7.62844 19.4675 8.0172 19.4854C8.60932 19.5153 9.20742 19.4974 9.79954 19.4854C11.6118 19.4555 13.1429 18.2234 13.43 16.4351C13.5736 15.5499 13.5556 14.6229 13.4898 13.7257C13.3702 12.1707 12.1022 10.7233 10.5771 10.5199C9.39283 10.3644 8.17869 10.4302 6.97651 10.4122C6.17505 10.4003 5.93581 10.6455 5.93581 11.435C5.93581 13.3609 5.93581 15.2808 5.93581 17.2067L5.92983 17.2127Z" fill="white"/>
<path d="M28.4597 13.4087C27.7899 13.4087 27.114 13.4207 26.4441 13.4087C25.7803 13.3968 25.541 13.1456 25.541 12.4876C25.541 11.13 25.541 9.76629 25.541 8.4086C25.541 7.74471 25.7922 7.51145 26.4621 7.5294C28.9203 7.58322 31.0495 9.48518 31.3845 11.9195C31.4024 12.0451 31.4203 12.1647 31.4383 12.2903C31.5579 13.0678 31.2768 13.4027 30.4753 13.4087C29.8055 13.4147 29.1296 13.4087 28.4597 13.4087Z" fill="white"/>
<path d="M8.90776 12.0391C9.23672 12.0391 9.56567 12.0212 9.89463 12.0391C10.9832 12.1109 11.8145 12.8944 11.8803 13.9769C11.9222 14.6289 11.9222 15.2928 11.8803 15.9447C11.8145 16.9495 11.0669 17.745 10.0681 17.8466C9.32643 17.9184 8.56685 17.9065 7.81922 17.8945C7.71754 17.8945 7.52615 17.6971 7.52615 17.5895C7.50821 15.837 7.50821 14.0846 7.52615 12.3322C7.52615 12.2245 7.74147 12.0511 7.87305 12.0331C8.21397 11.9912 8.56087 12.0212 8.90178 12.0212C8.90178 12.0212 8.90178 12.0271 8.90178 12.0331L8.90776 12.0391Z" fill="white"/>
</svg>
