<svg width="136" height="124" viewBox="0 0 136 124" fill="none" xmlns="http://www.w3.org/2000/svg">
<path d="M111.474 30.7884L111.227 30.0126C111.016 29.413 111.227 28.7077 111.721 28.3197C111.898 28.1787 112.074 28.0376 112.251 27.8965C112.745 27.4733 113.451 27.438 114.015 27.7554L114.721 28.1787C115.462 28.6371 116.415 28.355 116.838 27.6144L117.932 25.6394C118.356 24.8988 118.038 23.9466 117.262 23.5586L116.521 23.206C115.956 22.9238 115.603 22.289 115.709 21.6542C115.744 21.4426 115.78 21.1957 115.78 20.9841C115.815 20.3493 116.309 19.8203 116.944 19.644L117.72 19.4676C118.567 19.256 119.061 18.4096 118.814 17.5632L118.179 15.4119C117.932 14.6007 117.05 14.107 116.238 14.3891L115.462 14.636C114.862 14.8476 114.156 14.636 113.768 14.1422C113.627 13.9659 113.486 13.7896 113.345 13.6132C112.921 13.1195 112.886 12.4141 113.204 11.8499L113.627 11.1445C114.086 10.4039 113.803 9.45169 113.062 9.02848L111.086 7.93519C110.345 7.51199 109.392 7.82939 109.004 8.60527L108.651 9.34589C108.369 9.91017 107.734 10.2628 107.099 10.157C106.887 10.1218 106.64 10.0865 106.428 10.0865C105.793 10.0512 105.264 9.55749 105.087 8.92268L104.911 8.1468C104.699 7.30038 103.852 6.80664 103.005 7.05351L100.853 7.68832C100.041 7.93519 99.5471 8.81688 99.8294 9.62803L100.076 10.4039C100.288 11.0035 100.076 11.7088 99.5824 12.0967C99.4059 12.2378 99.2295 12.3789 99.053 12.5199C98.559 12.9432 97.8532 12.9784 97.2886 12.661L96.5829 12.2378C95.8418 11.7793 94.889 12.0615 94.4656 12.8021L93.3717 14.7771C92.9482 15.5177 93.2658 16.4699 94.0421 16.8578L94.7832 17.2105C95.3478 17.4926 95.7007 18.1275 95.5948 18.7623C95.5595 18.9739 95.5242 19.2207 95.5242 19.4323C95.4889 20.0672 94.9949 20.5962 94.3597 20.7725L93.5834 20.9488C92.7365 21.1605 92.2424 22.0069 92.4895 22.8533L93.1246 25.0046C93.3717 25.8157 94.2539 26.3095 95.0655 26.0273L95.8418 25.7805C96.4417 25.5689 97.1475 25.7805 97.5356 26.2742C97.6768 26.4506 97.818 26.6269 97.9591 26.8032C98.3826 27.297 98.4178 28.0023 98.1003 28.5666L97.6768 29.2719C97.218 30.0126 97.5004 30.9648 98.2414 31.388L100.218 32.4813C100.959 32.9045 101.911 32.5871 102.3 31.8112L102.652 31.0706C102.935 30.5063 103.57 30.1536 104.205 30.2594C104.417 30.2947 104.664 30.33 104.876 30.33C105.511 30.3652 106.04 30.859 106.216 31.4938L106.393 32.2697C106.605 33.1161 107.452 33.6098 108.298 33.363L110.451 32.7281C111.263 32.4813 111.721 31.5996 111.474 30.7884ZM100.994 21.5484C100.253 18.9739 101.735 16.2936 104.311 15.5529C106.887 14.8123 109.569 16.2936 110.31 18.8681C111.051 21.4426 109.569 24.1229 106.993 24.8635C104.417 25.6041 101.735 24.1229 100.994 21.5484Z" stroke="url(#paint0_linear_1066_855)" stroke-miterlimit="10"/>
<path d="M40.7227 45.3186L39.9463 45.5654C39.3464 45.777 38.6407 45.5654 38.2525 45.0717C38.1114 44.8954 37.9702 44.719 37.8291 44.5427C37.4056 44.0489 37.3703 43.3436 37.6879 42.7793L38.1114 42.074C38.5701 41.3334 38.2878 40.3811 37.5468 39.9579L35.5706 38.8646C34.8296 38.4414 33.8768 38.7588 33.4886 39.5347L33.1357 40.2753C32.8534 40.8396 32.2183 41.1923 31.5831 41.0865C31.3713 41.0512 31.1243 41.0159 30.9126 41.0159C30.2774 40.9807 29.7481 40.4869 29.5717 39.8521L29.3952 39.0762C29.1835 38.2298 28.3366 37.7361 27.4897 37.983L25.3371 38.6178C24.5255 38.8646 24.0314 39.7463 24.3137 40.5575L24.5608 41.3334C24.7725 41.9329 24.5608 42.6382 24.0667 43.0262C23.8903 43.1673 23.7138 43.3083 23.5374 43.4494C23.0434 43.8726 22.3376 43.9079 21.773 43.5905L21.0672 43.1673C20.3262 42.7088 19.3734 42.9909 18.95 43.7315L17.856 45.7065C17.4326 46.4471 17.7502 47.3993 18.5265 47.7873L19.2676 48.14C19.8322 48.4221 20.185 49.0569 20.0792 49.6917C20.0439 49.9033 20.0086 50.1502 20.0086 50.3618C19.9733 50.9966 19.4793 51.5256 18.8441 51.702L18.0678 51.8783C17.2209 52.0899 16.7268 52.9363 16.9738 53.7827L17.609 55.934C17.856 56.7452 18.7382 57.2389 19.5499 56.9568L20.3262 56.7099C20.9261 56.4983 21.6319 56.7099 22.02 57.2037C22.1612 57.38 22.3023 57.5563 22.4435 57.7327C22.8669 58.2264 22.9022 58.9318 22.5846 59.496L22.1612 60.2014C21.7024 60.942 21.9847 61.8942 22.7258 62.3174L24.7019 63.4107C25.443 63.8339 26.3957 63.5165 26.7839 62.7406L27.1368 62C27.4191 61.4357 28.0543 61.0831 28.6895 61.1889C28.9012 61.2241 29.1482 61.2594 29.3599 61.2594C29.9951 61.2947 30.5244 61.7884 30.7009 62.4232L30.8773 63.1991C31.089 64.0455 31.936 64.5393 32.7829 64.2924L34.9354 63.6576C35.7471 63.4107 36.2411 62.529 35.9588 61.7179L35.7118 60.942C35.5 60.3425 35.7118 59.6371 36.2058 59.2492C36.3822 59.1081 36.5587 58.967 36.7351 58.826C37.2292 58.4028 37.9349 58.3675 38.4995 58.6849L39.2053 59.1081C39.9463 59.5666 40.8991 59.2844 41.3226 58.5438L42.4165 56.5688C42.84 55.8282 42.5224 54.876 41.746 54.4881L41.005 54.1354C40.4404 53.8533 40.0875 53.2185 40.1934 52.5836C40.2286 52.372 40.2639 52.1252 40.2639 51.9136C40.2992 51.2787 40.7932 50.7497 41.4284 50.5734L42.2048 50.3971C43.0517 50.1855 43.5457 49.339 43.2987 48.4926L42.6635 46.3413C42.4165 45.4949 41.5343 45.0364 40.7227 45.3186ZM31.4772 55.7577C28.9012 56.4983 26.2193 55.0171 25.4782 52.4426C24.7372 49.8681 26.2193 47.1877 28.7953 46.4471C31.3713 45.7065 34.0532 47.1877 34.7943 49.7623C35.5353 52.3368 34.0532 55.0171 31.4772 55.7577Z" stroke="url(#paint1_linear_1066_855)" stroke-miterlimit="10"/>
<path d="M117.474 86.8282L116.238 87.2514C115.25 87.5688 114.156 87.2514 113.557 86.4402C113.345 86.1581 113.133 85.8759 112.886 85.5938C112.216 84.8179 112.145 83.6541 112.674 82.7724L113.345 81.6439C114.051 80.48 113.662 78.9283 112.427 78.2582L109.251 76.5301C108.052 75.86 106.499 76.3538 105.899 77.5881L105.299 78.7519C104.84 79.6689 103.817 80.2332 102.794 80.0921C102.441 80.0568 102.088 79.9863 101.735 79.9863C100.712 79.9158 99.8648 79.1399 99.6178 78.1524L99.3002 76.8828C98.9826 75.5426 97.6064 74.7315 96.2654 75.1194L92.8072 76.1069C91.4663 76.4948 90.7252 77.9055 91.184 79.2104L91.6074 80.4448C91.925 81.4323 91.6074 82.5255 90.7958 83.1251C90.5135 83.3367 90.2312 83.5483 89.9489 83.7952C89.1725 84.4652 88.008 84.5358 87.1258 84.0068L85.9966 83.3367C84.8321 82.6313 83.2794 83.0193 82.609 84.2536L80.8799 87.4277C80.2094 88.6268 80.7034 90.1786 81.9385 90.7781L83.103 91.3776C84.0205 91.8361 84.5851 92.8589 84.4439 93.8816C84.4087 94.2343 84.3381 94.587 84.3381 94.9397C84.2675 95.9624 83.4912 96.8088 82.5031 97.0557L81.2327 97.3731C79.8918 97.6905 79.0802 99.0659 79.4683 100.406L80.4564 103.862C80.8446 105.202 82.2561 105.943 83.5617 105.485L84.7968 105.061C85.7849 104.744 86.8788 105.061 87.4787 105.873C87.6904 106.155 87.9022 106.437 88.1492 106.719C88.8197 107.495 88.8902 108.659 88.3609 109.54L87.6904 110.669C86.9847 111.833 87.3728 113.384 88.6079 114.055L91.7839 115.783C92.9836 116.453 94.5363 115.959 95.1362 114.725L95.7361 113.561C96.1948 112.644 97.2182 112.08 98.2416 112.221C98.5944 112.256 98.9473 112.326 99.3002 112.326C100.324 112.397 101.17 113.173 101.417 114.16L101.735 115.43C102.053 116.77 103.429 117.581 104.77 117.193L108.228 116.206C109.569 115.818 110.31 114.407 109.851 113.102L109.428 111.868C109.11 110.88 109.428 109.787 110.239 109.188C110.522 108.976 110.804 108.764 111.086 108.518C111.863 107.848 113.027 107.777 113.909 108.306L115.039 108.976C116.203 109.681 117.756 109.293 118.426 108.059L120.155 104.885C120.826 103.686 120.332 102.134 119.097 101.535L117.932 100.935C117.015 100.477 116.45 99.4539 116.591 98.4311C116.627 98.0784 116.697 97.7258 116.697 97.3731C116.768 96.3503 117.544 95.5039 118.532 95.2571L119.803 94.9397C121.143 94.6222 121.955 93.2468 121.567 91.9067L120.579 88.4505C120.191 87.1103 118.779 86.3697 117.474 86.8282ZM102.688 103.58C98.5591 104.779 94.254 102.381 93.0895 98.2901C91.8897 94.1638 94.2893 89.8611 98.3827 88.6973C102.476 87.5335 106.817 89.8964 107.981 93.9874C109.146 98.0784 106.781 102.381 102.688 103.58Z" fill="url(#paint2_linear_1066_855)"/>
<path d="M92.5605 110.387L51.5205 110.457C47.1095 110.457 43.5102 106.895 43.5102 102.557L43.4043 16.2935C43.4043 11.8498 47.039 8.21725 51.4852 8.21725L92.9487 8.11145C97.395 8.11145 101.03 11.744 100.994 16.1877L100.606 102.452C100.571 106.825 96.9362 110.387 92.5605 110.387Z" fill="white"/>
<path d="M92.5605 110.387L51.5205 110.457C47.1095 110.457 43.5102 106.895 43.5102 102.557L43.4043 16.2935C43.4043 11.8498 47.039 8.21725 51.4852 8.21725L92.9487 8.11145C97.395 8.11145 101.03 11.744 100.994 16.1877L100.606 102.452C100.571 106.825 96.9362 110.387 92.5605 110.387Z" stroke="url(#paint3_linear_1066_855)" stroke-width="3" stroke-miterlimit="10"/>
<path d="M98.0639 57.8384L98.4168 17.9158C98.4521 13.8953 95.135 10.5802 91.0769 10.5802L53.3187 10.6507C49.2606 10.6507 45.9435 13.9659 45.9788 18.0216L46.0847 57.9442L98.0639 57.8384Z" fill="url(#paint4_linear_1066_855)"/>
<path d="M76.2948 14.2128H65.9554C65.6378 14.2128 65.3555 13.9659 65.3555 13.6132C65.3555 13.2958 65.6025 13.0137 65.9554 13.0137H76.2948C76.6123 13.0137 76.8946 13.2605 76.8946 13.6132C76.8946 13.9306 76.6476 14.2128 76.2948 14.2128Z" fill="#1B6990"/>
<path d="M44.7441 52.2952H24.6299C22.4709 52.2952 20.6836 50.5085 20.6836 48.3515V28.2844C20.6836 26.1274 22.4709 24.3407 24.6299 24.3407H44.7441C46.9031 24.3407 48.6903 26.1274 48.6903 28.2844V48.3515C48.6903 50.5111 46.9358 52.2952 44.7441 52.2952Z" fill="#D3E0E9" stroke="white"/>
<path d="M44.7441 52.2952H24.6299C22.4709 52.2952 20.6836 50.5085 20.6836 48.3515V28.2844C20.6836 26.1274 22.4709 24.3407 24.6299 24.3407H44.7441C46.9031 24.3407 48.6903 26.1274 48.6903 28.2844V48.3515C48.6903 50.5111 46.9358 52.2952 44.7441 52.2952Z" fill="#D3E0E9" stroke="white"/>
<path d="M42.8025 49.7269H26.9935C25.0527 49.7269 23.5 48.1399 23.5 46.2355V30.4357C23.5 28.496 25.088 26.9442 26.9935 26.9442H42.8025C44.7434 26.9442 46.2961 28.5312 46.2961 30.4357V46.2002C46.3313 48.1399 44.7434 49.7269 42.8025 49.7269Z" fill="url(#paint5_linear_1066_855)"/>
<path d="M31.7091 49.2883C31.3001 49.2883 30.9217 49.2219 30.5741 49.0889C30.2315 48.9509 29.9324 48.7592 29.6768 48.5138C29.4263 48.2684 29.2295 47.9795 29.0863 47.6472C28.9483 47.3149 28.8793 46.9519 28.8793 46.5582C28.8793 46.1645 28.9483 45.8015 29.0863 45.4692C29.2295 45.1369 29.4289 44.848 29.6845 44.6026C29.9401 44.3572 30.2392 44.1681 30.5817 44.0351C30.9294 43.8971 31.3077 43.8281 31.7167 43.8281C32.1258 43.8281 32.499 43.892 32.8364 44.0198C33.1789 44.1476 33.4704 44.3419 33.7107 44.6026L33.3579 44.9631C33.1329 44.7381 32.885 44.5771 32.614 44.4799C32.343 44.3828 32.0516 44.3342 31.7398 44.3342C31.4074 44.3342 31.1007 44.3905 30.8195 44.5029C30.5434 44.6103 30.3006 44.7662 30.0909 44.9707C29.8864 45.1701 29.7254 45.4053 29.6078 45.6763C29.4953 45.9421 29.4391 46.2361 29.4391 46.5582C29.4391 46.8752 29.4953 47.1692 29.6078 47.4401C29.7254 47.7111 29.8864 47.9488 30.0909 48.1533C30.3006 48.3527 30.5434 48.5087 30.8195 48.6211C31.1007 48.7285 31.4049 48.7822 31.7321 48.7822C32.0388 48.7822 32.3277 48.7362 32.5987 48.6441C32.8747 48.5521 33.1278 48.3962 33.3579 48.1763L33.68 48.6058C33.4244 48.8307 33.1253 49.002 32.7827 49.1196C32.4402 49.2321 32.0823 49.2883 31.7091 49.2883ZM33.1355 48.5368V46.5582H33.68V48.6058L33.1355 48.5368ZM35.2861 49.2423V43.8741H37.2954C37.7504 43.8741 38.1415 43.9482 38.4687 44.0965C38.7959 44.2396 39.0465 44.4492 39.2203 44.7253C39.3992 44.9963 39.4887 45.3261 39.4887 45.7146C39.4887 46.0929 39.3992 46.4202 39.2203 46.6962C39.0465 46.9672 38.7959 47.1768 38.4687 47.3251C38.1415 47.4733 37.7504 47.5475 37.2954 47.5475H35.6006L35.8536 47.2791V49.2423H35.2861ZM35.8536 47.3251L35.6006 47.049H37.2801C37.8169 47.049 38.2233 46.934 38.4994 46.7039C38.7806 46.4687 38.9212 46.139 38.9212 45.7146C38.9212 45.2852 38.7806 44.9528 38.4994 44.7177C38.2233 44.4825 37.8169 44.3649 37.2801 44.3649H35.6006L35.8536 44.0965V47.3251ZM30.8348 58.2883C30.436 58.2883 30.0526 58.2244 29.6845 58.0966C29.3215 57.9637 29.0403 57.795 28.8409 57.5905L29.0633 57.1533C29.2525 57.3374 29.5055 57.4933 29.8225 57.6211C30.1446 57.7438 30.4821 57.8052 30.8348 57.8052C31.1723 57.8052 31.4458 57.7643 31.6554 57.6825C31.8701 57.5956 32.0261 57.4805 32.1232 57.3374C32.2254 57.1942 32.2766 57.0357 32.2766 56.8619C32.2766 56.6523 32.2152 56.4836 32.0925 56.3558C31.9749 56.2279 31.819 56.1282 31.6247 56.0567C31.4304 55.98 31.2157 55.9135 30.9805 55.8573C30.7454 55.801 30.5102 55.7422 30.275 55.6809C30.0398 55.6144 29.8225 55.5275 29.6231 55.4202C29.4289 55.3128 29.2704 55.1722 29.1477 54.9984C29.0301 54.8194 28.9713 54.5868 28.9713 54.3005C28.9713 54.0346 29.0403 53.7918 29.1783 53.5719C29.3215 53.347 29.5388 53.1681 29.8302 53.0351C30.1216 52.8971 30.4948 52.8281 30.9499 52.8281C31.2515 52.8281 31.5506 52.8715 31.8471 52.9584C32.1436 53.0402 32.3993 53.1553 32.614 53.3035L32.4223 53.756C32.1922 53.6026 31.9468 53.4901 31.6861 53.4186C31.4304 53.347 31.1825 53.3112 30.9422 53.3112C30.6201 53.3112 30.3542 53.3547 30.1446 53.4416C29.935 53.5285 29.7791 53.6461 29.6768 53.7943C29.5797 53.9375 29.5311 54.1011 29.5311 54.2852C29.5311 54.4948 29.5899 54.6635 29.7075 54.7913C29.8302 54.9191 29.9887 55.0188 30.183 55.0904C30.3824 55.162 30.5996 55.2259 30.8348 55.2821C31.07 55.3384 31.3026 55.3997 31.5327 55.4662C31.7679 55.5326 31.9826 55.6195 32.1769 55.7269C32.3763 55.8292 32.5348 55.9672 32.6524 56.141C32.7751 56.3149 32.8364 56.5424 32.8364 56.8236C32.8364 57.0843 32.7648 57.3272 32.6217 57.5521C32.4785 57.772 32.2587 57.9509 31.9621 58.0889C31.6707 58.2219 31.295 58.2883 30.8348 58.2883Z" fill="white"/>
<path d="M38.3752 33.9512C38.3752 35.8556 34.9522 41.0399 34.9522 41.0399C34.9522 41.0399 31.5293 35.8204 31.5293 33.9512C31.5293 32.082 33.082 30.5303 34.9522 30.5303C36.8225 30.5303 38.3752 32.082 38.3752 33.9512Z" stroke="white" stroke-width="0.6391" stroke-miterlimit="10" stroke-linecap="round" stroke-linejoin="round"/>
<path d="M33.4355 34.1981C33.4355 33.387 34.106 32.7169 34.9176 32.7169C35.7293 32.7169 36.3997 33.387 36.3997 34.1981C36.3997 35.0093 35.7293 35.6794 34.9176 35.6794C34.106 35.6794 33.4355 35.0093 33.4355 34.1981Z" stroke="white" stroke-width="0.6391" stroke-miterlimit="10" stroke-linecap="round" stroke-linejoin="round"/>
<path d="M68.3525 105.344H74.3162C75.0573 105.344 75.6219 104.744 75.6219 104.039V98.1137C75.6219 97.3731 75.022 96.8088 74.3162 96.8088H68.3525C67.6115 96.8088 67.0469 97.4084 67.0469 98.1137V104.039C67.0469 104.744 67.6468 105.344 68.3525 105.344Z" fill="#D3E0E9"/>
<path d="M68.3525 105.344H74.3162C75.0573 105.344 75.6219 104.744 75.6219 104.039V98.1137C75.6219 97.3731 75.022 96.8088 74.3162 96.8088H68.3525C67.6115 96.8088 67.0469 97.4084 67.0469 98.1137V104.039C67.0469 104.744 67.6468 105.344 68.3525 105.344Z" fill="url(#paint6_linear_1066_855)"/>
<path d="M68.3525 105.344H74.3162C75.0573 105.344 75.6219 104.744 75.6219 104.039V98.1137C75.6219 97.3731 75.022 96.8088 74.3162 96.8088H68.3525C67.6115 96.8088 67.0469 97.4084 67.0469 98.1137V104.039C67.0469 104.744 67.6468 105.344 68.3525 105.344Z" stroke="url(#paint7_linear_1066_855)" stroke-width="0.1233" stroke-miterlimit="10"/>
<path d="M71.9859 100.124C72.5152 100.371 72.8681 100.935 72.8328 101.535C72.7975 102.346 72.0917 102.981 71.2801 102.945C70.4685 102.91 69.8333 102.205 69.8686 101.394C69.9039 100.865 70.2215 100.371 70.6802 100.159" stroke="white" stroke-width="0.6391" stroke-miterlimit="10" stroke-linecap="round" stroke-linejoin="round"/>
<path d="M71.3496 101.076V99.207" stroke="white" stroke-width="0.6391" stroke-miterlimit="10" stroke-linecap="round" stroke-linejoin="round"/>
<path d="M30.4536 17.8805H36.4173C37.1583 17.8805 37.723 17.281 37.723 16.5756V10.6507C37.723 9.9101 37.1231 9.34583 36.4173 9.34583H30.4536C29.7126 9.34583 29.148 9.94537 29.148 10.6507V16.5756C29.1127 17.3162 29.7126 17.8805 30.4536 17.8805Z" fill="#D3E0E9"/>
<path d="M30.4536 17.8805H36.4173C37.1583 17.8805 37.723 17.281 37.723 16.5756V10.6507C37.723 9.9101 37.1231 9.34583 36.4173 9.34583H30.4536C29.7126 9.34583 29.148 9.94537 29.148 10.6507V16.5756C29.1127 17.3162 29.7126 17.8805 30.4536 17.8805Z" fill="url(#paint8_linear_1066_855)"/>
<path d="M30.4536 17.8805H36.4173C37.1583 17.8805 37.723 17.281 37.723 16.5756V10.6507C37.723 9.9101 37.1231 9.34583 36.4173 9.34583H30.4536C29.7126 9.34583 29.148 9.94537 29.148 10.6507V16.5756C29.1127 17.3162 29.7126 17.8805 30.4536 17.8805Z" stroke="url(#paint9_linear_1066_855)" stroke-width="0.1233" stroke-miterlimit="10"/>
<path d="M33.2428 14.3185C32.8193 13.8953 32.8193 13.2605 33.2428 12.8373C33.6309 12.4494 34.2661 12.4141 34.6896 12.802C34.4426 12.4141 33.9838 12.132 33.4898 12.132C32.7134 12.132 32.043 12.7668 32.043 13.5779C32.043 14.3538 32.6782 15.0239 33.4898 15.0239C33.9838 15.0239 34.4426 14.777 34.6896 14.3538C34.3014 14.7417 33.6662 14.7417 33.2428 14.3185Z" stroke="white" stroke-width="0.6391" stroke-miterlimit="10" stroke-linecap="round" stroke-linejoin="round"/>
<path d="M114.65 83.7952H90.7951C87.9015 83.7952 85.502 81.4323 85.502 78.5051V54.6996C85.502 51.8077 87.8662 49.4095 90.7951 49.4095H114.65C117.543 49.4095 119.943 51.7725 119.943 54.6996V78.5051C119.943 81.397 117.579 83.7952 114.65 83.7952Z" fill="#D3E0E9"/>
<path d="M114.65 83.7952H90.7951C87.9015 83.7952 85.502 81.4323 85.502 78.5051V54.6996C85.502 51.8077 87.8662 49.4095 90.7951 49.4095H114.65C117.543 49.4095 119.943 51.7725 119.943 54.6996V78.5051C119.943 81.397 117.579 83.7952 114.65 83.7952Z" fill="#D3E0E9"/>
<path d="M112.355 80.1273H93.582C91.2882 80.1273 89.418 78.2582 89.418 75.9658V57.2388C89.418 54.9464 91.2882 53.0773 93.582 53.0773H112.355C114.649 53.0773 116.519 54.9464 116.519 57.2388V75.9658C116.519 78.2582 114.649 80.1273 112.355 80.1273Z" stroke="url(#paint10_linear_1066_855)" stroke-miterlimit="10"/>
<path d="M97.6418 76.6712H107.699C111.016 76.6712 113.768 73.9556 113.768 70.6052V70.5347C113.768 69.3709 113.451 68.2423 112.851 67.2548L110.451 63.4107C109.287 61.5062 106.499 61.4357 105.264 63.3049L103.323 66.1615C102.194 67.8544 99.7591 67.9954 98.4181 66.4789L98.0653 66.091C96.7243 64.5745 94.36 64.7156 93.1955 66.3731L92.7015 67.0785C91.9604 68.1365 91.5723 69.3709 91.5723 70.6405C91.6076 73.9203 94.3247 76.6712 97.6418 76.6712Z" fill="url(#paint11_linear_1066_855)"/>
<path d="M97.2895 60.025C97.2895 60.942 96.5484 61.6473 95.6662 61.6473C94.7487 61.6473 94.043 60.9067 94.043 60.025C94.043 59.1081 94.784 58.4027 95.6662 58.4027C96.5837 58.4027 97.2895 59.1433 97.2895 60.025Z" fill="url(#paint12_linear_1066_855)"/>
<path d="M82.465 70.4546H50V71.8653H82.465V70.4546Z" fill="#A6BCCA"/>
<path d="M82.465 74.2281H50V75.6388H82.465V74.2281Z" fill="#A6BCCA"/>
<path d="M82.465 77.9666H50V79.3772H82.465V77.9666Z" fill="#A6BCCA"/>
<path d="M82.465 81.7401H50V83.1508H82.465V81.7401Z" fill="#A6BCCA"/>
<path d="M82.465 85.5138H50V86.9245H82.465V85.5138Z" fill="#A6BCCA"/>
<path d="M69.8319 89.3579H50V90.6628H69.8319V89.3579Z" fill="#A6BCCA"/>
<path d="M40.1935 86.5107H7.72852V87.9214H40.1935V86.5107Z" fill="url(#paint13_linear_1066_855)"/>
<path d="M40.1935 90.249H7.72852V91.6597H40.1935V90.249Z" fill="url(#paint14_linear_1066_855)"/>
<path d="M40.1935 94.0227H7.72852V95.4334H40.1935V94.0227Z" fill="url(#paint15_linear_1066_855)"/>
<path d="M40.1935 97.7963H7.72852V99.207H40.1935V97.7963Z" fill="url(#paint16_linear_1066_855)"/>
<path d="M40.1935 101.535H7.72852V102.945H40.1935V101.535Z" fill="url(#paint17_linear_1066_855)"/>
<path d="M27.5604 105.414H7.72852V106.719H27.5604V105.414Z" fill="url(#paint18_linear_1066_855)"/>
<path d="M24.5246 83.7952H22.6543V85.2059H24.5246V83.7952Z" fill="#F1886F"/>
<path d="M44.6035 71.9806V70.1115H46.015V71.9806H44.6035Z" fill="url(#paint19_linear_1066_855)"/>
<path d="M43.8255 71.2047H43.4727" stroke="#6593AE" stroke-width="0.5" stroke-miterlimit="10"/>
<path d="M42.7683 71.2047H29.0412C26.1123 71.2047 23.748 73.5676 23.748 76.4948V82.7019" stroke="#6593AE" stroke-width="0.5" stroke-miterlimit="10" stroke-dasharray="2.03 2.03"/>
<path d="M23.7129 83.0898V83.4425" stroke="#6593AE" stroke-width="0.5" stroke-miterlimit="10"/>
<path d="M39.6995 114.831H51.768C53.2501 114.831 54.4499 113.631 54.4499 112.15V100.089C54.4499 98.6075 53.2501 97.4084 51.768 97.4084H39.6995C38.2174 97.4084 37.0176 98.6075 37.0176 100.089V112.15C37.0529 113.631 38.2527 114.831 39.6995 114.831Z" fill="#D3E0E9"/>
<path d="M47.6754 104.215H44.2172C43.8643 104.215 43.582 104.497 43.582 104.85V107.989C43.582 108.341 43.8643 108.623 44.2172 108.623H47.6754C48.0283 108.623 48.3106 108.341 48.3106 107.989V104.85C48.3459 104.532 48.0283 104.215 47.6754 104.215ZM46.2992 107.46H45.6287L45.7699 106.296C45.6287 106.225 45.5229 106.049 45.5229 105.908C45.5229 105.661 45.7346 105.449 45.9816 105.449C46.2286 105.449 46.4404 105.661 46.4404 105.908C46.4404 106.084 46.3345 106.26 46.1933 106.331L46.2992 107.46Z" fill="url(#paint20_linear_1066_855)"/>
<path d="M47.7793 103.827H47.4264C47.4264 103.016 46.756 102.346 45.9444 102.346C45.1327 102.346 44.4623 103.016 44.4623 103.827H44.1094C44.1094 102.84 44.921 102.028 45.9091 102.028C46.8971 102.028 47.7793 102.84 47.7793 103.827Z" fill="url(#paint21_linear_1066_855)"/>
<path d="M71.6348 35.7258C69.0588 35.7258 66.9062 33.6098 66.9062 31C66.9062 28.4255 69.0235 26.2742 71.6348 26.2742C74.2109 26.2742 76.3634 28.3902 76.3634 31C76.3634 33.6098 74.2462 35.7258 71.6348 35.7258Z" stroke="white" stroke-width="0.6391" stroke-miterlimit="10" stroke-linecap="round" stroke-linejoin="round"/>
<path d="M81.7966 42.6382C81.7966 39.8168 79.5029 37.5244 76.6798 37.5244H66.5875C63.7644 37.5244 61.4707 39.8168 61.4707 42.6382" stroke="white" stroke-width="0.6391" stroke-miterlimit="10" stroke-linecap="round" stroke-linejoin="round"/>
<defs>
<linearGradient id="paint0_linear_1066_855" x1="105.653" y1="6.83415" x2="105.653" y2="33.574" gradientUnits="userSpaceOnUse">
<stop offset="0.0704418" stop-color="#EC6675"/>
<stop offset="0.5979" stop-color="#F6A66A"/>
<stop offset="1" stop-color="#F4B432"/>
</linearGradient>
<linearGradient id="paint1_linear_1066_855" x1="16.7595" y1="51.1218" x2="43.515" y2="51.1218" gradientUnits="userSpaceOnUse">
<stop offset="0.0704418" stop-color="#EC6675"/>
<stop offset="0.5979" stop-color="#F6A66A"/>
<stop offset="1" stop-color="#F4B432"/>
</linearGradient>
<linearGradient id="paint2_linear_1066_855" x1="113.956" y1="121.157" x2="69.7342" y2="38.6762" gradientUnits="userSpaceOnUse">
<stop offset="0.0704418" stop-color="#EC6675"/>
<stop offset="0.3148" stop-color="#F6A66A"/>
<stop offset="0.7489" stop-color="#F4B432" stop-opacity="0"/>
</linearGradient>
<linearGradient id="paint3_linear_1066_855" x1="42.8587" y1="59.2929" x2="101.525" y2="59.2929" gradientUnits="userSpaceOnUse">
<stop stop-color="#3D7EA0"/>
<stop offset="1" stop-color="#015A85"/>
</linearGradient>
<linearGradient id="paint4_linear_1066_855" x1="72.1978" y1="10.5802" x2="48.5437" y2="62.5036" gradientUnits="userSpaceOnUse">
<stop offset="0.178286" stop-color="#F4AF45"/>
<stop offset="1" stop-color="#EC6675"/>
</linearGradient>
<linearGradient id="paint5_linear_1066_855" x1="27.7642" y1="50.6873" x2="42.043" y2="25.9412" gradientUnits="userSpaceOnUse">
<stop stop-color="#3D7EA0"/>
<stop offset="1" stop-color="#015A85"/>
</linearGradient>
<linearGradient id="paint6_linear_1066_855" x1="68.6436" y1="105.715" x2="74.0178" y2="96.4015" gradientUnits="userSpaceOnUse">
<stop stop-color="#3D7EA0"/>
<stop offset="1" stop-color="#015A85"/>
</linearGradient>
<linearGradient id="paint7_linear_1066_855" x1="75.6482" y1="101.06" x2="67.0179" y2="101.06" gradientUnits="userSpaceOnUse">
<stop stop-color="#015A85"/>
<stop offset="1" stop-color="#216C94"/>
</linearGradient>
<linearGradient id="paint8_linear_1066_855" x1="30.7331" y1="18.2596" x2="36.1073" y2="8.94578" gradientUnits="userSpaceOnUse">
<stop stop-color="#3D7EA0"/>
<stop offset="1" stop-color="#015A85"/>
</linearGradient>
<linearGradient id="paint9_linear_1066_855" x1="37.7377" y1="13.604" x2="29.1075" y2="13.604" gradientUnits="userSpaceOnUse">
<stop stop-color="#015A85"/>
<stop offset="1" stop-color="#216C94"/>
</linearGradient>
<linearGradient id="paint10_linear_1066_855" x1="89.3669" y1="66.6025" x2="116.614" y2="66.6025" gradientUnits="userSpaceOnUse">
<stop stop-color="#3D7EA0"/>
<stop offset="1" stop-color="#015A85"/>
</linearGradient>
<linearGradient id="paint11_linear_1066_855" x1="98.3468" y1="63.0201" x2="107.444" y2="78.7856" gradientUnits="userSpaceOnUse">
<stop stop-color="#3D7EA0"/>
<stop offset="1" stop-color="#015A85"/>
</linearGradient>
<linearGradient id="paint12_linear_1066_855" x1="94.848" y1="58.6226" x2="96.4859" y2="61.4612" gradientUnits="userSpaceOnUse">
<stop stop-color="#3D7EA0"/>
<stop offset="1" stop-color="#015A85"/>
</linearGradient>
<linearGradient id="paint13_linear_1066_855" x1="4.96215" y1="86.2144" x2="133.336" y2="92.9044" gradientUnits="userSpaceOnUse">
<stop offset="0.0704418" stop-color="#EC6675"/>
<stop offset="0.3148" stop-color="#F6A66A"/>
<stop offset="0.7489" stop-color="#F4B432" stop-opacity="0"/>
</linearGradient>
<linearGradient id="paint14_linear_1066_855" x1="4.76662" y1="89.966" x2="133.14" y2="96.656" gradientUnits="userSpaceOnUse">
<stop offset="0.0704418" stop-color="#EC6675"/>
<stop offset="0.3148" stop-color="#F6A66A"/>
<stop offset="0.7489" stop-color="#F4B432" stop-opacity="0"/>
</linearGradient>
<linearGradient id="paint15_linear_1066_855" x1="4.57112" y1="93.7177" x2="132.945" y2="100.408" gradientUnits="userSpaceOnUse">
<stop offset="0.0704418" stop-color="#EC6675"/>
<stop offset="0.3148" stop-color="#F6A66A"/>
<stop offset="0.7489" stop-color="#F4B432" stop-opacity="0"/>
</linearGradient>
<linearGradient id="paint16_linear_1066_855" x1="4.37559" y1="97.4694" x2="132.749" y2="104.159" gradientUnits="userSpaceOnUse">
<stop offset="0.0704418" stop-color="#EC6675"/>
<stop offset="0.3148" stop-color="#F6A66A"/>
<stop offset="0.7489" stop-color="#F4B432" stop-opacity="0"/>
</linearGradient>
<linearGradient id="paint17_linear_1066_855" x1="4.18009" y1="101.221" x2="132.554" y2="107.911" gradientUnits="userSpaceOnUse">
<stop offset="0.0704418" stop-color="#EC6675"/>
<stop offset="0.3148" stop-color="#F6A66A"/>
<stop offset="0.7489" stop-color="#F4B432" stop-opacity="0"/>
</linearGradient>
<linearGradient id="paint18_linear_1066_855" x1="3.96456" y1="105.357" x2="132.338" y2="112.047" gradientUnits="userSpaceOnUse">
<stop offset="0.0704418" stop-color="#EC6675"/>
<stop offset="0.3148" stop-color="#F6A66A"/>
<stop offset="0.7489" stop-color="#F4B432" stop-opacity="0"/>
</linearGradient>
<linearGradient id="paint19_linear_1066_855" x1="44.6078" y1="71.0394" x2="46.0193" y2="71.0394" gradientUnits="userSpaceOnUse">
<stop offset="0.1137" stop-color="#F6A66A"/>
<stop offset="1" stop-color="#F4B432"/>
</linearGradient>
<linearGradient id="paint20_linear_1066_855" x1="43.5719" y1="106.455" x2="48.3337" y2="106.455" gradientUnits="userSpaceOnUse">
<stop stop-color="#3D7EA0"/>
<stop offset="1" stop-color="#015A85"/>
</linearGradient>
<linearGradient id="paint21_linear_1066_855" x1="44.1369" y1="102.935" x2="47.7648" y2="102.935" gradientUnits="userSpaceOnUse">
<stop stop-color="#3D7EA0"/>
<stop offset="1" stop-color="#015A85"/>
</linearGradient>
</defs>
</svg>
