<svg width="17" height="17" viewBox="0 0 17 17" fill="none" xmlns="http://www.w3.org/2000/svg">
<path d="M16.07 8.04C16.07 12.47 12.44 16.07 8.02002 16.06C3.59002 16.06 -0.00997922 12.44 2.0783e-05 8.01C0.0100208 3.59 3.62002 0 8.04002 0C12.47 0 16.08 3.62 16.07 8.04ZM8.03002 1.25C4.30002 1.25 1.26002 4.29 1.25002 8.02C1.25002 11.75 4.30002 14.81 8.03002 14.81C11.76 14.81 14.8 11.77 14.81 8.04C14.81 4.31 11.76 1.25 8.03002 1.25Z" fill="#FFA739"/>
<path d="M9.07992 6.69001C9.07992 7.50001 9.07992 8.31001 9.07992 9.12001C9.07992 9.57001 8.75992 9.96001 8.33992 10.08C7.89992 10.21 7.41992 10.06 7.17992 9.67001C7.07992 9.50001 6.98992 9.28001 6.98992 9.09001C6.97992 7.49001 6.97992 5.90001 6.98992 4.30001C6.98992 3.72001 7.46992 3.26001 8.03992 3.26001C8.60992 3.26001 9.06992 3.72001 9.07992 4.30001C9.07992 5.09001 9.07992 5.89001 9.07992 6.68001V6.69001Z" fill="#FFA739"/>
<path d="M9.08023 11.76C9.08023 12.32 8.61023 12.8 8.04023 12.8C7.47023 12.8 6.99023 12.33 6.99023 11.75C6.99023 11.17 7.47023 10.71 8.05023 10.71C8.62023 10.71 9.08023 11.19 9.08023 11.75V11.76Z" fill="#FFA739"/>
</svg>
