<svg width="65" height="66" viewBox="0 0 65 66" fill="none" xmlns="http://www.w3.org/2000/svg">
<circle cx="32.5" cy="32.5" r="32.5" fill="#D9D9D9"/>
<path d="M8 65.6194C8 65.6194 8 65.434 8 65.3811C8 61.7256 8 58.0967 8 54.4413C8 53.4347 8.39733 52.693 9.08603 52.0043C10.1456 50.9448 11.417 50.1501 12.7415 49.4614C14.1983 48.6932 15.7082 48.0045 17.2445 47.4483C19.7609 46.5212 22.0919 45.2762 24.3964 43.9253C24.6613 43.7664 24.9527 43.6604 25.2441 43.6074C25.7209 43.5545 26.0387 43.8458 26.2771 44.2432C26.9923 45.5411 27.7075 46.839 28.4492 48.1105C29.2703 49.5409 30.0915 50.9713 31.151 52.2692C31.5484 52.7725 32.0251 53.2493 32.5284 53.6466C33.2436 54.2029 33.7734 54.1764 34.5151 53.6466C35.0713 53.2493 35.5216 52.746 35.919 52.1897C36.8461 50.9977 37.6142 49.7263 38.3559 48.4284C39.0711 47.1834 39.7598 45.9119 40.4485 44.667C40.528 44.508 40.6339 44.3491 40.7399 44.1902C41.1372 43.5015 41.6405 43.475 42.3292 43.7664C42.5411 43.8723 42.753 43.9783 42.9649 44.1107C44.4483 44.9054 45.9052 45.753 47.415 46.4947C48.3951 46.9715 49.4546 47.3158 50.4612 47.7132C52.1035 48.3489 53.6928 49.0906 55.2027 49.9912C56.3152 50.6534 57.4012 51.3951 58.2488 52.4281C58.7256 53.0109 58.964 53.6466 58.9375 54.3883C58.9375 58.0702 58.9375 61.7256 58.9375 65.4075C58.9375 65.6459 58.8316 65.6194 58.6727 65.6194C52.6333 65.6194 46.6204 65.6194 40.581 65.6194C30.0915 65.6194 19.602 65.6194 9.13901 65.6194H8Z" fill="white"/>
<path d="M33.9867 11C34.6489 11.0795 35.7879 11.1324 36.8739 11.3179C38.0129 11.5298 39.099 11.9006 40.1585 12.4569C41.2181 13.0396 42.1452 13.7548 42.8868 14.6819C43.9729 16.0063 44.6351 17.5162 44.8735 19.2115C44.9794 20.0591 44.9 20.9067 44.794 21.7544C44.6351 22.8404 44.4497 23.9529 44.2907 25.039C44.2907 25.1184 44.2907 25.1714 44.2378 25.2509C44.1848 25.4628 44.2378 25.5952 44.3967 25.7541C44.9 26.2044 45.1384 26.8137 45.1913 27.4494C45.2708 28.3765 45.1119 29.3036 44.8205 30.2042C44.6351 30.7605 44.2907 31.2373 43.7345 31.4757C42.9928 31.7671 42.6749 32.3233 42.516 33.065C42.0127 35.1841 40.7942 36.8793 39.1255 38.2303C38.5427 38.7071 37.907 39.1574 37.2448 39.4752C34.7548 40.6937 32.2384 40.7202 29.7485 39.4752C28.53 38.866 27.497 37.9919 26.5964 36.9588C25.9077 36.1642 25.3249 35.3165 24.9276 34.3364C24.7157 33.8596 24.6097 33.3299 24.4773 32.8531C24.4243 32.6942 24.3978 32.5617 24.3448 32.4028C24.2389 32.0849 24.0535 31.873 23.7621 31.7406C23.6296 31.6876 23.4972 31.6081 23.3648 31.5287C22.888 31.2903 22.5171 30.9194 22.3052 30.4426C21.9079 29.4361 21.7225 28.403 21.8549 27.317C21.9344 26.6812 22.2257 26.1515 22.7025 25.7012C22.7555 25.6482 22.8085 25.5157 22.8085 25.4363C22.6231 24.2178 22.4376 23.0258 22.2522 21.8073C22.1993 21.41 22.1463 21.0127 22.1198 20.5889C22.0138 18.4433 22.7025 16.5361 24.0005 14.8408C24.9276 13.6224 26.1196 12.7482 27.497 12.139C28.1062 11.8476 28.7684 11.6887 29.4041 11.5033C30.7816 11.106 32.1854 11.053 34.0396 11H33.9867Z" fill="white"/>
</svg>
