<svg width="179" height="176" viewBox="0 0 179 176" fill="none" xmlns="http://www.w3.org/2000/svg">
<g style="mix-blend-mode:multiply">
<path opacity="0.02" d="M56.7945 34.6851L100.504 56.4902L114.87 64.6898L165.952 93.868L172.978 97.8852L122.689 132.535C118.904 134.767 113.514 135.197 109.728 132.982L76.1694 116.202L58.1336 105.919L8.19174 77.4687L6.52209 76.5099C3.94317 75.0055 3.49682 71.038 6.05921 69.5336L56.8111 34.6851H56.7945Z" fill="#235E83"/>
<path opacity="0.03" d="M52.6939 37.7103L95.6759 55.9446L109.81 64.0119L160.099 92.7272L167.01 96.6782L124.871 130.7C121.399 132.734 115.696 133.593 112.224 131.576L79.3097 117.491L61.6044 107.407L12.5719 79.4689L10.9352 78.5266C8.57119 77.1545 7.66198 73.2365 10.026 71.8479L52.7269 37.7268L52.6939 37.7103Z" fill="#245E83"/>
<path opacity="0.05" d="M48.5951 40.7355L90.8497 55.3989L104.753 63.3341L154.232 91.5865L161.026 95.4714L127.021 128.865C123.863 130.717 117.846 131.99 114.688 130.155L82.4021 118.764L65.0274 108.862L16.9041 81.4361L15.3006 80.5104C13.1515 79.2705 11.7959 75.4021 13.9284 74.1457L48.562 40.7355H48.5951Z" fill="#255D84"/>
<path opacity="0.06" d="M44.4941 43.7444L86.0213 54.837L99.7094 62.6565L148.395 90.446L155.09 94.2648L129.235 127.014C126.391 128.683 120.06 130.386 117.216 128.717L85.5749 120.021L68.5309 110.3L21.3168 83.387L19.7463 82.4943C17.8121 81.3702 16.0102 77.5679 17.9279 76.4272L44.4941 43.7444Z" fill="#265D85"/>
<path opacity="0.08" d="M40.3953 46.7696L81.2116 54.2749L94.6683 61.9621L142.56 89.2887L149.14 93.0414L131.434 125.162C128.905 126.65 122.276 128.766 119.747 127.295L88.7501 121.294L72.0366 111.772L25.7317 85.3873L24.1944 84.5111C22.4751 83.5192 20.2267 79.75 21.9295 78.7416L40.4283 46.7696H40.3953Z" fill="#275C85"/>
<path opacity="0.09" d="M36.2936 49.7783L76.3826 53.7128L89.6079 61.2677L136.69 88.148L143.154 91.8345L133.598 123.327C131.4 124.633 124.44 127.162 122.225 125.873L91.8561 122.567L75.4734 113.226L30.0613 87.3545L28.5569 86.4948C27.0525 85.6186 24.3413 81.9156 25.8457 81.0394L36.2936 49.7948V49.7783Z" fill="#285C86"/>
<path opacity="0.11" d="M32.1958 52.8036L71.5574 53.1673L84.5677 60.59L130.856 87.0074L137.204 90.6278L135.799 121.476C133.914 122.583 126.64 125.559 124.739 124.451L95.0156 123.84L78.9635 114.698L34.4606 89.3383L32.9893 88.4952C31.6998 87.7513 28.5423 84.0978 29.8318 83.3374L32.2123 52.8036H32.1958Z" fill="#285B87"/>
<path opacity="0.12" d="M28.0966 55.8289L66.7308 52.6218L79.5097 59.9122L125.005 85.8667L131.237 89.421L137.965 119.641C136.395 120.566 128.807 123.955 127.22 123.03L98.1242 125.113L82.4027 116.152L38.809 91.3056L37.3708 90.479C36.2962 89.8508 32.6924 86.2634 33.7669 85.6187L28.0801 55.8123L28.0966 55.8289Z" fill="#295B88"/>
<path opacity="0.14" d="M23.9951 58.8378L61.9019 52.0598L74.466 59.2179L119.151 84.7096L125.284 88.1977L140.162 117.789C138.906 118.533 131.004 122.335 129.747 121.608L101.297 126.386L85.9058 117.607L43.2213 93.2895L41.8162 92.4794C40.9565 91.9835 36.9063 88.4292 37.7494 87.9332L23.9951 58.8378Z" fill="#2A5A88"/>
<path opacity="0.15" d="M19.8955 61.8628L57.0749 51.514L69.4075 58.5399L113.299 83.5687L119.316 87.0073L142.345 115.971C141.402 116.533 133.186 120.748 132.244 120.203L104.421 127.675L89.3611 119.095L47.5858 95.2896L46.2137 94.5126C45.569 94.1324 41.0724 90.6442 41.7006 90.264L19.8955 61.8958V61.8628Z" fill="#2B5A89"/>
<path opacity="0.17" d="M15.8125 64.8716L52.2646 50.9355L64.3657 57.8457L107.463 82.4116L113.365 85.784L144.544 114.103C143.915 114.466 135.385 119.128 134.757 118.748L107.579 128.915L92.8495 120.517L51.9835 97.2239L50.6444 96.4634C50.2146 96.2154 45.2551 92.7769 45.685 92.5124L15.8125 64.8551V64.8716Z" fill="#2C598A"/>
<path opacity="0.18" d="M11.7119 67.897L47.4531 50.3901L59.3393 57.168L101.627 81.2875L107.413 84.5938L146.742 112.284C146.427 112.466 137.6 117.541 137.269 117.359L110.736 130.221L96.3369 122.005L56.3802 99.2243L55.0741 98.4803C54.8592 98.3481 49.4535 94.9591 49.6684 94.8434L11.7285 67.9135L11.7119 67.897Z" fill="#2D598A"/>
<path opacity="0.2" d="M7.61426 70.9221L60.7467 101.191L113.862 131.477L148.926 110.432L95.777 80.1301L42.6115 49.8444L7.61426 70.9221Z" fill="#2E588B"/>
</g>
<path d="M113.249 133.395L151.172 111.375V87.2553L113.249 109.275V133.395Z" fill="url(#paint0_linear_848_14416)"/>
<path d="M7.06836 72.8066L113.284 133.395V109.275L7.06836 48.7202V72.8066Z" fill="url(#paint1_linear_848_14416)"/>
<path d="M7.06836 48.7202L113.284 109.275L151.174 87.2553L44.9256 26.6837L7.06836 48.7202Z" fill="url(#paint2_linear_848_14416)"/>
<path style="mix-blend-mode:multiply" d="M56.1822 78.2292C70.4982 78.2292 82.1036 72.8187 82.1036 66.1446C82.1036 59.4705 70.4982 54.0601 56.1822 54.0601C41.8662 54.0601 30.2607 59.4705 30.2607 66.1446C30.2607 72.8187 41.8662 78.2292 56.1822 78.2292Z" fill="url(#paint3_radial_848_14416)"/>
<g opacity="0.5">
<path opacity="0.05" d="M45.685 74.6418C45.9495 74.7905 45.7182 80.279 45.4206 85.784C45.123 91.289 44.7428 96.8271 44.7263 97.0916C44.7263 97.6536 44.3791 98.1827 43.7509 98.5463L40.3785 100.431L39.618 100.861C39.6015 100.861 35.4851 103.159 35.4686 103.159C35.0057 103.423 34.4271 103.572 33.8485 103.572C33.8154 103.572 33.7989 103.572 33.7659 103.572C33.2369 103.572 32.7408 103.44 32.3606 103.225L30.9389 102.316C30.4265 102.018 30.1289 101.555 30.1289 101.043C30.1289 100.481 30.4761 99.9515 31.0878 99.5878C31.0878 99.5878 36.6093 95.4384 36.6423 95.4219L37.816 94.5457C38.2954 94.2647 38.9071 94.1159 39.5188 94.1159C39.6676 94.1159 39.9651 92.5123 40.2957 90.231C40.5768 88.3464 40.9075 85.9658 41.2216 83.6184C41.6018 80.8576 41.982 78.1133 42.263 76.1626C42.5275 74.4103 42.7259 73.2861 42.8086 73.3357L45.7016 74.6748L45.685 74.6418Z" fill="#5494BA"/>
<path opacity="0.1" d="M45.1894 75.9148C45.4539 76.0635 45.239 81.2875 44.9579 86.528C44.6769 91.7685 44.2967 97.0421 44.2802 97.3066C44.2471 97.8521 43.933 98.348 43.3544 98.6787L40.0976 100.497C40.0976 100.497 39.3703 100.91 39.3538 100.91C39.3042 100.927 35.3696 103.109 35.3365 103.093C34.8902 103.341 34.3282 103.473 33.7661 103.489C33.7331 103.489 33.7165 103.489 33.6834 103.489C33.1874 103.489 32.6916 103.357 32.3279 103.159L30.9557 102.283C30.4598 102.002 30.1787 101.555 30.1787 101.059C30.1787 100.514 30.4929 100.001 31.0715 99.6706C31.0715 99.6375 36.3285 95.6865 36.3616 95.67L37.4857 94.8269C37.9486 94.5623 38.5437 94.4136 39.1223 94.4136C39.2546 94.4136 39.5686 92.8761 39.8993 90.7105C40.1803 88.9086 40.5109 86.6438 40.8416 84.412C41.2218 81.8 41.6186 79.188 41.8831 77.3365C42.131 75.6668 42.346 74.6088 42.4286 74.6583L45.2059 75.9478L45.1894 75.9148Z" fill="#5291B7"/>
<path opacity="0.14" d="M44.6935 77.2042C44.958 77.353 44.7596 82.3125 44.4951 87.2885C44.2141 92.2645 43.8504 97.2735 43.8338 97.538C43.7842 98.0505 43.5032 98.5299 42.9412 98.844L39.7836 100.596L39.0727 100.993C39.0066 101.026 35.254 103.093 35.1713 103.076C34.7415 103.308 34.196 103.423 33.6504 103.44C33.6174 103.44 33.6009 103.44 33.5678 103.44C33.0884 103.44 32.5924 103.308 32.2618 103.109L30.9393 102.266C30.4764 102.002 30.1953 101.572 30.1953 101.092C30.1953 100.58 30.4929 100.084 31.0384 99.7533C31.0384 99.7037 36.0144 95.951 36.0805 95.9179L37.1551 95.1244C37.5849 94.8764 38.1636 94.7111 38.7091 94.7111C38.8413 94.7111 39.1554 93.2398 39.4695 91.1899C39.734 89.4706 40.0977 87.3215 40.4283 85.2055C40.8086 82.7258 41.2219 80.2626 41.4864 78.5102C41.7344 76.9232 41.9493 75.9313 42.032 75.9809L44.677 77.2042H44.6935Z" fill="#508EB5"/>
<path opacity="0.19" d="M44.1968 78.4936C44.4613 78.6424 44.2794 83.3374 44.0314 88.0489C43.7669 92.7604 43.4033 97.5049 43.3868 97.7529C43.3372 98.2323 43.0727 98.6952 42.5437 98.9927L39.5018 100.679C39.5018 100.679 38.8241 101.059 38.8075 101.059C38.7083 101.092 35.1375 103.043 35.0383 103.026C34.6085 103.241 34.096 103.357 33.5835 103.357C33.567 103.357 33.5339 103.357 33.5174 103.357C33.0711 103.357 32.5751 103.225 32.261 103.026L30.9881 102.216C30.5418 101.952 30.2773 101.555 30.2607 101.109C30.2607 100.613 30.5417 100.15 31.0542 99.8359C31.0377 99.7697 35.7658 96.1989 35.8484 96.1493L36.8734 95.3889C37.2866 95.1574 37.8487 94.9921 38.3611 94.9921C38.4769 94.9921 38.8075 93.587 39.1216 91.6362C39.3861 89.9996 39.7499 87.9662 40.0805 85.9659C40.4607 83.6184 40.8739 81.304 41.1384 79.6674C41.3864 78.1795 41.6013 77.2538 41.6674 77.2869L44.1968 78.4606V78.4936Z" fill="#4E8BB3"/>
<path opacity="0.24" d="M43.7018 79.7665C43.9663 79.9153 43.8175 84.3457 43.5696 88.7927C43.3216 93.2397 42.9744 97.7197 42.9413 97.9677C42.8752 98.4306 42.6438 98.8604 42.1313 99.1414L39.2052 100.762C39.2052 100.762 38.5604 101.125 38.5439 101.125C38.4282 101.175 35.0228 103.01 34.907 102.993C34.4938 103.192 33.9977 103.291 33.5018 103.291C33.4853 103.291 33.4522 103.291 33.4357 103.291C33.0059 103.291 32.5265 103.142 32.2289 102.977L30.9891 102.2C30.5593 101.952 30.3112 101.572 30.2947 101.142C30.2781 100.679 30.5427 100.232 31.0221 99.9349C31.0055 99.8688 35.4525 96.4798 35.5682 96.4137L36.5602 95.6863C36.9404 95.4714 37.4859 95.3061 37.9819 95.3061C38.0976 95.3061 38.4283 93.967 38.7258 92.132C38.9903 90.5781 39.354 88.6604 39.7011 86.7758C40.0979 84.5606 40.5112 82.3949 40.7757 80.8575C41.0072 79.4523 41.2386 78.5927 41.3047 78.6423L43.7183 79.7665H43.7018Z" fill="#4C88B0"/>
<path opacity="0.29" d="M43.206 81.0562C43.4705 81.205 43.3383 85.3709 43.1068 89.5534C42.8754 93.7359 42.5282 97.9349 42.4786 98.1994C42.4125 98.6292 42.1977 99.0425 41.7182 99.307L38.9079 100.861C38.9079 100.861 38.2962 101.208 38.2631 101.208C38.1308 101.258 34.8907 102.994 34.7584 102.96C34.3617 103.142 33.8823 103.225 33.4194 103.225C33.4028 103.225 33.3698 103.225 33.3533 103.225C32.9565 103.225 32.4771 103.076 32.1961 102.911L31.0057 102.167C30.5924 101.936 30.3611 101.572 30.3445 101.159C30.328 100.712 30.5759 100.299 31.0223 100.001C30.9892 99.9187 35.1883 96.7281 35.3205 96.6454L36.2628 95.9676C36.6265 95.7527 37.1555 95.6039 37.6183 95.6039C37.7341 95.6039 38.0647 94.331 38.3623 92.6117C38.6103 91.1404 39.0071 89.3385 39.3377 87.5696C39.7344 85.4866 40.1642 83.4698 40.4287 82.0315C40.6602 80.7256 40.8751 79.9155 40.9578 79.9651L43.2391 81.0231L43.206 81.0562Z" fill="#4B85AE"/>
<path opacity="0.33" d="M42.7095 82.3455C42.974 82.4943 42.8583 86.3957 42.6434 90.3136C42.4285 94.2316 42.0813 98.1661 42.0317 98.4306C41.9491 98.8274 41.7507 99.2076 41.3043 99.4721L38.6097 100.96C38.6097 100.96 38.0311 101.291 37.998 101.291C37.8327 101.357 34.7909 102.977 34.6255 102.944C34.2453 103.109 33.799 103.192 33.3361 103.175C33.3196 103.175 33.303 103.175 33.2699 103.175C32.9062 103.175 32.4269 103.026 32.1624 102.878L31.0217 102.167C30.6414 101.952 30.41 101.605 30.3935 101.224C30.3769 100.811 30.5919 100.414 31.0217 100.133C30.9886 100.034 34.9231 97.0255 35.0719 96.9428L35.9646 96.2981C36.2952 96.0997 36.8077 95.9509 37.2375 95.9509C37.3367 95.9509 37.6839 94.7276 37.9649 93.1406C38.2129 91.7519 38.6096 90.0657 38.9568 88.4125C39.3535 86.4783 39.8 84.5937 40.0479 83.2547C40.2794 82.0313 40.4943 81.304 40.5604 81.337L42.726 82.3455H42.7095Z" fill="#4982AC"/>
<path opacity="0.38" d="M42.2132 83.6351C42.4777 83.7838 42.3785 87.4207 42.1801 91.0907C41.9817 94.7442 41.6842 98.4307 41.585 98.6787C41.5684 99.0589 41.3205 99.4062 40.9072 99.6541L38.3118 101.076C38.3118 101.076 37.7496 101.39 37.7165 101.406C37.5347 101.489 34.6583 102.993 34.4764 102.944C34.1127 103.093 33.6829 103.159 33.2366 103.159C33.22 103.159 33.2035 103.159 33.1869 103.159C32.8398 103.159 32.377 103.01 32.129 102.861L31.0378 102.183C30.6741 101.969 30.4592 101.654 30.4262 101.291C30.3931 100.894 30.6081 100.53 30.9883 100.266C30.9552 100.15 34.6087 97.3397 34.7905 97.2405L35.6337 96.6288C35.9478 96.447 36.4437 96.2982 36.8404 96.2982C36.9396 96.2982 37.2868 95.141 37.5678 93.6697C37.8158 92.3637 38.2125 90.7932 38.5597 89.2558C38.9564 87.4538 39.4194 85.718 39.6674 84.4947C39.8823 83.354 40.1137 82.6927 40.1798 82.7258L42.2297 83.6847L42.2132 83.6351Z" fill="#477FA9"/>
<path opacity="0.43" d="M41.7344 84.9078C41.9989 85.0566 41.9162 88.429 41.7344 91.8345C41.5525 95.2235 41.2714 98.6455 41.1557 98.877C41.1392 99.2241 40.9077 99.5548 40.5109 99.7862L38.0312 101.142C38.0312 101.142 37.5023 101.439 37.4692 101.456C37.2543 101.539 34.5596 102.927 34.3447 102.894C33.9975 103.043 33.5842 103.076 33.1709 103.076C33.1544 103.076 33.1379 103.076 33.1214 103.076C32.8073 103.076 32.3444 102.911 32.113 102.778L31.0715 102.134C30.7243 101.935 30.5259 101.638 30.4928 101.291C30.4598 100.927 30.6581 100.563 31.0053 100.315C30.9557 100.183 34.3612 97.5544 34.5431 97.4387L35.3366 96.8766C35.6176 96.7113 36.1135 96.5625 36.4772 96.5625C36.5599 96.5625 36.9237 95.4715 37.1882 94.1159C37.4196 92.8926 37.8494 91.4378 38.1966 90.0161C38.6099 88.3464 39.0727 86.7428 39.3042 85.6352C39.5191 84.5937 39.7505 83.9986 39.8001 84.0316L41.7178 84.9409L41.7344 84.9078Z" fill="#457CA7"/>
<path opacity="0.48" d="M41.238 86.1974C41.5025 86.3461 41.4365 89.4541 41.2711 92.5951C41.1058 95.7195 40.8413 98.8771 40.709 99.1085C40.6925 99.4391 40.4776 99.7367 40.1139 99.9516L37.7499 101.241C37.7499 101.241 37.2539 101.522 37.2043 101.539C36.9729 101.638 34.4436 102.911 34.2121 102.861C33.865 102.993 33.4848 103.026 33.088 103.01C33.088 103.01 33.055 103.01 33.0385 103.01C32.7409 103.01 32.2945 102.845 32.0796 102.729L31.0712 102.117C30.7406 101.935 30.5587 101.654 30.5256 101.34C30.4926 100.993 30.6579 100.662 30.9886 100.431C30.939 100.282 34.0634 97.8521 34.2783 97.7199L35.0223 97.1908C35.2868 97.042 35.7496 96.8933 36.0802 96.8933C36.1629 96.8933 36.5265 95.8683 36.7911 94.6119C37.0225 93.4712 37.4524 92.1322 37.7996 90.8262C38.2128 89.2887 38.6922 87.834 38.9237 86.8256C39.1386 85.8667 39.37 85.3377 39.4196 85.3708L41.2216 86.2139L41.238 86.1974Z" fill="#4379A5"/>
<path opacity="0.52" d="M40.7427 87.4868C41.0072 87.6356 40.9576 90.4956 40.8089 93.3555C40.6601 96.2155 40.3955 99.1085 40.2467 99.34C40.2302 99.6375 40.0153 99.9186 39.6846 100.117L37.4364 101.34C37.4364 101.34 36.9735 101.605 36.9239 101.621C36.6759 101.72 34.3285 102.894 34.064 102.845C33.7333 102.96 33.3696 102.977 33.0059 102.96C33.0059 102.96 32.9729 102.96 32.9564 102.96C32.6919 102.96 32.2454 102.795 32.0471 102.679L31.0883 102.101C30.7907 101.919 30.6089 101.671 30.5758 101.373C30.5428 101.059 30.6915 100.745 30.9726 100.53C30.923 100.365 33.7829 98.1166 34.0143 97.9844L34.7087 97.4884C34.9567 97.3562 35.403 97.2074 35.7006 97.2074C35.7667 97.2074 36.1469 96.2486 36.3949 95.1079C36.6263 94.0499 37.0561 92.8265 37.4198 91.6363C37.8331 90.2476 38.329 88.9251 38.544 88.0159C38.7589 87.1562 38.9904 86.6768 39.04 86.7099L40.7261 87.5034L40.7427 87.4868Z" fill="#4176A2"/>
<path opacity="0.57" d="M40.2461 88.7596C40.5106 88.9083 40.4775 91.5038 40.3453 94.0993C40.213 96.6947 39.965 99.3232 39.7997 99.5547C39.7666 99.8192 39.5848 100.084 39.2872 100.249L37.1547 101.406C37.1547 101.406 36.7249 101.654 36.6753 101.671C36.3943 101.786 34.2286 102.844 33.9476 102.778C33.6335 102.878 33.2863 102.877 32.9392 102.861H32.9061C32.6746 102.861 32.2117 102.696 32.0464 102.597L31.1372 102.051C30.8561 101.886 30.6908 101.654 30.6413 101.373C30.6082 101.076 30.7239 100.795 30.9885 100.58C30.9223 100.398 33.5178 98.3479 33.7823 98.1991L34.4269 97.7527C34.6418 97.6205 35.0717 97.4882 35.3527 97.4882C35.4188 97.4882 35.8157 96.5956 36.0471 95.5706C36.2785 94.5456 36.7249 93.4876 37.072 92.4131C37.4853 91.1567 37.9978 89.9994 38.2127 89.1894C38.4276 88.3793 38.659 88.0157 38.6921 88.0322L40.2626 88.7761L40.2461 88.7596Z" fill="#3F73A0"/>
<path opacity="0.62" d="M39.7512 90.0493C40.0157 90.1981 40.0156 92.529 39.8834 94.86C39.7677 97.1909 39.5198 99.5549 39.3545 99.7698C39.3214 100.018 39.156 100.249 38.875 100.398L36.8582 101.489C36.8582 101.489 36.4448 101.721 36.3952 101.737C36.0977 101.853 34.0973 102.812 33.7998 102.746C33.5022 102.828 33.1717 102.828 32.841 102.812C32.841 102.812 32.8245 102.812 32.8079 102.812C32.593 102.812 32.1467 102.63 31.9979 102.547L31.1382 102.035C30.8737 101.886 30.7085 101.654 30.6754 101.423C30.6258 101.158 30.7415 100.894 30.973 100.696C30.9068 100.497 33.2377 98.6292 33.5188 98.4804L34.1139 98.0671C34.3123 97.9514 34.7256 97.8026 34.9736 97.8026C35.0397 97.8026 35.4364 96.9595 35.6513 96.0668C35.8662 95.1741 36.3291 94.1822 36.6928 93.2234C37.1226 92.0992 37.6186 91.0908 37.8335 90.3799C38.0484 89.6691 38.2799 89.355 38.313 89.3715L39.7512 90.0493Z" fill="#3D709E"/>
<path opacity="0.67" d="M39.255 91.3386C39.5195 91.4874 39.536 93.5538 39.4202 95.6202C39.3045 97.6867 39.0896 99.7862 38.9078 100.001C38.8747 100.216 38.7259 100.431 38.4779 100.563L36.5603 101.572C36.5603 101.572 36.1801 101.786 36.1305 101.803C35.7999 101.935 33.9814 102.778 33.6673 102.712C33.3863 102.778 33.0721 102.762 32.7745 102.745C32.7745 102.745 32.7581 102.745 32.7415 102.745C32.5597 102.745 32.1133 102.563 31.981 102.481L31.1545 102.001C30.923 101.869 30.7577 101.654 30.7246 101.439C30.675 101.191 30.7743 100.96 30.9561 100.778C30.89 100.58 32.9399 98.8935 33.254 98.7116L33.816 98.3314C33.9813 98.2322 34.3782 98.0834 34.5931 98.0834C34.6427 98.0834 35.0559 97.3064 35.2708 96.5295C35.4857 95.7525 35.9486 94.8432 36.3123 94.0001C36.7421 93.0082 37.1554 92.099 37.4695 91.537C37.5522 90.9253 37.9158 90.6773 37.9324 90.6938L39.255 91.322V91.3386Z" fill="#3B6D9B"/>
<path opacity="0.71" d="M38.7585 92.6117C39.023 92.7605 39.056 94.5624 38.9568 96.3643C38.8577 98.1663 38.6593 100.001 38.4609 100.216C38.4279 100.415 38.2956 100.58 38.0642 100.712L36.2623 101.654C36.2623 101.654 35.9151 101.853 35.849 101.869C35.5018 102.018 33.8652 102.729 33.5015 102.663C33.237 102.712 32.9394 102.679 32.6583 102.663C32.6583 102.663 32.6419 102.663 32.6253 102.663C32.46 102.663 32.0302 102.481 31.9145 102.415L31.1375 101.952C30.9226 101.82 30.7738 101.638 30.7407 101.44C30.6911 101.225 30.7572 101.01 30.9225 100.844C30.8564 100.63 32.6418 99.1416 32.9724 98.9432L33.4849 98.6126C33.6337 98.53 34.014 98.3812 34.1959 98.3812C34.2455 98.3812 34.6752 97.6703 34.8571 97.0091C35.072 96.2817 35.5514 95.5213 35.9151 94.7939C36.3449 93.9508 36.7582 93.1738 37.0723 92.7109C37.155 92.1819 37.5021 92 37.5352 92.0165L38.742 92.5951L38.7585 92.6117Z" fill="#396A99"/>
<path opacity="0.76" d="M38.2627 93.9011C38.5272 94.0499 38.5768 95.5874 38.4942 97.1248C38.4115 98.6622 38.2131 100.233 37.9982 100.448C37.9652 100.613 37.8329 100.762 37.651 100.877L35.9648 101.754C35.9648 101.754 35.6507 101.919 35.5846 101.952C35.2209 102.101 33.7496 102.712 33.3694 102.646C33.1214 102.679 32.8404 102.646 32.5924 102.613C32.5924 102.613 32.5924 102.613 32.5758 102.613C32.4436 102.613 32.0138 102.431 31.9146 102.365L31.1872 101.935C30.9889 101.82 30.8565 101.654 30.8069 101.489C30.7574 101.291 30.807 101.092 30.9392 100.944C30.8566 100.712 32.3775 99.4061 32.7247 99.2077L33.1875 98.9102C33.3032 98.8441 33.6669 98.6953 33.8322 98.6953C33.8653 98.6953 34.3117 98.0505 34.4935 97.505C34.7085 96.8437 35.1878 96.2156 35.568 95.6039C35.9979 94.893 36.4277 94.2648 36.7418 93.9011C36.8079 93.4548 37.1716 93.339 37.2046 93.3556L38.2792 93.8681L38.2627 93.9011Z" fill="#386797"/>
<path opacity="0.81" d="M37.7653 95.1906C38.0298 95.3559 38.0959 96.6123 38.0298 97.8852C37.9637 99.1581 37.7819 100.464 37.5504 100.679C37.5174 100.811 37.4016 100.944 37.2363 101.043L35.6658 101.853C35.6658 101.853 35.3848 102.002 35.3022 102.035C34.9054 102.2 33.6159 102.696 33.2192 102.613C32.9712 102.63 32.7397 102.58 32.4918 102.547C32.4918 102.547 32.4918 102.547 32.4752 102.547C32.376 102.547 31.9462 102.349 31.8636 102.316L31.1858 101.919C31.004 101.82 30.8882 101.671 30.8386 101.522C30.789 101.357 30.8055 101.175 30.9047 101.043C30.822 100.795 32.0784 99.6871 32.4421 99.4722L32.8554 99.2077C32.9546 99.1581 33.3018 99.0093 33.4175 99.0093C33.4506 99.0093 33.9962 98.4473 34.0623 97.9844C34.3764 97.4554 34.7566 96.8933 35.1368 96.3974C35.5666 95.8188 35.9965 95.3228 36.3106 95.0914C36.3601 94.7442 36.7404 94.6946 36.7569 94.6946L37.7157 95.1575L37.7653 95.1906Z" fill="#366494"/>
<path opacity="0.86" d="M37.2701 96.4798C37.5346 96.6452 37.6173 97.637 37.5677 98.6455C37.5181 99.6704 37.3362 100.695 37.1048 100.894C37.0717 101.01 36.9725 101.109 36.8403 101.191L35.3855 101.935C35.3855 101.935 35.121 102.067 35.0549 102.101C34.6416 102.266 33.5174 102.663 33.1041 102.58C32.8727 102.58 32.6578 102.514 32.4264 102.481C32.3437 102.481 31.9304 102.282 31.8643 102.249L31.2361 101.886C31.0873 101.803 30.9716 101.671 30.922 101.538C30.8558 101.39 30.8724 101.241 30.9385 101.125C30.8559 100.861 31.8313 99.9349 32.228 99.72L32.5917 99.5051C32.5917 99.5051 33.0049 99.3233 33.0876 99.3233C33.1041 99.3233 33.6828 98.8273 33.7324 98.4801C34.0465 98.0338 34.4432 97.5875 34.8234 97.2072C35.2697 96.7609 35.6996 96.4137 36.0137 96.2815C36.0468 96.017 36.4436 96.0335 36.4601 96.05L37.3031 96.4633L37.2701 96.4798Z" fill="#346192"/>
<path opacity="0.9" d="M36.7753 97.7529C37.0398 97.9182 37.1389 98.6456 37.1059 99.406C37.0728 100.166 36.9075 100.927 36.6596 101.125C36.6265 101.208 36.5438 101.291 36.4281 101.357L35.0891 102.035C35.0891 102.035 34.8576 102.15 34.775 102.183C34.3286 102.365 33.4029 102.646 32.9565 102.547C32.7416 102.547 32.5266 102.497 32.3448 102.431C32.2952 102.431 31.8819 102.233 31.8323 102.2L31.2372 101.869C31.1049 101.787 31.0058 101.687 30.9562 101.588C30.89 101.472 30.89 101.34 30.9231 101.224C30.8239 100.943 31.5513 100.216 31.9646 99.9681L32.2787 99.7863C32.2787 99.7863 32.6424 99.6209 32.7085 99.6209C32.7085 99.6209 33.3037 99.1911 33.3367 98.9597C33.6508 98.596 34.0475 98.2653 34.4278 98.0174C34.8741 97.7198 35.304 97.5049 35.6181 97.4719C35.6511 97.29 36.0478 97.3892 36.0644 97.3892L36.7753 97.7529Z" fill="#325E90"/>
<path opacity="0.95" d="M36.2787 99.0423C36.5598 99.2076 36.659 99.6705 36.6425 100.166C36.626 100.662 36.4441 101.125 36.2127 101.357C36.1631 101.406 36.1135 101.472 36.0308 101.522L34.791 102.134C34.791 102.134 34.5925 102.233 34.5099 102.283C34.047 102.464 33.2866 102.63 32.8237 102.547C32.6253 102.53 32.4269 102.481 32.2616 102.398C32.2285 102.398 31.8318 102.2 31.7988 102.183L31.2532 101.886C31.1375 101.82 31.0549 101.737 30.9887 101.654C30.9226 101.555 30.8895 101.456 30.8895 101.357C30.7904 101.059 31.2532 100.514 31.683 100.266L31.9475 100.117C31.9475 100.117 32.2782 99.968 32.2947 99.968C32.2947 99.968 32.9064 99.6044 32.9229 99.4887C33.237 99.2242 33.6337 98.9927 34.0305 98.8605C34.4768 98.6951 34.9231 98.629 35.2372 98.6951C35.2372 98.6125 35.6671 98.7613 35.6671 98.7613L36.2623 99.0588L36.2787 99.0423Z" fill="#305B8D"/>
<path d="M32.1786 102.316L31.2693 101.853C30.6742 101.506 30.7568 100.91 31.4346 100.514L32.5588 99.9681C33.2531 99.5713 34.2781 99.5217 34.8732 99.8689L35.7824 100.332C36.3776 100.679 36.2949 101.274 35.6171 101.671L34.493 102.216C33.7987 102.613 32.7737 102.663 32.1786 102.316Z" fill="#2E588B"/>
</g>
<g opacity="0.5">
<path opacity="0.05" d="M60.5472 81.5849C60.8282 81.7502 60.6795 87.3048 60.4645 92.8924C60.2496 98.4801 59.9355 104.101 59.9355 104.382C59.9355 104.977 59.5553 105.539 58.9106 105.903L55.3398 107.887L54.5298 108.333C54.5132 108.333 50.1654 110.763 50.1489 110.747C49.6529 111.028 49.0578 111.176 48.4296 111.193C48.3966 111.193 48.3635 111.193 48.347 111.193C47.7849 111.193 47.2559 111.061 46.8591 110.829L45.3548 109.87C44.8092 109.556 44.5116 109.06 44.4951 108.515C44.4951 107.92 44.8588 107.358 45.5035 106.977C45.5035 106.977 51.0912 102.778 51.1077 102.762L52.5955 101.654C53.108 101.357 53.7527 101.191 54.3809 101.191C54.5297 101.191 54.8273 99.5382 55.1414 97.1742C55.3894 95.273 55.7035 92.909 55.9846 90.5615C56.3317 87.7181 56.6954 84.8747 56.9599 82.8909C57.1913 81.1881 57.3731 80.0971 57.4723 80.1632L60.5307 81.5684L60.5472 81.5849Z" fill="#5494BA"/>
<path opacity="0.1" d="M60.0516 82.8908C60.3326 83.0562 60.2004 88.3462 59.9855 93.6694C59.7706 98.9925 59.473 104.332 59.4565 104.613C59.4234 105.175 59.0927 105.721 58.4811 106.068L55.0426 107.986L54.2655 108.416C54.2159 108.432 50.0665 110.73 50.0169 110.713C49.5375 110.978 48.9589 111.11 48.3638 111.127C48.3307 111.127 48.3142 111.127 48.2811 111.127C47.7521 111.127 47.2231 110.994 46.8429 110.763L45.3881 109.837C44.8756 109.54 44.5781 109.06 44.5615 108.548C44.5615 107.969 44.9087 107.44 45.5038 107.077C45.5038 107.043 50.8104 103.059 50.86 103.026L52.2983 101.968C52.7777 101.687 53.406 101.522 54.0176 101.522C54.1664 101.522 54.4639 99.9349 54.778 97.6866C55.026 95.8681 55.3401 93.6198 55.6377 91.3881C56.0014 88.6769 56.365 85.9822 56.6295 84.1142C56.861 82.4941 57.0428 81.4691 57.142 81.5352L60.0681 82.8908H60.0516Z" fill="#5291B7"/>
<path opacity="0.14" d="M59.5391 84.1969C59.8201 84.3622 59.7045 89.3878 59.5061 94.43C59.3077 99.4886 59.0101 104.564 58.9771 104.828C58.9275 105.374 58.6299 105.87 58.0348 106.217L54.7119 108.068C54.7119 108.068 53.968 108.482 53.9514 108.482C53.8853 108.515 49.9177 110.697 49.8351 110.68C49.3722 110.928 48.8102 111.061 48.2316 111.061C48.1985 111.061 48.1819 111.061 48.1488 111.061C47.6529 111.061 47.1239 110.912 46.7602 110.713L45.3551 109.821C44.8592 109.54 44.5781 109.077 44.5615 108.581C44.5615 108.035 44.8757 107.523 45.4543 107.176C45.4543 107.126 50.4964 103.324 50.5625 103.291L51.9346 102.282C52.3975 102.018 52.9926 101.853 53.5712 101.853C53.7035 101.853 54.0176 100.332 54.3152 98.1991C54.5631 96.4633 54.8937 94.3308 55.1913 92.2147C55.555 89.6523 55.9353 87.1065 56.1998 85.3376C56.4147 83.8002 56.6131 82.8579 56.6957 82.8909L59.4896 84.1969H59.5391Z" fill="#508EB5"/>
<path opacity="0.19" d="M59.0417 85.5193C59.3227 85.6846 59.2235 90.4457 59.0417 95.2233C58.8598 100.001 58.5623 104.812 58.5292 105.093C58.4796 105.605 58.1986 106.085 57.6366 106.399L54.4294 108.184C54.4294 108.184 53.7186 108.581 53.702 108.597C53.6029 108.63 49.8171 110.697 49.7344 110.68C49.2881 110.912 48.7425 111.027 48.197 111.027C48.1639 111.027 48.1474 111.027 48.1144 111.027C47.635 111.027 47.1225 110.879 46.7919 110.68L45.4363 109.821C44.9569 109.54 44.6923 109.126 44.6758 108.647C44.6758 108.118 44.9733 107.638 45.5024 107.308C45.4858 107.242 50.2634 103.638 50.3626 103.588L51.6686 102.629C52.0984 102.381 52.677 102.216 53.2226 102.216C53.3548 102.216 53.6689 100.761 53.9665 98.7445C54.2145 97.0913 54.5452 95.0745 54.8593 93.0742C55.223 90.6441 55.6362 88.247 55.8842 86.5938C56.0991 85.139 56.2975 84.2629 56.3801 84.2959L59.0582 85.5358L59.0417 85.5193Z" fill="#4E8BB3"/>
<path opacity="0.24" d="M58.5299 86.8254C58.8109 86.9908 58.7283 91.4708 58.5299 96.0004C58.3481 100.514 58.0505 105.06 58.0174 105.324C57.9513 105.804 57.7033 106.267 57.1743 106.564L54.0829 108.267C54.0829 108.267 53.4051 108.647 53.3721 108.664C53.2564 108.713 49.6525 110.664 49.5367 110.631C49.1069 110.846 48.5779 110.945 48.0489 110.945C48.0323 110.945 47.9993 110.945 47.9828 110.945C47.5364 110.945 47.0239 110.796 46.7098 110.614L45.4039 109.788C44.9575 109.523 44.693 109.126 44.6765 108.664C44.6599 108.168 44.941 107.705 45.4535 107.391C45.437 107.308 49.9335 103.886 50.0492 103.82L51.3056 102.911C51.7189 102.679 52.2645 102.514 52.777 102.514C52.9092 102.514 53.2232 101.125 53.5208 99.2406C53.7688 97.6701 54.116 95.769 54.4301 93.8844C54.8103 91.603 55.2236 89.3548 55.4716 87.8008C55.6865 86.4452 55.8849 85.6186 55.9675 85.6517L58.5134 86.842L58.5299 86.8254Z" fill="#4C88B0"/>
<path opacity="0.29" d="M58.0342 88.1314C58.3152 88.2967 58.249 92.5123 58.0672 96.7609C57.9019 101.009 57.6043 105.275 57.5547 105.539C57.4721 105.985 57.2406 106.415 56.7447 106.713L53.769 108.349C53.769 108.349 53.1243 108.713 53.0913 108.73C52.9425 108.796 49.5369 110.614 49.3881 110.581C48.9748 110.78 48.4789 110.862 47.9664 110.862C47.9499 110.862 47.9169 110.862 47.9003 110.862C47.4871 110.862 46.9746 110.713 46.677 110.532L45.4206 109.738C44.9908 109.49 44.7428 109.11 44.7263 108.68C44.7098 108.217 44.9743 107.771 45.4372 107.457C45.4041 107.358 49.6527 104.134 49.785 104.051L50.9752 103.175C51.3554 102.96 51.901 102.811 52.3804 102.811C52.4962 102.811 52.8267 101.489 53.1077 99.72C53.3392 98.2321 53.7195 96.4468 54.0336 94.6779C54.4138 92.5288 54.8436 90.4293 55.0915 88.9745C55.3064 87.7016 55.5049 86.9411 55.571 86.9742L58.0011 88.0983L58.0342 88.1314Z" fill="#4B85AE"/>
<path opacity="0.33" d="M57.5213 89.454C57.8023 89.6193 57.7362 93.5704 57.5874 97.5545C57.4386 101.539 57.1411 105.523 57.0915 105.804C57.0088 106.217 56.7939 106.63 56.331 106.911L53.4876 108.482C53.4876 108.482 52.8759 108.829 52.8428 108.846C52.6775 108.912 49.4539 110.614 49.2721 110.581C48.8753 110.763 48.3959 110.846 47.9165 110.829C47.9 110.829 47.8668 110.829 47.8503 110.829C47.4535 110.829 46.9577 110.664 46.6766 110.515L45.4697 109.755C45.0565 109.523 44.8251 109.16 44.792 108.746C44.7589 108.3 45.0069 107.887 45.4533 107.589C45.4202 107.473 49.3878 104.448 49.5531 104.349L50.6938 103.522C51.0409 103.324 51.5699 103.175 52.0163 103.175C52.132 103.175 52.4626 101.919 52.7437 100.266C52.9751 98.8605 53.3553 97.1908 53.686 95.5376C54.0827 93.5373 54.529 91.5866 54.7605 90.231C54.9754 89.0407 55.1738 88.3464 55.2399 88.3795L57.5379 89.454H57.5213Z" fill="#4982AC"/>
<path opacity="0.38" d="M57.0247 90.7598C57.3057 90.9251 57.2561 94.6116 57.1239 98.3312C56.9751 102.051 56.727 105.787 56.6279 106.035C56.6113 106.432 56.3468 106.812 55.9005 107.06L53.1728 108.564C53.1728 108.564 52.5942 108.895 52.5446 108.911C52.3462 108.994 49.321 110.581 49.1226 110.548C48.7423 110.713 48.2795 110.78 47.8166 110.763C47.8001 110.763 47.7835 110.763 47.7504 110.763C47.3867 110.763 46.8908 110.598 46.6263 110.449L45.4691 109.721C45.0888 109.507 44.8575 109.159 44.8244 108.779C44.7914 108.366 45.0228 107.969 45.4195 107.688C45.3865 107.572 49.0896 104.712 49.2714 104.613L50.3459 103.836C50.6765 103.654 51.1725 103.506 51.5858 103.506C51.6849 103.506 52.0486 102.299 52.3131 100.778C52.5446 99.4554 52.9414 97.9014 53.272 96.364C53.6688 94.4959 54.1316 92.694 54.363 91.4541C54.5614 90.3465 54.7764 89.7183 54.8425 89.7514L57.0082 90.7598H57.0247Z" fill="#477FA9"/>
<path opacity="0.43" d="M56.512 92.0657C56.793 92.2311 56.7599 95.6531 56.6276 99.0917C56.4954 102.53 56.264 106.002 56.1317 106.266C56.1152 106.647 55.8672 106.994 55.454 107.225L52.8419 108.647C52.8419 108.647 52.2799 108.961 52.2468 108.978C52.0319 109.06 49.172 110.532 48.9571 110.498C48.5768 110.647 48.147 110.697 47.7172 110.68C47.7007 110.68 47.6841 110.68 47.6676 110.68C47.3369 110.68 46.841 110.515 46.6095 110.366L45.5019 109.672C45.1382 109.457 44.9233 109.143 44.8903 108.779C44.8572 108.382 45.0556 108.019 45.4358 107.754C45.3863 107.622 48.8248 104.96 49.0232 104.845L50.0316 104.117C50.3291 103.935 50.8086 103.803 51.2053 103.803C51.3045 103.803 51.6682 102.663 51.9327 101.257C52.1642 100.034 52.5609 98.5792 52.908 97.1575C53.3048 95.4382 53.7843 93.785 54.0157 92.6444C54.2141 91.6359 54.429 91.0573 54.4951 91.0904L56.545 92.0493L56.512 92.0657Z" fill="#457CA7"/>
<path opacity="0.48" d="M56.0174 93.3719C56.2984 93.5372 56.2819 96.6947 56.1662 99.8688C56.0505 103.043 55.8191 106.25 55.6703 106.498C55.6538 106.845 55.4223 107.159 55.0421 107.391L52.5458 108.746C52.5458 108.746 52.0168 109.044 51.9837 109.06C51.7357 109.159 49.0742 110.515 48.8262 110.465C48.4625 110.598 48.0492 110.631 47.6359 110.614C47.6194 110.614 47.6029 110.614 47.5864 110.614C47.2723 110.614 46.7929 110.449 46.578 110.317L45.5199 109.655C45.1727 109.457 44.9744 109.16 44.9413 108.829C44.9083 108.465 45.0901 108.118 45.4207 107.87C45.3711 107.721 48.5452 105.242 48.7601 105.126L49.7189 104.448C49.9999 104.283 50.4463 104.15 50.81 104.15C50.8927 104.15 51.2729 103.076 51.5209 101.803C51.7523 100.662 52.1656 99.3232 52.5127 98.0172C52.926 96.4302 53.4054 94.9259 53.6369 93.9009C53.8352 92.9751 54.0502 92.4626 54.0998 92.4957L56.0174 93.405V93.3719Z" fill="#4379A5"/>
<path opacity="0.52" d="M55.5048 94.6944C55.7859 94.8597 55.7859 97.7527 55.6702 100.662C55.5545 103.572 55.3395 106.498 55.1907 106.746C55.1577 107.06 54.9593 107.358 54.5956 107.556L52.2151 108.845C52.2151 108.845 51.7191 109.11 51.6695 109.143C51.405 109.259 48.9254 110.482 48.6609 110.432C48.3137 110.548 47.9334 110.565 47.5366 110.565C47.5366 110.565 47.5036 110.565 47.4871 110.565C47.206 110.565 46.7266 110.383 46.5282 110.267L45.5198 109.655C45.2057 109.474 45.0073 109.193 44.9742 108.878C44.9412 108.531 45.09 108.217 45.4041 107.986C45.3545 107.82 48.2475 105.539 48.4955 105.39L49.3881 104.762C49.6361 104.613 50.0825 104.481 50.3966 104.481C50.4793 104.481 50.8595 103.473 51.1075 102.315C51.3224 101.257 51.7687 100.034 52.1159 98.8438C52.5292 97.4055 53.0417 96.0499 53.2566 95.1242C53.4549 94.2811 53.6699 93.8347 53.7195 93.8678L55.5214 94.7109L55.5048 94.6944Z" fill="#4176A2"/>
<path opacity="0.57" d="M55.0093 96.0002C55.2904 96.1655 55.3069 98.794 55.2077 101.423C55.1085 104.068 54.8936 106.729 54.7283 106.977C54.6953 107.258 54.4969 107.539 54.1828 107.721L51.9345 108.928C51.9345 108.928 51.4716 109.176 51.422 109.209C51.1245 109.325 48.8431 110.449 48.5455 110.383C48.2149 110.482 47.8512 110.498 47.4875 110.482C47.4875 110.482 47.4544 110.482 47.4379 110.482C47.1899 110.482 46.7105 110.3 46.5286 110.201L45.5698 109.622C45.2722 109.457 45.0904 109.192 45.0573 108.911C45.0077 108.597 45.1566 108.3 45.4211 108.085C45.3715 107.903 47.9834 105.82 48.2644 105.655L49.1076 105.076C49.339 104.944 49.7523 104.812 50.0333 104.812C50.0995 104.812 50.5127 103.869 50.7442 102.828C50.9591 101.836 51.4054 100.745 51.7691 99.6702C52.1989 98.3642 52.7114 97.1574 52.9263 96.3474C53.1247 95.6035 53.3397 95.2067 53.3893 95.2398L55.059 96.0333L55.0093 96.0002Z" fill="#3F73A0"/>
<path opacity="0.62" d="M54.4958 97.3063C54.7768 97.4716 54.8099 99.8191 54.7107 102.2C54.6281 104.58 54.4132 106.977 54.2313 107.209C54.1983 107.473 54.0163 107.705 53.7353 107.886L51.6028 109.027C51.6028 109.027 51.173 109.259 51.1234 109.292C50.8093 109.424 48.6932 110.416 48.3791 110.35C48.065 110.432 47.7179 110.432 47.3707 110.416H47.3376C47.1062 110.416 46.6434 110.234 46.478 110.135L45.5687 109.589C45.2877 109.424 45.1224 109.192 45.0728 108.928C45.0232 108.647 45.1389 108.366 45.3869 108.151C45.3208 107.953 47.6848 106.051 47.9824 105.886L48.7594 105.357C48.9578 105.241 49.3545 105.109 49.619 105.109C49.6851 105.109 50.0985 104.233 50.3134 103.307C50.5283 102.382 50.9912 101.423 51.3383 100.464C51.7681 99.3066 52.2971 98.2486 52.512 97.5378C52.7104 96.8765 52.9253 96.5459 52.9749 96.5789L54.5123 97.3063H54.4958Z" fill="#3D709E"/>
<path opacity="0.67" d="M54.0004 98.6289C54.2815 98.7942 54.331 100.877 54.2483 102.993C54.1657 105.109 53.9673 107.225 53.769 107.457C53.7359 107.688 53.5706 107.903 53.3061 108.052L51.2892 109.126C51.2892 109.126 50.8925 109.341 50.8264 109.374C50.4792 109.507 48.5615 110.399 48.2144 110.333C47.9168 110.399 47.5862 110.383 47.2721 110.366C47.2721 110.366 47.2555 110.366 47.239 110.366C47.0406 110.366 46.5778 110.168 46.4455 110.102L45.5858 109.589C45.3379 109.441 45.1726 109.226 45.123 108.994C45.0734 108.73 45.1725 108.482 45.3709 108.283C45.3048 108.068 47.3878 106.366 47.7019 106.184L48.4128 105.704C48.5946 105.605 48.9582 105.473 49.1897 105.473C49.2393 105.473 49.6692 104.663 49.8841 103.853C50.099 103.043 50.5619 102.167 50.9256 101.324C51.3719 100.299 51.7852 99.3563 52.1158 98.7942C52.1985 98.1991 52.5291 97.9511 52.5622 97.9842L53.9839 98.662L54.0004 98.6289Z" fill="#3B6D9B"/>
<path opacity="0.71" d="M53.5052 99.9347C53.7862 100.1 53.8523 101.919 53.7696 103.77C53.7035 105.605 53.5052 107.473 53.3068 107.705C53.2738 107.903 53.125 108.101 52.8935 108.234L50.9924 109.242C50.9924 109.242 50.6286 109.44 50.5625 109.473C50.1988 109.622 48.463 110.383 48.0993 110.317C47.8183 110.366 47.5042 110.333 47.2067 110.317C47.2067 110.317 47.1901 110.317 47.1736 110.317C47.0083 110.317 46.5454 110.118 46.4296 110.052L45.6196 109.573C45.3882 109.44 45.2394 109.242 45.1898 109.027C45.1402 108.796 45.2063 108.564 45.3881 108.382C45.322 108.151 47.1405 106.647 47.4711 106.448L48.1324 106.018C48.2812 105.936 48.6284 105.803 48.8267 105.803C48.8763 105.803 49.3226 105.059 49.521 104.365C49.7359 103.621 50.2154 102.877 50.5791 102.15C51.0254 101.274 51.4552 100.48 51.7858 100.017C51.852 99.5049 52.1992 99.3396 52.2322 99.3561L53.5216 99.9678L53.5052 99.9347Z" fill="#396A99"/>
<path opacity="0.76" d="M52.9918 101.241C53.2729 101.406 53.339 102.96 53.2894 104.531C53.2398 106.101 53.0414 107.688 52.8265 107.92C52.7934 108.102 52.6612 108.267 52.4463 108.383L50.6608 109.308C50.6608 109.308 50.3302 109.49 50.2475 109.523C49.8508 109.689 48.3134 110.333 47.9166 110.251C47.6521 110.284 47.3711 110.251 47.0901 110.218H47.0735C46.9413 110.218 46.4784 110.019 46.3792 109.953L45.6187 109.507C45.4038 109.391 45.2716 109.209 45.222 109.027C45.1724 108.812 45.222 108.614 45.3543 108.449C45.2716 108.201 46.8255 106.878 47.1892 106.663L47.7844 106.283C47.9166 106.217 48.2472 106.085 48.396 106.085C48.4291 106.085 48.9085 105.407 49.0739 104.845C49.2722 104.184 49.7681 103.555 50.1484 102.944C50.5947 102.2 51.041 101.555 51.3551 101.208C51.4047 100.778 51.7684 100.679 51.8015 100.679L52.9587 101.241H52.9918Z" fill="#386797"/>
<path opacity="0.81" d="M52.4953 102.547C52.7764 102.712 52.859 104.002 52.8094 105.308C52.7599 106.614 52.5781 107.936 52.3466 108.151C52.3136 108.3 52.1978 108.432 52.016 108.531L50.3628 109.391C50.3628 109.391 50.0653 109.556 49.9826 109.589C49.5693 109.755 48.1972 110.284 47.7839 110.201C47.5359 110.218 47.2714 110.168 47.0234 110.135C47.0234 110.135 47.0235 110.135 47.007 110.135C46.8912 110.135 46.4449 109.937 46.3622 109.887L45.6514 109.474C45.4695 109.358 45.3372 109.209 45.2876 109.044C45.2215 108.862 45.2545 108.68 45.3703 108.531C45.2876 108.267 46.5606 107.143 46.9573 106.911L47.4863 106.581C47.5855 106.514 47.8997 106.399 48.0319 106.399C48.065 106.399 48.6435 105.804 48.7097 105.341C49.0238 104.812 49.4205 104.25 49.8007 103.754C50.2636 103.159 50.71 102.646 51.0241 102.415C51.0737 102.068 51.4373 102.034 51.4538 102.034L52.4953 102.547Z" fill="#366494"/>
<path opacity="0.86" d="M51.9836 103.869C52.2646 104.035 52.3639 105.06 52.3308 106.101C52.2977 107.143 52.1158 108.184 51.8679 108.416C51.8183 108.531 51.7191 108.647 51.5869 108.73L50.0494 109.523C50.0494 109.523 49.7849 109.672 49.7022 109.705C49.2559 109.887 48.0821 110.3 47.6358 110.201C47.3878 110.201 47.1564 110.135 46.925 110.102C46.8423 110.102 46.396 109.887 46.3464 109.854L45.6685 109.474C45.5032 109.374 45.3876 109.242 45.338 109.11C45.2719 108.945 45.2884 108.796 45.3545 108.664C45.2719 108.383 46.2803 107.44 46.677 107.209L47.1564 106.911C47.1564 106.911 47.5202 106.746 47.6193 106.746C47.6359 106.746 48.2475 106.217 48.2971 105.87C48.6277 105.423 49.0245 104.977 49.4047 104.597C49.8676 104.134 50.3139 103.77 50.6445 103.655C50.6776 103.39 51.0579 103.423 51.0744 103.423L51.9836 103.869Z" fill="#346192"/>
<path opacity="0.9" d="M51.4872 105.175C51.7682 105.341 51.8839 106.101 51.8674 106.862C51.8343 107.639 51.6856 108.416 51.4211 108.631C51.3715 108.73 51.2888 108.812 51.1731 108.878L49.7514 109.606C49.7514 109.606 49.5199 109.738 49.4208 109.771C48.9579 109.97 47.966 110.251 47.5031 110.151C47.2717 110.151 47.0568 110.102 46.8584 110.019C46.8088 110.019 46.3624 109.804 46.3294 109.788L45.7012 109.441C45.5524 109.358 45.4532 109.259 45.387 109.126C45.3209 108.994 45.3045 108.862 45.3541 108.746C45.2714 108.449 45.9987 107.705 46.4285 107.457L46.8418 107.209C46.8418 107.209 47.1559 107.06 47.222 107.06C47.222 107.06 47.8668 106.597 47.8999 106.366C48.2305 106.002 48.6273 105.671 49.024 105.407C49.4869 105.093 49.9498 104.878 50.2804 104.845C50.297 104.679 50.6937 104.762 50.7103 104.762L51.5037 105.159L51.4872 105.175Z" fill="#325E90"/>
<path opacity="0.95" d="M50.9745 106.481C51.2555 106.647 51.3878 107.143 51.3712 107.639C51.3712 108.135 51.1729 108.614 50.9249 108.862C50.8754 108.912 50.8092 108.978 50.7266 109.027L49.4205 109.672C49.4205 109.672 49.2056 109.788 49.123 109.821C48.6436 110.019 47.8335 110.201 47.3375 110.102C47.1226 110.085 46.9243 110.019 46.7424 109.937C46.7094 109.937 46.2796 109.722 46.263 109.705L45.6844 109.391C45.5687 109.325 45.4695 109.242 45.4034 109.143C45.3372 109.044 45.3042 108.928 45.3042 108.829C45.205 108.515 45.6844 107.969 46.1308 107.705L46.4944 107.506C46.4944 107.506 46.759 107.374 46.7921 107.374C46.7921 107.374 47.4367 106.977 47.4533 106.862C47.7839 106.581 48.1972 106.366 48.5939 106.217C49.0734 106.035 49.5363 105.969 49.8669 106.052C49.8669 105.969 50.2802 106.118 50.2967 106.118L50.9579 106.448L50.9745 106.481Z" fill="#305B8D"/>
<path d="M46.6604 109.887L45.7016 109.391C45.0734 109.027 45.156 108.399 45.8834 107.969L47.0572 107.391C47.7845 106.977 48.8756 106.928 49.5038 107.291L50.4627 107.787C51.0909 108.151 51.0082 108.779 50.2808 109.209L49.1071 109.788C48.3797 110.201 47.2886 110.25 46.6604 109.887Z" fill="#2E588B"/>
</g>
<path d="M54.9931 101.985V105.787C54.9931 107.01 48.6616 110.548 47.5539 110.647C46.4463 110.747 43.5534 109.49 45.0247 108.217C46.496 106.944 49.6866 104.217 49.6866 102.547C49.6866 100.877 55.0097 101.985 55.0097 101.985H54.9931Z" fill="#004D77"/>
<g style="mix-blend-mode:multiply">
<path d="M53.9506 101.82C53.9506 102.646 54.0168 103.869 54.0168 104.531C54.0168 105.754 48.5283 109.424 47.4207 109.54C46.776 109.606 45.2054 108.829 45.0566 108.184C45.0566 108.184 45.0236 108.217 45.0071 108.217C43.5358 109.49 46.4288 110.747 47.5364 110.647C48.644 110.548 54.9756 106.994 54.9756 105.787V101.985C54.9756 101.985 54.5458 101.902 53.9506 101.803V101.82Z" fill="#9EBFE6"/>
</g>
<path d="M39.5035 93.0414C39.5035 93.0414 40.4293 96.3642 40.9252 97.6041C41.4212 98.8274 36.0815 101.82 34.1639 102.646C32.2462 103.473 28.9729 101.77 30.3946 100.729C31.8163 99.7036 34.8582 97.1577 34.6102 95.3392C34.3623 93.5208 39.5035 93.0414 39.5035 93.0414Z" fill="#004D77"/>
<g style="mix-blend-mode:multiply">
<path d="M40.9245 97.5876C40.4286 96.3643 39.5029 93.0249 39.5029 93.0249C39.5029 93.0249 39.0565 93.0745 38.4448 93.1737C38.7258 94.0499 39.2384 96.0337 39.3541 96.9098C39.5194 98.2489 35.1221 100.696 33.3697 101.456C32.3448 101.902 30.9065 101.555 30.1295 100.993C29.5344 102.018 32.4109 103.39 34.1632 102.63C36.0809 101.803 41.404 98.811 40.9245 97.5876Z" fill="#9EBFE6"/>
</g>
<path d="M51.6533 51.696C51.6533 51.696 38.3949 57.0027 30.5921 61.2017C23.7811 64.8717 24.3267 67.5002 24.9714 70.3602C25.8641 74.3939 34.3613 96.2816 34.3613 96.2816C34.3613 96.2816 35.8657 96.8768 37.5023 96.2816C41.0566 95.0087 40.2465 93.9341 40.2465 93.9341L36.1302 72.4927L66.3498 62.2101L51.6533 51.7291V51.696Z" fill="url(#paint4_linear_848_14416)"/>
<g style="mix-blend-mode:multiply">
<path d="M60.596 58.0771L58.9263 56.8868L35.4846 70.2444C34.2612 70.8891 33.6165 72.2612 33.881 73.6168L38.8569 95.6864C40.8077 94.678 40.2456 93.9175 40.2456 93.9175L36.1293 72.4761L59.1908 64.6071L60.596 58.0771Z" fill="#9EBFE6"/>
</g>
<path d="M57.9022 54.589C57.9022 54.589 48.4462 71.2198 47.1733 74.5426C45.6359 78.5763 49.1736 103.159 49.1736 103.159C49.1736 103.159 50.2647 104.167 52.6121 104.25C54.9596 104.332 55.6374 103.473 55.6374 103.473C55.6374 103.473 57.8692 80.5435 58.1503 78.9069C58.4313 77.2703 68.3005 72.3108 71.2928 69.6658C76.8804 64.7559 72.7311 51.4645 72.7311 51.4645L57.8692 54.5725L57.9022 54.589Z" fill="url(#paint5_linear_848_14416)"/>
<g style="mix-blend-mode:multiply">
<path d="M73.5581 54.7046L68.8797 57.5149C68.8797 67.1859 66.0197 68.1778 59.87 72.9058C55.0428 76.6089 55.3404 76.7081 55.3404 82.428C55.3404 87.0899 54.7618 98.0833 54.5469 104.068C55.3735 103.836 55.6545 103.473 55.6545 103.473C55.6545 103.473 57.8863 80.5434 58.1673 78.9067C58.4483 77.2701 68.3176 72.3107 71.3098 69.6656C75.1451 66.2932 74.4012 58.9697 73.5416 54.7046H73.5581Z" fill="#9EBFE6"/>
</g>
<path d="M50.4465 19.3271C50.3638 23.0798 49.3389 52.1588 49.3389 52.1588C49.3389 52.1588 51.2069 55.0849 57.803 56.8538C65.1926 58.8376 74.1693 57.515 74.1693 57.515C74.1693 57.515 73.9543 43.2979 73.8882 36.2555C73.8386 29.3784 74.4999 24.3693 74.0535 21.4267C73.8056 19.7735 70.2347 17.5748 64.7297 15.0951C59.2247 12.6153 50.5126 15.2934 50.4299 19.3271H50.4465Z" fill="url(#paint6_linear_848_14416)"/>
<g style="mix-blend-mode:multiply">
<path d="M70.3 28.8991C70.2338 31.8251 67.3904 52.8533 61.8027 57.978C66.4481 58.5566 74.1518 57.5151 74.1518 57.5151C74.1518 57.5151 73.937 43.298 73.8708 36.2556C73.8212 31.2631 74.1683 27.2624 74.1848 24.3033C71.4571 25.196 70.333 26.9649 70.2834 28.8991H70.3Z" fill="#9EBFE6"/>
</g>
<path d="M67.639 18.5502C67.639 21.4928 60.1337 24.5677 60.1337 24.5677C60.1337 24.5677 56.4141 21.5424 56.4141 18.5502C56.4141 16.7648 58.9269 15.3266 62.0183 15.3266C65.1097 15.3266 67.6225 16.7648 67.6225 18.5502H67.639Z" fill="white"/>
<path d="M50.4619 41.2976L54.8097 40.1073L55.7355 41.9092L52.611 42.7028L50.4619 41.2976Z" fill="#FDFEFF"/>
<path d="M58.233 49.1832L54.5134 47.5466C54.067 47.3482 53.6537 46.72 53.5711 46.1579L52.3312 37.578C52.2485 37.016 52.5461 36.7184 52.9759 36.9168L56.6955 38.5534C57.1419 38.7518 57.5552 39.38 57.6379 39.942L58.8777 48.5219C58.9604 49.084 58.6628 49.3816 58.233 49.1832Z" fill="#0A2C67"/>
<path d="M56.877 38.4377L53.1574 36.801C52.9921 36.7184 52.8268 36.7184 52.7276 36.7845C52.7276 36.7845 52.5292 36.9333 52.5127 36.9333C52.6284 36.8507 52.7938 36.8507 52.9756 36.9333L56.6952 38.5699C57.1416 38.7683 57.5549 39.3965 57.6375 39.9586L58.8774 48.5384C58.927 48.8856 58.8278 49.1336 58.6459 49.2328C58.6459 49.2328 58.679 49.2328 58.712 49.1997L58.9269 49.0344C59.0427 48.9186 59.1088 48.7038 59.0592 48.4062L57.8194 39.8263C57.7367 39.2643 57.3234 38.6361 56.877 38.4377Z" fill="#213859"/>
<path d="M48.959 43.6783C48.959 43.6783 51.8189 46.4886 52.6289 46.968C53.439 47.4475 57.5719 47.464 58.5473 47.2987C59.5392 47.1334 59.2415 44.1577 58.7125 43.794C58.1835 43.4303 53.72 42.6202 53.224 42.0582C52.7281 41.5126 52.3644 41.0002 51.604 41.0498C50.8435 41.1159 50.331 41.0167 50.331 41.0167L48.959 43.6617V43.6783Z" fill="#FDFEFF"/>
<path d="M52.0008 16.5334C48.0333 20.0711 38.9906 33.5774 39.6353 37.3135C40.032 39.694 49.6369 44.7197 49.6369 44.7197C49.6369 44.7197 49.6699 43.612 50.2651 42.5044C50.8602 41.3968 52.1 40.719 52.1 40.719L46.3966 35.991L52.2984 30.3207L52.0008 16.5168V16.5334Z" fill="url(#paint7_linear_848_14416)"/>
<g style="mix-blend-mode:multiply">
<path d="M50.4786 27.4938L50.0156 32.5359L46.4118 36.0076L52.1152 40.7356C52.1152 40.7356 51.4539 41.1158 50.8588 41.744L44.2627 35.9745L50.4951 27.4938H50.4786Z" fill="#9EBFE6"/>
</g>
<path d="M63.5555 56.1925C63.5555 56.1925 62.7786 56.705 61.6214 56.8868C60.4642 57.0686 59.869 56.6389 58.282 57.0356C56.6454 57.4489 54.7442 60.0939 56.1329 61.185C57.0917 61.9455 58.7615 61.0197 60.1171 60.8213C60.7122 60.7387 61.8694 60.8875 62.4645 60.8544C64.4318 60.7883 66.1676 58.3747 66.1676 58.3747L63.5555 56.1925Z" fill="#FDFEFF"/>
<path d="M70.5653 19.294C72.5491 18.3847 75.0288 21.0959 77.6408 27.3779C80.4346 34.1228 85.8239 43.7937 84.8155 46.5049C83.8071 49.2161 65.1429 59.8459 65.1429 59.8459C65.1429 59.8459 64.9446 58.8374 63.9362 57.6306C62.9278 56.4238 62.4648 56.4238 62.4648 56.4238L76.0868 44.0913C76.0868 44.0913 69.8379 35.6767 67.5566 29.3782C65.5232 23.774 67.226 20.8149 70.5653 19.2774V19.294Z" fill="url(#paint8_linear_848_14416)"/>
<path d="M57.0096 10.6317C56.8278 9.47447 58.266 8.26764 60.2498 7.92048C62.2335 7.57331 64.0025 8.21805 64.2174 9.37526C64.2174 9.37526 66.3665 17.7071 66.3665 17.7237C66.6144 19.1123 64.8621 20.5836 62.4816 20.9969C60.0845 21.4102 57.9519 20.6167 57.7205 19.228L57.0096 10.6317Z" fill="#FDFEFF"/>
<g style="mix-blend-mode:multiply">
<path d="M63.4721 13.5578C63.8193 12.2848 63.9681 10.3507 63.7201 8.54871C63.0258 7.93704 61.7032 7.65603 60.2485 7.90401C58.2647 8.25117 56.81 9.45795 57.0083 10.6152L57.7192 19.2116C57.7688 19.5257 57.9341 19.7902 58.149 20.0216C60.7114 18.914 62.8439 15.7564 63.4721 13.5412V13.5578Z" fill="#F9FBF9"/>
</g>
<path d="M54.0012 4.79604C52.3811 8.03622 54.2327 18.418 57.5224 18.3354C60.8122 18.2527 63.8044 14.1529 64.5483 11.4582C65.2923 8.7636 65.1434 3.1594 62.2339 1.88647C59.3243 0.613539 55.6544 1.50626 54.0012 4.79604Z" fill="#FDFEFF"/>
<path d="M51.1405 4.267C50.5454 6.4657 52.2646 8.53213 56.1495 8.23456C60.0344 7.93699 61.7537 7.04429 61.7537 7.04429C61.7537 7.04429 61.9025 10.1853 62.3488 10.268C62.7952 10.3506 63.0927 7.95355 64.0681 8.31725C65.0434 8.69747 64.2664 12.103 65.093 12.6981C65.9196 13.2932 66.2337 11.3094 66.2337 8.91236C66.2337 6.51529 66.7628 0.415155 61.4396 0.034929C56.133 -0.345297 51.6034 2.46506 51.1239 4.267H51.1405Z" fill="url(#paint9_linear_848_14416)"/>
<g style="mix-blend-mode:multiply">
<path opacity="0.02" d="M111.943 116.599L155.602 142.024L101.61 173.748C98.1222 175.798 93.2454 175.484 89.7572 173.451L58.0001 154.952C55.6361 153.58 55.2724 149.943 57.6199 148.554L111.926 116.599H111.943Z" fill="#235E83"/>
<path opacity="0.03" d="M110.653 117.888L153.486 142.835L101.147 173.55C97.9568 175.435 92.865 174.773 89.6744 172.922L58.7604 154.919C56.5948 153.663 55.8674 150.108 58.033 148.835L110.653 117.905V117.888Z" fill="#245E83"/>
<path opacity="0.05" d="M109.363 119.178L151.37 143.628L100.701 173.335C97.7914 175.038 92.5012 174.062 89.5917 172.36L59.5208 154.853C57.5535 153.712 56.4625 150.224 58.4297 149.067L109.363 119.161V119.178Z" fill="#255D84"/>
<path opacity="0.06" d="M108.075 120.467L149.239 144.438L100.223 173.137C97.6107 174.674 92.1057 173.368 89.4937 171.831L60.2659 154.803C58.4971 153.762 57.0588 150.373 58.8277 149.331L108.075 120.451V120.467Z" fill="#265D85"/>
<path opacity="0.08" d="M106.768 121.74L147.105 145.232L99.7425 172.922C97.428 174.294 91.7246 172.641 89.3937 171.285L61.0091 154.754C59.4386 153.828 57.6366 150.522 59.2071 149.596L106.768 121.74Z" fill="#275C85"/>
<path opacity="0.09" d="M105.479 123.03L144.99 146.041L99.28 172.723C97.2467 173.914 91.3448 171.946 89.2949 170.756L61.7534 154.721C60.3648 153.91 58.2157 150.67 59.6043 149.86L105.479 123.03Z" fill="#285C86"/>
<path opacity="0.11" d="M104.19 124.319L142.874 146.835L98.8175 172.508C97.0817 173.533 90.965 171.236 89.2127 170.211L62.5142 154.654C61.3239 153.96 58.8277 150.803 60.0015 150.108L104.19 124.302V124.319Z" fill="#285B87"/>
<path opacity="0.12" d="M102.9 125.609L140.74 147.645L98.3536 172.31C96.8988 173.17 90.5837 170.541 89.1289 169.682L63.2736 154.621C62.2817 154.043 59.4217 150.951 60.3971 150.373L102.9 125.592V125.609Z" fill="#295B88"/>
<path opacity="0.14" d="M101.594 126.898L138.609 148.455L97.8748 172.112C96.7176 172.79 90.1877 169.83 89.0305 169.153L64.0182 154.588C63.2247 154.125 60.0011 151.117 60.7946 150.654L101.611 126.898H101.594Z" fill="#2A5A88"/>
<path opacity="0.15" d="M100.304 128.188L136.491 149.265L97.4107 171.914C96.5346 172.426 89.8062 169.136 88.93 168.624L64.7609 154.539C64.1658 154.192 60.5949 151.249 61.1735 150.902L100.304 128.188Z" fill="#2B5A89"/>
<path opacity="0.17" d="M99.0149 129.461L134.359 150.042L96.9319 171.682C96.3533 172.029 89.4101 168.409 88.8315 168.062L65.4889 154.473C65.0922 154.241 61.1577 151.381 61.5544 151.15L98.9983 129.461H99.0149Z" fill="#2C598A"/>
<path opacity="0.18" d="M97.7253 130.75L132.243 150.852L96.4689 171.484C96.1713 171.649 89.0297 167.698 88.7487 167.533L66.2492 154.44C66.0508 154.324 61.7526 151.547 61.951 151.431L97.7087 130.766L97.7253 130.75Z" fill="#2D598A"/>
<path opacity="0.2" d="M62.3477 151.679L96.0059 171.285L130.11 151.662L96.4191 132.039L62.3477 151.679Z" fill="#2E588B"/>
</g>
<path d="M95.7588 172.608L131.401 152.109V112.532L95.7588 133.031V172.608Z" fill="url(#paint10_linear_848_14416)"/>
<path d="M60.6289 152.109L95.775 172.608V133.031L60.6289 112.549V152.109Z" fill="url(#paint11_linear_848_14416)"/>
<path d="M60.6289 112.549L95.775 133.031L131.4 112.532L96.2213 92.033L60.6289 112.549Z" fill="url(#paint12_linear_848_14416)"/>
<defs>
<linearGradient id="paint0_linear_848_14416" x1="125.284" y1="112.4" x2="216.389" y2="85.1227" gradientUnits="userSpaceOnUse">
<stop stop-color="#5697BC"/>
<stop offset="0.08" stop-color="#5C9BBF"/>
<stop offset="0.19" stop-color="#6EA6C8"/>
<stop offset="0.32" stop-color="#8CB8D7"/>
<stop offset="0.47" stop-color="#B6D2EC"/>
<stop offset="0.58" stop-color="#DBE9FF"/>
<stop offset="0.86" stop-color="#EAF1F6"/>
<stop offset="1" stop-color="#F4F6F2"/>
</linearGradient>
<linearGradient id="paint1_linear_848_14416" x1="-130.309" y1="133.758" x2="244.709" y2="49.6955" gradientUnits="userSpaceOnUse">
<stop stop-color="#5697BC"/>
<stop offset="0.08" stop-color="#5C9BBF"/>
<stop offset="0.19" stop-color="#6EA6C8"/>
<stop offset="0.32" stop-color="#8CB8D7"/>
<stop offset="0.47" stop-color="#B6D2EC"/>
<stop offset="0.58" stop-color="#DBE9FF"/>
<stop offset="0.86" stop-color="#EAF1F6"/>
<stop offset="1" stop-color="#F4F6F2"/>
</linearGradient>
<linearGradient id="paint2_linear_848_14416" x1="120.921" y1="-11.6695" x2="75.9553" y2="74.03" gradientUnits="userSpaceOnUse">
<stop stop-color="#5697BC"/>
<stop offset="0.08" stop-color="#5C9BBF"/>
<stop offset="0.19" stop-color="#6EA6C8"/>
<stop offset="0.32" stop-color="#8CB8D7"/>
<stop offset="0.47" stop-color="#B6D2EC"/>
<stop offset="0.58" stop-color="#DBE9FF"/>
<stop offset="0.86" stop-color="#EAF1F6"/>
<stop offset="1" stop-color="#F4F6F2"/>
</linearGradient>
<radialGradient id="paint3_radial_848_14416" cx="0" cy="0" r="1" gradientUnits="userSpaceOnUse" gradientTransform="translate(65.2031 85.4359) scale(26.0061 11.9872)">
<stop offset="0.19" stop-color="#5697BC"/>
<stop offset="1" stop-color="white"/>
</radialGradient>
<linearGradient id="paint4_linear_848_14416" x1="33.3198" y1="96.6453" x2="51.0251" y2="50.0264" gradientUnits="userSpaceOnUse">
<stop stop-color="#0A2C67"/>
<stop offset="0.4" stop-color="#002C6C"/>
<stop offset="1" stop-color="#004D77"/>
</linearGradient>
<linearGradient id="paint5_linear_848_14416" x1="48.3636" y1="101.968" x2="66.4491" y2="54.308" gradientUnits="userSpaceOnUse">
<stop stop-color="#0A2C67"/>
<stop offset="0.4" stop-color="#002C6C"/>
<stop offset="1" stop-color="#004D77"/>
</linearGradient>
<linearGradient id="paint6_linear_848_14416" x1="70.2347" y1="17.922" x2="52.4137" y2="63.4333" gradientUnits="userSpaceOnUse">
<stop stop-color="#11587E"/>
<stop offset="0.49" stop-color="#11587E"/>
<stop offset="1" stop-color="#004D77"/>
</linearGradient>
<linearGradient id="paint7_linear_848_14416" x1="51.7363" y1="12.5327" x2="43.0077" y2="51.1669" gradientUnits="userSpaceOnUse">
<stop stop-color="#11587E"/>
<stop offset="0.49" stop-color="#11587E"/>
<stop offset="1" stop-color="#004D77"/>
</linearGradient>
<linearGradient id="paint8_linear_848_14416" x1="81.0298" y1="21.6249" x2="63.9031" y2="65.3674" gradientUnits="userSpaceOnUse">
<stop stop-color="#11587E"/>
<stop offset="0.49" stop-color="#11587E"/>
<stop offset="1" stop-color="#004D77"/>
</linearGradient>
<linearGradient id="paint9_linear_848_14416" x1="61.0263" y1="14.748" x2="57.4224" y2="0.547417" gradientUnits="userSpaceOnUse">
<stop offset="0.1" stop-color="#003273"/>
<stop offset="1" stop-color="#004D77"/>
</linearGradient>
<linearGradient id="paint10_linear_848_14416" x1="106.405" y1="144.719" x2="200.866" y2="116.434" gradientUnits="userSpaceOnUse">
<stop stop-color="#5697BC"/>
<stop offset="0.08" stop-color="#5C9BBF"/>
<stop offset="0.19" stop-color="#6EA6C8"/>
<stop offset="0.32" stop-color="#8CB8D7"/>
<stop offset="0.47" stop-color="#B6D2EC"/>
<stop offset="0.58" stop-color="#DBE9FF"/>
<stop offset="0.86" stop-color="#EAF1F6"/>
<stop offset="1" stop-color="#F4F6F2"/>
</linearGradient>
<linearGradient id="paint11_linear_848_14416" x1="6.33929" y1="158.688" x2="160.331" y2="124.17" gradientUnits="userSpaceOnUse">
<stop stop-color="#5697BC"/>
<stop offset="0.08" stop-color="#5C9BBF"/>
<stop offset="0.19" stop-color="#6EA6C8"/>
<stop offset="0.32" stop-color="#8CB8D7"/>
<stop offset="0.47" stop-color="#B6D2EC"/>
<stop offset="0.58" stop-color="#DBE9FF"/>
<stop offset="0.86" stop-color="#EAF1F6"/>
<stop offset="1" stop-color="#F4F6F2"/>
</linearGradient>
<linearGradient id="paint12_linear_848_14416" x1="132.888" y1="42.273" x2="93.2291" y2="117.872" gradientUnits="userSpaceOnUse">
<stop stop-color="#5697BC"/>
<stop offset="0.08" stop-color="#5C9BBF"/>
<stop offset="0.19" stop-color="#6EA6C8"/>
<stop offset="0.32" stop-color="#8CB8D7"/>
<stop offset="0.47" stop-color="#B6D2EC"/>
<stop offset="0.58" stop-color="#DBE9FF"/>
<stop offset="0.86" stop-color="#EAF1F6"/>
<stop offset="1" stop-color="#F4F6F2"/>
</linearGradient>
</defs>
</svg>
