<svg width="182" height="177" viewBox="0 0 182 177" fill="none" xmlns="http://www.w3.org/2000/svg">
<g style="mix-blend-mode:multiply">
<path opacity="0.02" d="M79.7219 78.4706L178.957 134.695L112.13 173.963C107.786 176.514 101.853 176.839 97.4966 174.312L28.8888 135.67C25.9404 133.949 25.3146 129.34 28.263 127.607L79.7098 78.4826L79.7219 78.4706Z" fill="#235E83"/>
<path opacity="0.03" d="M79.4695 80.8414L176.31 135.694L112.095 173.386C108.111 175.732 102.094 176.358 98.0987 174.035L29.9963 135.67C27.2886 134.093 26.0611 129.496 28.7568 127.908L79.4575 80.8294L79.4695 80.8414Z" fill="#245E83"/>
<path opacity="0.05" d="M79.2171 83.2242L173.663 136.705L112.059 172.832C108.437 174.962 102.323 175.913 98.6887 173.795L31.1038 135.718C28.6368 134.286 26.8076 129.701 29.2626 128.257L79.2292 83.2242H79.2171Z" fill="#255D84"/>
<path opacity="0.06" d="M78.9527 85.5949L171.003 137.692L112.011 172.242C108.75 174.156 102.54 175.419 99.2788 173.518L32.1993 135.73C29.985 134.442 27.542 129.869 29.7443 128.57L78.9648 85.5949H78.9527Z" fill="#265D85"/>
<path opacity="0.08" d="M78.6992 87.9777L168.343 138.702L111.962 171.689C109.062 173.397 102.756 174.962 99.8555 173.265L33.2815 135.754C31.3079 134.611 28.2632 130.05 30.2248 128.894L78.6992 87.9656V87.9777Z" fill="#275C85"/>
<path opacity="0.09" d="M78.4474 90.3484L165.696 139.701L111.927 171.123C109.388 172.615 102.997 174.493 100.458 173.012L34.3896 135.79C32.6687 134.791 29.0102 130.242 30.7191 129.231L78.4474 90.3605V90.3484Z" fill="#285C86"/>
<path opacity="0.11" d="M78.1936 92.7312L163.048 140.712L111.89 170.557C109.712 171.833 103.225 174.023 101.047 172.76L35.4837 135.814C34.0035 134.96 29.7433 130.423 31.2115 129.556L78.1936 92.7312Z" fill="#285B87"/>
<path opacity="0.12" d="M77.9412 95.1019L160.401 141.699L111.842 169.98C110.037 171.039 103.442 173.542 101.625 172.495L36.5792 135.838C35.3517 135.116 30.4657 130.603 31.6932 129.881L77.9292 95.114L77.9412 95.1019Z" fill="#295B88"/>
<path opacity="0.14" d="M77.6764 97.4849L157.741 142.71L111.794 169.414C110.35 170.269 103.659 173.085 102.214 172.23L37.6742 135.862C36.6874 135.285 31.1997 130.784 32.1866 130.194L77.6764 97.4729V97.4849Z" fill="#2A5A88"/>
<path opacity="0.15" d="M77.4233 99.8557L155.093 143.709L111.757 168.849C110.674 169.486 103.899 172.615 102.804 171.977L38.769 135.886C38.0349 135.453 31.9335 130.952 32.6676 130.519L77.4233 99.8557Z" fill="#2B5A89"/>
<path opacity="0.17" d="M77.17 102.238L152.445 144.72L111.721 168.283C110.999 168.704 104.127 172.146 103.405 171.725L39.8755 135.923C39.3821 135.634 32.679 131.145 33.1724 130.856L77.182 102.238H77.17Z" fill="#2C598A"/>
<path opacity="0.18" d="M76.918 104.609L149.786 145.706L111.673 167.705C111.312 167.922 104.344 171.665 103.983 171.46L40.9594 135.935C40.7187 135.79 33.4018 131.313 33.6425 131.169L76.906 104.609H76.918Z" fill="#2D598A"/>
<path opacity="0.2" d="M34.1484 131.506L104.573 171.195L147.139 146.717L76.6658 106.992L34.1484 131.506Z" fill="#2E588B"/>
</g>
<g style="mix-blend-mode:multiply">
<path opacity="0.02" d="M19.3232 123.732L23.9324 126.115L33.1146 131.217L46.8939 138.883L30.9965 149.846C29.4441 150.761 27.675 150.857 26.1106 149.955L21.9467 147.789L14.2447 143.456L2.37883 136.777C2.07797 136.597 1.82526 136.332 1.69288 136.043C1.36796 135.333 1.51237 134.394 2.2585 133.949L19.2991 123.744L19.3232 123.732Z" fill="#235E83"/>
<path opacity="0.03" d="M18.5891 124.743L22.9817 126.837L31.7306 131.699L44.8601 139.004L30.9364 149.413C29.5163 150.256 28.0722 150.436 26.6401 149.606L22.6567 147.716L15.2917 143.565L3.9433 137.174C3.66651 137.018 3.40176 136.741 3.28141 136.488C2.99259 135.839 3.0287 134.936 3.7267 134.527L18.6132 124.755L18.5891 124.743Z" fill="#245E83"/>
<path opacity="0.05" d="M17.8537 125.754L22.0296 127.547L30.3454 132.18L42.8129 139.112L30.8628 148.98C29.5631 149.738 28.4439 150.015 27.1442 149.269L23.3414 147.656L16.3133 143.697L5.47037 137.583C5.21765 137.439 4.94086 137.174 4.83255 136.934C4.56779 136.344 4.51965 135.465 5.14544 135.104L17.8657 125.766L17.8537 125.754Z" fill="#255D84"/>
<path opacity="0.06" d="M17.1201 126.752L21.0673 128.245L28.9498 132.637L40.7555 139.208L30.779 148.523C29.6117 149.209 28.8174 149.582 27.6501 148.896L24.0278 147.56L17.3247 143.781L6.98714 137.956C6.75849 137.824 6.46967 137.559 6.37339 137.343C6.13271 136.813 5.98829 135.971 6.5539 135.634L17.108 126.728L17.1201 126.752Z" fill="#265D85"/>
<path opacity="0.08" d="M16.3976 127.763L20.1282 128.967L27.5775 133.119L38.7333 139.328L30.7184 148.102C29.6835 148.715 29.2021 149.173 28.1671 148.571L24.7253 147.512L18.3592 143.926L8.53913 138.39C8.33455 138.269 8.03368 138.017 7.94944 137.824C7.73282 137.355 7.50418 136.537 7.99759 136.248L16.3976 127.775V127.763Z" fill="#275C85"/>
<path opacity="0.09" d="M15.6641 128.774L19.1782 129.677L26.1942 133.588L36.6881 139.437L30.6469 147.656C29.7443 148.186 29.5879 148.739 28.6733 148.21L25.412 147.428L19.3707 144.022L10.0561 138.775C9.8756 138.667 9.56271 138.414 9.47847 138.245C9.28592 137.836 8.961 137.054 9.40627 136.789L15.6401 128.75L15.6641 128.774Z" fill="#285C86"/>
<path opacity="0.11" d="M14.9298 129.785L18.2273 130.387L24.81 134.069L34.6421 139.557L30.5745 147.235C29.7923 147.692 29.9728 148.33 29.1905 147.885L26.1097 147.391L20.4055 144.178L11.6084 139.22C11.4519 139.136 11.127 138.883 11.0548 138.739C10.8983 138.39 10.4771 137.644 10.8502 137.415L14.9298 129.809V129.785Z" fill="#285B87"/>
<path opacity="0.12" d="M14.1957 130.784L17.2765 131.097L23.438 134.539L32.6203 139.665L30.5263 146.79C29.8764 147.175 30.3698 147.909 29.72 147.524L26.8197 147.307L21.4524 144.274L13.1607 139.605C13.0283 139.533 12.6914 139.28 12.6312 139.16C12.4988 138.871 11.9814 138.149 12.2942 137.968L14.2077 130.796L14.1957 130.784Z" fill="#295B88"/>
<path opacity="0.14" d="M13.4739 131.795H16.3261L22.0544 135.008L30.5748 139.774L30.4544 146.344C29.9369 146.645 30.7553 147.476 30.2378 147.175L27.518 147.235L22.4756 144.395L14.6894 140.014C14.5931 139.954 14.2321 139.714 14.184 139.617C14.0757 139.377 13.474 138.703 13.7146 138.546L13.4619 131.807L13.4739 131.795Z" fill="#2A5A88"/>
<path opacity="0.15" d="M12.7393 132.806L15.3748 132.517L20.6699 135.477L28.5283 139.882L30.3816 145.911C29.9965 146.14 31.1277 147.054 30.7426 146.826L28.2034 147.163L23.498 144.515L16.2292 140.411C16.157 140.363 15.7719 140.123 15.7478 140.05C15.6636 139.87 14.9656 139.22 15.1582 139.112L12.7513 132.806H12.7393Z" fill="#2B5A89"/>
<path opacity="0.17" d="M12.0052 133.817L14.4241 133.227L19.286 135.959L26.4825 140.002L30.3094 145.478C30.0447 145.634 31.5129 146.633 31.2481 146.489L28.8894 147.103L24.5089 144.636L17.7456 140.821C17.7456 140.821 17.3003 140.544 17.2883 140.508C17.2402 140.387 16.4459 139.774 16.5662 139.701L11.9932 133.817H12.0052Z" fill="#2C598A"/>
<path opacity="0.18" d="M11.2718 134.827L13.4741 133.949L17.9027 136.44L24.4494 140.123L30.25 145.057C30.1176 145.129 31.9107 146.236 31.7783 146.152L29.6001 147.042L25.5566 144.768L19.2987 141.242C19.2987 141.242 18.8655 140.989 18.8534 140.965C18.8294 140.905 17.9388 140.327 17.999 140.279L11.2598 134.827H11.2718Z" fill="#2D598A"/>
<path opacity="0.2" d="M10.5498 135.826L20.418 141.398L30.2982 146.958L32.2838 145.791L22.4036 140.219L12.5234 134.647L10.5498 135.826Z" fill="#2E588B"/>
</g>
<path d="M40.8398 31.2479L75.9801 10.7293L137.139 45.8335L101.974 66.352L40.8398 31.2479Z" fill="url(#paint0_linear_847_10654)"/>
<path d="M75.9204 5.3139L30.6592 31.6691L102.805 73.1515L148.018 46.8204L75.9204 5.3139ZM101.975 66.3521L40.8403 31.2479L75.9805 10.7414L137.151 45.8335L101.987 66.3641L101.975 66.3521Z" fill="url(#paint1_linear_847_10654)"/>
<path d="M40.8398 31.2479L75.9801 51.4295V10.7293L40.8398 31.2479Z" fill="#8CB9DE"/>
<path style="mix-blend-mode:screen" opacity="0.3" d="M75.7038 50.9963L44.5469 33.0772L75.7038 14.8812V50.9963Z" fill="url(#paint2_radial_847_10654)"/>
<path d="M47.6377 26.8555V85.9682L79.8536 67.3992C80.4553 67.0502 80.8405 66.4004 80.8405 65.7024V9.77876C80.8405 8.86415 79.8536 8.29853 79.0594 8.75583L47.6377 26.8675V26.8555Z" fill="#07366C"/>
<path d="M47.8182 27.1683L79.2399 9.05665C79.7814 8.74375 80.3952 8.91224 80.7442 9.34548C80.4914 8.70766 79.7092 8.37069 79.0594 8.75579L47.6377 26.8675V85.9802L47.8182 85.8719V27.1683Z" fill="#0D547A"/>
<path d="M52.981 30.8027V84.7286L48.9014 81.9126V28.0107L52.981 30.8027Z" fill="#DBE9FF"/>
<path d="M48.9014 28.0106L52.981 30.8026L83.0067 13.4852L78.8669 10.6571L48.9014 28.0106Z" fill="white"/>
<path d="M52.3203 29.9002V89.0129L84.5363 70.4439C85.138 70.0949 85.5231 69.445 85.5231 68.747V12.8234C85.5231 11.9088 84.5363 11.3432 83.742 11.8005L52.3203 29.9122V29.9002Z" fill="#0D547A"/>
<path d="M52.7273 29.9241V89.0368C52.7273 89.0368 49.3216 88.8443 47.7692 85.7274L47.7451 85.6913V26.8795H47.9617C49.5142 30.0204 52.7273 29.9241 52.7273 29.9241Z" fill="#0D547A"/>
<path d="M52.585 30.1046V89.2173L84.8009 70.6483C85.4026 70.2993 85.7877 69.6495 85.7877 68.9515V13.0279C85.7877 12.1133 84.8009 11.5477 84.0067 12.005L52.585 30.1167V30.1046Z" fill="#07366C"/>
<path d="M52.6082 30.1047V89.2174C52.6082 89.2174 49.2025 89.0248 47.65 85.9079L47.626 85.8718V26.7952C49.1784 29.9242 52.6082 30.1047 52.6082 30.1047Z" fill="#004D77"/>
<path d="M52.6689 22.0176C52.6689 22.0176 55.0397 20.056 56.3876 19.8755C57.7354 19.695 60.4431 20.1884 60.7801 20.6938C61.0809 21.1511 60.2145 22.0778 59.2758 22.5231C58.2769 23.0044 57.964 23.2451 57.2059 23.546C56.4477 23.8589 55.5451 23.7626 54.1612 24.3764C53.5595 24.6411 52.6689 22.0176 52.6689 22.0176Z" fill="#FDFEFF"/>
<g style="mix-blend-mode:multiply">
<path d="M59.5771 20.5975C59.8177 20.7179 59.902 21.1872 59.3604 21.464C58.8309 21.7288 58.145 21.825 57.6997 22.0056C57.2424 22.1861 55.5215 21.9815 55.5215 21.9815L59.5771 20.5975Z" fill="#BFD2B7"/>
</g>
<path d="M55.305 19.9717C55.5217 19.7791 56.7612 19.4542 57.2787 19.3459C57.7961 19.2376 58.0368 18.8765 58.2534 18.9728C58.4821 19.0691 58.783 19.5745 57.7119 20.092C56.6409 20.6095 56.0151 20.8983 55.4856 21.3556C54.956 21.8129 53.897 22.6433 53.4638 22.4989C53.0306 22.3665 53.0907 21.6565 53.0907 21.6565C53.0907 21.6565 55.0884 20.1522 55.305 19.9596V19.9717Z" fill="#FDFEFF"/>
<path d="M53.7277 20.8864C53.7277 20.8864 54.5341 21.103 54.7507 22.0176C54.9673 22.9202 54.6544 24.5568 54.6544 24.5568L43.1134 28.7689C43.1134 28.7689 39.0218 30.8147 38.1072 27.2886C37.2286 23.919 39.5754 23.7024 44.7862 22.6434C50.2859 21.5242 53.7398 20.8864 53.7398 20.8864H53.7277Z" fill="url(#paint3_linear_847_10654)"/>
<g style="mix-blend-mode:multiply">
<path d="M54.8111 23.3534C54.7269 24.1236 54.6546 24.5568 54.6546 24.5568L43.1137 28.7688C43.1137 28.7688 39.0581 30.8027 38.1074 27.3007C40.2856 27.0359 41.7057 27.9385 46.375 26.4462C50.6352 25.0743 53.9446 23.6783 54.8231 23.3654L54.8111 23.3534Z" fill="#BFD2B7"/>
</g>
<path d="M55.3398 18.2629V77.3756L87.5558 58.8066C88.1575 58.4576 88.5426 57.8078 88.5426 57.1098V1.18617C88.5426 0.271558 87.5558 -0.294064 86.7615 0.163241L55.3398 18.2749V18.2629Z" fill="#4B8CA0"/>
<path d="M55.5204 18.5757L86.942 0.463994C87.4836 0.151101 88.0973 0.319588 88.4463 0.752825C88.1936 0.115005 87.4114 -0.221964 86.7615 0.163135L55.3398 18.2748V77.3876L55.5204 77.2792V18.5757Z" fill="#4B8CA0"/>
<path d="M66.8448 25.3271V79.253L56.6035 73.308V19.4182L66.8448 25.3271Z" fill="#DBE9FF"/>
<path d="M56.6035 19.4181L66.8448 25.327L96.8584 8.00955L86.5691 2.06458L56.6035 19.4181Z" fill="white"/>
<path d="M66.1709 24.4245V83.5372L98.3868 64.9682C98.9885 64.6192 99.3737 63.9693 99.3737 63.2713V7.34771C99.3737 6.4331 98.3868 5.8675 97.5926 6.3248L66.1709 24.4365V24.4245Z" fill="#4B8CA0"/>
<path d="M66.5911 24.4484V83.5611L63.414 83.0316C59.9842 82.454 57.0238 80.2637 55.4713 77.1468L55.4473 77.1107V18.2989H55.6639C57.2163 21.4399 59.9602 23.3413 63.402 23.9189L66.579 24.4484H66.5911Z" fill="#4B8CA0"/>
<path d="M66.4365 24.629V83.7418L98.6525 65.1728C99.2542 64.8238 99.6393 64.1739 99.6393 63.4759V7.5523C99.6393 6.63769 98.6525 6.07209 97.8582 6.52939L66.4365 24.6411V24.629Z" fill="#4B8CA0"/>
<path d="M66.4719 24.629V83.7418L63.2949 83.2122C59.8651 82.6346 56.9046 80.4443 55.3522 77.3274L55.3281 77.2913V18.2147C56.8806 21.3437 59.841 23.5339 63.2828 24.1116L66.4599 24.6411L66.4719 24.629Z" fill="#4B8CA0"/>
<path d="M69.2529 37.7827V96.8954L101.469 78.3265C102.071 77.9775 102.456 77.3276 102.456 76.6296V20.706C102.456 19.7914 101.469 19.2258 100.675 19.6831L69.2529 37.7948V37.7827Z" fill="#4B8CA0"/>
<path d="M69.4461 38.0953L100.868 19.9836C101.409 19.6708 102.023 19.8392 102.372 20.2725C102.119 19.6347 101.337 19.2977 100.687 19.6828L69.2656 37.7945V96.9072L69.4461 96.7989V38.0953Z" fill="#4B8CA0"/>
<path d="M77.0753 42.6445V96.5704L70.5166 92.8277V38.9379L77.0753 42.6445Z" fill="#DBE9FF"/>
<path d="M70.5166 38.9378L77.0753 42.6444L107.101 25.327L100.482 21.5843L70.5166 38.9378Z" fill="white"/>
<path d="M76.4131 41.7418V100.855L108.629 82.2855C109.231 81.9366 109.616 81.2867 109.616 80.5887V24.6651C109.616 23.7505 108.629 23.1849 107.835 23.6422L76.4131 41.7539V41.7418Z" fill="#4B8CA0"/>
<path d="M76.8223 41.7659V100.879C76.8223 100.879 70.9495 99.7714 69.3971 96.6545L69.373 96.6184V37.8066H69.5897C71.1421 40.9475 76.8223 41.7659 76.8223 41.7659Z" fill="#4B8CA0"/>
<path d="M76.6787 41.9464V101.059L108.895 82.4901C109.496 82.1411 109.881 81.4912 109.881 80.7932V24.8696C109.881 23.955 108.895 23.3894 108.1 23.8467L76.6787 41.9584V41.9464Z" fill="#4B8CA0"/>
<path d="M89.2176 101.456C89.013 101.456 88.8084 101.348 88.7001 101.155C88.5316 100.866 88.6279 100.505 88.9167 100.337L90.9987 99.1335C91.2875 98.965 91.6605 99.0613 91.817 99.3501C91.9855 99.639 91.8892 100.012 91.6004 100.168L89.5184 101.372C89.4221 101.432 89.3138 101.456 89.2176 101.456ZM94.4285 98.4355C94.2239 98.4355 94.0193 98.3272 93.9109 98.1347C93.7425 97.8458 93.8388 97.4848 94.1276 97.3163L96.2095 96.1129C96.4983 95.9444 96.8714 96.0407 97.0278 96.3295C97.1963 96.6183 97.1001 96.9914 96.8112 97.1478L94.7293 98.3513C94.633 98.4114 94.5247 98.4355 94.4285 98.4355ZM99.6393 95.4149C99.4347 95.4149 99.2302 95.3066 99.1218 95.114C98.9534 94.8252 99.0496 94.4642 99.3385 94.2957L101.42 93.0923C101.709 92.9238 102.07 93.0201 102.239 93.3089C102.407 93.5977 102.311 93.9708 102.022 94.1272L99.9402 95.3306C99.8439 95.3908 99.7356 95.4149 99.6393 95.4149ZM104.838 92.4063C104.634 92.4063 104.429 92.298 104.321 92.1054C104.152 91.8166 104.248 91.4556 104.537 91.2871L106.619 90.0837C106.908 89.9152 107.281 90.0115 107.438 90.3003C107.606 90.5891 107.51 90.9622 107.221 91.1186L105.139 92.3221C105.043 92.3822 104.934 92.4063 104.838 92.4063ZM110.049 89.3857C109.844 89.3857 109.64 89.2774 109.532 89.0848C109.363 88.796 109.459 88.435 109.748 88.2665L111.072 87.4963C111.252 87.4 111.397 87.2556 111.517 87.0871C111.71 86.8103 112.083 86.7381 112.36 86.9307C112.636 87.1232 112.709 87.4963 112.516 87.7731C112.299 88.086 112.011 88.3507 111.686 88.5433L110.362 89.3135C110.266 89.3736 110.157 89.3977 110.061 89.3977L110.049 89.3857ZM112.348 84.4877C112.011 84.4877 111.746 84.2229 111.746 83.886V81.4791C111.746 81.1422 112.011 80.8774 112.348 80.8774C112.685 80.8774 112.949 81.1422 112.949 81.4791V83.886C112.949 84.2229 112.685 84.4877 112.348 84.4877ZM112.348 78.4705C112.011 78.4705 111.746 78.2058 111.746 77.8688V75.4619C111.746 75.125 112.011 74.8602 112.348 74.8602C112.685 74.8602 112.949 75.125 112.949 75.4619V77.8688C112.949 78.2058 112.685 78.4705 112.348 78.4705ZM112.348 72.4534C112.011 72.4534 111.746 72.1886 111.746 71.8516V69.4448C111.746 69.1078 112.011 68.8431 112.348 68.8431C112.685 68.8431 112.949 69.1078 112.949 69.4448V71.8516C112.949 72.1886 112.685 72.4534 112.348 72.4534ZM112.348 66.4362C112.011 66.4362 111.746 66.1714 111.746 65.8345V63.4276C111.746 63.0906 112.011 62.8259 112.348 62.8259C112.685 62.8259 112.949 63.0906 112.949 63.4276V65.8345C112.949 66.1714 112.685 66.4362 112.348 66.4362ZM112.348 60.419C112.011 60.419 111.746 60.1543 111.746 59.8173V58.0603C111.746 57.7233 112.011 57.4586 112.348 57.4586C112.685 57.4586 112.949 57.7233 112.949 58.0603V59.8173C112.949 60.1543 112.685 60.419 112.348 60.419Z" fill="#5094A7"/>
<path d="M76.7022 41.9465V101.059C76.7022 101.059 70.8294 99.952 69.277 96.8351L69.2529 96.799V37.7224C70.8054 40.8513 76.7022 41.9465 76.7022 41.9465Z" fill="#4B8CA0"/>
<path d="M79.9141 43.4387V102.551L112.13 83.9824C112.732 83.6334 113.117 82.9835 113.117 82.2855V26.3619C113.117 25.4473 112.13 24.8817 111.336 25.339L79.9141 43.4507V43.4387Z" fill="#317795"/>
<path d="M80.0946 43.7516L111.516 25.6399C112.058 25.327 112.672 25.4955 113.021 25.9287C112.768 25.2909 111.986 24.9539 111.336 25.339L79.9141 43.4507V102.563L80.0946 102.455V43.7516Z" fill="#4B8CA0"/>
<path d="M85.2574 47.3861V101.324L81.1777 98.4959V44.5941L85.2574 47.3861Z" fill="#DBE9FF"/>
<path d="M81.1777 44.594L85.2574 47.386L115.283 30.0686L111.143 27.2405L81.1777 44.594Z" fill="white"/>
<path d="M84.5967 46.4834V105.596L116.813 87.0271C117.414 86.6781 117.799 86.0282 117.799 85.3302V29.4066C117.799 28.492 116.813 27.9264 116.018 28.3837L84.5967 46.4954V46.4834Z" fill="#4B8CA0"/>
<path d="M85.0174 46.5074V105.62C85.0174 105.62 81.6117 105.428 80.0592 102.311L80.0352 102.275V43.4627H80.2518C81.8042 46.6037 85.0174 46.5074 85.0174 46.5074Z" fill="#4B8CA0"/>
<path d="M84.8604 46.6878V105.801L117.076 87.2315C117.678 86.8825 118.063 86.2327 118.063 85.5347V29.6111C118.063 28.6965 117.076 28.1309 116.282 28.5882L84.8604 46.6999V46.6878Z" fill="#317795"/>
<path d="M84.8845 46.6878V105.801C84.8845 105.801 81.4788 105.608 79.9264 102.491L79.9023 102.455V43.3784C81.4548 46.5073 84.8845 46.6878 84.8845 46.6878Z" fill="#8EB5C9"/>
<path d="M87.6172 47.2898V106.403L119.833 87.8335C120.435 87.4845 120.82 86.8347 120.82 86.1367V30.2131C120.82 29.2985 119.833 28.7329 119.039 29.1902L87.6172 47.3019V47.2898Z" fill="#1E6B93"/>
<path d="M87.7977 47.5906L119.219 29.4789C119.761 29.166 120.375 29.3345 120.724 29.7677C120.471 29.1299 119.689 28.7929 119.039 29.178L87.6172 47.2897V106.402L87.7977 106.294V47.5906Z" fill="#4B8CA0"/>
<path d="M99.1221 54.3419V108.28L88.8809 102.335V48.433L99.1221 54.3419Z" fill="#DBE9FF"/>
<path d="M88.8809 48.433L99.1221 54.3419L129.136 37.0244L118.846 31.0795L88.8809 48.433Z" fill="white"/>
<path d="M98.4482 53.4392V112.552L130.664 93.9829C131.266 93.6339 131.651 92.9841 131.651 92.2861V36.3625C131.651 35.4479 130.664 34.8823 129.87 35.3396L98.4482 53.4513V53.4392Z" fill="#4B8CA0"/>
<path d="M98.8684 53.4633V112.576L95.6913 112.046C92.2616 111.469 89.3011 109.279 87.7487 106.162L87.7246 106.126V47.3137H87.9412C89.4936 50.4547 92.2375 52.3561 95.6793 52.9338L98.8564 53.4633H98.8684Z" fill="#4B8CA0"/>
<path d="M98.7139 53.6439V112.757L130.93 94.1876C131.532 93.8387 131.917 93.1888 131.917 92.4908V36.5672C131.917 35.6526 130.93 35.087 130.136 35.5443L98.7139 53.656V53.6439Z" fill="#1E6B93"/>
<path d="M98.7493 53.6437V112.756L95.5722 112.227C92.1424 111.649 89.182 109.459 87.6295 106.342L87.6055 106.306V47.2294C89.1579 50.3584 92.1183 52.5486 95.5602 53.1263L98.7372 53.6558L98.7493 53.6437Z" fill="#317795"/>
<path d="M102.815 173.771L30.6455 132.288V31.6812L102.815 73.1635V173.771Z" fill="url(#paint4_linear_847_10654)"/>
<path d="M148.005 147.403L102.792 173.771V73.1635L148.005 46.8324V147.403Z" fill="url(#paint5_linear_847_10654)"/>
<path d="M111.745 76.0398L103.092 81.01L30.6455 38.8898V43.523L103.092 85.6432L111.745 80.673V76.0398Z" fill="#347EA9"/>
<path d="M111.745 87.0753L103.092 92.0575L30.6455 49.9252V54.5585L103.092 96.6907L111.745 91.7085V87.0753Z" fill="#347EA9"/>
<path d="M111.745 98.1107L103.092 103.093L30.6455 60.9606V65.5939L103.092 107.726L111.745 102.744V98.1107Z" fill="#347EA9"/>
<path d="M111.745 109.158L103.092 114.128L30.6455 72.0082V76.6415L103.092 118.762L111.745 113.791V109.158Z" fill="#347EA9"/>
<path d="M111.745 120.194L103.092 125.176L30.6455 83.0437V87.6769L103.092 129.809L111.745 124.827V120.194Z" fill="#347EA9"/>
<path d="M111.745 131.229L103.092 136.212L30.6455 94.0793V98.7125L103.092 140.845L111.745 135.863V131.229Z" fill="#347EA9"/>
<path d="M111.745 142.277L103.092 147.247L30.6455 105.127V109.76L103.092 151.88L111.745 146.91V142.277Z" fill="#347EA9"/>
<path d="M111.745 153.312L103.092 158.294L30.6455 116.162V120.795L103.092 162.928L111.745 157.945V153.312Z" fill="#347EA9"/>
<g style="mix-blend-mode:multiply">
<path d="M111.745 79.8306L103.092 84.8008L30.6455 42.6805V43.523L103.092 85.6432L111.745 80.673V79.8306Z" fill="#347EA9"/>
<path d="M111.745 90.8661L103.092 95.8483L30.6455 53.7161V54.5585L103.092 96.6907L111.745 91.7085V90.8661Z" fill="#347EA9"/>
<path d="M111.745 101.901L103.092 106.884L30.6455 64.7515V65.5939L103.092 107.726L111.745 102.744V101.901Z" fill="#347EA9"/>
<path d="M111.745 112.949L103.092 117.919L30.6455 75.7991V76.6415L103.092 118.762L111.745 113.792V112.949Z" fill="#347EA9"/>
<path d="M111.745 123.985L103.092 128.967L30.6455 86.8346V87.677L103.092 129.809L111.745 124.827V123.985Z" fill="#347EA9"/>
<path d="M111.745 135.02L103.092 140.002L30.6455 97.8701V98.7125L103.092 140.845L111.745 135.863V135.02Z" fill="#347EA9"/>
<path d="M111.745 146.068L103.092 151.038L30.6455 108.918V109.76L103.092 151.88L111.745 146.91V146.068Z" fill="#347EA9"/>
<path d="M111.745 157.103L103.092 162.085L30.6455 119.953V120.795L103.092 162.928L111.745 157.946V157.103Z" fill="#347EA9"/>
</g>
<path d="M135.152 44.6902L137.137 45.8335L101.973 66.3521L40.8386 31.2479L45.4959 28.5281L40.7664 25.7843L30.6455 31.6811L102.791 73.1635L148.004 46.8324L140.327 42.4037L135.152 44.6902Z" fill="url(#paint6_linear_847_10654)"/>
<g style="mix-blend-mode:multiply">
<path opacity="0.06" d="M39.418 55.5091V63.5962C39.418 63.5962 39.418 65.4615 39.4421 65.4615L39.5022 68.1331L39.8031 80.6248C39.8031 82.5623 41.2472 84.9692 42.9079 86.0763C42.9922 86.1365 43.0884 86.1846 43.1727 86.2448L50.9469 90.7697L58.7211 95.2946C59.8523 95.9445 61.2122 95.8362 62.0065 95.1262C62.4638 94.729 62.7646 94.1273 62.7646 93.3812V87.2196C62.7646 87.2196 62.7526 84.4156 62.7285 84.4035L62.6443 80.7932L62.3554 68.3016C62.3554 66.352 60.2374 64.0294 58.5165 62.9343C58.4443 62.8861 58.3601 62.838 58.2879 62.7899L50.5257 58.277L42.7635 53.7641C40.9945 52.7412 39.4421 53.4994 39.4421 55.5332L39.418 55.5091Z" fill="#5697BC"/>
<path opacity="0.12" d="M39.4434 55.9544V63.7286C39.4434 63.7286 39.4674 65.4977 39.4915 65.5217L39.6118 68.0489L40.2015 79.8787C40.2015 81.6839 41.7178 84.0306 43.2582 85.0535C43.3425 85.1016 43.4267 85.1618 43.5109 85.2099L50.9843 89.5543L58.4576 93.8987C59.5166 94.5125 60.8524 94.4403 61.6106 93.7904C62.0438 93.4174 62.3567 92.8638 62.3567 92.1417V86.2208C62.3567 86.2208 62.3206 83.5492 62.2845 83.5251L62.1161 80.1074L61.5504 68.2896C61.5504 66.4724 59.4083 64.21 57.8077 63.1991C57.7355 63.151 57.6633 63.1028 57.5911 63.0667L50.1298 58.7344L42.6686 54.402C41.0199 53.4513 39.4554 54.0891 39.4554 55.9905L39.4434 55.9544Z" fill="#5697BC"/>
<path opacity="0.19" d="M39.4795 56.3997V63.861C39.4795 63.861 39.5156 65.5458 39.5517 65.5699L39.7322 67.9527L40.6227 79.1206C40.6227 80.7934 42.1992 83.0679 43.6313 84.0186C43.7035 84.0667 43.7878 84.1269 43.872 84.163L51.0565 88.3269L58.241 92.4907C59.2278 93.0564 60.5516 93.0203 61.2616 92.4426C61.6828 92.0936 61.9957 91.5882 61.9957 90.8902V85.21C61.9957 85.1378 61.9476 82.6707 61.8874 82.6346L61.6347 79.4094L60.7803 68.2536C60.7803 66.5688 58.6141 64.3665 57.1218 63.4278C57.0496 63.3917 56.9774 63.3436 56.9172 63.3075L49.7568 59.1556L42.5964 55.0038C41.056 54.1132 39.4915 54.6427 39.4915 56.4118L39.4795 56.3997Z" fill="#5697BC"/>
<path opacity="0.25" d="M39.5029 56.845V63.9934C39.5029 64.0536 39.5511 65.5939 39.5992 65.618L39.8519 67.8564L41.0313 78.3624C41.0313 79.9028 42.68 82.1051 43.9918 82.9836C44.064 83.0317 44.1482 83.0799 44.2204 83.116L51.1161 87.0993L57.9997 91.0827C58.9023 91.6002 60.214 91.6122 60.8879 91.0827C61.2971 90.7698 61.598 90.3005 61.598 89.6145V84.175C61.598 84.0787 61.5378 81.7681 61.4536 81.72L61.1287 78.6873L59.9854 68.1934C59.9854 66.641 57.7951 64.4988 56.4232 63.6324C56.363 63.5963 56.2908 63.5481 56.2307 63.512L49.3711 59.5407L42.5115 55.5693C41.0915 54.751 39.5029 55.1602 39.5029 56.7848V56.845Z" fill="#5697BC"/>
<path opacity="0.31" d="M39.5391 57.2903V64.1378C39.5391 64.21 39.5872 65.6421 39.6594 65.6903L39.9723 67.7963L41.4525 77.6524C41.4525 79.0725 43.1614 81.1905 44.3648 81.9968C44.425 82.0329 44.5093 82.0931 44.5815 82.1292L51.1763 85.932L57.7711 89.7349C58.6015 90.2163 59.9012 90.2644 60.527 89.8071C60.9121 89.5183 61.2249 89.085 61.2249 88.4352V83.2364C61.2249 83.1281 61.1407 80.9619 61.0444 80.9017L60.6353 78.0616L59.2152 68.2416C59.2152 66.8095 57.0129 64.7516 55.7493 63.9573C55.6892 63.9212 55.617 63.8731 55.5688 63.849L49.0101 60.0582L42.4514 56.2674C41.1517 55.5213 39.5511 55.8221 39.5511 57.3023L39.5391 57.2903Z" fill="#5697BC"/>
<path opacity="0.38" d="M39.5635 57.7355V64.2702C39.5635 64.3664 39.6237 65.6902 39.7079 65.7384L40.081 67.7L41.85 76.8942C41.85 78.1819 43.6191 80.2277 44.7262 80.9738C44.7864 81.0099 44.8706 81.0581 44.9308 81.0942L51.2368 84.7286L57.5428 88.3509C58.301 88.7841 59.5887 88.8804 60.1663 88.4833C60.5394 88.2185 60.8522 87.8334 60.8522 87.2076V82.2495C60.8522 82.1171 60.756 80.1074 60.6356 80.0352L60.1422 77.3876L58.4334 68.2295C58.4334 66.9298 56.207 64.9321 55.0517 64.21C55.0036 64.1739 54.9313 64.1378 54.8832 64.1017L48.6253 60.5034L42.3675 56.9052C41.1881 56.2192 39.5635 56.4117 39.5635 57.7596V57.7355Z" fill="#5697BC"/>
<path opacity="0.44" d="M39.5989 58.1808V64.4026C39.5989 64.5109 39.6711 65.7384 39.7674 65.7865L40.2006 67.6037L42.2705 76.136C42.2705 77.2913 44.1118 79.277 45.0986 79.9389C45.1468 79.975 45.231 80.0231 45.2791 80.0472L51.2963 83.5011L57.3015 86.9429C57.9754 87.34 59.3233 87.5566 59.7926 87.1234C60.1897 86.9549 60.4665 86.5458 60.4665 85.944V81.2266C60.4665 81.0701 60.3582 79.2168 60.2138 79.1446L59.6361 76.6896L57.6384 68.2054C57.6384 67.0381 55.388 65.1006 54.353 64.4507C54.3049 64.4266 54.2327 64.3785 54.1966 64.3544L48.2396 60.9367L42.2826 57.5189C41.2236 56.9052 39.5869 56.9774 39.5869 58.1928L39.5989 58.1808Z" fill="#5697BC"/>
<path opacity="0.5" d="M39.6234 58.6261V64.5349C39.6234 64.6553 39.7076 65.7865 39.8159 65.8467L40.3093 67.5194L42.6681 75.3899C42.6681 76.4249 44.5695 78.3263 45.448 78.916C45.4961 78.9521 45.5804 79.0002 45.6165 79.0243L51.3328 82.2976L57.0491 85.571C57.6508 85.92 58.9987 86.1968 59.4078 85.8117C59.7929 85.6913 60.0697 85.2942 60.0697 84.7286V80.2518C60.0697 80.0713 59.9374 78.3744 59.7809 78.2902L59.119 76.0277L56.8445 68.2054C56.8445 67.1705 54.57 65.2931 53.6554 64.7154C53.6193 64.6914 53.5471 64.6553 53.511 64.6312L47.8549 61.394L42.1987 58.1567C41.26 57.6152 39.6113 57.567 39.6113 58.6501L39.6234 58.6261Z" fill="#5697BC"/>
<path opacity="0.56" d="M39.6598 59.0714V64.6673C39.6598 64.7997 39.7561 65.8227 39.8764 65.8949L40.43 67.4232L43.0896 74.6318C43.0896 75.5344 45.0512 77.3636 45.8214 77.8811C45.8575 77.9051 45.9417 77.9533 45.9778 77.9773L51.4053 81.0702L56.8208 84.163C57.3503 84.4638 58.6861 84.8008 59.0471 84.4638C59.4322 84.3796 59.697 84.0186 59.697 83.477V79.2409C59.697 79.0364 59.5526 77.496 59.3841 77.3997L58.6379 75.3298L56.0746 68.1693C56.0746 67.2668 53.7761 65.4616 52.9818 64.9562C52.9457 64.9321 52.8735 64.896 52.8374 64.8719L47.4821 61.8152L42.1268 58.7585C41.2965 58.2771 39.6357 58.1207 39.6357 59.0714H39.6598Z" fill="#5697BC"/>
<path opacity="0.62" d="M39.6836 59.5046V64.7997C39.6836 64.9561 39.7919 65.8707 39.9243 65.9429L40.5381 67.3389L43.4865 73.8856C43.4865 74.6558 45.5202 76.4128 46.1821 76.8581C46.2182 76.8822 46.2905 76.9303 46.3266 76.9423L51.4652 79.8546L56.5919 82.7669C57.0492 83.0317 58.385 83.4168 58.6979 83.128C59.0709 83.0798 59.3357 82.7549 59.3357 82.2375V78.242C59.3357 78.0134 59.1792 76.6294 58.9867 76.5211L58.1684 74.6438L55.3162 68.1572C55.3162 67.375 52.9936 65.6421 52.3076 65.2088C52.2715 65.1848 52.2114 65.1487 52.1753 65.1366L47.1208 62.2604L42.0664 59.3842C41.3564 58.9751 39.6836 58.6983 39.6836 59.5166V59.5046Z" fill="#5697BC"/>
<path opacity="0.69" d="M39.7197 59.9499V64.9321C39.7197 65.1006 39.8401 65.9189 39.9845 66.0032L40.6584 67.2547L43.9077 73.1395C43.9077 73.7894 46.0017 75.4742 46.5553 75.8352C46.5793 75.8593 46.6636 75.8954 46.6876 75.9195L51.5254 78.6513L56.3632 81.3831C56.7363 81.5997 58.0721 82.045 58.3369 81.8043C58.6979 81.8043 58.9627 81.4914 58.9627 81.01V77.2553C58.9627 77.0026 58.7821 75.7871 58.5776 75.6547L57.675 73.9699L54.546 68.1453C54.546 67.4954 52.2114 65.8227 51.6337 65.4616C51.6097 65.4496 51.5495 65.4135 51.5134 65.3894L46.7598 62.6937L42.0062 59.998C41.4166 59.6611 39.7197 59.2639 39.7197 59.9379V59.9499Z" fill="#5697BC"/>
<path opacity="0.75" d="M39.7432 60.395V65.0644C39.7432 65.2449 39.8755 65.9549 40.032 66.0512L40.7781 67.1583L44.3282 72.3812C44.3282 72.8987 46.4944 74.5113 46.9277 74.8001C46.9517 74.8122 47.0239 74.8603 47.048 74.8723L51.597 77.4357L56.1339 79.9869C56.4348 80.1554 57.7586 80.6609 57.9752 80.4683C58.3242 80.4924 58.589 80.2276 58.589 79.7583V76.2443C58.589 75.9675 58.3964 74.9084 58.1677 74.764L57.1809 73.2718L53.7632 68.109C53.7632 67.5916 51.4044 65.991 50.9471 65.7022C50.9231 65.6901 50.8629 65.654 50.8388 65.642L46.3861 63.1389L41.9334 60.6357C41.464 60.3589 39.7552 59.8535 39.7552 60.395H39.7432Z" fill="#5697BC"/>
<path opacity="0.81" d="M39.7803 60.8405V65.1969C39.7803 65.3894 39.9247 66.0032 40.0931 66.0995L40.8995 67.0622L44.7384 71.6232C44.7384 72.0083 46.9648 73.5487 47.2897 73.7653C47.3017 73.7653 47.386 73.8255 47.398 73.8255L51.6582 76.2083L55.9063 78.5791C56.1349 78.7114 57.4587 79.265 57.6151 79.1206C57.9521 79.1928 58.2169 78.9521 58.2169 78.5069V75.2335C58.2169 74.9447 58.0123 74.0301 57.7596 73.8736L56.6885 72.5739L52.982 68.0851C52.982 67.7 50.5991 66.1596 50.2501 65.943C50.2381 65.943 50.1779 65.8949 50.1539 65.8949L46.002 63.5722L41.8502 61.2496C41.5012 61.045 39.7803 60.4192 39.7803 60.8284V60.8405Z" fill="#5697BC"/>
<path opacity="0.88" d="M39.8037 61.2857V65.3292C39.8037 65.5459 39.9481 66.0513 40.1407 66.1596L41.0071 66.9779L45.147 70.8771C45.147 71.1298 47.4335 72.598 47.6621 72.7544C47.6621 72.7544 47.7464 72.8026 47.7584 72.8146L51.7177 75.0169L55.665 77.2071C55.8214 77.2914 57.1332 77.9051 57.2415 77.8089C57.5784 77.9172 57.8312 77.7126 57.8312 77.2914V74.2587C57.8312 73.9458 57.6025 73.1877 57.3378 73.0312L56.1825 71.9241L52.1991 68.0971C52.1991 67.8324 49.7922 66.3642 49.5636 66.2198C49.5636 66.2198 49.4914 66.1837 49.4793 66.1716L45.6283 64.0295L41.7774 61.8874C41.5367 61.755 39.8037 61.0209 39.8037 61.2857Z" fill="#5697BC"/>
<path opacity="0.94" d="M39.8281 61.7309V65.4736C39.8281 65.7022 39.9846 66.0994 40.1892 66.2197L41.1158 66.9057L45.5444 70.1429C45.5444 70.2753 47.9032 71.6713 48.0115 71.7435L48.0958 71.7916L51.7662 73.8134L55.4247 75.8352C55.4969 75.8833 56.8206 76.5452 56.8688 76.497C57.1937 76.6415 57.4464 76.4609 57.4464 76.0758V73.2839C57.4464 72.9469 57.2057 72.3452 56.9169 72.1767L55.6774 71.2621L51.4052 68.1091C51.4052 67.9767 48.9742 66.5687 48.8659 66.4965C48.8659 66.4965 48.8058 66.4604 48.7937 66.4604L45.2436 64.4988L41.6935 62.5372C41.5731 62.465 39.8281 61.6226 39.8281 61.755V61.7309Z" fill="#5697BC"/>
<path d="M39.8643 62.1762V65.606C39.8643 65.8467 40.0327 66.1475 40.2494 66.2679L48.3846 70.7086L56.5198 75.1492C56.8327 75.3297 57.0854 75.1853 57.0854 74.8243V72.273C57.0854 71.912 56.8327 71.4667 56.5198 71.2862L48.192 66.7372L39.8643 62.1882V62.1762Z" fill="#5697BC"/>
</g>
<path d="M38.9022 55.7619L7.14355 138.101L11.8249 135.514L43.1985 54.2095L38.9022 55.7619Z" fill="#5697BC"/>
<path d="M38.9017 55.7619L7.15507 138.101L4.14648 136.404L35.8931 54.0651L38.9017 55.7619Z" fill="#9EBFE6"/>
<path d="M35.8926 54.0651L38.9012 55.7619L43.1974 54.2095L40.1648 52.5006L35.8926 54.0651Z" fill="url(#paint7_linear_847_10654)"/>
<path d="M54.5602 72.5258L53.3086 75.763L57.6049 74.2227L58.8564 70.9854L54.5602 72.5258Z" fill="url(#paint8_linear_847_10654)"/>
<path d="M54.5715 72.5258L53.32 75.763L35.124 65.5097L36.3756 62.2845L54.5715 72.5258Z" fill="#9EBFE6"/>
<path d="M36.376 62.2845L54.5719 72.5257L58.8561 70.9853L40.6361 60.7321L36.376 62.2845Z" fill="url(#paint9_linear_847_10654)"/>
<path d="M49.5406 85.5349L48.2891 88.7721L52.5853 87.2317L53.8249 83.9945L49.5406 85.5349Z" fill="url(#paint10_linear_847_10654)"/>
<path d="M49.54 85.5349L48.3004 88.7722L30.1045 78.5189L31.344 75.2937L49.54 85.5349Z" fill="#9EBFE6"/>
<path d="M31.3447 75.2937L49.5407 85.5349L53.8249 83.9945L35.6169 73.7412L31.3447 75.2937Z" fill="url(#paint11_linear_847_10654)"/>
<path d="M44.4976 98.5922L43.2461 101.829L47.5423 100.289L48.7939 97.0518L44.4976 98.5922Z" fill="url(#paint12_linear_847_10654)"/>
<path d="M44.509 98.5921L43.2574 101.829L25.0615 91.5881L26.3131 88.3509L44.509 98.5921Z" fill="#9EBFE6"/>
<path d="M26.3135 88.3508L44.5094 98.5921L48.7936 97.0517L30.5736 86.7984L26.3135 88.3508Z" fill="url(#paint13_linear_847_10654)"/>
<path d="M39.4791 111.601L38.2275 114.839L42.5238 113.298L43.7754 110.061L39.4791 111.601Z" fill="url(#paint14_linear_847_10654)"/>
<path d="M39.4914 111.601L38.2399 114.839L20.0439 104.597L21.2955 101.36L39.4914 111.601Z" fill="#9EBFE6"/>
<path d="M21.2959 101.36L39.4918 111.601L43.776 110.061L25.5561 99.8076L21.2959 101.36Z" fill="url(#paint15_linear_847_10654)"/>
<path d="M34.4703 124.562L33.2188 127.8L37.515 126.259L38.7666 123.022L34.4703 124.562Z" fill="url(#paint16_linear_847_10654)"/>
<path d="M34.4833 124.562L33.2317 127.8L15.0479 117.546L16.2874 114.321L34.4833 124.562Z" fill="#9EBFE6"/>
<path d="M16.2881 114.321L34.484 124.562L38.7683 123.022L20.5603 112.769L16.2881 114.321Z" fill="url(#paint17_linear_847_10654)"/>
<path d="M29.4527 137.571L28.2012 140.809L32.4974 139.268L33.749 136.031L29.4527 137.571Z" fill="url(#paint18_linear_847_10654)"/>
<path d="M29.4658 137.571L28.2142 140.809L10.0303 130.567L11.2698 127.33L29.4658 137.571Z" fill="#9EBFE6"/>
<path d="M11.2705 127.33L29.4664 137.571L33.7507 136.031L15.5427 125.778L11.2705 127.33Z" fill="url(#paint19_linear_847_10654)"/>
<path d="M26.8066 88.4952C26.8066 88.4952 26.4095 89.5904 26.59 90.0838C26.7705 90.5772 27.7694 91.0586 28.6479 90.7336C29.5264 90.4087 29.9596 89.5904 30.2966 89.3858C30.6336 89.1932 32.4387 89.1571 33.8708 88.1583C35.3029 87.1594 35.2427 85.8958 33.9189 85.7514C32.5952 85.607 30.1161 85.9801 29.2135 86.4614C28.2989 86.9428 26.8187 88.4832 26.8187 88.4832L26.8066 88.4952Z" fill="#004D77"/>
<path d="M27.3246 89.7711C28.2633 90.0599 29.5509 89.3499 30.1527 88.9287C30.7664 88.5075 31.7292 88.8565 33.1131 87.9539C34.4971 87.0634 35.0145 86.4015 34.4609 86.0164C33.9074 85.6192 31.7653 85.5109 30.0082 86.2571C28.2512 87.0032 27.0839 87.5447 27.0839 87.5447C27.0839 87.5447 26.5664 88.7482 26.7349 89.037C26.9154 89.3258 26.7951 89.6146 27.3246 89.7711Z" fill="#004D77"/>
<path d="M32.6073 44.2812C32.6073 44.2812 30.2004 45.6892 30.1042 49.3477C30.0801 50.3585 29.8635 68.5545 29.8635 68.5545C29.8635 68.5545 26.3134 88.3149 26.8308 88.7361C27.3483 89.1573 28.0343 89.2535 28.7082 89.073C29.6469 88.8203 30.6096 88.3028 31.1632 87.8335C31.6446 87.4364 34.593 77.3756 36.4342 69.2886C38.9013 58.4577 40.7425 47.9878 40.7425 47.9878L32.5953 44.2692L32.6073 44.2812Z" fill="url(#paint20_linear_847_10654)"/>
<path d="M37.7821 95.1142C37.7821 95.1142 37.1082 96.5102 37.7339 96.8833C38.3597 97.2563 39.3706 97.5331 40.2251 97.2804C41.0795 97.0277 41.4526 96.7268 42.3311 96.8111C43.2096 96.8953 46.7597 95.6798 47.4938 94.9939C48.2279 94.2959 47.6502 93.3692 46.0015 93.3331C44.3649 93.285 42.0062 93.2489 41.5849 93.3331C41.1637 93.4174 37.7821 95.1262 37.7821 95.1262V95.1142Z" fill="#004D77"/>
<path d="M38.4077 96.2456C39.924 96.5585 40.4536 96.2095 41.8856 96.0771C43.3177 95.9447 47.4816 94.8376 47.4816 94.0072C47.4816 93.1768 46.5429 93.261 45.7607 93.261C44.9785 93.261 42.4753 93.1768 42.2828 93.1527C42.0902 93.1287 37.8902 94.4163 37.8902 94.4163C37.8902 94.4163 37.4811 95.5837 37.7338 95.7883C37.9865 95.9928 37.9985 96.1493 38.4077 96.2335V96.2456Z" fill="#004D77"/>
<path d="M37.4203 42.1752C37.4203 42.1752 35.1337 45.256 35.916 50.1058C36.6862 54.9556 40.0919 73.6089 40.0919 73.6089C40.0919 73.6089 38.034 92.6352 37.8174 94.9097C37.7572 95.5956 39.1773 96.0529 40.7658 95.6919C42.7515 95.2346 42.7755 94.7051 42.9561 93.8146C43.1245 93.0323 46.8071 76.449 47.0357 72.0565C47.3366 66.2679 47.9022 48.6978 47.9022 48.6978L37.4082 42.1752H37.4203Z" fill="url(#paint21_linear_847_10654)"/>
<g style="mix-blend-mode:multiply">
<path d="M42.9684 93.8146C43.1369 93.0323 46.8194 76.449 47.048 72.0565C47.3489 66.268 47.9145 48.6978 47.9145 48.6978L43.0406 45.7494L42.8962 52.7654C42.8962 52.7654 42.9804 53.656 43.1128 55.076C43.5822 60.2508 44.6532 72.4416 44.5088 73.9459C44.3764 75.378 42.126 88.8323 40.9707 95.6317C42.7277 95.1865 42.7758 94.669 42.9564 93.8146H42.9684Z" fill="#9EBFE6"/>
</g>
<path d="M36.9873 17.8418C35.0618 18.0824 33.1123 18.5157 32.4865 23.0767C31.981 26.8194 29.9111 49.6245 29.9111 49.6245C29.9111 49.6245 33.1243 52.8978 42.0297 53.1144C48.1071 53.2588 48.3117 51.7425 48.3117 51.7425C48.3117 51.7425 49.3225 38.4325 49.9844 30.189C50.2973 26.338 49.84 25.3031 48.6245 24.1839C47.6858 23.3053 44.9781 21.1271 43.0045 19.8395C41.416 18.7925 38.636 17.6492 36.9753 17.8538L36.9873 17.8418Z" fill="url(#paint22_linear_847_10654)"/>
<g style="mix-blend-mode:multiply">
<path d="M48.3122 51.7425C48.3122 51.7425 49.3231 38.4566 49.985 30.201C49.985 30.0687 49.985 29.9242 49.973 29.7919L45.087 29.0939C45.5564 37.3013 43.4503 51.2611 43.4503 51.2611C43.4503 51.2611 43.2457 52.7534 37.3008 52.633C38.6607 52.8737 40.2251 53.0543 42.0423 53.0904C48.1197 53.2348 48.3242 51.7184 48.3242 51.7184L48.3122 51.7425Z" fill="#9EBFE6"/>
</g>
<path d="M44.9901 21.8972C44.7013 22.8359 42.9684 23.1367 41.103 22.5831C39.2377 22.0175 37.9621 20.8021 38.2389 19.8634C38.5277 18.9247 40.2606 18.6238 42.126 19.1774C43.9913 19.743 45.2669 20.9585 44.9901 21.8972Z" fill="white"/>
<g style="mix-blend-mode:multiply">
<path d="M36.783 55.8943C36.073 59.288 33.967 69.6496 33.7985 70.7447C33.6421 71.7556 31.0908 83.1882 29.8633 88.6398C30.3808 88.3991 30.8381 88.1103 31.163 87.8335C31.6444 87.4364 34.5928 77.3756 36.434 69.2886C37.0117 66.7493 37.469 64.4869 37.9864 62.0559C37.5773 59.974 37.1561 57.8439 36.783 55.8943Z" fill="#9EBFE6"/>
</g>
<path d="M66.8809 33.0173C67.7834 32.3554 68.4574 31.8379 68.9508 31.3686C69.4803 30.8631 70.0579 30.4179 70.2986 30.7067C70.7559 31.2603 68.4935 33.3181 68.4935 33.3181L66.8809 33.0173Z" fill="#FDFEFF"/>
<path d="M65.8694 36.1101C65.8694 36.1101 68.3365 36.4952 69.7445 36.447C70.5027 36.423 70.996 36.3508 72.0912 35.5204C72.6086 35.1353 72.9456 34.7983 72.8012 34.4734C72.7411 34.329 72.4643 34.6058 72.4643 34.6058C72.4643 34.6058 73.0539 34.1124 72.9336 33.7152C72.8132 33.3061 72.4883 33.7513 72.4883 33.7513C72.4883 33.7513 73.1262 33.2098 72.9817 32.8127C72.8373 32.4155 72.4883 32.8849 72.4883 32.8849C72.4883 32.8849 73.0299 32.4035 72.9697 32.0665C72.9095 31.7175 72.6929 31.7777 72.2717 32.0304C71.7783 32.3193 70.623 32.945 69.576 32.9691C68.4688 32.9811 67.7107 32.4276 66.9646 32.933C66.2064 33.4385 65.0391 33.3061 65.0391 33.3061L65.8574 36.1221L65.8694 36.1101Z" fill="#FDFEFF"/>
<path d="M45.9288 24.4126C43.7988 25.2791 43.0767 27.6859 44.1839 29.7438C45.279 31.8017 51.5489 37.3014 53.9678 38.0957C56.3867 38.8899 66.8686 36.9404 66.8686 36.9404C66.8686 36.9404 67.2417 35.4601 67.1815 34.4252C67.1334 33.3902 66.5196 33.0533 66.5196 33.0533C66.5196 33.0533 59.3471 33.4624 57.205 32.7043C55.0749 31.9461 52.981 28.9255 51.1036 27C49.0457 24.8819 47.9747 23.5822 45.9168 24.4126H45.9288Z" fill="url(#paint23_linear_847_10654)"/>
<path d="M38.8288 19.5746C38.6844 19.7552 38.7205 20.0199 38.7927 20.2365C38.9491 20.6577 39.8517 21.6927 41.3078 22.0898C42.776 22.4869 43.6305 22.3185 44.0757 22.1741C44.3044 22.1019 44.4849 21.9334 44.5691 21.7167L45.3995 19.8033C45.3995 19.8033 46.9279 20.3087 47.5537 19.8514C48.1674 19.3941 51.7176 12.4022 49.9966 9.97123C48.2757 7.52826 43.3055 6.75805 41.6448 9.92309C39.9841 13.0881 41.007 15.3024 40.9227 16.1208C40.8626 16.7947 39.3944 18.8405 38.8288 19.5867V19.5746Z" fill="#FDFEFF"/>
<path d="M40.7543 16.6744C40.7543 16.6744 42.3669 17.7334 43.1612 17.7214C44.5932 17.6973 45.3634 14.6045 46.4465 14.1351C47.0843 13.8584 47.4213 14.4601 47.2167 15.0016C47.0603 15.4469 47.0723 15.7839 47.2288 15.8801C47.3852 15.9764 48.9617 13.5334 48.9617 13.5334C48.9617 13.5334 52.933 13.016 52.7766 11.0664C52.4878 7.69678 43.2213 4.39937 41.368 9.09277C39.5027 13.7982 39.9961 16.2171 40.7422 16.6744H40.7543Z" fill="url(#paint24_linear_847_10654)"/>
<path d="M60.1177 67.712L28.3711 150.051L33.0404 147.464L64.6787 65.3653L60.1177 67.712Z" fill="#5697BC"/>
<path d="M60.1295 67.712L28.3709 150.051L25.3623 148.342L57.1089 66.0151L60.1295 67.712Z" fill="#9EBFE6"/>
<path d="M57.1084 66.0151L60.129 67.7119L64.678 65.3652L61.6453 63.6564L57.1084 66.0151Z" fill="url(#paint25_linear_847_10654)"/>
<defs>
<linearGradient id="paint0_linear_847_10654" x1="126.38" y1="-10.3669" x2="56.1957" y2="81.4311" gradientUnits="userSpaceOnUse">
<stop stop-color="#5697BC"/>
<stop offset="0.08" stop-color="#5C9BBF"/>
<stop offset="0.19" stop-color="#6EA6C8"/>
<stop offset="0.32" stop-color="#8CB8D7"/>
<stop offset="0.47" stop-color="#B6D2EC"/>
<stop offset="0.58" stop-color="#DBE9FF"/>
<stop offset="0.86" stop-color="#EAF1F6"/>
<stop offset="1" stop-color="#F4F6F2"/>
</linearGradient>
<linearGradient id="paint1_linear_847_10654" x1="137.416" y1="-52.3788" x2="85.7043" y2="46.1705" gradientUnits="userSpaceOnUse">
<stop stop-color="#5697BC"/>
<stop offset="0.08" stop-color="#5C9BBF"/>
<stop offset="0.19" stop-color="#6EA6C8"/>
<stop offset="0.32" stop-color="#8CB8D7"/>
<stop offset="0.47" stop-color="#B6D2EC"/>
<stop offset="0.58" stop-color="#DBE9FF"/>
<stop offset="0.86" stop-color="#EAF1F6"/>
<stop offset="1" stop-color="#F4F6F2"/>
</linearGradient>
<radialGradient id="paint2_radial_847_10654" cx="0" cy="0" r="1" gradientUnits="userSpaceOnUse" gradientTransform="translate(77.184 27.5775) rotate(180) scale(16.8601 16.8601)">
<stop stop-color="white"/>
<stop offset="1"/>
</radialGradient>
<linearGradient id="paint3_linear_847_10654" x1="48.587" y1="53.6997" x2="46.3" y2="22.1804" gradientUnits="userSpaceOnUse">
<stop stop-color="#0D547A"/>
<stop offset="0.53" stop-color="#004D77"/>
<stop offset="0.82" stop-color="#08527A"/>
<stop offset="1" stop-color="#11587E"/>
</linearGradient>
<linearGradient id="paint4_linear_847_10654" x1="-69.0711" y1="152.975" x2="193.579" y2="55.7859" gradientUnits="userSpaceOnUse">
<stop stop-color="#5697BC"/>
<stop offset="0.08" stop-color="#5C9BBF"/>
<stop offset="0.19" stop-color="#6EA6C8"/>
<stop offset="0.32" stop-color="#8CB8D7"/>
<stop offset="0.47" stop-color="#B6D2EC"/>
<stop offset="0.58" stop-color="#DBE9FF"/>
<stop offset="0.86" stop-color="#EAF1F6"/>
<stop offset="1" stop-color="#F4F6F2"/>
</linearGradient>
<linearGradient id="paint5_linear_847_10654" x1="91.5399" y1="140.484" x2="248.383" y2="0.596382" gradientUnits="userSpaceOnUse">
<stop stop-color="#5697BC"/>
<stop offset="0.08" stop-color="#5C9BBF"/>
<stop offset="0.19" stop-color="#6EA6C8"/>
<stop offset="0.32" stop-color="#8CB8D7"/>
<stop offset="0.47" stop-color="#B6D2EC"/>
<stop offset="0.58" stop-color="#DBE9FF"/>
<stop offset="0.86" stop-color="#EAF1F6"/>
<stop offset="1" stop-color="#F4F6F2"/>
</linearGradient>
<linearGradient id="paint6_linear_847_10654" x1="133.792" y1="-45.4831" x2="85.2454" y2="47.037" gradientUnits="userSpaceOnUse">
<stop stop-color="#5697BC"/>
<stop offset="0.08" stop-color="#5C9BBF"/>
<stop offset="0.19" stop-color="#6EA6C8"/>
<stop offset="0.32" stop-color="#8CB8D7"/>
<stop offset="0.47" stop-color="#B6D2EC"/>
<stop offset="0.58" stop-color="#DBE9FF"/>
<stop offset="0.86" stop-color="#EAF1F6"/>
<stop offset="1" stop-color="#F4F6F2"/>
</linearGradient>
<linearGradient id="paint7_linear_847_10654" x1="2.71533" y1="46.7946" x2="-0.0972262" y2="53.315" gradientUnits="userSpaceOnUse">
<stop stop-color="#5697BC"/>
<stop offset="0.08" stop-color="#5C9BBF"/>
<stop offset="0.19" stop-color="#6EA6C8"/>
<stop offset="0.32" stop-color="#8CB8D7"/>
<stop offset="0.47" stop-color="#B6D2EC"/>
<stop offset="0.58" stop-color="#DBE9FF"/>
<stop offset="0.79" stop-color="#EAF2FF"/>
<stop offset="1" stop-color="white"/>
</linearGradient>
<linearGradient id="paint8_linear_847_10654" x1="20.7709" y1="72.8336" x2="30.1488" y2="69.4192" gradientUnits="userSpaceOnUse">
<stop stop-color="#5697BC"/>
<stop offset="0.08" stop-color="#5C9BBF"/>
<stop offset="0.19" stop-color="#6EA6C8"/>
<stop offset="0.32" stop-color="#8CB8D7"/>
<stop offset="0.47" stop-color="#B6D2EC"/>
<stop offset="0.58" stop-color="#DBE9FF"/>
<stop offset="0.79" stop-color="#EAF2FF"/>
<stop offset="1" stop-color="white"/>
</linearGradient>
<linearGradient id="paint9_linear_847_10654" x1="15.4432" y1="59.1374" x2="11.9991" y2="67.1388" gradientUnits="userSpaceOnUse">
<stop stop-color="#5697BC"/>
<stop offset="0.08" stop-color="#5C9BBF"/>
<stop offset="0.19" stop-color="#6EA6C8"/>
<stop offset="0.32" stop-color="#8CB8D7"/>
<stop offset="0.47" stop-color="#B6D2EC"/>
<stop offset="0.58" stop-color="#DBE9FF"/>
<stop offset="0.79" stop-color="#EAF2FF"/>
<stop offset="1" stop-color="white"/>
</linearGradient>
<linearGradient id="paint10_linear_847_10654" x1="20.4838" y1="85.9306" x2="29.8656" y2="82.5315" gradientUnits="userSpaceOnUse">
<stop stop-color="#5697BC"/>
<stop offset="0.08" stop-color="#5C9BBF"/>
<stop offset="0.19" stop-color="#6EA6C8"/>
<stop offset="0.32" stop-color="#8CB8D7"/>
<stop offset="0.47" stop-color="#B6D2EC"/>
<stop offset="0.58" stop-color="#DBE9FF"/>
<stop offset="0.79" stop-color="#EAF2FF"/>
<stop offset="1" stop-color="white"/>
</linearGradient>
<linearGradient id="paint11_linear_847_10654" x1="15.1565" y1="72.2344" x2="11.7129" y2="80.2457" gradientUnits="userSpaceOnUse">
<stop stop-color="#5697BC"/>
<stop offset="0.08" stop-color="#5C9BBF"/>
<stop offset="0.19" stop-color="#6EA6C8"/>
<stop offset="0.32" stop-color="#8CB8D7"/>
<stop offset="0.47" stop-color="#B6D2EC"/>
<stop offset="0.58" stop-color="#DBE9FF"/>
<stop offset="0.79" stop-color="#EAF2FF"/>
<stop offset="1" stop-color="white"/>
</linearGradient>
<linearGradient id="paint12_linear_847_10654" x1="20.1964" y1="99.0805" x2="29.5782" y2="95.6814" gradientUnits="userSpaceOnUse">
<stop stop-color="#5697BC"/>
<stop offset="0.08" stop-color="#5C9BBF"/>
<stop offset="0.19" stop-color="#6EA6C8"/>
<stop offset="0.32" stop-color="#8CB8D7"/>
<stop offset="0.47" stop-color="#B6D2EC"/>
<stop offset="0.58" stop-color="#DBE9FF"/>
<stop offset="0.79" stop-color="#EAF2FF"/>
<stop offset="1" stop-color="white"/>
</linearGradient>
<linearGradient id="paint13_linear_847_10654" x1="14.8687" y1="85.3842" x2="11.425" y2="93.3955" gradientUnits="userSpaceOnUse">
<stop stop-color="#5697BC"/>
<stop offset="0.08" stop-color="#5C9BBF"/>
<stop offset="0.19" stop-color="#6EA6C8"/>
<stop offset="0.32" stop-color="#8CB8D7"/>
<stop offset="0.47" stop-color="#B6D2EC"/>
<stop offset="0.58" stop-color="#DBE9FF"/>
<stop offset="0.79" stop-color="#EAF2FF"/>
<stop offset="1" stop-color="white"/>
</linearGradient>
<linearGradient id="paint14_linear_847_10654" x1="19.9102" y1="112.188" x2="29.288" y2="108.774" gradientUnits="userSpaceOnUse">
<stop stop-color="#5697BC"/>
<stop offset="0.08" stop-color="#5C9BBF"/>
<stop offset="0.19" stop-color="#6EA6C8"/>
<stop offset="0.32" stop-color="#8CB8D7"/>
<stop offset="0.47" stop-color="#B6D2EC"/>
<stop offset="0.58" stop-color="#DBE9FF"/>
<stop offset="0.79" stop-color="#EAF2FF"/>
<stop offset="1" stop-color="white"/>
</linearGradient>
<linearGradient id="paint15_linear_847_10654" x1="14.5834" y1="98.4919" x2="11.1393" y2="106.493" gradientUnits="userSpaceOnUse">
<stop stop-color="#5697BC"/>
<stop offset="0.08" stop-color="#5C9BBF"/>
<stop offset="0.19" stop-color="#6EA6C8"/>
<stop offset="0.32" stop-color="#8CB8D7"/>
<stop offset="0.47" stop-color="#B6D2EC"/>
<stop offset="0.58" stop-color="#DBE9FF"/>
<stop offset="0.79" stop-color="#EAF2FF"/>
<stop offset="1" stop-color="white"/>
</linearGradient>
<linearGradient id="paint16_linear_847_10654" x1="19.6229" y1="125.232" x2="29.0047" y2="121.833" gradientUnits="userSpaceOnUse">
<stop stop-color="#5697BC"/>
<stop offset="0.08" stop-color="#5C9BBF"/>
<stop offset="0.19" stop-color="#6EA6C8"/>
<stop offset="0.32" stop-color="#8CB8D7"/>
<stop offset="0.47" stop-color="#B6D2EC"/>
<stop offset="0.58" stop-color="#DBE9FF"/>
<stop offset="0.79" stop-color="#EAF2FF"/>
<stop offset="1" stop-color="white"/>
</linearGradient>
<linearGradient id="paint17_linear_847_10654" x1="14.2973" y1="111.536" x2="10.8536" y2="119.547" gradientUnits="userSpaceOnUse">
<stop stop-color="#5697BC"/>
<stop offset="0.08" stop-color="#5C9BBF"/>
<stop offset="0.19" stop-color="#6EA6C8"/>
<stop offset="0.32" stop-color="#8CB8D7"/>
<stop offset="0.47" stop-color="#B6D2EC"/>
<stop offset="0.58" stop-color="#DBE9FF"/>
<stop offset="0.79" stop-color="#EAF2FF"/>
<stop offset="1" stop-color="white"/>
</linearGradient>
<linearGradient id="paint18_linear_847_10654" x1="19.3377" y1="138.34" x2="28.7156" y2="134.925" gradientUnits="userSpaceOnUse">
<stop stop-color="#5697BC"/>
<stop offset="0.08" stop-color="#5C9BBF"/>
<stop offset="0.19" stop-color="#6EA6C8"/>
<stop offset="0.32" stop-color="#8CB8D7"/>
<stop offset="0.47" stop-color="#B6D2EC"/>
<stop offset="0.58" stop-color="#DBE9FF"/>
<stop offset="0.79" stop-color="#EAF2FF"/>
<stop offset="1" stop-color="white"/>
</linearGradient>
<linearGradient id="paint19_linear_847_10654" x1="14.0123" y1="124.633" x2="10.5686" y2="132.644" gradientUnits="userSpaceOnUse">
<stop stop-color="#5697BC"/>
<stop offset="0.08" stop-color="#5C9BBF"/>
<stop offset="0.19" stop-color="#6EA6C8"/>
<stop offset="0.32" stop-color="#8CB8D7"/>
<stop offset="0.47" stop-color="#B6D2EC"/>
<stop offset="0.58" stop-color="#DBE9FF"/>
<stop offset="0.79" stop-color="#EAF2FF"/>
<stop offset="1" stop-color="white"/>
</linearGradient>
<linearGradient id="paint20_linear_847_10654" x1="27.415" y1="89.1045" x2="35.5944" y2="48.3811" gradientUnits="userSpaceOnUse">
<stop stop-color="#0A2C67"/>
<stop offset="0.4" stop-color="#002C6C"/>
<stop offset="1" stop-color="#004D77"/>
</linearGradient>
<linearGradient id="paint21_linear_847_10654" x1="38.306" y1="96.1095" x2="42.5595" y2="47.7123" gradientUnits="userSpaceOnUse">
<stop stop-color="#0A2C67"/>
<stop offset="0.4" stop-color="#002C6C"/>
<stop offset="1" stop-color="#004D77"/>
</linearGradient>
<linearGradient id="paint22_linear_847_10654" x1="36.1352" y1="53.1227" x2="44.8883" y2="21.3871" gradientUnits="userSpaceOnUse">
<stop stop-color="#0D547A"/>
<stop offset="0.53" stop-color="#004D77"/>
<stop offset="0.82" stop-color="#08527A"/>
<stop offset="1" stop-color="#11587E"/>
</linearGradient>
<linearGradient id="paint23_linear_847_10654" x1="53.1068" y1="52.7832" x2="56.0111" y2="22.1729" gradientUnits="userSpaceOnUse">
<stop stop-color="#0D547A"/>
<stop offset="0.53" stop-color="#004D77"/>
<stop offset="0.82" stop-color="#08527A"/>
<stop offset="1" stop-color="#11587E"/>
</linearGradient>
<linearGradient id="paint24_linear_847_10654" x1="47.1477" y1="16.8144" x2="45.3175" y2="6.80084" gradientUnits="userSpaceOnUse">
<stop offset="0.1" stop-color="#003273"/>
<stop offset="1" stop-color="#004D77"/>
</linearGradient>
<linearGradient id="paint25_linear_847_10654" x1="30.286" y1="55.4572" x2="26.7945" y2="63.563" gradientUnits="userSpaceOnUse">
<stop stop-color="#5697BC"/>
<stop offset="0.08" stop-color="#5C9BBF"/>
<stop offset="0.19" stop-color="#6EA6C8"/>
<stop offset="0.32" stop-color="#8CB8D7"/>
<stop offset="0.47" stop-color="#B6D2EC"/>
<stop offset="0.58" stop-color="#DBE9FF"/>
<stop offset="0.79" stop-color="#EAF2FF"/>
<stop offset="1" stop-color="white"/>
</linearGradient>
</defs>
</svg>
