<svg width="160" height="162" viewBox="0 0 160 162" fill="none" xmlns="http://www.w3.org/2000/svg">
<path d="M142.322 98.5608L142.256 99.3613L142.024 99.995L141.691 100.529L141.26 100.896L140.728 101.096L140.097 101.129L139.433 100.962L138.702 100.629L68.6517 60.0037L67.9209 59.5034L67.2234 58.8696L66.6256 58.1358L66.0941 57.302L65.6623 56.4348L65.3302 55.5342L65.0977 54.6337L65.0312 53.7331L65.1641 8.77205L65.2305 7.97155L65.463 7.33783L65.7952 6.80417L66.227 6.43727L66.7584 6.23715L67.3895 6.2038L68.0538 6.37057L68.7845 6.70411L138.835 47.3292L139.566 47.8295L140.263 48.4632L140.861 49.197L141.392 50.0308L141.857 50.898L142.19 51.7986L142.389 52.6992L142.455 53.5997L142.322 98.5608Z" fill="url(#paint0_linear_1066_15890)"/>
<path d="M41.6487 119.641L18.9961 106.499V39.291L41.9144 47.5294L41.6487 119.641Z" fill="url(#paint1_linear_1066_15890)"/>
<path d="M41.6152 119.641L64.5668 105.932V37.1229L41.9142 47.5293L41.6152 119.641Z" fill="url(#paint2_linear_1066_15890)"/>
<path d="M69.7797 109.401C70.7097 109.935 70.7097 110.835 69.7797 111.369L49.3857 123.276C48.4557 123.81 46.9278 123.81 45.9978 123.276L25.471 111.369C24.5409 110.835 24.5409 109.935 25.471 109.401L45.8649 97.4936C46.795 96.9599 48.3228 96.9599 49.2529 97.4936L69.7797 109.401Z" fill="url(#paint3_linear_1066_15890)"/>
<path d="M63.9008 104.731C64.8308 105.265 64.8308 106.166 63.9008 106.699L43.54 118.573C42.61 119.107 41.1153 119.107 40.1521 118.573L19.6585 106.699C18.7284 106.166 18.7284 105.265 19.6585 104.731L40.0192 92.8573C40.9492 92.3237 42.4439 92.3237 43.4071 92.8573L63.9008 104.731Z" fill="url(#paint4_linear_1066_15890)"/>
<path d="M64.5983 105.799C64.5983 105.832 64.5983 105.865 64.5983 105.865C64.5983 105.899 64.5983 105.899 64.5983 105.932C64.5983 105.965 64.5983 105.965 64.5651 105.999C64.5651 106.032 64.5319 106.065 64.5319 106.099C64.5319 106.099 64.5319 106.099 64.5319 106.132C64.4986 106.166 64.4987 106.199 64.4654 106.232C64.4322 106.266 64.399 106.299 64.399 106.332C64.399 106.332 64.399 106.332 64.399 106.366C64.3658 106.399 64.3326 106.432 64.2994 106.466C64.2662 106.499 64.2661 106.499 64.2329 106.532C64.1997 106.566 64.1997 106.566 64.1665 106.599C64.1333 106.632 64.1001 106.632 64.0669 106.666C64.0336 106.699 64.0004 106.699 63.9672 106.733L43.54 118.573C43.4736 118.607 43.4404 118.64 43.3739 118.673C43.3739 118.673 43.3407 118.673 43.3407 118.707C43.2743 118.74 43.2411 118.74 43.1747 118.773C43.1747 118.773 43.1747 118.773 43.1414 118.773C43.075 118.807 43.0418 118.807 42.9754 118.84C42.9421 118.84 42.9089 118.873 42.8425 118.873C42.8093 118.873 42.7761 118.907 42.7429 118.907C42.7096 118.907 42.6432 118.94 42.61 118.94C42.5768 118.94 42.5436 118.94 42.5104 118.973C42.4107 118.973 42.3443 119.007 42.2446 119.007C42.2114 119.007 42.1782 119.007 42.145 119.007C42.0786 119.007 42.0453 119.007 41.9789 119.007C41.9457 119.007 41.9125 119.007 41.8793 119.007C41.8461 119.007 41.7796 119.007 41.7464 119.007C41.7132 119.007 41.68 119.007 41.6468 119.007C41.6136 119.007 41.5803 119.007 41.5139 119.007C41.4807 119.007 41.4475 119.007 41.4143 119.007C41.381 119.007 41.3478 119.007 41.2814 119.007C41.2482 119.007 41.215 119.007 41.1818 119.007C41.1485 119.007 41.0821 119.007 41.0489 118.973C41.0157 118.973 40.9825 118.973 40.9492 118.94C40.8828 118.94 40.8496 118.907 40.8164 118.907C40.7832 118.907 40.75 118.907 40.7167 118.873C40.6835 118.873 40.6835 118.873 40.6503 118.873C40.6171 118.873 40.5507 118.84 40.5175 118.84H40.4842C40.451 118.807 40.3846 118.807 40.3514 118.773C40.3182 118.773 40.3182 118.74 40.285 118.74C40.2185 118.707 40.1521 118.673 40.1189 118.64L19.6252 106.766C19.1602 106.499 18.9277 106.132 18.9277 105.765V107.099C18.9277 107.466 19.1602 107.8 19.6252 108.1L40.1189 119.974C40.1853 120.007 40.2185 120.041 40.285 120.074C40.3182 120.074 40.3182 120.107 40.3514 120.107C40.3846 120.107 40.4178 120.141 40.451 120.141C40.451 120.141 40.451 120.141 40.4842 120.141H40.5175C40.5507 120.174 40.6171 120.174 40.6503 120.174C40.6835 120.174 40.6835 120.174 40.7167 120.174H40.75C40.7832 120.174 40.7832 120.174 40.8164 120.174C40.8496 120.174 40.916 120.208 40.9492 120.208H40.9825C41.0157 120.208 41.0157 120.208 41.0489 120.208C41.0821 120.208 41.1485 120.208 41.1818 120.241C41.215 120.241 41.215 120.241 41.2482 120.241C41.2814 120.241 41.2814 120.241 41.3146 120.241C41.3478 120.241 41.381 120.241 41.4475 120.241C41.4807 120.241 41.4807 120.241 41.5139 120.241C41.5471 120.241 41.5471 120.241 41.5803 120.241C41.6135 120.241 41.6468 120.241 41.7132 120.241C41.7464 120.241 41.7464 120.241 41.7796 120.241H41.8128C41.8461 120.241 41.9125 120.241 41.9457 120.241C41.9789 120.241 41.9789 120.241 42.0121 120.241H42.0453C42.1118 120.241 42.145 120.241 42.2114 120.241C42.2446 120.241 42.2446 120.241 42.2778 120.241C42.2778 120.241 42.2778 120.241 42.3111 120.241C42.4107 120.241 42.4771 120.208 42.5768 120.208C42.61 120.208 42.6432 120.208 42.6432 120.208C42.6764 120.208 42.7429 120.174 42.7761 120.174C42.8093 120.174 42.8425 120.141 42.8757 120.141C42.9089 120.141 42.9421 120.107 43.0086 120.107H43.0418C43.075 120.107 43.1414 120.074 43.1747 120.041C43.1747 120.041 43.1747 120.041 43.2079 120.041C43.2743 120.007 43.3075 120.007 43.3739 119.974C43.3739 119.974 43.4072 119.974 43.4072 119.941C43.4736 119.907 43.5068 119.874 43.5732 119.841L63.934 107.967C63.934 107.967 63.9672 107.967 63.9672 107.933C64.0004 107.933 64.0004 107.9 64.0336 107.9C64.0669 107.867 64.1001 107.867 64.1333 107.833C64.1665 107.8 64.1665 107.8 64.1997 107.767C64.2329 107.733 64.2662 107.733 64.2662 107.7C64.2994 107.666 64.3326 107.633 64.3658 107.6C64.3658 107.6 64.3658 107.6 64.3658 107.566C64.3658 107.533 64.399 107.533 64.399 107.5L64.4322 107.466C64.4654 107.433 64.4654 107.4 64.4987 107.4V107.366C64.4987 107.366 64.4987 107.366 64.4987 107.333C64.4987 107.3 64.5319 107.266 64.5319 107.233C64.5319 107.2 64.5319 107.2 64.5651 107.166V107.133C64.5651 107.099 64.5651 107.066 64.5651 107.066V107.033C64.5651 107.033 64.5651 107.033 64.5651 106.999V105.665C64.5983 105.765 64.5983 105.765 64.5983 105.799Z" fill="url(#paint5_linear_1066_15890)"/>
<path d="M51.0791 81.0167L46.9937 83.218L42.875 81.0167L46.9604 78.8153L51.0791 81.0167Z" fill="#F7C1C8"/>
<path d="M51.0796 81.0167L51.0132 99.328L46.9277 101.529L46.9942 83.218L51.0796 81.0167Z" fill="#EC6675"/>
<path d="M46.9917 83.218L46.9253 101.529L42.8398 99.328L42.8731 81.0167L46.9917 83.218Z" fill="url(#paint6_linear_1066_15890)"/>
<path d="M43.9053 95.6924L39.8198 98.0939L35.7012 95.6924L39.7866 93.3243L43.9053 95.6924Z" fill="#C0D2ED"/>
<path d="M43.9058 95.6924L43.8726 103.931L39.7871 106.332L39.8203 98.0939L43.9058 95.6924Z" fill="#7FA6D8"/>
<path d="M39.8198 98.0939L39.7866 106.332L35.668 103.931L35.7012 95.6924L39.8198 98.0939Z" fill="#9FBCE3"/>
<path d="M36.331 105.832L32.2456 108.033L28.127 105.832L32.2124 103.631L36.331 105.832Z" fill="#F7C1C8"/>
<path d="M36.3316 105.832L36.2651 109.067L32.1797 111.269L32.2461 108.033L36.3316 105.832Z" fill="#EC6675"/>
<path d="M32.2456 108.033L32.1792 111.269L28.0938 109.067L28.127 105.832L32.2456 108.033Z" fill="url(#paint7_linear_1066_15890)"/>
<path d="M37.6276 61.4379L30.2539 78.1482" stroke="white" stroke-width="0.9042" stroke-miterlimit="10"/>
<path d="M49.0209 73.4453L39.7539 63.1389" stroke="white" stroke-width="0.9042" stroke-miterlimit="10"/>
<path d="M29.7891 82.6177L46.3965 73.979" stroke="white" stroke-width="0.9042" stroke-miterlimit="10"/>
<path d="M34.3076 78.0148L30.189 80.2162L26.1035 78.0148L30.189 75.8135L34.3076 78.0148Z" fill="#F7C1C8"/>
<path d="M34.3062 78.0148L34.2397 83.2848L30.1543 85.4861L30.1875 80.2162L34.3062 78.0148Z" fill="#EC6675"/>
<path d="M30.187 80.2162L30.1538 85.4861L26.0352 83.2848L26.1016 78.0148L30.187 80.2162Z" fill="url(#paint8_linear_1066_15890)"/>
<path d="M39.8218 60.3706L37.6961 61.5046L35.5371 60.3706L37.6961 59.2032L39.8218 60.3706Z" fill="#F7C1C8"/>
<path d="M39.8211 60.3705L39.7879 63.1056L37.6621 64.2396L37.6953 61.5046L39.8211 60.3705Z" fill="#EC6675"/>
<path d="M37.6961 61.5046L37.6629 64.2396L35.5371 63.1056V60.3705L37.6961 61.5046Z" fill="url(#paint9_linear_1066_15890)"/>
<path d="M50.8154 69.5096L46.73 71.7109L42.6113 69.5096L46.6968 67.3082L50.8154 69.5096Z" fill="#F7C1C8"/>
<path d="M50.814 69.5096L50.7476 74.7795L46.6621 76.9809L46.7285 71.7109L50.814 69.5096Z" fill="#EC6675"/>
<path d="M46.7281 71.7109L46.6616 76.9809L42.543 74.7795L42.6094 69.5096L46.7281 71.7109Z" fill="url(#paint10_linear_1066_15890)"/>
<path d="M39.7539 106.366L44.0054 104.198V87.921L39.7539 90.1223V106.366Z" fill="url(#paint11_linear_1066_15890)"/>
<path d="M35.5684 104.198L39.7534 106.366V90.1223L35.5684 87.9543V104.198Z" fill="url(#paint12_linear_1066_15890)"/>
<path d="M35.5684 87.9543L39.7534 90.1223L44.005 87.9209L39.8199 85.7529L35.5684 87.9543Z" fill="url(#paint13_linear_1066_15890)"/>
<path d="M30.1226 80.383L25.8711 78.1149V83.685L30.1226 81.417V80.383Z" fill="url(#paint14_linear_1066_15890)"/>
<path d="M34.4406 78.0815L30.189 75.8134L25.8711 78.1148L30.1226 80.3829L34.4406 78.0815Z" fill="url(#paint15_linear_1066_15890)"/>
<path d="M30.123 80.383L34.441 78.0815L30.123 80.383Z" fill="url(#paint16_linear_1066_15890)"/>
<path d="M30.123 80.383L34.441 78.0815L30.123 80.383Z" fill="url(#paint17_linear_1066_15890)"/>
<path d="M30.123 81.417V85.9864L34.441 83.685L30.1895 81.3836L30.123 81.417Z" fill="url(#paint18_linear_1066_15890)"/>
<path d="M30.1226 81.4169L25.8711 83.6849L30.1226 85.9864V81.4169Z" fill="url(#paint19_linear_1066_15890)"/>
<path d="M30.123 80.383V81.4169L30.1895 81.3836L34.441 83.685V78.0815L30.123 80.383Z" fill="url(#paint20_linear_1066_15890)"/>
<path d="M119.405 112.603L117.877 111.702L126.712 104.798L128.24 105.699L119.405 112.603Z" fill="#4777BB"/>
<path d="M119.239 112.736L117.711 111.836L117.844 111.702L119.372 112.603L119.239 112.736Z" fill="#AF76B0"/>
<path d="M128.273 105.632C128.671 108 128.24 110.969 127.011 113.937L126.845 113.904L119.238 112.703L119.438 112.536L128.273 105.632Z" fill="#FBBB39"/>
<path d="M119.105 112.636V112.67L119.204 112.703L119.371 112.569L119.171 112.736L126.777 113.937C126.346 115.004 125.781 116.038 125.15 117.072C123.855 119.14 122.293 120.841 120.699 122.109C120.168 122.509 119.636 122.876 119.105 123.176C116.547 124.644 114.023 124.91 112.196 123.576C111.034 122.742 110.336 121.375 110.07 119.674L119.105 112.636Z" fill="url(#paint21_linear_1066_15890)"/>
<path d="M112.628 123.876L111.101 122.976C110.968 122.909 110.835 122.809 110.702 122.709C109.539 121.875 108.842 120.508 108.576 118.807L110.104 119.707C110.403 121.375 111.101 122.742 112.23 123.61C112.363 123.71 112.496 123.776 112.628 123.876Z" fill="#943237"/>
<mask id="mask0_1066_15890" style="mask-type:luminance" maskUnits="userSpaceOnUse" x="108" y="118" width="5" height="6">
<path d="M112.628 123.876L111.101 122.976C110.968 122.909 110.835 122.809 110.702 122.709C109.539 121.875 108.842 120.508 108.576 118.807L110.104 119.707C110.403 121.375 111.101 122.742 112.23 123.61C112.363 123.71 112.496 123.776 112.628 123.876Z" fill="white"/>
</mask>
<g mask="url(#mask0_1066_15890)">
<path d="M112.628 123.876L111.101 122.976C110.968 122.909 110.835 122.809 110.702 122.709C109.539 121.875 108.842 120.508 108.576 118.807L110.104 119.707C110.403 121.375 111.101 122.742 112.23 123.61C112.363 123.71 112.496 123.776 112.628 123.876Z" fill="#943237"/>
</g>
<path d="M110.104 119.707L108.576 118.807L117.577 111.769L119.105 112.67L110.104 119.707Z" fill="#DB4C56"/>
<path d="M119.106 102.096C121.697 100.595 124.288 100.329 126.114 101.696C127.277 102.563 128.008 103.931 128.273 105.632L119.372 112.603L119.206 112.736L119.106 112.703V112.67L117.678 103.03C118.143 102.663 118.641 102.363 119.106 102.096Z" fill="#FBBB39"/>
<path d="M119.107 112.67L117.579 111.769L116.15 102.13L117.678 103.03L119.107 112.67Z" fill="#D99501"/>
<path d="M119.47 101.896C119.57 101.863 119.636 101.796 119.736 101.763C119.736 101.763 119.769 101.763 119.769 101.729C119.868 101.696 119.968 101.629 120.068 101.596C120.101 101.596 120.101 101.563 120.134 101.563C120.201 101.529 120.3 101.496 120.367 101.463C120.4 101.463 120.4 101.463 120.433 101.429C120.533 101.396 120.599 101.363 120.699 101.329C120.699 101.329 120.732 101.329 120.732 101.296C120.799 101.263 120.865 101.229 120.931 101.229C120.965 101.229 120.998 101.196 121.031 101.196C121.097 101.162 121.131 101.162 121.197 101.129C121.23 101.129 121.264 101.096 121.297 101.096C121.363 101.062 121.396 101.062 121.463 101.029C121.496 101.029 121.496 101.029 121.529 100.996C121.662 100.962 121.762 100.929 121.895 100.896C121.928 100.896 121.928 100.896 121.961 100.896C122.094 100.862 122.194 100.862 122.326 100.829C122.36 100.829 122.36 100.829 122.393 100.829C122.492 100.829 122.592 100.796 122.692 100.796C122.725 100.796 122.725 100.796 122.758 100.796C122.858 100.796 122.957 100.796 123.057 100.762H123.09C123.19 100.762 123.256 100.762 123.356 100.762C123.389 100.762 123.389 100.762 123.422 100.762C123.489 100.762 123.589 100.762 123.655 100.762H123.688C123.788 100.762 123.854 100.762 123.921 100.796C123.954 100.796 123.954 100.796 123.987 100.796C124.054 100.796 124.12 100.829 124.186 100.829C124.22 100.829 124.22 100.829 124.253 100.829C124.319 100.829 124.419 100.862 124.485 100.862C124.552 100.896 124.618 100.896 124.685 100.929C124.718 100.929 124.718 100.929 124.751 100.962C124.818 100.962 124.851 100.996 124.917 101.029C124.95 101.029 124.95 101.029 124.984 101.062C125.05 101.096 125.116 101.129 125.216 101.162C125.216 101.162 125.216 101.162 125.249 101.162C125.316 101.196 125.382 101.229 125.449 101.263C125.482 101.263 125.482 101.296 125.515 101.296C125.581 101.329 125.615 101.363 125.681 101.363C125.714 101.363 125.748 101.396 125.781 101.396L124.253 100.495C124.22 100.495 124.22 100.462 124.186 100.462C124.186 100.462 124.153 100.462 124.153 100.429C124.087 100.395 124.054 100.362 123.987 100.362C123.954 100.362 123.954 100.329 123.921 100.329C123.854 100.295 123.788 100.262 123.721 100.229C123.721 100.229 123.721 100.229 123.688 100.229C123.622 100.195 123.555 100.162 123.489 100.162C123.456 100.162 123.456 100.162 123.422 100.129C123.356 100.095 123.323 100.095 123.256 100.062H123.223H123.19C123.124 100.028 123.057 100.028 122.991 99.9951C122.991 99.9951 122.991 99.9951 122.957 99.9951C122.891 99.9617 122.791 99.9617 122.725 99.9617C122.725 99.9617 122.725 99.9617 122.692 99.9617H122.659C122.592 99.9617 122.526 99.9284 122.459 99.9284C122.426 99.9284 122.426 99.9284 122.393 99.9284C122.326 99.9284 122.227 99.895 122.16 99.895H122.127C122.061 99.895 121.961 99.895 121.895 99.895C121.861 99.895 121.861 99.895 121.828 99.895C121.729 99.895 121.662 99.895 121.562 99.895H121.529C121.43 99.895 121.33 99.895 121.23 99.9284C121.197 99.9284 121.197 99.9284 121.164 99.9284C121.064 99.9284 120.965 99.9617 120.865 99.9617H120.832H120.799C120.666 99.9951 120.566 99.9951 120.433 100.028C120.4 100.028 120.4 100.028 120.367 100.028C120.234 100.062 120.134 100.095 120.001 100.129C119.968 100.129 119.968 100.129 119.935 100.129C119.868 100.129 119.802 100.162 119.769 100.195C119.736 100.195 119.702 100.229 119.669 100.229C119.603 100.262 119.57 100.262 119.503 100.295C119.47 100.295 119.437 100.329 119.403 100.329C119.337 100.362 119.271 100.362 119.204 100.395C119.204 100.395 119.171 100.395 119.171 100.429C119.071 100.462 119.005 100.495 118.905 100.529H118.872C118.806 100.562 118.706 100.595 118.64 100.629C118.606 100.629 118.606 100.662 118.573 100.662C118.473 100.696 118.374 100.762 118.274 100.796C118.274 100.796 118.241 100.796 118.241 100.829C118.141 100.862 118.075 100.929 117.975 100.962C117.942 100.962 117.909 100.996 117.909 100.996C117.809 101.062 117.71 101.096 117.61 101.162C117.145 101.429 116.68 101.763 116.182 102.096L117.71 102.997C118.175 102.63 118.64 102.33 119.138 102.063C119.237 101.996 119.337 101.963 119.437 101.896C119.403 101.896 119.437 101.896 119.47 101.896Z" fill="#D59C2A"/>
<path d="M115.583 102.73L117.011 112.403V112.503L107.877 119.674C107.478 117.272 107.944 114.237 109.206 111.169C109.671 110.101 110.202 109.034 110.866 107.967C112.195 105.865 113.756 104.131 115.35 102.864C115.45 102.83 115.517 102.797 115.583 102.73Z" fill="#3976A1"/>
<path d="M107.878 119.674L106.35 118.773C105.951 116.372 106.416 113.337 107.678 110.268C108.143 109.201 108.675 108.133 109.339 107.066C110.668 104.965 112.229 103.23 113.823 101.963C113.89 101.93 113.956 101.863 114.022 101.83L115.55 102.73C115.484 102.763 115.417 102.83 115.351 102.864C113.723 104.131 112.162 105.865 110.867 107.967C110.203 109.001 109.638 110.101 109.206 111.169C107.944 114.204 107.479 117.239 107.878 119.674Z" fill="#024676"/>
<mask id="mask1_1066_15890" style="mask-type:luminance" maskUnits="userSpaceOnUse" x="106" y="101" width="10" height="19">
<path d="M107.878 119.674L106.35 118.773C105.951 116.372 106.416 113.337 107.678 110.268C108.143 109.201 108.675 108.133 109.339 107.066C110.668 104.965 112.229 103.23 113.823 101.963C113.89 101.93 113.956 101.863 114.022 101.83L115.55 102.73C115.484 102.763 115.417 102.83 115.351 102.864C113.723 104.131 112.162 105.865 110.867 107.967C110.203 109.001 109.638 110.101 109.206 111.169C107.944 114.204 107.479 117.239 107.878 119.674Z" fill="white"/>
</mask>
<g mask="url(#mask1_1066_15890)">
<path d="M107.879 119.674L106.351 118.773C106.152 117.673 106.152 116.472 106.318 115.171L107.846 116.072C107.68 117.372 107.713 118.573 107.879 119.674Z" fill="#024676"/>
<path d="M107.846 116.072L106.318 115.171C106.385 114.737 106.451 114.304 106.551 113.837L108.079 114.737C107.979 115.204 107.913 115.638 107.846 116.072Z" fill="#024676"/>
<path d="M108.079 114.738L106.551 113.837C106.617 113.47 106.717 113.137 106.816 112.77L108.344 113.67C108.245 114.037 108.145 114.404 108.079 114.738Z" fill="#024676"/>
<path d="M108.342 113.67L106.814 112.77C106.914 112.469 107.014 112.136 107.113 111.836L108.641 112.736C108.542 113.036 108.442 113.37 108.342 113.67Z" fill="#024676"/>
<path d="M108.643 112.736L107.115 111.836C107.215 111.536 107.315 111.269 107.414 110.969L108.942 111.869C108.842 112.136 108.743 112.436 108.643 112.736Z" fill="#024676"/>
<path d="M108.942 111.869L107.414 110.969C107.514 110.735 107.58 110.502 107.68 110.268C107.713 110.235 107.713 110.168 107.746 110.135L109.274 111.035C109.241 111.069 109.241 111.135 109.208 111.169C109.141 111.402 109.042 111.636 108.942 111.869Z" fill="#024676"/>
<path d="M109.272 111.035L107.744 110.135C107.844 109.868 107.977 109.601 108.11 109.334L109.637 110.235C109.505 110.502 109.405 110.768 109.272 111.035Z" fill="#024676"/>
<path d="M109.639 110.235L108.111 109.334C108.244 109.067 108.377 108.801 108.51 108.534L110.038 109.434C109.905 109.701 109.772 109.968 109.639 110.235Z" fill="#024676"/>
<path d="M110.038 109.434L108.51 108.534C108.643 108.267 108.809 108 108.942 107.733L110.469 108.634C110.337 108.934 110.171 109.167 110.038 109.434Z" fill="#024676"/>
<path d="M110.469 108.667L108.941 107.767C109.074 107.533 109.207 107.3 109.34 107.099C109.373 107.066 109.373 107.033 109.406 106.999L110.934 107.9C110.901 107.933 110.901 107.967 110.868 108C110.735 108.2 110.602 108.434 110.469 108.667Z" fill="#024676"/>
<path d="M110.969 107.867L109.441 106.966C109.607 106.699 109.807 106.432 109.973 106.166L111.501 107.066C111.335 107.3 111.135 107.6 110.969 107.867Z" fill="#024676"/>
<path d="M111.499 107.066L109.971 106.166C110.17 105.865 110.369 105.598 110.602 105.332L112.13 106.232C111.897 106.466 111.698 106.766 111.499 107.066Z" fill="#024676"/>
<path d="M112.131 106.199L110.604 105.298C110.836 104.998 111.102 104.665 111.334 104.398L112.862 105.298C112.63 105.599 112.364 105.899 112.131 106.199Z" fill="#024676"/>
<path d="M112.862 105.298L111.334 104.398C111.666 104.031 111.998 103.664 112.33 103.331L113.858 104.231C113.526 104.565 113.194 104.932 112.862 105.298Z" fill="#024676"/>
<path d="M113.858 104.231L112.33 103.33C112.828 102.83 113.327 102.397 113.858 101.996C113.924 101.963 113.991 101.896 114.057 101.863L115.585 102.763C115.519 102.797 115.452 102.864 115.386 102.897C114.888 103.297 114.356 103.731 113.858 104.231Z" fill="#024676"/>
</g>
<path d="M107.945 112.87L107.812 96.1928L114.92 92.9575" stroke="#1E3D84" stroke-width="0.3307" stroke-miterlimit="10"/>
<path d="M107.744 94.2916L107.711 94.0247L108.043 93.5244C108.874 92.2903 109.239 91.6899 109.206 91.1563C109.172 90.8227 108.973 90.5559 108.442 90.7894C108.11 90.9228 107.877 91.1896 107.711 91.4231L107.545 91.1563C107.777 90.8561 108.11 90.5559 108.508 90.3558C109.272 90.0223 109.637 90.3891 109.671 90.8561C109.737 91.4898 109.305 92.1903 108.608 93.2242L108.342 93.5911L109.936 92.8907L109.97 93.2576L107.744 94.2916Z" fill="#1E3D84"/>
<path d="M112.561 88.6214L112.595 88.9216L111.299 92.7239L110.801 92.9241L112.096 89.2218L110.369 89.9889L110.336 89.622L112.561 88.6214Z" fill="#1E3D84"/>
<path d="M130.397 77.5146V79.9494L128.271 78.7153V76.2805L130.397 77.5146Z" fill="#FBBB39"/>
<path d="M116.415 74.1792V76.614L114.289 75.3799V72.9451L116.415 74.1792Z" fill="#BCD9F2"/>
<path d="M78.0509 39.9581C82.2692 42.3929 85.7568 48.0297 86.3214 53.0662L84.7603 52.3324C84.2621 48.2632 81.4388 43.7271 78.0509 41.7592C77.9181 41.6925 77.8184 41.6258 77.6856 41.559L77.6523 39.7579C77.7852 39.7913 77.9181 39.8914 78.0509 39.9581Z" fill="#BCD9F2"/>
<path d="M116.38 78.982V81.4502L114.254 80.2161V77.7479L116.38 78.982Z" fill="#BCD9F2"/>
<path d="M100.938 53.2328C105.555 55.9011 109.308 62.4385 109.275 67.7417C109.275 71.1772 107.714 73.2785 105.355 73.6454L104.525 71.6441C106.451 71.344 107.714 69.6429 107.714 66.8412C107.714 62.5052 104.691 57.2019 100.904 55.0339C100.772 54.9672 100.672 54.9005 100.539 54.8338L100.506 53.0327C100.705 53.0994 100.805 53.1661 100.938 53.2328Z" fill="#BCD9F2"/>
<path d="M121.063 81.6838V84.152L118.904 82.9179L118.938 80.4497L121.063 81.6838Z" fill="#BCD9F2"/>
<path d="M125.716 84.3854V86.8536L123.59 85.6195V83.1513L125.716 84.3854Z" fill="#EC6675"/>
<path d="M116.448 64.5731L116.415 67.008L114.289 65.7739L114.322 63.3391L116.448 64.5731Z" fill="#BCD9F2"/>
<path d="M125.749 74.7795V77.2477L123.59 76.0136L123.623 73.5454L125.749 74.7795Z" fill="#FBBB39"/>
<path d="M125.749 69.9766V72.4448L123.623 71.2107V68.7425L125.749 69.9766Z" fill="#BCD9F2"/>
<path d="M139.698 92.5238V94.992L137.539 93.7579L137.572 91.2897L139.698 92.5238Z" fill="#EC6675"/>
<path d="M135.048 80.2161V82.6843L132.922 81.4502V78.982L135.048 80.2161Z" fill="#FBBB39"/>
<path d="M135.081 75.4132L135.048 77.8814L132.922 76.6473L132.955 74.1791L135.081 75.4132Z" fill="#BCD9F2"/>
<path d="M77.6535 39.7245L77.6867 41.5256C74.0995 39.6578 71.2098 41.4256 71.2098 45.6282C71.2098 49.9642 74.2323 55.2675 78.0188 57.4355C81.7721 59.6035 84.8611 57.8691 84.8611 53.5331C84.8611 53.1328 84.8279 52.6992 84.7947 52.299L86.3558 53.0327C86.4222 53.4997 86.4222 54 86.4222 54.467C86.4222 59.8036 82.6357 61.9382 78.0188 59.2699C73.4019 56.6016 69.6487 50.0642 69.6819 44.761C69.6487 39.5911 73.2027 37.3898 77.6535 39.7245Z" fill="url(#paint22_linear_1066_15890)"/>
<path d="M100.569 53.0327L100.603 54.8338C97.0155 52.966 94.1258 54.7671 94.1258 58.9364C94.1258 63.2724 97.1483 68.5757 100.935 70.7437C102.263 71.5108 103.526 71.811 104.588 71.6442L105.419 73.6454C104.123 73.8456 102.562 73.512 100.935 72.5448C96.318 69.8765 92.5647 63.3391 92.5979 58.0358C92.5647 52.866 96.1187 50.6979 100.569 53.0327Z" fill="url(#paint23_linear_1066_15890)"/>
<path d="M121.098 67.2749V69.7431L118.973 68.509V66.0408L121.098 67.2749Z" fill="#BCD9F2"/>
<path d="M130.397 72.7115V75.1463L128.271 73.9123V71.4774L130.397 72.7115Z" fill="#BCD9F2"/>
<path d="M139.731 78.1148V80.583L137.605 79.3489V76.8807L139.731 78.1148Z" fill="#FBBB39"/>
<path d="M116.415 69.3762V71.811L114.289 70.5769V68.1421L116.415 69.3762Z" fill="#BCD9F2"/>
<path d="M121.098 72.0778L121.065 74.546L118.939 73.3119V70.8438L121.098 72.0778Z" fill="#BCD9F2"/>
<path d="M139.731 82.9179L139.698 85.3861L137.572 84.152V81.6838L139.731 82.9179Z" fill="#FBBB39"/>
<path d="M121.065 76.8808V79.349L118.939 78.1149V75.6467L121.065 76.8808Z" fill="#BCD9F2"/>
<path d="M125.716 79.5825V82.0507L123.59 80.8166V78.3484L125.716 79.5825Z" fill="#BCD9F2"/>
<path d="M130.397 82.3174L130.364 84.7522L128.238 83.5181V81.0833L130.397 82.3174Z" fill="#FBBB39"/>
<path d="M135.048 85.0191V87.4873L132.922 86.2532V83.785L135.048 85.0191Z" fill="#EC6675"/>
<path d="M139.698 87.7208V90.189L137.572 88.9549V86.4867L139.698 87.7208Z" fill="#BCD9F2"/>
<path d="M130.364 87.1205V89.5886L128.238 88.3212V85.8864L130.364 87.1205Z" fill="#BCD9F2"/>
<path d="M135.014 89.8221V92.2903L132.889 91.0562V88.588L135.014 89.8221Z" fill="#EC6675"/>
<path d="M140.761 46.1951L70.7107 5.57004C69.7142 5.00303 68.7842 4.93632 68.1199 5.30321L65.9941 6.53731C66.6584 6.13706 67.5552 6.20377 68.5849 6.80414L138.635 47.4292C140.628 48.5966 142.256 51.3983 142.256 53.6997L142.123 98.6608C142.123 99.7949 141.724 100.629 141.06 100.996L143.186 99.7615C143.85 99.3946 144.249 98.5608 144.249 97.4267L144.381 52.4657C144.381 50.1642 142.754 47.3625 140.761 46.1951Z" fill="url(#paint24_linear_1066_15890)"/>
<path d="M101.534 109.167L99.209 107.8L100.903 106.633L103.228 108L101.534 109.167Z" fill="#024676"/>
<path d="M97.1172 104.264L99.4422 105.632C100.538 106.266 101.269 107.466 101.535 109.167L99.2097 107.8C98.944 106.099 98.2133 104.898 97.1172 104.264Z" fill="#D99501"/>
<path d="M88.8465 123.91L86.5215 122.542C87.8833 123.343 89.7766 123.243 91.8359 122.009C95.9545 119.607 99.3092 113.804 99.276 109.034C99.276 108.6 99.2428 108.167 99.1764 107.766L101.501 109.134C101.568 109.534 101.601 109.968 101.601 110.401C101.601 115.171 98.2796 120.975 94.1609 123.376C92.1016 124.61 90.2083 124.71 88.8465 123.91Z" fill="#024676"/>
<path d="M98.3129 102.163L100.638 103.531C98.9772 102.563 96.6521 102.697 94.0946 104.164L91.7695 102.797C94.3271 101.329 96.6521 101.196 98.3129 102.163Z" fill="#D99501"/>
<path d="M93.6961 104.431L91.3711 103.064C91.504 102.964 91.67 102.897 91.8029 102.797L94.1279 104.164C93.9619 104.264 93.829 104.331 93.6961 104.431Z" fill="#D99501"/>
<path d="M94.1271 104.164C98.744 101.496 102.597 103.23 103.261 108L101.567 109.167C101.003 105.365 97.8804 103.964 94.1603 106.132C94.0274 106.199 93.8946 106.299 93.7617 106.366L93.7285 104.398C93.8282 104.331 93.961 104.264 94.1271 104.164Z" fill="#FBBB39"/>
<path d="M93.7294 106.366L91.4043 105.031L91.3711 103.064L93.6961 104.431L93.7294 106.366Z" fill="#BCD9F2"/>
<path d="M87.6502 126.011L85.3252 124.644C83.6644 123.676 82.6348 121.642 82.6348 118.74C82.6348 113.07 86.4877 106.166 91.3703 103.064L93.6953 104.431C88.8127 107.5 84.9598 114.437 84.9598 120.107C84.9598 123.009 85.9895 125.044 87.6502 126.011Z" fill="#024676"/>
<path d="M93.6965 104.431L93.7297 106.399C89.7771 108.934 86.6549 114.537 86.6549 119.14C86.6549 123.91 90.0428 125.811 94.1615 123.443C98.2802 121.041 101.635 115.238 101.602 110.468C101.602 110.035 101.568 109.601 101.502 109.201L103.196 108.033C103.262 108.5 103.296 108.967 103.296 109.501C103.296 115.338 99.2102 122.509 94.1283 125.444C89.0464 128.379 84.9277 126.011 84.8945 120.174C84.9277 114.404 88.8139 107.5 93.6965 104.431Z" fill="#3976A1"/>
<path d="M96.2188 104.598L96.0527 87.8876L103.161 84.6522" stroke="#024676" stroke-width="0.3307" stroke-miterlimit="10"/>
<path d="M95.8868 85.5194C96.0197 85.5528 96.3518 85.5528 96.684 85.4194C97.3151 85.1526 97.4479 84.6856 97.4147 84.4188C97.3815 83.9518 96.9165 83.9185 96.4515 84.1186L96.1858 84.2186L96.1525 83.8851L96.4183 83.785C96.7836 83.6516 97.1822 83.2847 97.149 82.8845C97.1158 82.6177 96.9165 82.4509 96.4847 82.6176C96.1858 82.7511 95.9532 82.9845 95.7872 83.1513L95.6211 82.8845C95.7872 82.6844 96.1525 82.3842 96.5179 82.2174C97.2154 81.9172 97.5808 82.1841 97.614 82.5843C97.6472 82.9512 97.4479 83.3181 97.0161 83.6516C97.4479 83.5516 97.8465 83.7183 97.8797 84.1853C97.9129 84.7189 97.5144 85.386 96.684 85.7529C96.2854 85.9197 95.92 85.953 95.754 85.9197L95.8868 85.5194Z" fill="#024676"/>
<path d="M100.837 82.1841C100.936 83.3514 100.538 84.1853 99.7404 84.5188C99.0429 84.819 98.5115 84.3854 98.4118 83.2514C98.3122 82.1174 98.7772 81.2502 99.5079 80.95C100.239 80.6164 100.737 81.0834 100.837 82.1841ZM98.9101 83.0513C98.9765 83.9518 99.3086 84.3187 99.7404 84.1519C100.239 83.9518 100.405 83.2847 100.338 82.4175C100.272 81.5837 100.006 81.1167 99.5079 81.3169C99.0761 81.4836 98.8104 82.1174 98.9101 83.0513Z" fill="#024676"/>
<path d="M67.5864 66.4077H66.3242V66.7412H67.5864V66.4077Z" fill="#045C88"/>
<path d="M70.6765 59.0698C70.6765 59.6035 70.5436 60.1371 70.3443 60.6041C70.145 61.071 69.8129 61.5046 69.4475 61.8382C69.3811 61.9049 69.3147 61.9716 69.215 62.005C68.1853 62.9389 68.2518 63.8728 68.2518 63.8728H65.661C65.661 63.8728 65.7274 62.9055 64.6978 62.005C64.6313 61.9382 64.5649 61.8715 64.4985 61.8382C63.7345 61.1711 63.2695 60.1705 63.2695 59.0698C63.2695 57.0019 64.9303 55.3342 66.9896 55.3342C69.0157 55.3342 70.6765 57.0019 70.6765 59.0698Z" fill="url(#paint25_linear_1066_15890)"/>
<path d="M68.2509 63.9061V66.0074C68.2509 66.2742 68.0516 66.4743 67.7859 66.4743H66.1584C65.9591 66.4743 65.7598 66.3409 65.6934 66.1408C65.6602 66.1075 65.6602 66.0407 65.6602 65.974V63.8727H68.2509V63.9061Z" fill="url(#paint26_linear_1066_15890)"/>
<path opacity="0.63" d="M66.4242 63.9061L65.7931 60.7709L65.8263 60.8042C65.8927 60.8709 65.9924 60.971 66.1585 60.971C66.3245 60.971 66.4242 60.8709 66.4906 60.8042C66.557 60.7375 66.5902 60.7042 66.6567 60.7042C66.7231 60.7042 66.7895 60.7375 66.8228 60.8042C66.8892 60.8709 66.9888 60.971 67.1549 60.971C67.321 60.971 67.4206 60.8709 67.4871 60.8042C67.5535 60.7375 67.5867 60.7042 67.6531 60.7042C67.7196 60.7042 67.786 60.7375 67.8192 60.8042C67.8524 60.8376 67.9188 60.9043 67.9853 60.9376L67.3874 63.9061H67.6199L68.3839 59.9704L68.1514 59.937L68.1181 60.7042C68.0849 60.7042 68.0849 60.6708 68.0517 60.6374C67.9853 60.5707 67.8856 60.4707 67.7196 60.4707C67.5535 60.4707 67.4538 60.5707 67.3874 60.6374C67.321 60.7042 67.2878 60.7375 67.2213 60.7375C67.1549 60.7375 67.0885 60.7042 67.0553 60.6374C66.9888 60.5707 66.8892 60.4707 66.7231 60.4707C66.557 60.4707 66.4574 60.5707 66.391 60.6374C66.3245 60.7042 66.2913 60.7375 66.2249 60.7375C66.1585 60.7375 66.092 60.7042 66.0588 60.6374C65.9924 60.5707 65.9259 60.504 65.7931 60.504L65.6934 59.937L65.4609 59.9704L66.2581 63.9061H66.4242Z" fill="white"/>
<path d="M68.4522 64.1729C68.4522 64.2396 68.3858 64.3064 68.3526 64.3064H68.2861L66.9908 64.5398L65.6954 64.7733H65.6289C65.5625 64.7733 65.5293 64.74 65.5293 64.6732C65.5293 64.6065 65.5625 64.5398 65.6289 64.5398H65.6954L66.9908 64.3064L68.2861 64.0729H68.3526C68.3858 64.0729 68.4522 64.1062 68.4522 64.1729Z" fill="url(#paint27_linear_1066_15890)"/>
<path d="M68.4522 64.6065C68.4522 64.6732 68.3858 64.74 68.3526 64.74H68.2861L66.9908 64.9734L65.6954 65.2069H65.6289C65.5625 65.2069 65.5293 65.1735 65.5293 65.1068C65.5293 65.0401 65.5625 64.9734 65.6289 64.9734H65.6954L66.9908 64.74L68.2861 64.5065H68.3526C68.3858 64.5065 68.4522 64.5732 68.4522 64.6065Z" fill="url(#paint28_linear_1066_15890)"/>
<path d="M68.4522 65.0735C68.4522 65.1402 68.3858 65.2069 68.3526 65.2069H68.2861L66.9908 65.4404L65.6954 65.6739H65.6289C65.5625 65.6739 65.5293 65.6405 65.5293 65.5738C65.5293 65.5071 65.5625 65.4404 65.6289 65.4404H65.6954L66.9908 65.2069L68.2861 64.9734H68.3526C68.3858 64.9734 68.4522 65.0068 68.4522 65.0735Z" fill="url(#paint29_linear_1066_15890)"/>
<path d="M68.4522 65.5404C68.4522 65.6072 68.3858 65.6739 68.3526 65.6739H68.2861L66.9908 65.9073L65.7286 66.1408L65.6289 66.1742C65.5625 66.1742 65.5293 66.1408 65.5293 66.0741C65.5293 66.0074 65.5625 65.9407 65.6289 65.9407H65.6954L66.9908 65.7072L68.2861 65.4737H68.3526C68.3858 65.407 68.4522 65.4737 68.4522 65.5404Z" fill="url(#paint30_linear_1066_15890)"/>
<path d="M106.75 138.886C107.747 139.453 107.747 140.42 106.75 140.987L84.9947 153.695C83.9983 154.262 82.4039 154.262 81.3743 153.695L59.4856 140.987C58.4892 140.42 58.4892 139.453 59.4856 138.886L81.2414 126.178C82.2379 125.611 83.8322 125.611 84.8618 126.178L106.75 138.886Z" fill="url(#paint31_linear_1066_15890)"/>
<path d="M99.1431 132.982C100.14 133.549 100.14 134.516 99.1431 135.083L77.4205 147.791C76.424 148.358 74.8297 148.358 73.8001 147.791L51.9114 135.083C50.915 134.516 50.915 133.549 51.9114 132.982L73.6672 120.274C74.6636 119.707 76.258 119.707 77.2876 120.274L99.1431 132.982Z" fill="url(#paint32_linear_1066_15890)"/>
<path d="M99.908 134.116C99.908 134.15 99.908 134.183 99.908 134.183C99.908 134.216 99.908 134.216 99.908 134.25C99.908 134.283 99.908 134.316 99.8748 134.316C99.8748 134.35 99.8416 134.383 99.8416 134.416C99.8416 134.416 99.8416 134.416 99.8416 134.45C99.8083 134.483 99.8083 134.516 99.7751 134.583C99.7751 134.583 99.7751 134.583 99.7751 134.617C99.7419 134.65 99.7087 134.683 99.6755 134.717C99.6755 134.717 99.6755 134.717 99.6423 134.75C99.6091 134.783 99.5758 134.817 99.5426 134.85C99.5094 134.883 99.4762 134.883 99.4762 134.917C99.443 134.95 99.443 134.95 99.4098 134.983C99.3766 135.017 99.3433 135.017 99.3101 135.05C99.2769 135.083 99.2437 135.083 99.2105 135.117L77.4215 147.791C77.355 147.825 77.3218 147.858 77.2554 147.891C77.2554 147.891 77.2222 147.891 77.2222 147.925C77.1557 147.958 77.1225 147.958 77.0561 147.991C77.0561 147.991 77.0561 147.991 77.0229 147.991C76.9565 148.025 76.89 148.025 76.8236 148.058C76.7904 148.058 76.724 148.091 76.6907 148.091C76.6575 148.091 76.6243 148.125 76.5911 148.125C76.5579 148.125 76.4915 148.158 76.4582 148.158C76.425 148.158 76.3918 148.158 76.3586 148.192C76.2589 148.225 76.1593 148.225 76.0597 148.225C76.0264 148.225 75.9932 148.225 75.96 148.225C75.8936 148.225 75.8604 148.225 75.7939 148.225C75.7607 148.225 75.7275 148.225 75.6943 148.225C75.6611 148.225 75.5946 148.225 75.5614 148.225C75.5282 148.225 75.495 148.225 75.4286 148.225C75.3954 148.225 75.3289 148.225 75.2957 148.225C75.2625 148.225 75.2293 148.225 75.1629 148.225C75.1296 148.225 75.0632 148.225 75.03 148.225C74.9968 148.225 74.9636 148.225 74.9303 148.225C74.8971 148.225 74.8307 148.225 74.7975 148.192C74.7643 148.192 74.7311 148.192 74.6978 148.158C74.6314 148.158 74.5982 148.125 74.5318 148.125C74.4986 148.125 74.4653 148.091 74.4321 148.091C74.3989 148.091 74.3989 148.091 74.3657 148.058C74.2993 148.058 74.2661 148.025 74.1996 147.991H74.1664C74.1332 147.958 74.0668 147.958 74.0335 147.925C74.0003 147.925 74.0003 147.891 73.9671 147.891C73.9007 147.858 73.8343 147.825 73.7678 147.791L51.9124 135.083C51.4142 134.783 51.1484 134.416 51.1484 134.016V135.417C51.1484 135.784 51.4142 136.184 51.9124 136.484L73.801 149.192C73.8675 149.226 73.9339 149.259 74.0003 149.292C74.0335 149.292 74.0335 149.326 74.0668 149.326C74.1 149.359 74.1332 149.359 74.1664 149.392C74.1664 149.392 74.1664 149.392 74.1996 149.392H74.2328C74.2993 149.426 74.3325 149.426 74.3989 149.459C74.4321 149.459 74.4321 149.459 74.4653 149.492H74.4986C74.5318 149.492 74.5318 149.492 74.565 149.492C74.6314 149.492 74.6646 149.526 74.7311 149.526H74.7643C74.7975 149.526 74.7975 149.526 74.8307 149.526C74.8639 149.526 74.9304 149.526 74.9636 149.559C74.9968 149.559 74.9968 149.559 75.03 149.559C75.0632 149.559 75.0632 149.559 75.0964 149.559C75.1296 149.559 75.1961 149.559 75.2293 149.559C75.2625 149.559 75.2625 149.559 75.2957 149.559C75.3289 149.559 75.3289 149.559 75.3621 149.559C75.3954 149.559 75.4618 149.559 75.495 149.559C75.5282 149.559 75.5282 149.559 75.5614 149.559C75.5946 149.559 75.5947 149.559 75.6279 149.559C75.6611 149.559 75.7275 149.559 75.7607 149.559C75.7939 149.559 75.7939 149.559 75.8272 149.559H75.8604C75.9268 149.559 75.96 149.559 76.0264 149.559C76.0597 149.559 76.0597 149.559 76.0929 149.559C76.0929 149.559 76.0929 149.559 76.1261 149.559C76.2257 149.559 76.3254 149.526 76.425 149.526C76.4582 149.526 76.4915 149.526 76.4915 149.492C76.5247 149.492 76.5911 149.459 76.6243 149.459C76.6575 149.459 76.6907 149.426 76.724 149.426C76.7572 149.426 76.8236 149.392 76.8568 149.392H76.89C76.9565 149.359 76.9897 149.359 77.0561 149.326C77.0561 149.326 77.0561 149.326 77.0893 149.326C77.1558 149.292 77.189 149.292 77.2554 149.259C77.2554 149.259 77.2886 149.259 77.2886 149.226C77.355 149.192 77.4215 149.159 77.4547 149.125L99.2105 136.418C99.2105 136.418 99.2437 136.418 99.2437 136.384C99.2769 136.384 99.2769 136.351 99.3101 136.351C99.3433 136.318 99.3766 136.318 99.4098 136.284C99.443 136.251 99.443 136.251 99.4762 136.217C99.5094 136.184 99.5426 136.184 99.5426 136.151C99.5758 136.117 99.6091 136.084 99.6423 136.051C99.6423 136.051 99.6423 136.051 99.6755 136.017C99.7087 135.984 99.7087 135.984 99.7087 135.951L99.7419 135.917C99.7419 135.917 99.7419 135.917 99.7419 135.884C99.7751 135.851 99.7751 135.817 99.8083 135.784V135.751C99.8083 135.751 99.8083 135.751 99.8083 135.717C99.8083 135.684 99.8416 135.65 99.8416 135.617C99.8416 135.584 99.8416 135.55 99.8748 135.55C99.8748 135.517 99.8748 135.517 99.8748 135.484C99.8748 135.45 99.8748 135.417 99.8748 135.417C99.8748 135.384 99.8748 135.384 99.8748 135.35C99.8748 135.35 99.8748 135.35 99.8748 135.317V133.916C99.908 134.083 99.908 134.083 99.908 134.116Z" fill="url(#paint33_linear_1066_15890)"/>
<path d="M61.841 96.3594C61.2432 94.6584 60.0806 87.9876 60.6121 84.0185C60.8114 82.5175 61.7414 81.2167 63.2693 81.1834C64.7639 81.1167 65.8933 82.1173 65.9597 83.6516C66.0593 86.3199 65.9265 89.5219 66.0261 92.1235C66.0925 93.7578 66.159 94.0914 66.0925 95.7591C65.9265 99.1945 62.4721 98.0938 61.841 96.3594Z" fill="#024676"/>
<path d="M64.1995 133.682C64.1995 133.682 64.0335 133.816 63.9338 134.35C63.8342 134.883 63.9006 136.251 63.9006 136.251L64.731 136.718L65.8271 136.084L65.8603 135.75C65.8603 135.75 66.126 135.884 66.4914 135.784C66.8567 135.684 68.9493 134.383 69.3146 134.049C69.68 133.716 69.5804 133.416 69.4807 133.316C69.4475 133.282 69.2814 133.115 69.0821 133.082C68.0193 132.882 67.6871 133.115 67.0228 133.316C66.7239 133.416 66.5578 133.382 66.4249 133.316C66.0928 133.149 64.9635 132.915 64.9635 132.915L64.1995 133.682Z" fill="#3976A1"/>
<path d="M66.6562 133.216C66.9552 133.216 67.2209 133.416 67.2873 133.682" stroke="#216C94" stroke-width="0.4835" stroke-miterlimit="10" stroke-linecap="round" stroke-linejoin="round"/>
<path d="M67.2871 133.115C67.5196 133.149 67.7521 133.282 67.8518 133.482" stroke="#216C94" stroke-width="0.4835" stroke-miterlimit="10" stroke-linecap="round" stroke-linejoin="round"/>
<path d="M67.7852 132.949C68.0177 132.982 68.2502 133.115 68.3498 133.316" stroke="#216C94" stroke-width="0.4835" stroke-miterlimit="10" stroke-linecap="round" stroke-linejoin="round"/>
<path d="M63.8672 136.251L64.6976 136.718L65.7937 136.084L65.8269 135.817C65.8269 135.817 65.993 135.85 66.2919 135.817C66.5908 135.784 67.2883 135.317 67.8862 134.95C68.4841 134.583 69.3144 134.049 69.4141 133.916C69.6134 133.616 69.547 133.482 69.5137 133.416C69.4805 133.349 69.3477 133.216 69.3477 133.216C69.3477 133.216 69.4473 133.482 69.1816 133.749C68.9823 133.983 66.8233 135.317 66.4912 135.417C66.2255 135.484 65.7604 135.55 65.7604 135.55L64.7308 136.184L63.834 135.75L63.8672 136.251Z" fill="#243061"/>
<path d="M66.3917 133.316C66.3917 133.316 66.0595 134.216 65.1627 134.416C64.2327 134.616 63.8341 134.149 63.8341 134.149L63.4023 125.144C63.4023 124.543 63.502 123.943 63.6681 123.343L64.9967 118.006L63.4688 103.831L69.2814 105.131C69.2814 105.131 69.9125 111.802 69.9457 112.736C70.1118 118.973 68.0524 125.911 66.3917 133.316Z" fill="#024676"/>
<path d="M71.3746 137.451C71.3746 137.451 71.1753 137.652 71.0756 138.185C70.976 138.719 71.0092 139.886 71.0092 139.886L71.8396 140.353L72.9357 139.72L72.9689 139.386C72.9689 139.386 73.2346 139.519 73.6 139.419C73.9654 139.319 76.0579 138.018 76.4233 137.685C76.7886 137.351 76.689 137.051 76.5893 136.951C76.5561 136.918 76.39 136.751 76.1908 136.718C75.1279 136.518 74.7957 136.751 74.1314 136.951C73.8325 137.051 73.6664 137.018 73.5336 136.951C73.2014 136.784 72.0721 136.551 72.0721 136.551L71.3746 137.451Z" fill="#3976A1"/>
<path d="M73.7988 136.884C74.0978 136.884 74.3635 137.085 74.4299 137.351" stroke="#216C94" stroke-width="0.4835" stroke-miterlimit="10" stroke-linecap="round" stroke-linejoin="round"/>
<path d="M74.4629 136.784C74.6954 136.818 74.9279 136.951 75.0275 137.151" stroke="#216C94" stroke-width="0.4835" stroke-miterlimit="10" stroke-linecap="round" stroke-linejoin="round"/>
<path d="M74.9629 136.584C75.1954 136.618 75.4279 136.751 75.5275 136.951" stroke="#216C94" stroke-width="0.4835" stroke-miterlimit="10" stroke-linecap="round" stroke-linejoin="round"/>
<path d="M71.041 139.92L71.8714 140.387L72.9675 139.753L73.0007 139.486C73.0007 139.486 73.1668 139.519 73.4657 139.486C73.7647 139.453 74.4622 138.986 75.06 138.619C75.6579 138.252 76.4883 137.718 76.5879 137.585C76.7872 137.285 76.7208 137.151 76.6876 137.085C76.6544 137.018 76.5215 136.884 76.5215 136.884C76.5215 136.884 76.6211 137.151 76.3554 137.418C76.1561 137.652 73.9972 138.986 73.665 139.086C73.3993 139.153 72.9343 139.219 72.9343 139.219L71.9046 139.853L71.0078 139.419L71.041 139.92Z" fill="#243061"/>
<path d="M73.565 137.051C73.565 137.051 73.4986 137.852 72.6018 138.152C71.8379 138.419 71.1736 137.985 71.1736 137.985L70.1439 128.479C70.1107 127.879 70.1107 126.445 70.2435 125.844L70.9078 120.241L66.4238 105.832L74.7608 105.965C74.7608 105.965 75.6576 118.273 75.7572 119.24C76.2887 125.444 74.7608 129.547 73.565 137.051Z" fill="#3976A1"/>
<path d="M61.3099 84.5521C61.642 88.5213 64.0003 92.0568 64.3657 96.0259C64.565 98.294 63.9339 99.5614 63.5353 101.996C63.4689 102.296 63.3692 103.264 63.3692 103.964C63.3692 104.431 63.3692 104.998 63.6682 105.298C66.0928 107.8 68.75 108.033 72.2044 108.367C72.4037 108.4 73.7987 108.233 74.3966 107.933C74.8284 107.7 75.0277 105.598 75.0609 105.298C75.4927 96.7597 75.5259 91.7899 71.9719 84.7523C71.5069 83.8184 70.9754 82.8844 70.1451 82.2507C69.4808 81.7504 68.6836 81.4502 67.9197 81.15C64.6978 80.016 60.9445 80.1494 61.3099 84.5521Z" fill="url(#paint34_linear_1066_15890)"/>
<path d="M65.3282 77.3477L65.1621 78.1482L64.5974 80.9165C64.3982 81.8171 65.1289 82.6176 66.0589 82.5509L66.7896 82.4842C67.2214 82.4508 67.5536 82.0839 67.5868 81.6503L67.6532 80.0493L67.6864 78.982L65.3282 77.3477Z" fill="url(#paint35_linear_1066_15890)"/>
<path d="M68.1856 80.1161C68.3849 80.2495 68.6506 80.3829 68.8499 80.2161C68.9495 80.1494 68.9827 80.016 69.0159 79.8826C69.3813 78.3483 68.8831 76.5806 68.5509 75.0463C68.4845 74.7795 67.6209 73.6454 66.9566 74.0123C66.2923 74.3792 65.927 75.1797 65.8605 75.9468C65.628 78.1482 66.5248 79.0488 68.1856 80.1161Z" fill="url(#paint36_linear_1066_15890)"/>
<path d="M69.7128 72.8783C69.58 73.6121 69.5135 74.2791 69.115 74.8795C68.8492 75.3131 68.1517 75.9468 67.7531 76.2137C67.3546 76.4805 66.7899 76.5806 66.3913 76.3137C66.1588 76.7807 66.4245 77.3144 66.6903 77.748C66.956 78.1816 67.1885 78.7819 66.8896 79.1822C66.6903 79.449 66.3581 79.5157 66.026 79.5157C64.8302 79.5824 63.6013 79.1488 62.7709 78.2483C61.9405 77.3477 61.5087 76.0135 61.8077 74.7795C62.1066 73.5454 63.1695 72.5447 64.3652 72.4447C64.8634 72.4113 65.3949 72.5114 65.8931 72.478C66.3913 72.4447 66.956 72.2112 67.1221 71.7109C67.1885 71.5108 67.2217 71.2773 67.2881 71.0438C67.9857 69.0092 69.9121 71.6442 69.7128 72.8783Z" fill="#024676"/>
<path d="M68.916 88.588C68.916 88.588 70.0121 92.8906 71.7725 94.9919C71.9386 95.1587 72.0714 95.3588 72.2043 95.5256C73.7986 97.36 75.1936 98.6608 75.1936 98.6608C75.1936 98.6608 75.1936 96.4261 75.1272 96.226C75.0608 96.0259 73.4 95.192 72.2043 93.7912C71.0086 92.3569 68.916 88.588 68.916 88.588Z" fill="#346399"/>
<path d="M72.2368 79.2822C72.2036 79.3822 72.2036 79.3155 72.3032 79.6824C72.2036 79.4823 71.4729 77.8479 71.34 77.5811C71.2736 77.481 71.1407 77.5144 71.1075 77.6145C70.9414 78.1481 71.1407 78.3482 71.3068 78.8486C71.4064 79.1487 72.0375 80.6163 72.4361 81.2834C72.2368 81.2834 72.0043 81.25 71.805 81.2167C71.6722 81.1833 71.5061 81.15 71.3732 81.1833C71.1407 81.2167 70.9414 81.3501 70.875 81.5836C71.3732 81.717 71.8714 81.8171 72.4029 81.9171C72.5025 81.9505 72.735 82.0172 72.9011 82.0172C73.0672 82.284 73.2 82.4508 73.2665 82.4508C74.2629 82.7176 73.964 81.9171 74.9272 81.4835C74.3294 80.6497 74.0969 80.2494 73.6318 79.2822C73.6318 79.2822 73.5322 79.0487 73.499 79.0487C73.4325 78.8819 73.0672 78.982 73.1004 79.1487C73.1668 79.4823 73.1004 79.2154 73.2 79.5156C73.0008 79.0153 73.2 79.5823 73.034 79.082C72.9675 78.9486 72.6686 78.982 72.6686 79.1154C72.6686 79.1487 72.6686 79.2154 72.7683 79.549C72.735 79.4156 72.7018 79.3822 72.569 79.1487C72.569 79.082 72.27 79.1487 72.2368 79.2822Z" fill="url(#paint37_linear_1066_15890)"/>
<path d="M75.161 95.7591C74.9285 91.5565 74.8288 86.9536 72.9023 82.3841L75.161 81.4169C76.9878 84.7856 78.715 90.1556 78.881 95.6923L75.161 95.7591Z" fill="#3976A1"/>
<path d="M75.1251 96.7931C73.6968 95.6924 69.1464 90.6893 67.4524 87.0871C66.7881 85.7196 66.921 84.1186 68.1499 83.2514C69.3789 82.3842 70.8735 82.6177 71.7371 83.8518C73.2318 86.0531 74.8593 88.7881 76.3208 90.9562C77.2508 92.2903 77.5165 92.5571 78.3469 93.9914C80.1073 96.9598 76.6197 97.9271 75.1251 96.7931Z" fill="#3976A1"/>
<path d="M72.0392 15.743L72.0059 32.0531L71.7734 31.9197L71.8067 15.6096L72.0392 15.743Z" fill="white"/>
<path d="M76.0919 18.0778L76.0255 34.3879L75.793 34.2545L75.8594 17.9444L76.0919 18.0778Z" fill="white"/>
<path d="M80.1095 20.4459L80.0763 36.7226L79.8438 36.5892L79.877 20.2791L80.1095 20.4459Z" fill="white"/>
<path d="M84.1642 22.7808L84.1309 39.0575L83.8984 38.924L83.9317 22.6473L84.1642 22.7808Z" fill="white"/>
<path d="M88.2169 25.1155L88.1505 41.4256L87.918 41.2922L87.9844 24.9821L88.2169 25.1155Z" fill="white"/>
<path d="M92.2345 27.4502L92.2013 43.7603L91.9688 43.6269L92.002 27.3168L92.2345 27.4502Z" fill="white"/>
<path d="M96.2872 29.7851L96.2208 46.0952L95.9883 45.9617L96.0547 29.6517L96.2872 29.7851Z" fill="white"/>
<path d="M100.303 32.1532L100.27 48.4299L100.037 48.2965L100.07 31.9864L100.303 32.1532Z" fill="white"/>
<path d="M104.358 34.4879L104.324 50.7646L104.092 50.6312L104.125 34.3545L104.358 34.4879Z" fill="white"/>
<path d="M108.41 36.8227L108.344 53.1328L108.111 52.9993L108.178 36.6893L108.41 36.8227Z" fill="white"/>
<path d="M112.428 39.1574L112.395 55.4675L112.162 55.3341L112.195 39.024L112.428 39.1574Z" fill="white"/>
<path d="M116.481 41.4922L116.414 57.8023L116.182 57.6689L116.248 41.3588L116.481 41.4922Z" fill="white"/>
<path d="M120.5 43.8604L120.467 60.1371L120.234 60.0037L120.268 43.6936L120.5 43.8604Z" fill="white"/>
<path d="M124.553 46.1951L124.52 62.4718L124.287 62.3384L124.32 46.0617L124.553 46.1951Z" fill="white"/>
<path d="M128.606 48.5299L128.539 64.84L128.307 64.7066L128.373 48.3965L128.606 48.5299Z" fill="white"/>
<path d="M132.623 50.8647L132.59 67.1748L132.357 67.0414L132.391 50.7313L132.623 50.8647Z" fill="white"/>
<path d="M136.676 53.1995L136.609 69.5095L136.377 69.3761L136.443 53.066L136.676 53.1995Z" fill="white"/>
<path d="M135.78 60.2038C136.809 60.8042 137.739 61.8048 138.47 63.0389L139.433 64.7399L139.101 64.9401L138.138 63.239C137.507 62.1383 136.676 61.2711 135.78 60.7375C134.883 60.2372 134.052 60.1371 133.421 60.504L131.528 61.6047C130.698 62.0716 129.568 61.9716 128.406 61.2711C127.21 60.5707 126.114 59.4033 125.284 57.9691L121.331 51.0982C120.833 50.2643 120.202 49.5639 119.504 49.1637C118.807 48.7634 118.176 48.6967 117.677 48.9635L116.083 49.8974C116.017 49.9308 115.95 49.9641 115.884 49.9975C115.851 49.9975 115.784 50.0309 115.751 50.0309C115.485 50.0642 115.153 49.9641 114.854 49.7974C114.555 49.6306 114.223 49.3304 113.957 48.9969C113.891 48.9302 113.858 48.8635 113.824 48.7968C113.758 48.6967 113.692 48.5966 113.625 48.4632L113.492 48.1964C112.861 47.1291 112.064 46.2619 111.167 45.7282C110.304 45.2279 109.473 45.1278 108.842 45.4947L107.713 46.1284C107.447 46.2952 107.115 46.3619 106.783 46.3953C106.683 46.3953 106.617 46.3953 106.517 46.3953C106.351 46.3953 106.218 46.3619 106.052 46.3286C105.953 46.2952 105.853 46.2952 105.753 46.2619C105.654 46.2285 105.554 46.1952 105.454 46.1618C105.355 46.1284 105.255 46.0951 105.155 46.0284C105.023 45.9617 104.89 45.895 104.757 45.8283C104.391 45.6281 104.026 45.3613 103.661 45.0278C103.528 44.9277 103.395 44.7943 103.262 44.6609C103.129 44.5275 102.996 44.394 102.897 44.2606C102.83 44.1939 102.764 44.1272 102.731 44.0605C102.399 43.6603 102.1 43.1933 101.801 42.7263L99.1767 38.1902C99.0438 37.9901 98.9442 37.79 98.8113 37.5898C98.6785 37.3897 98.5456 37.1896 98.4128 37.0228C98.3463 36.9228 98.2799 36.8561 98.2135 36.756C97.682 36.0889 97.1174 35.5219 96.5195 35.0549C96.4531 34.9882 96.3534 34.9215 96.287 34.8882C95.8552 34.588 95.5231 34.3879 95.2241 34.2544C95.0248 34.1544 94.9584 34.121 94.8588 34.0877C94.2609 33.8542 93.6962 33.7541 93.1648 33.8208C93.0984 33.8208 93.0319 33.8542 92.9655 33.8542C92.8326 33.8876 92.6998 33.9209 92.5669 33.9543C92.4341 33.9876 92.3012 34.0543 92.2016 34.121L86.6214 37.2897C85.9571 37.6565 85.1268 37.5565 84.1968 37.0562C83.2667 36.5225 82.4364 35.622 81.7721 34.4879L80.211 31.7863C79.447 30.4521 78.5502 29.3514 77.587 28.4509C77.5205 28.3842 77.4541 28.3508 77.4209 28.2841C77.3213 28.2174 77.2548 28.1173 77.1552 28.0506C76.823 27.7838 76.6237 27.617 76.4245 27.4836C76.358 27.4502 76.3248 27.4169 76.2584 27.3835C75.4612 26.8832 74.7969 26.583 74.1658 26.4163C73.1362 26.1494 72.1729 26.2162 71.3758 26.6498L69.5157 27.7171L69.1836 27.1501L71.0436 26.0827C71.1765 26.016 71.3093 25.9493 71.409 25.8826C71.5086 25.8493 71.5751 25.8159 71.6747 25.7826C72.0401 25.6825 72.4054 25.6158 72.804 25.6158C72.9037 25.6158 73.0033 25.6158 73.103 25.6158C73.269 25.6158 73.4019 25.6491 73.568 25.6825C73.6676 25.7158 73.7673 25.7158 73.8669 25.7492C73.9333 25.7492 73.9665 25.7826 74.033 25.7826C74.1991 25.8159 74.3319 25.8826 74.498 25.916C74.5644 25.9493 74.5976 25.9493 74.6641 25.9827C74.7305 26.016 74.7969 26.016 74.8301 26.0494C74.9298 26.0827 75.0294 26.1494 75.1291 26.1828C75.1955 26.2162 75.2287 26.2495 75.2951 26.2495C75.3948 26.3162 75.4944 26.3496 75.5941 26.4163C75.6605 26.4496 75.6937 26.483 75.7602 26.5163C75.8266 26.5497 75.8598 26.583 75.9262 26.6164C76.0259 26.6831 76.1255 26.7498 76.2584 26.8165C76.3248 26.8499 76.358 26.8832 76.4245 26.9166C76.6237 27.05 76.8562 27.2168 77.0555 27.3835C77.2548 27.5503 77.4873 27.7504 77.6866 27.9172C77.7863 28.0173 77.8859 28.1173 77.9856 28.2174C78.0852 28.3175 78.1848 28.4175 78.2845 28.5176C78.4506 28.6843 78.5834 28.8511 78.7163 29.0179C78.8159 29.1179 78.9156 29.2514 79.0152 29.3514C79.1149 29.4848 79.2145 29.5849 79.3142 29.7183C79.7459 30.2853 80.1445 30.8523 80.5099 31.5194L82.071 34.2211C82.4031 34.7548 82.4696 34.8215 82.5028 34.8882C82.8017 35.2551 82.9346 35.4218 83.1007 35.5886C85.0603 36.7893 85.1268 36.7893 85.1932 36.8227C85.2596 36.8227 85.3261 36.8227 85.3925 36.8561C85.4589 36.8561 85.5254 36.8561 85.5918 36.8561L91.803 33.4873C92.8659 32.8869 94.2609 33.0871 95.6559 33.8876C97.0509 34.688 98.446 36.1223 99.4756 37.9234L102.1 42.4595C102.199 42.6596 102.332 42.8598 102.465 43.0265C102.498 43.0932 102.565 43.1599 102.631 43.2267C102.83 43.4935 103.063 43.7603 103.262 43.9938C103.661 44.394 103.727 44.4274 103.76 44.4941C103.96 44.6609 104.093 44.7609 104.192 44.861C104.325 44.9611 104.391 44.9944 104.458 45.0611C104.591 45.1612 104.657 45.1945 104.724 45.2279C104.79 45.2612 104.856 45.2946 104.89 45.3279C105.023 45.3947 105.089 45.428 105.155 45.4614C105.355 45.5614 105.454 45.5948 105.587 45.6281C105.753 45.6615 105.82 45.6948 105.853 45.6948C105.986 45.7282 106.052 45.7282 106.119 45.7282C106.418 45.7616 106.617 45.7282 106.816 45.6948C107.082 45.6281 107.215 45.5614 107.348 45.4947L108.477 44.861C109.174 44.4607 110.138 44.5608 111.134 45.1278C112.131 45.6948 113.094 46.6955 113.791 47.9296L113.924 48.1964C113.957 48.2631 114.024 48.3632 114.057 48.4299C114.655 49.0969 114.987 49.2971 115.319 49.3304C115.386 49.3304 115.452 49.3304 115.518 49.3304C115.651 49.2971 115.685 49.2971 115.751 49.2637L117.378 48.3298C117.943 47.9963 118.74 48.063 119.537 48.5633C120.368 49.0302 121.132 49.8641 121.696 50.8647L125.649 57.7356C126.38 59.0364 127.376 60.0704 128.439 60.7041C129.502 61.3045 130.498 61.4045 131.229 61.0043L133.122 59.9036C133.82 59.5367 134.783 59.6368 135.78 60.2038Z" fill="#F5A26A"/>
<defs>
<linearGradient id="paint0_linear_1066_15890" x1="108.295" y1="39.8696" x2="92.8161" y2="86.4559" gradientUnits="userSpaceOnUse">
<stop offset="9.00396e-07" stop-color="#3D7EA0"/>
<stop offset="0.4683" stop-color="#3B7E9E"/>
<stop offset="1" stop-color="#015A85"/>
</linearGradient>
<linearGradient id="paint1_linear_1066_15890" x1="30.4609" y1="131.926" x2="30.4609" y2="43.3749" gradientUnits="userSpaceOnUse">
<stop offset="0.0704418" stop-color="#EC6675"/>
<stop offset="0.418" stop-color="#F6A66A"/>
<stop offset="0.4248" stop-color="#F6A669" stop-opacity="0.9882"/>
<stop offset="0.5634" stop-color="#F5AC55" stop-opacity="0.7501"/>
<stop offset="0.7045" stop-color="#F5B043" stop-opacity="0.5076"/>
<stop offset="0.8486" stop-color="#F5B336" stop-opacity="0.2601"/>
<stop offset="1" stop-color="#F4B432" stop-opacity="0"/>
</linearGradient>
<linearGradient id="paint2_linear_1066_15890" x1="53.0959" y1="122.965" x2="53.0959" y2="31.996" gradientUnits="userSpaceOnUse">
<stop offset="0.0704418" stop-color="#EC6675"/>
<stop offset="0.3148" stop-color="#F6A66A"/>
<stop offset="0.7489" stop-color="#F4B432" stop-opacity="0"/>
</linearGradient>
<linearGradient id="paint3_linear_1066_15890" x1="18.3228" y1="93.3581" x2="77.034" y2="127.159" gradientUnits="userSpaceOnUse">
<stop offset="0.0512106" stop-color="#085C85"/>
<stop offset="0.2942" stop-color="#3D7EA0"/>
<stop offset="0.381" stop-color="#36789B" stop-opacity="0.877"/>
<stop offset="0.7803" stop-color="#15618B" stop-opacity="0.3113"/>
<stop offset="1" stop-color="#015A85" stop-opacity="0"/>
</linearGradient>
<linearGradient id="paint4_linear_1066_15890" x1="27.2172" y1="99.5235" x2="49.7888" y2="109.051" gradientUnits="userSpaceOnUse">
<stop stop-color="white"/>
<stop offset="1" stop-color="#E9EBF7"/>
</linearGradient>
<linearGradient id="paint5_linear_1066_15890" x1="53.5485" y1="114.837" x2="35.9931" y2="102.711" gradientUnits="userSpaceOnUse">
<stop offset="0.0761719" stop-color="#3B749F"/>
<stop offset="0.9996" stop-color="#9BB8C2"/>
</linearGradient>
<linearGradient id="paint6_linear_1066_15890" x1="44.5259" y1="111.176" x2="45.4493" y2="63.5894" gradientUnits="userSpaceOnUse">
<stop offset="0.1137" stop-color="#F6A66A"/>
<stop offset="1" stop-color="#F4B432"/>
</linearGradient>
<linearGradient id="paint7_linear_1066_15890" x1="30.0651" y1="113.757" x2="30.3066" y2="101.31" gradientUnits="userSpaceOnUse">
<stop offset="0.1137" stop-color="#F6A66A"/>
<stop offset="1" stop-color="#F4B432"/>
</linearGradient>
<linearGradient id="paint8_linear_1066_15890" x1="27.9794" y1="88.9581" x2="28.3139" y2="71.7196" gradientUnits="userSpaceOnUse">
<stop offset="0.1137" stop-color="#F6A66A"/>
<stop offset="1" stop-color="#F4B432"/>
</linearGradient>
<linearGradient id="paint9_linear_1066_15890" x1="36.5372" y1="66.0537" x2="36.7113" y2="57.0814" gradientUnits="userSpaceOnUse">
<stop offset="0.1137" stop-color="#F6A66A"/>
<stop offset="1" stop-color="#F4B432"/>
</linearGradient>
<linearGradient id="paint10_linear_1066_15890" x1="44.4991" y1="80.458" x2="44.8336" y2="63.2195" gradientUnits="userSpaceOnUse">
<stop offset="0.1137" stop-color="#F6A66A"/>
<stop offset="1" stop-color="#F4B432"/>
</linearGradient>
<linearGradient id="paint11_linear_1066_15890" x1="40.576" y1="97.5496" x2="57.7771" y2="92.4204" gradientUnits="userSpaceOnUse">
<stop stop-color="#5797BC"/>
<stop offset="0.0811547" stop-color="#609BBF"/>
<stop offset="0.1953" stop-color="#75A6C7"/>
<stop offset="0.3289" stop-color="#96B8D5"/>
<stop offset="0.4762" stop-color="#BED2E8"/>
<stop offset="0.5808" stop-color="#DCE8F8"/>
<stop offset="0.8474" stop-color="#EAF1F5"/>
<stop offset="1" stop-color="#F4F6F2"/>
</linearGradient>
<linearGradient id="paint12_linear_1066_15890" x1="26.4588" y1="99.6781" x2="45.0806" y2="95.5211" gradientUnits="userSpaceOnUse">
<stop stop-color="#5797BC"/>
<stop offset="0.0811547" stop-color="#609BBF"/>
<stop offset="0.1953" stop-color="#75A6C7"/>
<stop offset="0.3289" stop-color="#96B8D5"/>
<stop offset="0.4762" stop-color="#BED2E8"/>
<stop offset="0.5808" stop-color="#DCE8F8"/>
<stop offset="0.8474" stop-color="#EAF1F5"/>
<stop offset="1" stop-color="#F4F6F2"/>
</linearGradient>
<linearGradient id="paint13_linear_1066_15890" x1="43.7559" y1="80.3327" x2="39.4535" y2="88.4979" gradientUnits="userSpaceOnUse">
<stop stop-color="#5797BC"/>
<stop offset="0.0811547" stop-color="#609BBF"/>
<stop offset="0.1953" stop-color="#75A6C7"/>
<stop offset="0.3289" stop-color="#96B8D5"/>
<stop offset="0.4762" stop-color="#BED2E8"/>
<stop offset="0.5808" stop-color="#DCE8F8"/>
<stop offset="0.8474" stop-color="#EAF1F5"/>
<stop offset="1" stop-color="#F4F6F2"/>
</linearGradient>
<linearGradient id="paint14_linear_1066_15890" x1="15.0966" y1="83.3212" x2="34.0419" y2="79.0919" gradientUnits="userSpaceOnUse">
<stop stop-color="#5797BC"/>
<stop offset="0.0811547" stop-color="#609BBF"/>
<stop offset="0.1953" stop-color="#75A6C7"/>
<stop offset="0.3289" stop-color="#96B8D5"/>
<stop offset="0.4762" stop-color="#BED2E8"/>
<stop offset="0.5808" stop-color="#DCE8F8"/>
<stop offset="0.8474" stop-color="#EAF1F5"/>
<stop offset="1" stop-color="#F4F6F2"/>
</linearGradient>
<linearGradient id="paint15_linear_1066_15890" x1="34.2716" y1="70.2414" x2="29.8258" y2="78.6788" gradientUnits="userSpaceOnUse">
<stop stop-color="#5797BC"/>
<stop offset="0.0811547" stop-color="#609BBF"/>
<stop offset="0.1953" stop-color="#75A6C7"/>
<stop offset="0.3289" stop-color="#96B8D5"/>
<stop offset="0.4762" stop-color="#BED2E8"/>
<stop offset="0.5808" stop-color="#DCE8F8"/>
<stop offset="0.8474" stop-color="#EAF1F5"/>
<stop offset="1" stop-color="#F4F6F2"/>
</linearGradient>
<linearGradient id="paint16_linear_1066_15890" x1="28.7027" y1="80.3227" x2="46.1968" y2="75.1062" gradientUnits="userSpaceOnUse">
<stop stop-color="#5797BC"/>
<stop offset="0.0811547" stop-color="#609BBF"/>
<stop offset="0.1953" stop-color="#75A6C7"/>
<stop offset="0.3289" stop-color="#96B8D5"/>
<stop offset="0.4762" stop-color="#BED2E8"/>
<stop offset="0.5808" stop-color="#DCE8F8"/>
<stop offset="0.8474" stop-color="#EAF1F5"/>
<stop offset="1" stop-color="#F4F6F2"/>
</linearGradient>
<linearGradient id="paint17_linear_1066_15890" x1="36.3748" y1="71.4312" x2="31.9499" y2="79.8293" gradientUnits="userSpaceOnUse">
<stop stop-color="#5797BC"/>
<stop offset="0.0811547" stop-color="#609BBF"/>
<stop offset="0.1953" stop-color="#75A6C7"/>
<stop offset="0.3289" stop-color="#96B8D5"/>
<stop offset="0.4762" stop-color="#BED2E8"/>
<stop offset="0.5808" stop-color="#DCE8F8"/>
<stop offset="0.8474" stop-color="#EAF1F5"/>
<stop offset="1" stop-color="#F4F6F2"/>
</linearGradient>
<linearGradient id="paint18_linear_1066_15890" x1="29.7023" y1="83.8223" x2="47.1965" y2="78.6057" gradientUnits="userSpaceOnUse">
<stop stop-color="#5797BC"/>
<stop offset="0.0811547" stop-color="#609BBF"/>
<stop offset="0.1953" stop-color="#75A6C7"/>
<stop offset="0.3289" stop-color="#96B8D5"/>
<stop offset="0.4762" stop-color="#BED2E8"/>
<stop offset="0.5808" stop-color="#DCE8F8"/>
<stop offset="0.8474" stop-color="#EAF1F5"/>
<stop offset="1" stop-color="#F4F6F2"/>
</linearGradient>
<linearGradient id="paint19_linear_1066_15890" x1="15.909" y1="86.8998" x2="34.8304" y2="82.6759" gradientUnits="userSpaceOnUse">
<stop stop-color="#5797BC"/>
<stop offset="0.0811547" stop-color="#609BBF"/>
<stop offset="0.1953" stop-color="#75A6C7"/>
<stop offset="0.3289" stop-color="#96B8D5"/>
<stop offset="0.4762" stop-color="#BED2E8"/>
<stop offset="0.5808" stop-color="#DCE8F8"/>
<stop offset="0.8474" stop-color="#EAF1F5"/>
<stop offset="1" stop-color="#F4F6F2"/>
</linearGradient>
<linearGradient id="paint20_linear_1066_15890" x1="29.3219" y1="82.4323" x2="46.8429" y2="77.2078" gradientUnits="userSpaceOnUse">
<stop stop-color="#5797BC"/>
<stop offset="0.0811547" stop-color="#609BBF"/>
<stop offset="0.1953" stop-color="#75A6C7"/>
<stop offset="0.3289" stop-color="#96B8D5"/>
<stop offset="0.4762" stop-color="#BED2E8"/>
<stop offset="0.5808" stop-color="#DCE8F8"/>
<stop offset="0.8474" stop-color="#EAF1F5"/>
<stop offset="1" stop-color="#F4F6F2"/>
</linearGradient>
<linearGradient id="paint21_linear_1066_15890" x1="115.475" y1="120.899" x2="136.837" y2="102.028" gradientUnits="userSpaceOnUse">
<stop offset="0.0704418" stop-color="#EC6675"/>
<stop offset="0.526666" stop-color="#F6A66A"/>
</linearGradient>
<linearGradient id="paint22_linear_1066_15890" x1="69.6374" y1="49.6184" x2="86.3859" y2="49.6184" gradientUnits="userSpaceOnUse">
<stop offset="0.1137" stop-color="#F6A66A"/>
<stop offset="1" stop-color="#F4B432"/>
</linearGradient>
<linearGradient id="paint23_linear_1066_15890" x1="89.8887" y1="50.941" x2="144.385" y2="112.767" gradientUnits="userSpaceOnUse">
<stop offset="0.0704418" stop-color="#EC6675"/>
<stop offset="0.3148" stop-color="#F6A66A"/>
<stop offset="0.7489" stop-color="#F4B432"/>
</linearGradient>
<linearGradient id="paint24_linear_1066_15890" x1="66.0255" y1="53.0397" x2="144.375" y2="53.0397" gradientUnits="userSpaceOnUse">
<stop stop-color="#3D7EA0"/>
<stop offset="0.6136" stop-color="#065B86"/>
<stop offset="1" stop-color="#015A85"/>
</linearGradient>
<linearGradient id="paint25_linear_1066_15890" x1="63.6409" y1="64.7808" x2="69.9739" y2="53.9735" gradientUnits="userSpaceOnUse">
<stop offset="0.0704418" stop-color="#EC6675"/>
<stop offset="0.3148" stop-color="#F6A66A"/>
<stop offset="0.7489" stop-color="#F4B432"/>
</linearGradient>
<linearGradient id="paint26_linear_1066_15890" x1="65.6726" y1="65.194" x2="68.2477" y2="65.194" gradientUnits="userSpaceOnUse">
<stop offset="0.1148" stop-color="#446C9E"/>
<stop offset="0.6834" stop-color="#2B476A"/>
<stop offset="1" stop-color="#5D8ECB"/>
</linearGradient>
<linearGradient id="paint27_linear_1066_15890" x1="64.7417" y1="64.6474" x2="70.4079" y2="64.1488" gradientUnits="userSpaceOnUse">
<stop offset="0.1148" stop-color="#446C9E"/>
<stop offset="0.6834" stop-color="#2B476A"/>
<stop offset="1" stop-color="#5D8ECB"/>
</linearGradient>
<linearGradient id="paint28_linear_1066_15890" x1="64.7812" y1="65.0967" x2="70.4474" y2="64.5981" gradientUnits="userSpaceOnUse">
<stop offset="0.1148" stop-color="#446C9E"/>
<stop offset="0.6834" stop-color="#2B476A"/>
<stop offset="1" stop-color="#5D8ECB"/>
</linearGradient>
<linearGradient id="paint29_linear_1066_15890" x1="64.8207" y1="65.5456" x2="70.4869" y2="65.047" gradientUnits="userSpaceOnUse">
<stop offset="0.1148" stop-color="#446C9E"/>
<stop offset="0.6834" stop-color="#2B476A"/>
<stop offset="1" stop-color="#5D8ECB"/>
</linearGradient>
<linearGradient id="paint30_linear_1066_15890" x1="64.8602" y1="65.9946" x2="70.5264" y2="65.496" gradientUnits="userSpaceOnUse">
<stop offset="0.1148" stop-color="#446C9E"/>
<stop offset="0.6834" stop-color="#2B476A"/>
<stop offset="1" stop-color="#5D8ECB"/>
</linearGradient>
<linearGradient id="paint31_linear_1066_15890" x1="83.4885" y1="140.338" x2="94.3546" y2="153.048" gradientUnits="userSpaceOnUse">
<stop offset="0.0428251" stop-color="#3976A1"/>
<stop offset="1" stop-color="white" stop-opacity="0"/>
</linearGradient>
<linearGradient id="paint32_linear_1066_15890" x1="51.1614" y1="134.034" x2="99.9063" y2="134.034" gradientUnits="userSpaceOnUse">
<stop stop-color="white"/>
<stop offset="1" stop-color="#E9EBF7"/>
</linearGradient>
<linearGradient id="paint33_linear_1066_15890" x1="77.7238" y1="136.612" x2="62.3167" y2="125.383" gradientUnits="userSpaceOnUse">
<stop offset="0.0761719" stop-color="#3B749F"/>
<stop offset="0.9996" stop-color="#9BB8C2"/>
</linearGradient>
<linearGradient id="paint34_linear_1066_15890" x1="73.6275" y1="112.672" x2="61.4057" y2="74.7811" gradientUnits="userSpaceOnUse">
<stop stop-color="#5797BC"/>
<stop offset="0.0811547" stop-color="#609BBF"/>
<stop offset="0.1953" stop-color="#75A6C7"/>
<stop offset="0.3289" stop-color="#96B8D5"/>
<stop offset="0.4762" stop-color="#BED2E8"/>
<stop offset="0.5808" stop-color="#DCE8F8"/>
<stop offset="0.8474" stop-color="#EAF1F5"/>
<stop offset="1" stop-color="#F4F6F2"/>
</linearGradient>
<linearGradient id="paint35_linear_1066_15890" x1="66.8198" y1="76.9728" x2="64.4837" y2="90.5002" gradientUnits="userSpaceOnUse">
<stop offset="0.0704418" stop-color="#EC6675"/>
<stop offset="0.3148" stop-color="#F6A66A"/>
<stop offset="0.7489" stop-color="#F4B432"/>
</linearGradient>
<linearGradient id="paint36_linear_1066_15890" x1="65.8003" y1="77.1298" x2="69.124" y2="77.1298" gradientUnits="userSpaceOnUse">
<stop offset="0.1137" stop-color="#F6A66A"/>
<stop offset="1" stop-color="#F4B432"/>
</linearGradient>
<linearGradient id="paint37_linear_1066_15890" x1="70.8631" y1="80.0271" x2="74.9261" y2="80.0271" gradientUnits="userSpaceOnUse">
<stop offset="0.1137" stop-color="#F6A66A"/>
<stop offset="1" stop-color="#F4B432"/>
</linearGradient>
</defs>
</svg>
