<svg width="38" height="31" viewBox="0 0 38 31" fill="none" xmlns="http://www.w3.org/2000/svg">
<path d="M14.3601 28.0278C14.5322 25.6155 14.6968 23.2033 14.8914 20.7948C14.9101 20.5678 15.0598 20.297 15.2394 20.1396C18.8987 16.9111 22.5692 13.6936 26.236 10.4761C27.8449 9.06684 29.4501 7.65758 31.044 6.23368C31.1787 6.11289 31.2124 5.88594 31.291 5.71025C31.0814 5.66998 30.8532 5.56383 30.6624 5.60775C30.3818 5.67364 30.1124 5.82372 29.8654 5.97745C23.4074 9.92703 16.9531 13.8766 10.5025 17.8372C10.162 18.0458 9.8664 18.0934 9.4885 17.9763C6.83194 17.1563 4.1679 16.3584 1.51508 15.5348C1.1297 15.414 0.744309 15.2383 0.411304 15.0113C-0.0863331 14.6673 -0.146199 14.1292 0.295313 13.7229C0.658251 13.3861 1.08854 13.075 1.54876 12.8956C4.53832 11.7426 7.54285 10.6225 10.5436 9.49877C17.6677 6.82667 24.7955 4.15823 31.9233 1.49345C33.1244 1.04322 34.318 0.574692 35.5303 0.157406C36.997 -0.347731 38.0708 0.395332 37.996 1.92172C37.9548 2.80022 37.7303 3.6714 37.5432 4.53891C36.4021 9.7916 35.2459 15.037 34.1009 20.286C33.4761 23.1558 32.8662 26.0292 32.2264 28.8953C32.1216 29.3601 31.9495 29.8287 31.71 30.2423C31.3134 30.9195 30.6474 31.1501 29.8804 30.9122C29.48 30.7877 29.0759 30.6083 28.7354 30.3668C26.0377 28.456 23.3512 26.5343 20.676 24.5943C20.3467 24.3564 20.1634 24.4003 19.894 24.6602C18.5582 25.9303 17.215 27.1932 15.8455 28.4267C15.5425 28.6976 15.1346 28.8733 14.7492 29.027C14.4686 29.1369 14.2703 29.0161 14.3302 28.661C14.3638 28.456 14.3601 28.2437 14.3713 28.0351C14.3713 28.0351 14.3676 28.0351 14.3638 28.0351L14.3601 28.0278Z" fill="white"/>
</svg>
