<svg width="119" height="172" viewBox="0 0 119 172" fill="none" xmlns="http://www.w3.org/2000/svg">
<g style="mix-blend-mode:multiply">
<path opacity="0.02" d="M75.5739 112.661L116.977 136.77L65.7845 166.848C62.4793 168.792 57.8519 168.49 54.5467 166.556L24.4299 149.019C22.1843 147.716 21.8343 144.275 24.08 142.952L75.5739 112.651V112.661Z" fill="#235E83"/>
<path opacity="0.03" d="M74.3487 113.886L114.964 137.538L65.337 166.663C62.3136 168.442 57.4821 167.829 54.4491 166.06L25.1392 148.989C23.0783 147.794 22.3978 144.43 24.449 143.215L74.3487 113.886Z" fill="#245E83"/>
<path opacity="0.05" d="M73.1249 115.101L112.953 138.296L64.9006 166.459C62.1495 168.072 57.1333 167.149 54.3724 165.545L25.8597 148.941C23.9932 147.852 22.9627 144.556 24.8292 143.458L73.1249 115.101Z" fill="#255D84"/>
<path opacity="0.06" d="M71.8992 116.326L110.94 139.064L64.4624 166.274C61.9834 167.732 56.7728 166.488 54.2841 165.039L26.5686 148.902C24.8868 147.92 23.5258 144.702 25.1979 143.711L71.8992 116.326Z" fill="#265D85"/>
<path opacity="0.08" d="M70.6647 117.541L108.918 139.812L64.0056 166.07C61.8085 167.363 56.3938 165.807 54.187 164.524L27.2686 148.853C25.7715 147.978 24.0703 144.838 25.5577 143.954L70.655 117.541H70.6647Z" fill="#275C85"/>
<path opacity="0.09" d="M69.4398 118.756L106.906 140.571L63.5681 165.866C61.6433 167.003 56.034 165.127 54.1092 164.009L27.988 148.795C26.6756 148.037 24.6341 144.955 25.9465 144.187L69.4495 118.746L69.4398 118.756Z" fill="#285C86"/>
<path opacity="0.11" d="M68.2147 119.981L104.893 141.339L63.1208 165.681C61.4681 166.653 55.6742 164.476 54.0118 163.503L28.6877 148.756C27.5698 148.105 25.188 145.101 26.306 144.44L68.205 119.971L68.2147 119.981Z" fill="#285B87"/>
<path opacity="0.12" d="M66.9899 121.196L102.881 142.097L62.6833 165.487C61.3029 166.293 55.3146 163.805 53.9341 162.998L29.4072 148.717C28.4739 148.173 25.752 145.237 26.6852 144.693L66.9899 121.196Z" fill="#295B88"/>
<path opacity="0.14" d="M65.7653 122.421L100.869 142.865L62.2365 165.292C61.1379 165.943 54.9454 163.134 53.8469 162.492L30.1269 148.678C29.3783 148.241 26.3258 145.383 27.0646 144.945L65.775 122.421H65.7653Z" fill="#2A5A88"/>
<path opacity="0.15" d="M64.5316 123.636L98.8383 143.614L61.7805 165.088C60.9542 165.574 54.5673 162.454 53.7409 161.967L30.818 148.62C30.2542 148.29 26.8614 145.509 27.4253 145.179L64.5316 123.636Z" fill="#2B5A89"/>
<path opacity="0.17" d="M63.3056 124.861L96.8249 144.381L61.3419 164.903C60.7878 165.224 54.2162 161.792 53.6621 161.472L31.5363 148.591C31.1669 148.377 27.4242 145.655 27.8033 145.441L63.3154 124.871L63.3056 124.861Z" fill="#2C598A"/>
<path opacity="0.18" d="M62.0811 126.076L94.8129 145.14L60.8951 164.699C60.6229 164.864 53.8471 161.112 53.5652 160.956L32.2366 148.533C32.0519 148.426 27.9786 145.781 28.1633 145.674L62.0714 126.076H62.0811Z" fill="#2D598A"/>
<path opacity="0.2" d="M28.541 145.927L60.4562 164.514L92.7991 145.908L60.8548 127.301L28.541 145.927Z" fill="#2E588B"/>
</g>
<path d="M60.6523 167.625L96.6796 146.909V21.494L60.6523 42.2101V167.625Z" fill="url(#paint0_linear_847_10836)"/>
<path d="M25.1504 146.909L60.6722 167.625V42.2102L25.1504 21.5231V146.909Z" fill="url(#paint1_linear_847_10836)"/>
<path d="M25.1504 21.5232L60.6722 42.2102L96.6801 21.494L61.1194 0.787537L25.1504 21.5232Z" fill="url(#paint2_linear_847_10836)"/>
<path d="M60.4092 33.0331V38.0104L89.1455 21.4841V16.5165L60.4092 33.0331Z" fill="#5697BC"/>
<path d="M60.4286 33.0332V38.0105L32.1006 21.494V16.5361L60.4286 33.0332Z" fill="#9EBFE6"/>
<path d="M32.1006 16.536L60.4286 33.0331L89.1454 16.5166L60.7786 0L32.1006 16.536Z" fill="url(#paint3_linear_847_10836)"/>
<path d="M60.3411 9.47834V6.47445L60.3314 6.46472L42.8232 16.5555L45.4188 18.0623L60.3411 9.47834Z" fill="#5697BC"/>
<path d="M60.3311 9.47834L75.2339 18.1498L77.8295 16.6527L60.3311 6.46472V9.47834Z" fill="#8CB9DE"/>
<path d="M45.5361 18.004L60.2251 26.5491L75.1182 17.9846L60.4098 9.42981L45.5361 18.004Z" fill="#9EBFE6"/>
<g opacity="0.5">
<path style="mix-blend-mode:screen" d="M60.2256 26.549L75.1187 17.9845L60.4103 9.42975L60.2256 26.549Z" fill="url(#paint4_radial_847_10836)"/>
</g>
<path d="M92.3944 141.572L89.1669 143.555V146.442L92.3944 144.459V141.572ZM86.4935 144.974L83.266 146.958V149.845L86.4935 147.862V144.974ZM80.5927 148.367L77.3652 150.35V153.238L80.5927 151.254V148.367ZM65.5635 157.155V160.043L68.791 158.059V155.172L65.5635 157.155ZM74.7015 151.77L71.4741 153.753V156.64L74.7015 154.657V151.77Z" fill="#195F84"/>
<g style="mix-blend-mode:multiply">
<path d="M74.2656 154.414L71.4658 156.134V156.64L74.703 154.657V151.77L74.2656 152.032V154.414Z" fill="#195F84"/>
<path d="M80.1669 151.011L77.3672 152.742V153.238L80.5947 151.254V148.367L80.1669 148.639V151.011Z" fill="#195F84"/>
<path d="M68.3739 157.816L65.5645 159.537V160.043L68.8017 158.05V155.172L68.3739 155.435V157.816Z" fill="#195F84"/>
<path d="M91.9686 141.834V144.216L89.1592 145.937V146.442L92.3964 144.459V141.572L91.9686 141.834Z" fill="#195F84"/>
<path d="M86.0673 147.619L83.2578 149.339V149.845L86.495 147.852V144.974L86.0673 145.237V147.619Z" fill="#195F84"/>
</g>
<path d="M92.3944 132.862L89.1669 134.845V137.732L92.3944 135.749V132.862ZM86.4935 136.264L83.266 138.247V141.135L86.4935 139.151V136.264ZM80.5927 139.657L77.3652 141.64V144.527L80.5927 142.544V139.657ZM65.5635 148.445V151.332L68.791 149.349V146.462L65.5635 148.445ZM74.7015 143.059L71.4741 145.043V147.93L74.7015 145.947V143.059Z" fill="#195F84"/>
<g style="mix-blend-mode:multiply">
<path d="M74.2656 145.704L71.4658 147.424V147.93L74.703 145.947V143.059L74.2656 143.322V145.704Z" fill="#195F84"/>
<path d="M80.1669 142.301L77.3672 144.032V144.527L80.5947 142.544V139.657L80.1669 139.929V142.301Z" fill="#195F84"/>
<path d="M68.3739 149.106L65.5645 150.827V151.332L68.8017 149.339V146.462L68.3739 146.724V149.106Z" fill="#195F84"/>
<path d="M91.9686 133.124V135.506L89.1592 137.227V137.732L92.3964 135.749V132.862L91.9686 133.124Z" fill="#195F84"/>
<path d="M86.0673 138.908L83.2578 140.629V141.135L86.495 139.142V136.264L86.0673 136.527V138.908Z" fill="#195F84"/>
</g>
<path d="M92.3944 124.151L89.1669 126.135V129.022L92.3944 127.039V124.151ZM86.4935 127.554L83.266 129.537V132.424L86.4935 130.441V127.554ZM80.5927 130.956L77.3652 132.94V135.827L80.5927 133.844V130.956ZM65.5635 139.735V142.622L68.791 140.639V137.752L65.5635 139.735ZM74.7015 134.349L71.4741 136.332V139.22L74.7015 137.236V134.349Z" fill="#195F84"/>
<g style="mix-blend-mode:multiply">
<path d="M74.2656 136.993L71.4658 138.714V139.22L74.703 137.236V134.349L74.2656 134.612V136.993Z" fill="#195F84"/>
<path d="M80.1669 133.601L77.3672 135.321V135.817L80.5947 133.834V130.956L80.1669 131.219V133.601Z" fill="#195F84"/>
<path d="M68.3739 140.396L65.5645 142.117V142.622L68.8017 140.629V137.752L68.3739 138.014V140.396Z" fill="#195F84"/>
<path d="M91.9686 124.414V126.796L89.1592 128.516V129.022L92.3964 127.039V124.151L91.9686 124.414Z" fill="#195F84"/>
<path d="M86.0673 130.198L83.2578 131.919V132.424L86.495 130.431V127.554L86.0673 127.816V130.198Z" fill="#195F84"/>
</g>
<path d="M92.3944 115.441L89.1669 117.424V120.311L92.3944 118.328V115.441ZM86.4935 118.844L83.266 120.827V123.714L86.4935 121.731V118.844ZM80.5927 122.246L77.3652 124.229V127.116L80.5927 125.133V122.246ZM65.5635 131.024V133.912L68.791 131.928V129.041L65.5635 131.024ZM74.7015 125.639L71.4741 127.622V130.509L74.7015 128.526V125.639Z" fill="#195F84"/>
<g style="mix-blend-mode:multiply">
<path d="M74.2656 128.283L71.4658 130.004V130.509L74.703 128.526V125.639L74.2656 125.901V128.283Z" fill="#195F84"/>
<path d="M80.1669 124.89L77.3672 126.611V127.107L80.5947 125.123V122.246L80.1669 122.508V124.89Z" fill="#195F84"/>
<path d="M68.3739 131.685L65.5645 133.406V133.912L68.8017 131.919V129.041L68.3739 129.304V131.685Z" fill="#195F84"/>
<path d="M91.9686 115.704V118.085L89.1592 119.806V120.311L92.3964 118.328V115.441L91.9686 115.704Z" fill="#195F84"/>
<path d="M86.0673 121.488L83.2578 123.208V123.714L86.495 121.721V118.844L86.0673 119.106V121.488Z" fill="#195F84"/>
</g>
<path d="M92.3944 106.731L89.1669 108.714V111.601L92.3944 109.618V106.731ZM86.4935 110.133L83.266 112.116V115.004L86.4935 113.021V110.133ZM80.5927 113.536L77.3652 115.519V118.406L80.5927 116.423V113.536ZM65.5635 122.314V125.201L68.791 123.218V120.331L65.5635 122.314ZM74.7015 116.929L71.4741 118.912V121.799L74.7015 119.816V116.929Z" fill="#195F84"/>
<g style="mix-blend-mode:multiply">
<path d="M74.2656 119.573L71.4658 121.293V121.799L74.703 119.816V116.928L74.2656 117.191V119.573Z" fill="#195F84"/>
<path d="M80.1669 116.18L77.3672 117.901V118.396L80.5947 116.413V113.536L80.1669 113.798V116.18Z" fill="#195F84"/>
<path d="M68.3739 122.975L65.5645 124.696V125.201L68.8017 123.208V120.331L68.3739 120.593V122.975Z" fill="#195F84"/>
<path d="M91.9686 106.993V109.375L89.1592 111.096V111.601L92.3964 109.618V106.731L91.9686 106.993Z" fill="#195F84"/>
<path d="M86.0673 112.777L83.2578 114.498V115.004L86.495 113.011V110.133L86.0673 110.396V112.777Z" fill="#195F84"/>
</g>
<path d="M92.3944 98.0205L89.1669 100.004V102.891L92.3944 100.908V98.0205ZM86.4935 101.423L83.266 103.406V106.293L86.4935 104.31V101.423ZM80.5927 104.825L77.3652 106.809V109.696L80.5927 107.713V104.825ZM65.5635 113.604V116.491L68.791 114.508V111.621L65.5635 113.604ZM74.7015 108.218L71.4741 110.201V113.089L74.7015 111.105V108.218Z" fill="#195F84"/>
<g style="mix-blend-mode:multiply">
<path d="M74.2656 110.862L71.4658 112.593V113.089L74.703 111.105V108.218L74.2656 108.481V110.862Z" fill="#195F84"/>
<path d="M80.1669 107.47L77.3672 109.19V109.696L80.5947 107.703V104.826L80.1669 105.088V107.47Z" fill="#195F84"/>
<path d="M68.3739 114.265L65.5645 115.986V116.491L68.8017 114.498V111.621L68.3739 111.883V114.265Z" fill="#195F84"/>
<path d="M91.9686 98.2831V100.665L89.1592 102.395V102.891L92.3964 100.908V98.0206L91.9686 98.2831Z" fill="#195F84"/>
<path d="M86.0673 104.067L83.2578 105.788V106.293L86.495 104.31V101.423L86.0673 101.686V104.067Z" fill="#195F84"/>
</g>
<path d="M92.3944 89.3101L89.1669 91.2932V94.1805L92.3944 92.1973V89.3101ZM86.4935 92.7125L83.266 94.6957V97.5829L86.4935 95.5998V92.7125ZM80.5927 96.115L77.3652 98.0982V100.985L80.5927 99.0022V96.115ZM65.5635 104.893V107.781L68.791 105.797V102.91L65.5635 104.893ZM74.7015 99.5078L71.4741 101.491V104.378L74.7015 102.395V99.5078Z" fill="#195F84"/>
<g style="mix-blend-mode:multiply">
<path d="M74.2656 102.152L71.4658 103.882V104.378L74.703 102.395V99.5078L74.2656 99.7703V102.152Z" fill="#195F84"/>
<path d="M80.1669 98.7593L77.3672 100.48V100.986L80.5947 98.9926V96.1151L80.1669 96.3776V98.7593Z" fill="#195F84"/>
<path d="M68.3739 105.554L65.5645 107.275V107.781L68.8017 105.798V102.91L68.3739 103.173V105.554Z" fill="#195F84"/>
<path d="M91.9686 89.5823V91.9543L89.1592 93.6847V94.1805L92.3964 92.1974V89.3101L91.9686 89.5823Z" fill="#195F84"/>
<path d="M86.0673 95.3569L83.2578 97.0775V97.5831L86.495 95.5999V92.7126L86.0673 92.9751V95.3569Z" fill="#195F84"/>
</g>
<path d="M92.3944 80.5997L89.1669 82.5829V85.4701L92.3944 83.487V80.5997ZM86.4935 84.0022L83.266 85.9854V88.8726L86.4935 86.8895V84.0022ZM80.5927 87.4047L77.3652 89.3878V92.2751L80.5927 90.2919V87.4047ZM65.5635 96.1831V99.0703L68.791 97.0871V94.1999L65.5635 96.1831ZM74.7015 90.7974L71.4741 92.7806V95.6678L74.7015 93.6847V90.7974Z" fill="#195F84"/>
<g style="mix-blend-mode:multiply">
<path d="M74.2656 93.4414L71.4658 95.1718V95.6676L74.703 93.6845V90.7972L74.2656 91.0694V93.4414Z" fill="#195F84"/>
<path d="M80.1669 90.0488L77.3672 91.7695V92.275L80.5947 90.2821V87.4046L80.1669 87.6671V90.0488Z" fill="#195F84"/>
<path d="M68.3739 96.844L65.5645 98.5647V99.0702L68.8017 97.0871V94.1998L68.3739 94.4623V96.844Z" fill="#195F84"/>
<path d="M91.9686 80.8718V83.2438L89.1592 84.9742V85.47L92.3964 83.4869V80.5996L91.9686 80.8718Z" fill="#195F84"/>
<path d="M86.0673 86.6463L83.2578 88.367V88.8725L86.495 86.8894V84.0021L86.0673 84.2646V86.6463Z" fill="#195F84"/>
</g>
<path d="M92.3944 71.8896L89.1669 73.8727V76.76L92.3944 74.7768V71.8896ZM86.4935 75.2921L83.266 77.2752V80.1625L86.4935 78.1793V75.2921ZM80.5927 78.6945L77.3652 80.6777V83.5649L80.5927 81.5818V78.6945ZM65.5635 87.4729V90.3601L68.791 88.377V85.4898L65.5635 87.4729ZM74.7015 82.0873L71.4741 84.0704V86.9577L74.7015 84.9745V82.0873Z" fill="#195F84"/>
<g style="mix-blend-mode:multiply">
<path d="M74.2656 84.7315L71.4658 86.4619V86.9577L74.703 84.9745V82.0873L74.2656 82.3595V84.7315Z" fill="#195F84"/>
<path d="M80.1669 81.3388L77.3672 83.0595V83.565L80.5947 81.5721V78.6946L80.1669 78.9571V81.3388Z" fill="#195F84"/>
<path d="M68.3739 88.134L65.5645 89.8547V90.3602L68.8017 88.377V85.4898L68.3739 85.7523V88.134Z" fill="#195F84"/>
<path d="M91.9686 72.1618V74.5338L89.1592 76.2642V76.76L92.3964 74.7768V71.8896L91.9686 72.1618Z" fill="#195F84"/>
<path d="M86.0673 77.9363L83.2578 79.657V80.1625L86.495 78.1794V75.2921L86.0673 75.5546V77.9363Z" fill="#195F84"/>
</g>
<path d="M92.3944 63.1888L89.1669 65.1719V68.0592L92.3944 66.076V63.1888ZM86.4935 66.5815L83.266 68.5647V71.4519L86.4935 69.4688V66.5815ZM80.5927 69.984L77.3652 71.9672V74.8544L80.5927 72.8712V69.984ZM65.5635 78.7624V81.6496L68.791 79.6665V76.7792L65.5635 78.7624ZM74.7015 73.3865L71.4741 75.3696V78.2569L74.7015 76.2737V73.3865Z" fill="#195F84"/>
<g style="mix-blend-mode:multiply">
<path d="M74.2656 76.0208L71.4658 77.7512V78.247L74.703 76.2639V73.3864L74.2656 73.6488V76.0208Z" fill="#195F84"/>
<path d="M80.1669 72.6282L77.3672 74.3488V74.8543L80.5947 72.8615V69.9839L80.1669 70.2464V72.6282Z" fill="#195F84"/>
<path d="M68.3739 79.4233L65.5645 81.144V81.6495L68.8017 79.6664V76.7791L68.3739 77.0416V79.4233Z" fill="#195F84"/>
<path d="M91.9686 63.4512V65.8329L89.1592 67.5536V68.0494L92.3964 66.0662V63.1887L91.9686 63.4512Z" fill="#195F84"/>
<path d="M86.0673 69.2256L83.2578 70.9463V71.4518L86.495 69.4687V66.5814L86.0673 66.8439V69.2256Z" fill="#195F84"/>
</g>
<path d="M92.3944 54.4785L89.1669 56.4617V59.3489L92.3944 57.3658V54.4785ZM86.4935 57.8713L83.266 59.8544V62.7417L86.4935 60.7585V57.8713ZM80.5927 61.2737L77.3652 63.2569V66.1441L80.5927 64.161V61.2737ZM65.5635 70.0521V72.9394L68.791 70.9562V68.069L65.5635 70.0521ZM74.7015 64.6762L71.4741 66.6594V69.5466L74.7015 67.5634V64.6762Z" fill="#195F84"/>
<g style="mix-blend-mode:multiply">
<path d="M74.2656 67.3204L71.4658 69.0411V69.5369L74.703 67.5537V64.6762L74.2656 64.9387V67.3204Z" fill="#195F84"/>
<path d="M80.1669 63.918L77.3672 65.6386V66.1441L80.5947 64.1513V61.2737L80.1669 61.5362V63.918Z" fill="#195F84"/>
<path d="M68.3739 70.7132L65.5645 72.4339V72.9394L68.8017 70.9562V68.069L68.3739 68.3315V70.7132Z" fill="#195F84"/>
<path d="M91.9686 54.741V57.1227L89.1592 58.8434V59.3392L92.3964 57.356V54.4785L91.9686 54.741Z" fill="#195F84"/>
<path d="M86.0673 60.5155L83.2578 62.2362V62.7417L86.495 60.7585V57.8713L86.0673 58.1337V60.5155Z" fill="#195F84"/>
</g>
<path d="M92.3944 45.7682L89.1669 47.7514V50.6386L92.3944 48.6555V45.7682ZM86.4935 49.161L83.266 51.1442V54.0314L86.4935 52.0482V49.161ZM80.5927 52.5635L77.3652 54.5466V57.4339L80.5927 55.4507V52.5635ZM65.5635 61.3418V64.2291L68.791 62.2459V59.3587L65.5635 61.3418ZM74.7015 55.9659L71.4741 57.9491V60.8363L74.7015 58.8532V55.9659Z" fill="#195F84"/>
<g style="mix-blend-mode:multiply">
<path d="M74.2656 58.6102L71.4658 60.3309V60.8267L74.703 58.8435V55.966L74.2656 56.2285V58.6102Z" fill="#195F84"/>
<path d="M80.1669 55.2077L77.3672 56.9284V57.4339L80.5947 55.4411V52.5635L80.1669 52.826V55.2077Z" fill="#195F84"/>
<path d="M68.3739 62.003L65.5645 63.7237V64.2292L68.8017 62.2461V59.3588L68.3739 59.6213V62.003Z" fill="#195F84"/>
<path d="M91.9686 46.0308V48.4125L89.1592 50.1332V50.629L92.3964 48.6458V45.7683L91.9686 46.0308Z" fill="#195F84"/>
<path d="M86.0673 51.8053L83.2578 53.526V54.0315L86.495 52.0483V49.1611L86.0673 49.4235V51.8053Z" fill="#195F84"/>
</g>
<path d="M92.3944 37.0579L89.1669 39.041V41.9283L92.3944 39.9451V37.0579ZM86.4935 40.4506L83.266 42.4338V45.321L86.4935 43.3379V40.4506ZM80.5927 43.8531L77.3652 45.8362V48.7235L80.5927 46.7403V43.8531ZM65.5635 52.6315V55.5187L68.791 53.5355V50.6483L65.5635 52.6315ZM74.7015 47.2556L71.4741 49.2387V52.1259L74.7015 50.1428V47.2556Z" fill="#195F84"/>
<g style="mix-blend-mode:multiply">
<path d="M74.2656 49.8997L71.4658 51.6204V52.1259L74.703 50.133V47.2555L74.2656 47.518V49.8997Z" fill="#195F84"/>
<path d="M80.1669 46.4973L77.3672 48.218V48.7235L80.5947 46.7403V43.8531L80.1669 44.1156V46.4973Z" fill="#195F84"/>
<path d="M68.3739 53.2925L65.5645 55.0132V55.5187L68.8017 53.5356V50.6483L68.3739 50.9108V53.2925Z" fill="#195F84"/>
<path d="M91.9686 37.3203V39.7021L89.1592 41.4228V41.9283L92.3964 39.9354V37.0579L91.9686 37.3203Z" fill="#195F84"/>
<path d="M86.0673 43.0948L83.2578 44.8252V45.321L86.495 43.3378V40.4506L86.0673 40.713V43.0948Z" fill="#195F84"/>
</g>
<path d="M92.3944 28.3476L89.1669 30.3308V33.218L92.3944 31.2348V28.3476ZM86.4935 31.7404L83.266 33.7235V36.6107L86.4935 34.6276V31.7404ZM80.5927 35.1428L77.3652 37.126V40.0132L80.5927 38.0301V35.1428ZM65.5635 43.9212V46.8084L68.791 44.8253V41.938L65.5635 43.9212ZM74.7015 38.5453L71.4741 40.5284V43.4157L74.7015 41.4325V38.5453Z" fill="#195F84"/>
<g style="mix-blend-mode:multiply">
<path d="M74.2656 41.1894L71.4658 42.91V43.4156L74.703 41.4227V38.5452L74.2656 38.8076V41.1894Z" fill="#195F84"/>
<path d="M80.1669 37.787L77.3672 39.5076V40.0132L80.5947 38.03V35.1428L80.1669 35.4052V37.787Z" fill="#195F84"/>
<path d="M68.3739 44.5821L65.5645 46.3125V46.8083L68.8017 44.8252V41.9379L68.3739 42.2004V44.5821Z" fill="#195F84"/>
<path d="M91.9686 28.61V30.9917L89.1592 32.7124V33.2179L92.3964 31.2251V28.3475L91.9686 28.61Z" fill="#195F84"/>
<path d="M86.0673 34.3845L83.2578 36.1149V36.6107L86.495 34.6275V31.7403L86.0673 32.0028V34.3845Z" fill="#195F84"/>
</g>
<path d="M52.954 155.172V158.059L56.1815 160.043V157.155L52.954 155.172ZM47.0532 154.657L50.2807 156.64V153.753L47.0532 151.77V154.657ZM29.3604 144.459L32.5878 146.442V143.555L29.3604 141.572V144.459ZM35.2612 147.852L38.4887 149.835V146.948L35.2612 144.965V147.852ZM41.1523 151.254L44.3798 153.238V150.35L41.1523 148.367V151.254Z" fill="#347EA9"/>
<g style="mix-blend-mode:multiply">
<path d="M47.4815 154.414L50.2812 156.135V156.64L47.0537 154.657V151.77L47.4815 152.032V154.414Z" fill="#347EA9"/>
<path d="M41.5791 151.011L44.3886 152.742V153.238L41.1514 151.254V148.367L41.5791 148.639V151.011Z" fill="#347EA9"/>
<path d="M53.3818 157.816L56.1816 159.537V160.043L52.9541 158.05V155.172L53.3818 155.435V157.816Z" fill="#347EA9"/>
<path d="M29.7881 141.834V144.216L32.5878 145.937V146.442L29.3604 144.459V141.572L29.7881 141.834Z" fill="#347EA9"/>
<path d="M35.6895 147.619L38.4892 149.339V149.845L35.2617 147.852V144.975L35.6895 145.237V147.619Z" fill="#347EA9"/>
</g>
<path d="M52.954 146.462V149.349L56.1815 151.332V148.445L52.954 146.462ZM47.0532 145.947L50.2807 147.93V145.043L47.0532 143.059V145.947ZM29.3604 135.749L32.5878 137.732V134.845L29.3604 132.862V135.749ZM35.2612 139.142L38.4887 141.125V138.238L35.2612 136.255V139.142ZM41.1523 142.544L44.3798 144.527V141.64L41.1523 139.657V142.544Z" fill="#347EA9"/>
<g style="mix-blend-mode:multiply">
<path d="M47.4815 145.704L50.2812 147.424V147.93L47.0537 145.947V143.059L47.4815 143.322V145.704Z" fill="#347EA9"/>
<path d="M41.5791 142.301L44.3886 144.032V144.527L41.1514 142.544V139.657L41.5791 139.929V142.301Z" fill="#347EA9"/>
<path d="M53.3818 149.106L56.1816 150.827V151.332L52.9541 149.339V146.462L53.3818 146.724V149.106Z" fill="#347EA9"/>
<path d="M29.7881 133.124V135.506L32.5878 137.227V137.732L29.3604 135.749V132.862L29.7881 133.124Z" fill="#347EA9"/>
<path d="M35.6895 138.908L38.4892 140.629V141.135L35.2617 139.142V136.264L35.6895 136.527V138.908Z" fill="#347EA9"/>
</g>
<path d="M52.954 137.751V140.639L56.1815 142.622V139.735L52.954 137.751ZM47.0532 137.236L50.2807 139.219V136.332L47.0532 134.349V137.236ZM29.3604 127.039L32.5878 129.022V126.134L29.3604 124.151V127.039ZM35.2612 130.431L38.4887 132.414V129.527L35.2612 127.544V130.431ZM41.1523 133.834L44.3798 135.817V132.93L41.1523 130.947V133.834Z" fill="#347EA9"/>
<g style="mix-blend-mode:multiply">
<path d="M47.4815 136.993L50.2812 138.714V139.219L47.0537 137.236V134.349L47.4815 134.611V136.993Z" fill="#347EA9"/>
<path d="M41.5791 133.601L44.3886 135.321V135.817L41.1514 133.834V130.956L41.5791 131.219V133.601Z" fill="#347EA9"/>
<path d="M53.3818 140.396L56.1816 142.116V142.622L52.9541 140.629V137.751L53.3818 138.014V140.396Z" fill="#347EA9"/>
<path d="M29.7881 124.414V126.796L32.5878 128.516V129.022L29.3604 127.039V124.151L29.7881 124.414Z" fill="#347EA9"/>
<path d="M35.6895 130.198L38.4892 131.919V132.424L35.2617 130.431V127.554L35.6895 127.816V130.198Z" fill="#347EA9"/>
</g>
<path d="M52.954 129.041V131.928L56.1815 133.912V131.024L52.954 129.041ZM47.0532 128.526L50.2807 130.509V127.622L47.0532 125.639V128.526ZM29.3604 118.328L32.5878 120.311V117.424L29.3604 115.441V118.328ZM35.2612 121.721L38.4887 123.704V120.817L35.2612 118.834V121.721ZM41.1523 125.123L44.3798 127.107V124.219L41.1523 122.236V125.123Z" fill="#347EA9"/>
<g style="mix-blend-mode:multiply">
<path d="M47.4815 128.283L50.2812 130.004V130.509L47.0537 128.526V125.639L47.4815 125.901V128.283Z" fill="#347EA9"/>
<path d="M41.5791 124.89L44.3886 126.611V127.107L41.1514 125.124V122.246L41.5791 122.509V124.89Z" fill="#347EA9"/>
<path d="M53.3818 131.685L56.1816 133.406V133.912L52.9541 131.919V129.041L53.3818 129.304V131.685Z" fill="#347EA9"/>
<path d="M29.7881 115.704V118.085L32.5878 119.806V120.311L29.3604 118.328V115.441L29.7881 115.704Z" fill="#347EA9"/>
<path d="M35.6895 121.488L38.4892 123.208V123.714L35.2617 121.721V118.844L35.6895 119.106V121.488Z" fill="#347EA9"/>
</g>
<path d="M52.954 120.331V123.218L56.1815 125.201V122.314L52.954 120.331ZM47.0532 119.816L50.2807 121.799V118.912L47.0532 116.928V119.816ZM29.3604 109.618L32.5878 111.601V108.714L29.3604 106.731V109.618ZM35.2612 113.011L38.4887 114.994V112.107L35.2612 110.123V113.011ZM41.1523 116.413L44.3798 118.396V115.509L41.1523 113.526V116.413Z" fill="#347EA9"/>
<g style="mix-blend-mode:multiply">
<path d="M47.4815 119.573L50.2812 121.293V121.799L47.0537 119.816V116.928L47.4815 117.191V119.573Z" fill="#347EA9"/>
<path d="M41.5791 116.18L44.3886 117.901V118.396L41.1514 116.413V113.536L41.5791 113.798V116.18Z" fill="#347EA9"/>
<path d="M53.3818 122.975L56.1816 124.696V125.201L52.9541 123.208V120.331L53.3818 120.593V122.975Z" fill="#347EA9"/>
<path d="M29.7881 106.993V109.375L32.5878 111.096V111.601L29.3604 109.618V106.731L29.7881 106.993Z" fill="#347EA9"/>
<path d="M35.6895 112.777L38.4892 114.498V115.004L35.2617 113.011V110.133L35.6895 110.396V112.777Z" fill="#347EA9"/>
</g>
<path d="M52.954 111.621V114.508L56.1815 116.491V113.604L52.954 111.621ZM47.0532 111.105L50.2807 113.089V110.201L47.0532 108.218V111.105ZM29.3604 100.908L32.5878 102.891V100.004L29.3604 98.0204V100.908ZM35.2612 104.31L38.4887 106.293V103.406L35.2612 101.423V104.31ZM41.1523 107.703L44.3798 109.686V106.799L41.1523 104.816V107.703Z" fill="#347EA9"/>
<g style="mix-blend-mode:multiply">
<path d="M47.4815 110.862L50.2812 112.593V113.088L47.0537 111.105V108.218L47.4815 108.481V110.862Z" fill="#347EA9"/>
<path d="M41.5791 107.47L44.3886 109.19V109.696L41.1514 107.703V104.825L41.5791 105.088V107.47Z" fill="#347EA9"/>
<path d="M53.3818 114.265L56.1816 115.985V116.491L52.9541 114.498V111.621L53.3818 111.883V114.265Z" fill="#347EA9"/>
<path d="M29.7881 98.2829V100.665L32.5878 102.395V102.891L29.3604 100.908V98.0204L29.7881 98.2829Z" fill="#347EA9"/>
<path d="M35.6895 104.067L38.4892 105.788V106.293L35.2617 104.31V101.423L35.6895 101.685V104.067Z" fill="#347EA9"/>
</g>
<path d="M52.954 102.91V105.797L56.1815 107.781V104.893L52.954 102.91ZM47.0532 102.395L50.2807 104.378V101.491L47.0532 99.5078V102.395ZM29.3604 92.1973L32.5878 94.1805V91.2932L29.3604 89.3101V92.1973ZM35.2612 95.5998L38.4887 97.5829V94.6957L35.2612 92.7125V95.5998ZM41.1523 98.9925L44.3798 100.976V98.0884L41.1523 96.1053V98.9925Z" fill="#347EA9"/>
<g style="mix-blend-mode:multiply">
<path d="M47.4815 102.152L50.2812 103.882V104.378L47.0537 102.395V99.5078L47.4815 99.7702V102.152Z" fill="#347EA9"/>
<path d="M41.5791 98.7593L44.3886 100.48V100.986L41.1514 98.9926V96.1151L41.5791 96.3776V98.7593Z" fill="#347EA9"/>
<path d="M53.3818 105.554L56.1816 107.275V107.781L52.9541 105.798V102.91L53.3818 103.173V105.554Z" fill="#347EA9"/>
<path d="M29.7881 89.5823V91.9543L32.5878 93.6847V94.1805L29.3604 92.1974V89.3101L29.7881 89.5823Z" fill="#347EA9"/>
<path d="M35.6895 95.3569L38.4892 97.0775V97.5831L35.2617 95.5999V92.7126L35.6895 92.9751V95.3569Z" fill="#347EA9"/>
</g>
<path d="M52.954 94.1998V97.087L56.1815 99.0702V96.1829L52.954 94.1998ZM47.0532 93.6845L50.2807 95.6677V92.7805L47.0532 90.7973V93.6845ZM29.3604 83.4869L32.5878 85.47V82.5828L29.3604 80.5996V83.4869ZM35.2612 86.8893L38.4887 88.8725V85.9852L35.2612 84.0021V86.8893ZM41.1523 90.2821L44.3798 92.2652V89.378L41.1523 87.3948V90.2821Z" fill="#347EA9"/>
<g style="mix-blend-mode:multiply">
<path d="M47.4815 93.4415L50.2812 95.1719V95.6677L47.0537 93.6845V90.7973L47.4815 91.0695V93.4415Z" fill="#347EA9"/>
<path d="M41.5791 90.0488L44.3886 91.7695V92.275L41.1514 90.2821V87.4046L41.5791 87.6671V90.0488Z" fill="#347EA9"/>
<path d="M53.3818 96.844L56.1816 98.5647V99.0702L52.9541 97.087V94.1998L53.3818 94.4622V96.844Z" fill="#347EA9"/>
<path d="M29.7881 80.8718V83.2438L32.5878 84.9742V85.47L29.3604 83.4869V80.5996L29.7881 80.8718Z" fill="#347EA9"/>
<path d="M35.6895 86.6463L38.4892 88.367V88.8725L35.2617 86.8894V84.0021L35.6895 84.2646V86.6463Z" fill="#347EA9"/>
</g>
<path d="M52.954 85.4896V88.3768L56.1815 90.36V87.4727L52.954 85.4896ZM47.0532 84.9743L50.2807 86.9575V84.0703L47.0532 82.0871V84.9743ZM29.3604 74.7766L32.5878 76.7598V73.8726L29.3604 71.8894V74.7766ZM35.2612 78.1791L38.4887 80.1623V77.275L35.2612 75.2919V78.1791ZM41.1523 81.5719L44.3798 83.555V80.6678L41.1523 78.6846V81.5719Z" fill="#347EA9"/>
<g style="mix-blend-mode:multiply">
<path d="M47.4815 84.7312L50.2812 86.4616V86.9574L47.0537 84.9743V82.087L47.4815 82.3592V84.7312Z" fill="#347EA9"/>
<path d="M41.5791 81.3386L44.3886 83.0593V83.5648L41.1514 81.5719V78.6944L41.5791 78.9569V81.3386Z" fill="#347EA9"/>
<path d="M53.3818 88.1338L56.1816 89.8544V90.36L52.9541 88.3768V85.4896L53.3818 85.752V88.1338Z" fill="#347EA9"/>
<path d="M29.7881 72.1616V74.5336L32.5878 76.264V76.7598L29.3604 74.7766V71.8894L29.7881 72.1616Z" fill="#347EA9"/>
<path d="M35.6895 77.9361L38.4892 79.6568V80.1623L35.2617 78.1792V75.2919L35.6895 75.5544V77.9361Z" fill="#347EA9"/>
</g>
<path d="M52.954 76.7792V79.6665L56.1815 81.6496V78.7624L52.954 76.7792ZM47.0532 76.264L50.2807 78.2472V75.3599L47.0532 73.3768V76.264ZM29.3604 66.0663L32.5878 68.0495V65.1622L29.3604 63.1791V66.0663ZM35.2612 69.4688L38.4887 71.4519V68.5647L35.2612 66.5815V69.4688ZM41.1523 72.8615L44.3798 74.8447V71.9575L41.1523 69.9743V72.8615Z" fill="#347EA9"/>
<g style="mix-blend-mode:multiply">
<path d="M47.4815 76.021L50.2812 77.7514V78.2471L47.0537 76.264V73.3865L47.4815 73.649V76.021Z" fill="#347EA9"/>
<path d="M41.5791 72.6283L44.3886 74.349V74.8545L41.1514 72.8616V69.9841L41.5791 70.2466V72.6283Z" fill="#347EA9"/>
<path d="M53.3818 79.4234L56.1816 81.1441V81.6496L52.9541 79.6665V76.7792L53.3818 77.0417V79.4234Z" fill="#347EA9"/>
<path d="M29.7881 63.4513V65.833L32.5878 67.5537V68.0495L29.3604 66.0664V63.1888L29.7881 63.4513Z" fill="#347EA9"/>
<path d="M35.6895 69.2258L38.4892 70.9465V71.452L35.2617 69.4688V66.5816L35.6895 66.8441V69.2258Z" fill="#347EA9"/>
</g>
<path d="M52.954 68.069V70.9562L56.1815 72.9394V70.0521L52.954 68.069ZM47.0532 67.5537L50.2807 69.5369V66.6497L47.0532 64.6665V67.5537ZM29.3604 57.3561L32.5878 59.3392V56.452L29.3604 54.4688V57.3561ZM35.2612 60.7585L38.4887 62.7417V59.8544L35.2612 57.8713V60.7585ZM41.1523 64.1513L44.3798 66.1344V63.2472L41.1523 61.264V64.1513Z" fill="#347EA9"/>
<g style="mix-blend-mode:multiply">
<path d="M47.4815 67.3204L50.2812 69.041V69.5368L47.0537 67.5537V64.6761L47.4815 64.9386V67.3204Z" fill="#347EA9"/>
<path d="M41.5791 63.918L44.3886 65.6386V66.1441L41.1514 64.1513V61.2737L41.5791 61.5362V63.918Z" fill="#347EA9"/>
<path d="M53.3818 70.7131L56.1816 72.4338V72.9393L52.9541 70.9561V68.0689L53.3818 68.3314V70.7131Z" fill="#347EA9"/>
<path d="M29.7881 54.741V57.1227L32.5878 58.8434V59.3392L29.3604 57.356V54.4785L29.7881 54.741Z" fill="#347EA9"/>
<path d="M35.6895 60.5155L38.4892 62.2362V62.7417L35.2617 60.7585V57.8713L35.6895 58.1337V60.5155Z" fill="#347EA9"/>
</g>
<path d="M52.954 59.3586V62.2459L56.1815 64.229V61.3418L52.954 59.3586ZM47.0532 58.8434L50.2807 60.8266V57.9393L47.0532 55.9562V58.8434ZM29.3604 48.6457L32.5878 50.6289V47.7416L29.3604 45.7585V48.6457ZM35.2612 52.0482L38.4887 54.0314V51.1441L35.2612 49.161V52.0482ZM41.1523 55.4409L44.3798 57.4241V54.5369L41.1523 52.5537V55.4409Z" fill="#347EA9"/>
<g style="mix-blend-mode:multiply">
<path d="M47.4815 58.6101L50.2812 60.3308V60.8266L47.0537 58.8434V55.9659L47.4815 56.2284V58.6101Z" fill="#347EA9"/>
<path d="M41.5791 55.2077L44.3886 56.9284V57.4339L41.1514 55.441V52.5635L41.5791 52.8259V55.2077Z" fill="#347EA9"/>
<path d="M53.3818 62.0029L56.1816 63.7235V64.229L52.9541 62.2459V59.3586L53.3818 59.6211V62.0029Z" fill="#347EA9"/>
<path d="M29.7881 46.0307V48.4124L32.5878 50.1331V50.6289L29.3604 48.6458V45.7682L29.7881 46.0307Z" fill="#347EA9"/>
<path d="M35.6895 51.8052L38.4892 53.5259V54.0314L35.2617 52.0483V49.161L35.6895 49.4235V51.8052Z" fill="#347EA9"/>
</g>
<path d="M52.954 50.6483V53.5355L56.1815 55.5187V52.6314L52.954 50.6483ZM47.0532 50.133L50.2807 52.1162V49.2289L47.0532 47.2458V50.133ZM29.3604 39.9353L32.5878 41.9185V39.0313L29.3604 37.0481V39.9353ZM35.2612 43.3378L38.4887 45.321V42.4337L35.2612 40.4506V43.3378ZM41.1523 46.7403L44.3798 48.7234V45.8362L41.1523 43.853V46.7403Z" fill="#347EA9"/>
<g style="mix-blend-mode:multiply">
<path d="M47.4815 49.8997L50.2812 51.6204V52.1259L47.0537 50.133V47.2555L47.4815 47.518V49.8997Z" fill="#347EA9"/>
<path d="M41.5791 46.4973L44.3886 48.218V48.7235L41.1514 46.7403V43.8531L41.5791 44.1156V46.4973Z" fill="#347EA9"/>
<path d="M53.3818 53.2925L56.1816 55.0131V55.5187L52.9541 53.5355V50.6483L53.3818 50.9107V53.2925Z" fill="#347EA9"/>
<path d="M29.7881 37.3203V39.7021L32.5878 41.4228V41.9283L29.3604 39.9354V37.0579L29.7881 37.3203Z" fill="#347EA9"/>
<path d="M35.6895 43.0948L38.4892 44.8252V45.321L35.2617 43.3379V40.4506L35.6895 40.7131V43.0948Z" fill="#347EA9"/>
</g>
<path d="M52.954 41.938V44.8252L56.1815 46.8084V43.9211L52.954 41.938ZM47.0532 41.4228L50.2807 43.4059V40.5187L47.0532 38.5355V41.4228ZM29.3604 31.2251L32.5878 33.2082V30.321L29.3604 28.3378V31.2251ZM35.2612 34.6275L38.4887 36.6107V33.7235L35.2612 31.7403V34.6275ZM41.1523 38.03L44.3798 40.0132V37.1259L41.1523 35.1428V38.03Z" fill="#347EA9"/>
<g style="mix-blend-mode:multiply">
<path d="M47.4815 41.1894L50.2812 42.9101V43.4156L47.0537 41.4227V38.5452L47.4815 38.8077V41.1894Z" fill="#347EA9"/>
<path d="M41.5791 37.787L44.3886 39.5077V40.0132L41.1514 38.0301V35.1428L41.5791 35.4053V37.787Z" fill="#347EA9"/>
<path d="M53.3818 44.5822L56.1816 46.3126V46.8084L52.9541 44.8252V41.938L53.3818 42.2005V44.5822Z" fill="#347EA9"/>
<path d="M29.7881 28.6101V30.9918L32.5878 32.7125V33.218L29.3604 31.2251V28.3476L29.7881 28.6101Z" fill="#347EA9"/>
<path d="M35.6895 34.3846L38.4892 36.115V36.6107L35.2617 34.6276V31.7404L35.6895 32.0028V34.3846Z" fill="#347EA9"/>
</g>
<g style="mix-blend-mode:multiply">
<path opacity="0.02" d="M22.1557 100.869L41.0054 111.844L40.9568 133.61L39.7416 155.377L20.6197 166.614C19.074 167.528 16.8576 167.363 15.3022 166.459L1.05066 158.157C0.000757158 157.544 0.049352 155.989 1.09926 155.367L20.7364 143.808L21.0183 135.292L21.446 122.343L22.1557 100.869Z" fill="#235E83"/>
<path opacity="0.03" d="M21.8364 104.806L39.7334 115.227L40.3166 135.545L38.5668 155.862L20.3976 166.527C18.9783 167.363 16.6355 167.023 15.2064 166.196L1.20768 158.04C0.245268 157.476 0.352189 156.018 1.3146 155.454L19.7268 144.615L20.1448 136.711L20.7767 124.706L21.8267 104.796L21.8364 104.806Z" fill="#245E83"/>
<path opacity="0.05" d="M21.514 108.733L38.4583 118.601L39.6735 137.479L37.389 156.349L20.1822 166.449C18.8892 167.207 16.4103 166.702 15.1174 165.953L1.37136 157.953C0.496444 157.437 0.661719 156.076 1.53664 155.561L18.7337 145.451L19.2781 138.17L20.1141 127.107L21.4946 108.763L21.514 108.733Z" fill="#255D84"/>
<path opacity="0.06" d="M21.1834 112.671L37.175 121.984L39.0317 139.414L36.2223 156.825L19.9779 166.352C18.8114 167.032 16.206 166.352 15.0395 165.681L1.55595 157.826C0.768522 157.369 0.992123 156.096 1.77955 155.629L17.7517 146.238L18.4322 139.579L19.4627 129.45L21.1834 112.661V112.671Z" fill="#265D85"/>
<path opacity="0.08" d="M20.8621 116.598L35.9107 125.357L38.3994 141.339L35.0553 157.301L19.7733 166.255C18.7428 166.867 16.0014 166.012 14.9613 165.409L1.73049 157.7C1.03056 157.292 1.30275 156.115 2.00269 155.707L16.75 147.045L17.5666 141.008L18.8012 131.822L20.8524 116.598H20.8621Z" fill="#275C85"/>
<path opacity="0.09" d="M20.542 120.535L34.6379 128.74L37.7585 143.273L33.8894 157.787L19.5699 166.167C18.6658 166.702 15.798 165.681 14.8939 165.156L1.91589 157.603C1.30345 157.243 1.63397 156.164 2.24642 155.804L15.7785 147.862L16.7215 142.437L18.1603 134.194L20.5517 120.535H20.542Z" fill="#285C86"/>
<path opacity="0.11" d="M20.2213 124.463L33.3645 132.113L37.1267 145.198L32.7229 158.264L19.3658 166.07C18.5881 166.527 15.5939 165.341 14.8162 164.884L2.09095 157.476C1.566 157.165 1.95488 156.183 2.47983 155.872L14.7871 148.659L15.8661 143.857L17.509 136.556L20.231 124.453L20.2213 124.463Z" fill="#285B87"/>
<path opacity="0.12" d="M19.9014 128.4L32.092 135.496L36.486 147.142L31.5476 158.759L19.1529 165.992C18.5113 166.371 15.3713 165.02 14.7296 164.641L2.2669 157.379C1.82944 157.126 2.26689 156.232 2.71407 155.969L13.7964 149.476L15.0116 145.295L16.8489 138.938L19.9111 128.4H19.9014Z" fill="#295B88"/>
<path opacity="0.14" d="M19.5792 132.327L30.817 138.87L35.8527 149.067L30.3893 159.236L18.957 165.895C18.4418 166.196 15.1754 164.67 14.6602 164.369L2.45017 157.262C2.1002 157.058 2.6057 156.261 2.95567 156.057L12.8228 150.292L14.1644 146.734L16.2059 141.319L19.5986 132.347L19.5792 132.327Z" fill="#2A5A88"/>
<path opacity="0.15" d="M19.2587 136.264L29.5439 142.253L35.2115 151.002L29.2134 159.722L18.7338 165.807C18.3449 166.031 14.9522 164.34 14.5633 164.116L2.60609 157.155C2.34361 157 2.90743 156.3 3.16991 156.144L11.8122 151.099L13.2898 148.163L15.5355 143.691L19.2587 136.274V136.264Z" fill="#2B5A89"/>
<path opacity="0.17" d="M18.9385 140.192L28.271 145.626L34.5704 152.927L28.0377 160.198L18.5205 165.71C18.258 165.866 14.7389 163.999 14.4764 163.844L2.77192 157.029C2.59694 156.922 3.21912 156.319 3.3941 156.212L10.8115 151.896L12.4252 149.573L14.875 146.044L18.9385 140.192Z" fill="#2C598A"/>
<path opacity="0.18" d="M18.6172 144.119L26.997 148.999L33.9381 154.852L26.8803 160.665L18.3256 165.603C18.1992 165.681 14.5342 163.64 14.4079 163.572L2.96586 156.903C2.87837 156.854 3.54914 156.339 3.63663 156.281L9.83883 152.684L11.579 150.982L14.2329 148.397L18.6269 144.109L18.6172 144.119Z" fill="#2D598A"/>
<path opacity="0.2" d="M3.13281 156.796L18.1134 165.526L25.7058 161.161L33.2884 156.786L18.2981 148.056L10.7155 152.431L3.13281 156.796Z" fill="#2E588B"/>
</g>
<path d="M17.9473 166.77L33.8416 157.632V89.9129L17.9473 99.051V166.77Z" fill="url(#paint5_linear_847_10836)"/>
<path d="M2.28613 157.632L17.9569 166.77V99.051L2.28613 89.9227V157.632Z" fill="url(#paint6_linear_847_10836)"/>
<path d="M2.28613 89.9226L17.9569 99.0509L33.8416 89.9129L18.1514 80.7748L2.28613 89.9226Z" fill="url(#paint7_linear_847_10836)"/>
<g opacity="0.5">
<path opacity="0.05" d="M25.6172 147.162C25.4422 147.259 25.2284 151.157 25.0534 155.065C24.8784 158.973 24.7617 162.91 24.7617 163.085C24.7714 163.455 24.995 163.805 25.3936 164.038L28.6211 166.429C28.6211 166.429 30.1474 167.557 30.1571 167.567C30.1765 167.567 34.9108 171.076 34.9205 171.066C35.2316 171.251 35.6399 171.348 36.0385 171.348C36.3885 171.348 36.7093 171.271 36.962 171.125L37.8855 170.522C38.2258 170.328 38.4105 170.026 38.4202 169.686C38.4202 169.317 38.1966 168.967 37.798 168.733C37.798 168.724 36.1357 163.26 36.126 163.25L34.9108 159.323C34.5997 159.138 34.1914 159.041 33.7929 159.041C33.7637 159.041 33.6762 158.924 33.5596 158.72C33.0443 157.826 31.8194 155.201 30.614 152.606C29.9627 151.206 29.3113 149.816 28.7766 148.698C28.0864 147.249 27.5809 146.267 27.5129 146.306L25.6172 147.181V147.162Z" fill="#5494BA"/>
<path opacity="0.1" d="M26.0643 148.26C25.8893 148.357 25.6755 152.071 25.5199 155.794C25.3547 159.517 25.2477 163.26 25.2574 163.435C25.2769 163.785 25.481 164.116 25.8699 164.339L28.9807 166.634C28.9807 166.634 30.4389 167.713 30.4584 167.713C30.4973 167.722 35.0177 171.047 35.0468 171.028C35.3482 171.203 35.737 171.29 36.1162 171.29C36.4467 171.29 36.7675 171.212 37.0008 171.076L37.8952 170.503C38.216 170.318 38.4007 170.026 38.4007 169.696C38.4007 169.336 38.1868 169.006 37.8077 168.782C37.8174 168.762 36.2329 163.562 36.2037 163.542L35.0177 159.79C34.7163 159.615 34.3275 159.518 33.9483 159.518C33.9192 159.518 33.8414 159.411 33.7247 159.216C33.2289 158.351 32.0429 155.862 30.8764 153.393C30.2445 152.061 29.6126 150.749 29.1071 149.689C28.446 148.319 27.96 147.385 27.8919 147.424L26.0838 148.26H26.0643Z" fill="#5291B7"/>
<path opacity="0.14" d="M26.5207 149.368C26.3457 149.466 26.1415 152.985 25.986 156.523C25.8304 160.062 25.743 163.61 25.7527 163.785C25.7819 164.116 25.9665 164.436 26.3359 164.65L29.3204 166.838C29.3204 166.838 30.7203 167.868 30.7397 167.868C30.798 167.887 35.1046 171.027 35.1435 171.008C35.4254 171.173 35.8045 171.251 36.1642 171.251C36.4753 171.251 36.7864 171.173 37.01 171.037L37.8655 170.483C38.1766 170.308 38.3515 170.026 38.3515 169.715C38.3515 169.375 38.1571 169.054 37.7974 168.84C37.8169 168.811 36.3003 163.873 36.2517 163.843L35.1046 160.276C34.8227 160.11 34.4435 160.013 34.0839 160.013C34.0547 160.013 33.9769 159.906 33.87 159.722C33.3936 158.895 32.2465 156.533 31.1189 154.19C30.5064 152.936 29.894 151.692 29.4079 150.69C28.776 149.397 28.2997 148.523 28.2316 148.552L26.5012 149.349L26.5207 149.368Z" fill="#508EB5"/>
<path opacity="0.19" d="M26.9782 150.467C26.8032 150.564 26.6088 153.899 26.4629 157.243C26.3171 160.587 26.2394 163.95 26.2588 164.125C26.2977 164.446 26.463 164.738 26.8129 164.942L29.671 167.032C29.671 167.032 31.0028 168.014 31.032 168.014C31.1098 168.033 35.2025 171.008 35.2608 170.979C35.533 171.134 35.8927 171.203 36.2329 171.203C36.5246 171.203 36.8356 171.115 37.0495 170.998L37.8758 170.473C38.1675 170.308 38.3424 170.036 38.3424 169.744C38.3424 169.424 38.1577 169.122 37.8272 168.918C37.8466 168.879 36.4176 164.203 36.3496 164.164L35.2413 160.781C34.9691 160.626 34.6094 160.528 34.2692 160.528C34.24 160.528 34.172 160.422 34.065 160.256C33.5984 159.459 32.4999 157.233 31.4111 155.026C30.8278 153.84 30.2251 152.674 29.7682 151.731C29.1655 150.506 28.6989 149.689 28.6405 149.728L26.9976 150.496L26.9782 150.467Z" fill="#4E8BB3"/>
<path opacity="0.24" d="M27.4351 151.575C27.2601 151.672 27.0657 154.822 26.9296 157.981C26.7935 161.141 26.7352 164.31 26.7546 164.485C26.7935 164.786 26.949 165.068 27.2796 165.253L30.0112 167.236C30.0112 167.236 31.2751 168.16 31.3139 168.169C31.4111 168.199 35.2899 170.989 35.358 170.95C35.6107 171.096 35.9705 171.154 36.2913 171.154C36.5732 171.154 36.8648 171.066 37.069 170.959L37.8564 170.454C38.1383 170.289 38.2938 170.046 38.3036 169.764C38.3133 169.462 38.1383 169.171 37.8175 168.976C37.8467 168.928 36.4857 164.505 36.4079 164.466L35.3288 161.267C35.0761 161.121 34.7261 161.024 34.4053 161.024C34.3762 161.024 34.3081 160.927 34.2109 160.762C33.7637 160.004 32.7041 157.904 31.6639 155.823C31.1001 154.705 30.5168 153.617 30.0793 152.722C29.5057 151.575 29.0586 150.807 29.0003 150.846L27.4351 151.575Z" fill="#4C88B0"/>
<path opacity="0.29" d="M27.8823 152.674C27.7073 152.771 27.5226 155.726 27.3962 158.701C27.2699 161.676 27.2212 164.65 27.2504 164.825C27.299 165.107 27.4351 165.37 27.7462 165.554L30.3515 167.44C30.3515 167.44 31.5569 168.315 31.5958 168.325C31.7125 168.354 35.3774 170.979 35.4649 170.93C35.6982 171.066 36.0482 171.115 36.3496 171.115C36.6121 171.115 36.9037 171.028 37.0884 170.921L37.8369 170.444C38.0994 170.289 38.255 170.055 38.2647 169.793C38.2744 169.501 38.1091 169.229 37.8175 169.044C37.8467 168.986 36.5732 164.825 36.476 164.767L35.4358 161.753C35.2025 161.617 34.8525 161.52 34.5609 161.52C34.5317 161.52 34.4636 161.423 34.3762 161.277C33.9387 160.558 32.9277 158.575 31.9264 156.63C31.3917 155.58 30.8278 154.56 30.4098 153.733C29.8654 152.664 29.428 151.954 29.3697 151.983L27.892 152.674H27.8823Z" fill="#4B85AE"/>
<path opacity="0.33" d="M28.3398 153.782C28.1649 153.889 27.9802 156.65 27.8635 159.43C27.7468 162.21 27.7177 165 27.7468 165.175C27.7955 165.438 27.9316 165.691 28.2135 165.856L30.6924 167.635C30.6924 167.635 31.8298 168.461 31.8784 168.471C32.0145 168.51 35.4656 170.95 35.5628 170.891C35.7864 171.018 36.1169 171.057 36.3988 171.057C36.6419 171.057 36.9238 170.969 37.0988 170.872L37.8181 170.415C38.0709 170.269 38.2167 170.046 38.2265 169.803C38.2362 169.53 38.0903 169.278 37.8181 169.093C37.857 169.025 36.6516 165.127 36.5447 165.059L35.5337 162.23C35.3101 162.103 34.9795 162.006 34.6976 162.006C34.6782 162.006 34.6101 161.919 34.5226 161.773C34.1046 161.083 33.1227 159.236 32.17 157.427C31.6548 156.446 31.1104 155.503 30.7118 154.735C30.1966 153.733 29.7689 153.082 29.7203 153.111L28.3204 153.762L28.3398 153.782Z" fill="#4982AC"/>
<path opacity="0.38" d="M28.7965 154.88C28.6215 154.987 28.4465 157.564 28.3396 160.159C28.2327 162.755 28.1841 165.36 28.2521 165.525C28.2618 165.778 28.4271 166.002 28.6993 166.167L31.0616 167.849C31.0616 167.849 32.1309 168.626 32.1893 168.636C32.3448 168.675 35.582 170.94 35.689 170.882C35.8931 170.998 36.2139 171.028 36.4764 171.028C36.7 171.028 36.9819 170.94 37.1374 170.843L37.8179 170.415C38.0512 170.279 38.1971 170.065 38.2068 169.832C38.2262 169.579 38.0901 169.336 37.8374 169.171C37.8763 169.093 36.7583 165.448 36.6319 165.38L35.6598 162.735C35.4557 162.619 35.1348 162.521 34.8723 162.521C34.8529 162.521 34.7849 162.434 34.7071 162.308C34.2988 161.656 33.3655 159.936 32.4517 158.254C31.9559 157.35 31.431 156.475 31.0616 155.765C30.5755 154.842 30.1575 154.249 30.1186 154.278L28.8062 154.89L28.7965 154.88Z" fill="#477FA9"/>
<path opacity="0.43" d="M29.2529 155.989C29.0779 156.096 28.9127 158.487 28.8058 160.888C28.7085 163.299 28.6697 165.71 28.7474 165.875C28.7571 166.109 28.9127 166.322 29.1654 166.468L31.4014 168.053C31.4014 168.053 32.4124 168.772 32.4707 168.792C32.6457 168.84 35.669 170.93 35.7954 170.853C35.9801 170.959 36.3009 170.979 36.5342 170.979C36.7384 170.979 37.0106 170.891 37.1661 170.804L37.8174 170.396C38.041 170.269 38.1674 170.075 38.1868 169.851C38.2063 169.608 38.0799 169.385 37.8466 169.229C37.8952 169.142 36.8453 165.759 36.7092 165.681L35.776 163.221C35.5913 163.114 35.2802 163.017 35.0371 163.017C35.0177 163.017 34.9496 162.939 34.8816 162.813C34.4927 162.191 33.5984 160.606 32.7332 159.061C32.2666 158.225 31.7513 157.427 31.4014 156.776C30.9445 155.93 30.5459 155.386 30.4973 155.415L29.2627 155.989H29.2529Z" fill="#457CA7"/>
<path opacity="0.48" d="M29.7091 157.087C29.5341 157.194 29.3688 159.391 29.2813 161.608C29.1841 163.824 29.1647 166.06 29.2522 166.216C29.2619 166.429 29.4077 166.624 29.641 166.76L31.7506 168.238C31.7992 168.267 32.6935 168.908 32.7616 168.928C32.956 168.976 35.7655 170.891 35.9016 170.814C36.0766 170.911 36.3779 170.921 36.5918 170.921C36.7862 170.921 37.0487 170.833 37.1848 170.755L37.7972 170.376C38.0014 170.26 38.1278 170.075 38.1472 169.871C38.1667 169.647 38.0597 169.433 37.8459 169.287C37.8945 169.19 36.932 166.07 36.7765 165.982L35.8724 163.707C35.6974 163.61 35.4058 163.513 35.1822 163.513C35.1627 163.513 35.1044 163.435 35.0266 163.328C34.6475 162.745 33.8018 161.287 32.9755 159.867C32.5283 159.099 32.0422 158.38 31.7117 157.787C31.2839 157.019 30.8951 156.533 30.8562 156.553L29.7091 157.087Z" fill="#4379A5"/>
<path opacity="0.52" d="M30.1573 158.186C29.9823 158.293 29.8267 160.305 29.7392 162.337C29.6517 164.369 29.642 166.41 29.7392 166.566C29.749 166.76 29.8851 166.945 30.0989 167.071L32.0821 168.452C32.1404 168.481 32.9667 169.074 33.0348 169.093C33.2487 169.151 35.8442 170.892 35.9998 170.804C36.1553 170.892 36.447 170.901 36.6511 170.901C36.8261 170.901 37.0789 170.814 37.2053 170.736L37.7788 170.376C37.9732 170.269 38.0899 170.094 38.1093 169.91C38.1288 169.706 38.0316 169.511 37.8469 169.365C37.9052 169.258 37.0108 166.4 36.8455 166.293L35.9804 164.203C35.8248 164.116 35.5429 164.019 35.3387 164.019C35.3193 164.019 35.261 163.941 35.1929 163.844C34.8332 163.289 34.0264 161.967 33.2389 160.674C32.8112 159.974 32.3446 159.333 32.0335 158.798C31.6349 158.098 31.2558 157.671 31.2266 157.69L30.1573 158.186Z" fill="#4176A2"/>
<path opacity="0.57" d="M30.6129 159.294C30.4379 159.401 30.2921 161.228 30.2143 163.066C30.1365 164.903 30.1365 166.76 30.2435 166.915C30.2629 167.09 30.3796 167.256 30.574 167.372L32.4308 168.646C32.4891 168.685 33.2473 169.219 33.3251 169.239C33.5584 169.297 35.9402 170.862 36.1054 170.765C36.2513 170.843 36.5234 170.843 36.7081 170.843C36.8637 170.843 37.1164 170.755 37.2234 170.687L37.7678 170.357C37.9428 170.25 38.0594 170.094 38.0789 169.929C38.0983 169.735 38.0205 169.56 37.8456 169.433C37.9039 169.307 37.097 166.711 36.9026 166.604L36.0763 164.699C35.9304 164.621 35.6582 164.524 35.4832 164.524C35.4638 164.524 35.4055 164.456 35.3472 164.368C35.0069 163.853 34.2292 162.648 33.4904 161.501C33.0918 160.869 32.6349 160.305 32.353 159.829C31.9836 159.206 31.6239 158.837 31.585 158.856L30.6031 159.313L30.6129 159.294Z" fill="#3F73A0"/>
<path opacity="0.62" d="M31.071 160.392C30.8961 160.499 30.7502 162.132 30.6919 163.785C30.6238 165.438 30.6336 167.1 30.7502 167.256C30.7697 167.411 30.8766 167.567 31.0613 167.674L32.7917 168.85C32.8598 168.889 33.5402 169.375 33.6277 169.394C33.8805 169.462 36.0484 170.843 36.2331 170.746C36.3594 170.814 36.6219 170.804 36.7872 170.804C36.9233 170.804 37.1663 170.716 37.2635 170.658L37.769 170.347C37.9343 170.25 38.0315 170.114 38.0607 169.958C38.0898 169.783 38.0121 169.618 37.8662 169.501C37.9343 169.365 37.1955 167.032 36.9913 166.915L36.1942 165.195C36.0678 165.127 35.8053 165.029 35.6498 165.029C35.6401 165.029 35.5817 164.961 35.5234 164.884C35.1929 164.398 34.4638 163.328 33.7736 162.307C33.3944 161.753 32.957 161.258 32.6945 160.83C32.364 160.285 32.0043 159.965 31.9751 159.984L31.071 160.412V160.392Z" fill="#3D709E"/>
<path opacity="0.67" d="M31.5278 161.501C31.3528 161.608 31.2167 163.056 31.1584 164.524C31.1 165.992 31.1195 167.47 31.2459 167.606C31.2653 167.751 31.3625 167.878 31.5278 167.975L33.1415 169.044C33.2193 169.083 33.8317 169.511 33.9192 169.54C34.1914 169.618 36.1454 170.823 36.3398 170.707C36.4468 170.775 36.7092 170.746 36.8453 170.746C36.9717 170.746 37.205 170.658 37.2925 170.6L37.7689 170.318C37.9147 170.23 38.0119 170.104 38.0411 169.958C38.0702 169.803 38.0119 169.657 37.8855 169.54C37.9536 169.394 37.2925 167.324 37.0787 167.197L36.3204 165.661C36.2135 165.593 35.9607 165.506 35.8246 165.506C35.8149 165.506 35.7566 165.448 35.708 165.379C35.3969 164.932 34.7066 163.989 34.0553 163.095C33.6956 162.609 33.2873 162.191 33.0443 161.821C32.743 161.355 32.393 161.092 32.3735 161.102L31.5569 161.491L31.5278 161.501Z" fill="#3B6D9B"/>
<path opacity="0.71" d="M31.9745 162.599C31.7995 162.706 31.6731 163.97 31.6245 165.243C31.5759 166.517 31.6051 167.81 31.7412 167.946C31.7606 168.072 31.8481 168.189 31.9939 168.267L33.4813 169.239C33.5591 169.288 34.1035 169.657 34.2007 169.686C34.4923 169.764 36.2324 170.794 36.4366 170.678C36.5338 170.736 36.7768 170.697 36.8935 170.697C37.0004 170.697 37.224 170.61 37.3018 170.561L37.7392 170.299C37.8753 170.221 37.9628 170.104 37.992 169.978C38.0212 169.842 37.9726 169.706 37.8754 169.599C37.9531 169.443 37.3698 167.625 37.1365 167.499L36.4074 166.148C36.3102 166.089 36.0769 166.002 35.9602 166.002C35.9505 166.002 35.8922 165.943 35.8533 165.885C35.5519 165.467 34.9103 164.66 34.2979 163.902C33.9576 163.484 33.5688 163.144 33.3549 162.833C33.0827 162.434 32.7425 162.23 32.723 162.24L31.9939 162.589L31.9745 162.599Z" fill="#396A99"/>
<path opacity="0.76" d="M32.4316 163.707C32.2566 163.814 32.1302 164.893 32.0913 165.972C32.0524 167.061 32.0913 168.16 32.2371 168.296C32.2566 168.403 32.3343 168.5 32.4607 168.578L33.8217 169.443C33.9092 169.492 34.3758 169.812 34.4827 169.841C34.7938 169.929 36.3201 170.784 36.5437 170.648C36.6214 170.697 36.8548 170.648 36.952 170.648C37.0395 170.648 37.2631 170.551 37.3214 170.522L37.7297 170.279C37.8561 170.211 37.9338 170.104 37.963 169.997C37.9922 169.871 37.963 169.754 37.8755 169.666C37.9533 169.501 37.4478 167.946 37.2047 167.81L36.5145 166.643C36.4367 166.595 36.2132 166.507 36.1062 166.507C36.1062 166.507 36.0382 166.458 36.009 166.41C35.7174 166.031 35.1146 165.34 34.5508 164.718C34.2397 164.368 33.9189 164.067 33.6662 163.853C33.4912 163.493 33.1023 163.387 33.0829 163.396L32.4316 163.707Z" fill="#386797"/>
<path opacity="0.81" d="M32.8894 164.806C32.7145 164.913 32.5978 165.797 32.5686 166.701C32.5395 167.606 32.5881 168.51 32.7339 168.646C32.7533 168.733 32.8214 168.821 32.9283 168.879L34.1629 169.647C34.2504 169.696 34.6587 169.968 34.7657 169.997C35.0865 170.084 36.4086 170.765 36.6419 170.629C36.7002 170.668 36.9238 170.609 37.0113 170.609C37.0793 170.609 37.2932 170.512 37.3418 170.483L37.7112 170.269C37.8182 170.211 37.8959 170.123 37.9251 170.026C37.9543 169.919 37.9348 169.812 37.8765 169.735C37.964 169.56 37.5362 168.267 37.2738 168.111L36.6224 167.119C36.5641 167.081 36.3502 166.993 36.2628 166.993C36.2628 166.993 36.2044 166.945 36.1753 166.906C35.9031 166.556 35.3392 166.002 34.824 165.515C34.5323 165.234 34.231 165.01 34.0074 164.854C33.8713 164.563 33.4825 164.514 33.4727 164.524L32.9089 164.796L32.8894 164.806Z" fill="#366494"/>
<path opacity="0.86" d="M33.3459 165.914C33.1612 166.021 33.064 166.721 33.0349 167.431C33.0154 168.14 33.0738 168.86 33.2293 168.996C33.2487 169.064 33.3168 169.132 33.4043 169.19L34.5125 169.851C34.6097 169.91 34.9402 170.114 35.0569 170.153C35.3971 170.25 36.5054 170.746 36.7581 170.6C36.8067 170.629 37.0206 170.561 37.0789 170.561C37.1275 170.561 37.3414 170.464 37.3803 170.444L37.7108 170.25C37.808 170.192 37.8664 170.123 37.9053 170.046C37.9441 169.958 37.9344 169.871 37.8955 169.793C37.983 169.608 37.6331 168.578 37.3609 168.413L36.7387 167.606C36.7387 167.606 36.4859 167.489 36.4276 167.489C36.4276 167.489 36.3693 167.45 36.3498 167.421C36.0874 167.1 35.5624 166.682 35.0958 166.322C34.8236 166.118 34.5514 165.953 34.3375 165.866C34.2306 165.652 33.8514 165.661 33.8417 165.661L33.3556 165.895L33.3459 165.914Z" fill="#346192"/>
<path opacity="0.9" d="M33.7925 167.013C33.6078 167.12 33.5106 167.635 33.5009 168.16C33.4912 168.685 33.5592 169.219 33.7245 169.346C33.7536 169.404 33.8022 169.453 33.8703 169.492L34.8522 170.055C34.9494 170.114 35.2118 170.269 35.3382 170.298C35.6979 170.396 36.5923 170.726 36.8548 170.571C36.8839 170.59 37.0881 170.512 37.127 170.512C37.1658 170.512 37.3603 170.415 37.3894 170.405L37.6908 170.24C37.7686 170.191 37.8269 170.133 37.8561 170.075C37.8949 169.997 37.9047 169.929 37.8755 169.861C37.9727 169.667 37.7005 168.889 37.4089 168.724L36.8256 168.101C36.8256 168.101 36.602 168.004 36.5631 168.004C36.5631 168.004 36.5048 167.965 36.4951 167.946C36.1937 167.713 35.766 167.372 35.3382 167.139C35.0855 167.003 34.8327 166.915 34.648 166.886C34.58 166.74 34.2106 166.808 34.2008 166.818L33.8023 167.013H33.7925Z" fill="#325E90"/>
<path opacity="0.95" d="M34.2507 168.111C34.066 168.218 33.9785 168.539 33.9688 168.879C33.9688 169.219 34.0757 169.53 34.2215 169.686C34.2507 169.715 34.2896 169.754 34.3382 169.783L35.1936 170.24C35.3006 170.298 35.495 170.405 35.6214 170.435C36.0005 170.541 36.681 170.687 36.9629 170.532C36.9824 170.532 37.1671 170.454 37.1865 170.454C37.206 170.454 37.4004 170.357 37.4101 170.347L37.6726 170.201C37.7406 170.162 37.7892 170.114 37.8184 170.065C37.8573 170.007 37.8768 169.948 37.8768 169.9C37.974 169.696 37.7795 169.181 37.4782 169.006L36.924 168.568C36.924 168.568 36.7296 168.481 36.7102 168.481C36.7102 168.481 36.6518 168.451 36.6421 168.442C36.3602 168.247 35.9616 168.033 35.5825 167.936C35.3492 167.868 35.1256 167.858 34.9506 167.888C34.9117 167.82 34.552 167.946 34.552 167.946L34.2312 168.101L34.2507 168.111Z" fill="#305B8D"/>
<path d="M37.0781 170.522L37.6711 170.211C38.06 169.987 38.0114 169.589 37.5642 169.336L36.8254 168.976C36.3782 168.714 35.688 168.685 35.2991 168.918L34.7061 169.229C34.3173 169.453 34.3659 169.851 34.813 170.104L35.5519 170.464C35.9991 170.726 36.6893 170.755 37.0781 170.522Z" fill="#2E588B"/>
</g>
<path d="M38.3231 165.234C38.3231 165.234 38.78 166.468 40.0146 166.828C41.2492 167.188 43.9615 167.8 42.4255 168.879C40.8895 169.958 38.8383 169.035 37.244 168.724C35.6497 168.413 35.5039 168.413 35.5039 166.984C35.5039 165.555 38.3231 165.243 38.3231 165.243V165.234Z" fill="#004D77"/>
<g style="mix-blend-mode:multiply">
<path d="M42.8338 168.092C41.2881 169.132 38.5467 168.17 36.9621 167.868C36.1747 167.713 35.7372 167.635 35.5039 167.421C35.5039 167.44 35.5039 167.45 35.5039 167.47C35.5622 168.413 35.8539 168.451 37.2343 168.714C38.8286 169.025 40.8701 169.949 42.4158 168.869C42.8338 168.578 42.931 168.315 42.8338 168.082V168.092Z" fill="#9EBFE6"/>
</g>
<path d="M25.6552 124.608C25.6552 124.608 24.7705 129.527 24.7705 134.32C24.7705 139.112 35.2987 166.459 35.2987 166.459C35.2987 166.459 37.486 166.595 38.3123 165.914C38.7012 165.593 38.7206 165.098 38.7206 165.098L34.6182 148.348L34.1419 126.397L25.6649 124.618L25.6552 124.608Z" fill="url(#paint8_linear_847_10836)"/>
<g style="mix-blend-mode:multiply">
<path d="M31.6629 149.028L28.6882 130.256L25.0621 128.963C24.8968 130.567 24.7607 132.453 24.7607 134.33C24.7607 139.112 35.289 166.468 35.289 166.468C35.289 166.468 36.5819 166.585 37.5443 166.313L31.6629 149.028Z" fill="#9EBFE6"/>
</g>
<path d="M33.1896 163.795C32.5771 164.825 31.9938 164.398 31.5952 166.099C31.4689 166.663 33.5979 167.742 33.9576 168.354C34.3172 168.967 33.8506 169.326 35.0366 170.201C36.106 170.989 36.7281 170.921 37.7003 170.405C38.2349 170.124 36.9809 168.51 36.0087 167.431C35.0366 166.352 36.1643 164.456 36.1643 164.456L33.1896 163.785V163.795Z" fill="#004D77"/>
<g style="mix-blend-mode:multiply">
<path d="M36.1658 164.466C36.1658 164.466 36.1562 164.495 36.1465 164.504C36.1562 164.475 36.1658 164.466 36.1658 164.466Z" fill="#9EBFE6"/>
<path d="M35.3778 169.424C34.2016 168.549 34.6584 168.189 34.2988 167.577C33.9391 166.964 31.8101 165.875 31.9365 165.321C31.9656 165.214 31.9851 165.107 32.0143 165.02C31.8587 165.243 31.7129 165.574 31.5962 166.109C31.4698 166.672 33.5988 167.752 33.9585 168.364C34.3182 168.976 33.8516 169.336 35.0376 170.211C36.1069 170.998 36.7291 170.93 37.7012 170.415C37.8762 170.328 37.8471 170.094 37.7207 169.783C36.9235 170.143 36.3208 170.114 35.3778 169.424Z" fill="#9EBFE6"/>
</g>
<path d="M38.2345 126.047L34.1321 126.446L34.4335 140.24L38.3026 147.658L32.6934 163.863C32.6934 163.863 33.51 164.68 34.0641 164.893C34.6085 165.098 36.0472 165.166 36.0472 165.166C36.0472 165.166 43.9118 149.3 44.1159 147.317C44.3201 145.334 38.2345 126.047 38.2345 126.047Z" fill="url(#paint9_linear_847_10836)"/>
<path d="M38.3818 108.199C38.4304 110.405 39.0331 127.505 39.0331 127.505C39.0331 127.505 37.9346 129.226 34.0557 130.266C29.7103 131.433 24.4316 129.537 24.4316 129.537C24.4316 129.537 24.558 122.294 24.5969 118.153C24.6261 114.109 24.2372 111.164 24.4997 109.433C24.6455 108.461 26.7453 107.168 29.9825 105.71C33.2197 104.252 38.3429 105.827 38.3915 108.199H38.3818Z" fill="url(#paint10_linear_847_10836)"/>
<g style="mix-blend-mode:multiply">
<path d="M29.6406 130.597C28.8727 128.497 27.4922 124.307 27.5117 121.313C27.5408 117.269 27.5894 113.594 27.8422 111.854C27.988 110.882 24.6341 108.451 24.4883 109.424C24.2356 111.164 24.6244 114.109 24.5855 118.144C24.5467 122.285 24.4203 129.527 24.4203 129.527C24.4203 129.527 26.7728 130.373 29.6309 130.587L29.6406 130.597Z" fill="#9EBFE6"/>
</g>
<path d="M28.2705 107.742C28.2705 109.472 32.684 111.28 32.684 111.28C32.684 111.28 34.8713 109.501 34.8713 107.742C34.8713 106.692 33.3937 105.846 31.5758 105.846C29.7579 105.846 28.2802 106.692 28.2802 107.742H28.2705Z" fill="white"/>
<path d="M34.5209 103.076C34.6279 102.395 33.7821 101.685 32.6155 101.481C31.449 101.277 30.4088 101.656 30.2824 102.337L29.0186 107.246C28.8728 108.063 29.9033 108.928 31.3032 109.171C32.7128 109.414 33.9668 108.947 34.1029 108.131L34.5209 103.076Z" fill="#FDFEFF"/>
<g style="mix-blend-mode:multiply">
<path d="M30.7202 104.806C30.516 104.057 30.4285 102.92 30.5744 101.86C30.9827 101.5 31.7604 101.335 32.6159 101.481C33.7824 101.685 34.6379 102.395 34.5212 103.075L34.1032 108.13C34.0741 108.315 33.9768 108.471 33.8505 108.607C32.3436 107.955 31.0896 106.099 30.7202 104.796V104.806Z" fill="#F9FBF9"/>
</g>
<path d="M36.2903 99.6535C37.243 101.559 36.1542 107.664 34.2196 107.615C32.2851 107.567 30.5255 105.156 30.088 103.571C29.6506 101.987 29.7381 98.6911 31.449 97.9426C33.16 97.194 35.3181 97.719 36.2903 99.6535Z" fill="#FDFEFF"/>
<path d="M37.972 99.3425C38.322 100.635 37.311 101.851 35.0264 101.676C32.7419 101.501 31.7309 100.976 31.7309 100.976C31.7309 100.976 31.6434 102.823 31.3809 102.871C31.1185 102.92 30.9435 101.51 30.3699 101.724C29.7964 101.948 30.2533 103.95 29.7672 104.3C29.2811 104.65 29.0964 103.484 29.0964 102.074C29.0964 100.665 28.7854 97.0774 31.9156 96.8538C35.0362 96.6302 37.6998 98.2828 37.9817 99.3425H37.972Z" fill="url(#paint11_linear_847_10836)"/>
<path d="M38.3706 121.118L35.8139 120.428L35.2695 121.478L37.1069 121.954L38.3706 121.118Z" fill="#FDFEFF"/>
<path d="M33.8004 125.765L35.9877 124.803C36.2501 124.686 36.4931 124.317 36.5418 123.986L37.2709 118.941C37.3195 118.61 37.1445 118.435 36.8917 118.552L34.7044 119.514C34.442 119.631 34.1989 120 34.1503 120.331L33.4212 125.376C33.3726 125.707 33.5476 125.882 33.8004 125.765Z" fill="#0A2C67"/>
<path d="M34.5977 119.437L36.785 118.474C36.8822 118.426 36.9794 118.426 37.0377 118.464C37.0377 118.464 37.1544 118.552 37.1641 118.552C37.0961 118.503 36.9989 118.503 36.8919 118.552L34.7046 119.514C34.4422 119.631 34.1991 120 34.1505 120.331L33.4214 125.376C33.3922 125.58 33.4506 125.726 33.5575 125.785C33.5575 125.785 33.5381 125.785 33.5186 125.765L33.3922 125.668C33.3242 125.6 33.2853 125.473 33.3145 125.298L34.0436 120.253C34.0922 119.923 34.3352 119.553 34.5977 119.437Z" fill="#213859"/>
<path d="M39.2555 122.518C39.2555 122.518 37.5737 124.171 37.0974 124.453C36.621 124.735 34.1907 124.744 33.6172 124.647C33.0436 124.55 33.2089 122.8 33.5199 122.586C33.831 122.372 36.4558 121.896 36.7474 121.565C37.0391 121.245 37.2529 120.943 37.7001 120.972C38.1473 121.011 38.4487 120.953 38.4487 120.953L39.2555 122.508V122.518Z" fill="#FDFEFF"/>
<path d="M37.467 106.565C39.8001 108.646 45.1177 116.588 44.7385 118.785C44.5052 120.185 38.8571 123.14 38.8571 123.14C38.8571 123.14 38.8377 122.489 38.4877 121.838C38.128 121.186 37.4086 120.788 37.4086 120.788L40.7625 118.007L37.292 114.673L37.467 106.556V106.565Z" fill="url(#paint12_linear_847_10836)"/>
<path d="M28.9906 133.746L29.8072 134.087C29.8072 134.087 30.0989 134.68 30.3322 134.864C30.5655 135.039 30.6821 134.738 30.6821 134.738L30.2058 133.426C30.2058 133.426 29.2434 132.687 28.8545 132.492C28.4657 132.298 27.8435 132.045 27.8435 132.045L27.0658 131.277L25.8604 132.084C25.8604 132.084 26.2006 134.709 26.2687 134.991C26.3075 135.146 26.6381 135.564 26.92 135.895L28.9906 133.766V133.746Z" fill="#FDFEFF"/>
<path d="M24.4986 108.801C22.6127 110.279 21.8544 121.186 21.9322 122.936C22.0196 124.686 25.6263 133.28 25.6263 133.28C25.6263 133.28 26.404 133.231 27.24 132.794C28.0761 132.366 28.3288 131.88 28.3288 131.88L25.461 122.615C25.461 122.615 28.076 113.38 28.4649 112.379C28.844 111.378 28.6399 105.554 24.5083 108.801H24.4986Z" fill="url(#paint13_linear_847_10836)"/>
<g style="mix-blend-mode:multiply">
<path d="M35.1043 135.02L34.346 136.138L34.4335 140.24L38.3026 147.658L32.6934 163.863C32.6934 163.863 33.51 164.68 34.0641 164.893C34.0932 164.903 34.1321 164.913 34.1613 164.923L41.0537 147.696L35.1043 135.029V135.02Z" fill="#9EBFE6"/>
</g>
<g style="mix-blend-mode:multiply">
<path d="M37.8748 112.865L38.6428 115.976L40.7621 118.017L37.4082 120.797C37.4082 120.797 37.7971 121.021 38.147 121.39L42.0258 117.998L37.8748 112.865Z" fill="#9EBFE6"/>
</g>
<defs>
<linearGradient id="paint0_linear_847_10836" x1="67.992" y1="97.7579" x2="208.495" y2="55.6839" gradientUnits="userSpaceOnUse">
<stop stop-color="#5697BC"/>
<stop offset="0.08" stop-color="#5C9BBF"/>
<stop offset="0.19" stop-color="#6EA6C8"/>
<stop offset="0.32" stop-color="#8CB8D7"/>
<stop offset="0.47" stop-color="#B6D2EC"/>
<stop offset="0.58" stop-color="#DBE9FF"/>
<stop offset="0.86" stop-color="#EAF1F6"/>
<stop offset="1" stop-color="#F4F6F2"/>
</linearGradient>
<linearGradient id="paint1_linear_847_10836" x1="-47.0695" y1="114.741" x2="102.552" y2="81.2025" gradientUnits="userSpaceOnUse">
<stop stop-color="#5697BC"/>
<stop offset="0.08" stop-color="#5C9BBF"/>
<stop offset="0.19" stop-color="#6EA6C8"/>
<stop offset="0.32" stop-color="#8CB8D7"/>
<stop offset="0.47" stop-color="#B6D2EC"/>
<stop offset="0.58" stop-color="#DBE9FF"/>
<stop offset="0.86" stop-color="#EAF1F6"/>
<stop offset="1" stop-color="#F4F6F2"/>
</linearGradient>
<linearGradient id="paint2_linear_847_10836" x1="98.1772" y1="-49.5107" x2="58.0961" y2="26.8796" gradientUnits="userSpaceOnUse">
<stop stop-color="#5697BC"/>
<stop offset="0.08" stop-color="#5C9BBF"/>
<stop offset="0.19" stop-color="#6EA6C8"/>
<stop offset="0.32" stop-color="#8CB8D7"/>
<stop offset="0.47" stop-color="#B6D2EC"/>
<stop offset="0.58" stop-color="#DBE9FF"/>
<stop offset="0.86" stop-color="#EAF1F6"/>
<stop offset="1" stop-color="#F4F6F2"/>
</linearGradient>
<linearGradient id="paint3_linear_847_10836" x1="90.3412" y1="-40.1005" x2="58.3677" y2="20.8231" gradientUnits="userSpaceOnUse">
<stop stop-color="#5697BC"/>
<stop offset="0.08" stop-color="#5C9BBF"/>
<stop offset="0.19" stop-color="#6EA6C8"/>
<stop offset="0.32" stop-color="#8CB8D7"/>
<stop offset="0.47" stop-color="#B6D2EC"/>
<stop offset="0.58" stop-color="#DBE9FF"/>
<stop offset="0.86" stop-color="#EAF1F6"/>
<stop offset="1" stop-color="#F4F6F2"/>
</linearGradient>
<radialGradient id="paint4_radial_847_10836" cx="0" cy="0" r="1" gradientUnits="userSpaceOnUse" gradientTransform="translate(59.2632 13.3086) scale(9.21584 9.21584)">
<stop stop-color="white"/>
<stop offset="1"/>
</radialGradient>
<linearGradient id="paint5_linear_847_10836" x1="20.6887" y1="129.907" x2="89.2144" y2="109.385" gradientUnits="userSpaceOnUse">
<stop stop-color="#5697BC"/>
<stop offset="0.08" stop-color="#5C9BBF"/>
<stop offset="0.19" stop-color="#6EA6C8"/>
<stop offset="0.32" stop-color="#8CB8D7"/>
<stop offset="0.47" stop-color="#B6D2EC"/>
<stop offset="0.58" stop-color="#DBE9FF"/>
<stop offset="0.86" stop-color="#EAF1F6"/>
<stop offset="1" stop-color="#F4F6F2"/>
</linearGradient>
<linearGradient id="paint6_linear_847_10836" x1="-33.8189" y1="138.199" x2="39.2467" y2="121.818" gradientUnits="userSpaceOnUse">
<stop stop-color="#5697BC"/>
<stop offset="0.08" stop-color="#5C9BBF"/>
<stop offset="0.19" stop-color="#6EA6C8"/>
<stop offset="0.32" stop-color="#8CB8D7"/>
<stop offset="0.47" stop-color="#B6D2EC"/>
<stop offset="0.58" stop-color="#DBE9FF"/>
<stop offset="0.86" stop-color="#EAF1F6"/>
<stop offset="1" stop-color="#F4F6F2"/>
</linearGradient>
<linearGradient id="paint7_linear_847_10836" x1="34.5027" y1="58.5809" x2="16.8195" y2="92.2946" gradientUnits="userSpaceOnUse">
<stop stop-color="#5697BC"/>
<stop offset="0.08" stop-color="#5C9BBF"/>
<stop offset="0.19" stop-color="#6EA6C8"/>
<stop offset="0.32" stop-color="#8CB8D7"/>
<stop offset="0.47" stop-color="#B6D2EC"/>
<stop offset="0.58" stop-color="#DBE9FF"/>
<stop offset="0.86" stop-color="#EAF1F6"/>
<stop offset="1" stop-color="#F4F6F2"/>
</linearGradient>
<linearGradient id="paint8_linear_847_10836" x1="36.0667" y1="166.566" x2="29.1937" y2="129.255" gradientUnits="userSpaceOnUse">
<stop stop-color="#0A2C67"/>
<stop offset="0.4" stop-color="#002C6C"/>
<stop offset="1" stop-color="#004D77"/>
</linearGradient>
<linearGradient id="paint9_linear_847_10836" x1="36.3777" y1="166.711" x2="39.858" y2="128.856" gradientUnits="userSpaceOnUse">
<stop stop-color="#0A2C67"/>
<stop offset="0.4" stop-color="#002C6C"/>
<stop offset="1" stop-color="#004D77"/>
</linearGradient>
<linearGradient id="paint10_linear_847_10836" x1="26.9397" y1="107.304" x2="37.4096" y2="134.057" gradientUnits="userSpaceOnUse">
<stop stop-color="#4B8CA0"/>
<stop offset="0.32" stop-color="#3B7D96"/>
<stop offset="0.93" stop-color="#12587D"/>
<stop offset="1" stop-color="#0D547A"/>
</linearGradient>
<linearGradient id="paint11_linear_847_10836" x1="32.1587" y1="105.496" x2="34.2779" y2="97.1552" gradientUnits="userSpaceOnUse">
<stop offset="0.1" stop-color="#003273"/>
<stop offset="1" stop-color="#004D77"/>
</linearGradient>
<linearGradient id="paint12_linear_847_10836" x1="38.0211" y1="105.972" x2="43.154" y2="128.691" gradientUnits="userSpaceOnUse">
<stop stop-color="#4B8CA0"/>
<stop offset="0.32" stop-color="#3B7D96"/>
<stop offset="0.93" stop-color="#12587D"/>
<stop offset="1" stop-color="#0D547A"/>
</linearGradient>
<linearGradient id="paint13_linear_847_10836" x1="23.6773" y1="106.593" x2="28.4896" y2="137.358" gradientUnits="userSpaceOnUse">
<stop stop-color="#4B8CA0"/>
<stop offset="0.32" stop-color="#3B7D96"/>
<stop offset="0.93" stop-color="#12587D"/>
<stop offset="1" stop-color="#0D547A"/>
</linearGradient>
</defs>
</svg>
