<svg width="33" height="26" viewBox="0 0 33 26" fill="none" xmlns="http://www.w3.org/2000/svg">
<path d="M16.0944 25.9976C12.0859 25.9976 8.07827 26.0009 4.06977 25.9959C2.24529 25.9942 0.843191 25.0715 0.257379 23.445C0.098983 23.0048 0.016852 22.5122 0.0143378 22.0432C-0.00326173 17.5236 -0.00326174 13.004 0.00679513 8.48349C0.0118236 6.23001 1.66199 4.56715 3.89545 4.54012C4.88689 4.52829 5.87833 4.52913 6.86977 4.54265C7.12538 4.54603 7.27372 4.45731 7.40948 4.24354C7.90562 3.46112 8.42858 2.69644 8.92723 1.91571C9.73597 0.652511 10.8967 0.0264046 12.3684 0.0145754C14.8541 -0.00485845 17.3406 -0.00485845 19.8264 0.0145754C21.298 0.0264046 22.4587 0.654201 23.2658 1.91824C23.7645 2.69897 24.2874 3.4645 24.7836 4.24692C24.9202 4.46154 25.071 4.54688 25.3249 4.5435C26.2887 4.52998 27.2525 4.53336 28.2155 4.53927C30.552 4.55448 32.1846 6.20889 32.1871 8.57136C32.1913 13.0209 32.1904 17.4704 32.1871 21.9198C32.1854 24.3212 30.5453 25.9891 28.161 25.995C24.1391 26.0052 20.1163 25.9976 16.0944 25.9976ZM16.0911 5.34704C11.299 5.35887 7.40865 9.27858 7.42708 14.0754C7.44552 18.9051 11.3166 22.7994 16.0969 22.7994C20.8773 22.7994 24.7903 18.8628 24.7651 14.0779C24.74 9.25155 20.8488 5.33606 16.0911 5.34789V5.34704ZM27.0631 9.98834C27.0631 10.001 27.0631 10.0145 27.0631 10.0272C27.369 10.0112 27.6791 10.0221 27.9791 9.97229C28.5498 9.87681 28.9178 9.4011 28.896 8.83837C28.8733 8.26803 28.4845 7.79317 27.9238 7.74923C27.3698 7.70614 26.8083 7.70276 26.2544 7.74331C25.6484 7.78725 25.2537 8.24521 25.2361 8.82654C25.2185 9.42645 25.6065 9.89624 26.2284 9.98158C26.5016 10.0188 26.784 9.98749 27.0623 9.98749L27.0631 9.98834Z" fill="white"/>
<path d="M16.0936 18.9279C13.4437 18.927 11.2806 16.7733 11.258 14.1151C11.2362 11.4661 13.4177 9.25323 16.0777 9.22788C18.7227 9.20253 20.9436 11.4146 20.9352 14.066C20.9276 16.7327 18.7403 18.9287 16.0928 18.927L16.0936 18.9279Z" fill="white"/>
</svg>
