<svg width="30" height="30" viewBox="0 0 30 30" fill="none" xmlns="http://www.w3.org/2000/svg">
<g clip-path="url(#clip0_856_1012)">
<path d="M22.9345 8.48881C22.9493 9.91995 22.5911 11.2727 22.0562 12.5813C20.545 16.2866 18.2437 19.4968 15.6971 22.5453C15.2849 23.0404 14.6961 23.0306 14.2839 22.5355C11.7569 19.5066 9.47528 16.316 7.94927 12.645C6.9581 10.263 6.70295 7.83696 7.54691 5.37167C8.60678 2.26434 10.7854 0.475415 14.0484 0.0637174C17.2427 -0.338178 20.2358 1.17628 21.8109 3.95034C22.6058 5.35207 22.9149 6.88613 22.9345 8.48391V8.48881ZM15.0101 5.29326C13.5528 5.28345 12.3506 6.45973 12.3408 7.89577C12.3261 9.35632 13.5283 10.5571 14.9954 10.5571C16.4478 10.5571 17.645 9.37592 17.645 7.93008C17.645 6.48424 16.4625 5.29816 15.0101 5.28835V5.29326Z" fill="white"/>
<path d="M27.4335 22.9374C25.6769 23.849 23.9644 24.7362 22.2569 25.6233C20.3138 26.628 18.3707 27.6278 16.4375 28.6473C16.1185 28.8139 15.9222 28.8188 15.6475 28.5395C13.8761 26.7407 12.0802 24.9665 10.2844 23.1874C10.1862 23.0894 10.0439 23.0257 9.84766 22.9031C10.4954 22.5698 11.0007 22.3101 11.5307 22.0405C11.9576 22.56 12.3746 23.0747 12.7966 23.5795C14.0773 25.1086 15.8977 25.1135 17.1784 23.5893C19.1264 21.271 20.8634 18.8107 22.3501 16.1689C22.4188 16.0464 22.6151 15.9386 22.7623 15.9239C23.1107 15.8896 23.4639 15.9092 23.8172 15.919C24.1902 15.9288 24.4747 16.0905 24.6269 16.4336C25.564 18.5901 26.4914 20.7515 27.4335 22.9423V22.9374Z" fill="white"/>
<path d="M14.3671 29.7942C14.0089 29.8726 13.7145 29.9902 13.425 29.9902C9.31805 30 5.21599 30 1.10902 30C0.132576 30 -0.205991 29.456 0.127669 28.5444C0.363194 27.9072 0.745922 27.5102 1.36418 27.2112C3.58694 26.1232 5.77536 24.9763 7.9785 23.8491C8.17968 23.7461 8.33179 23.7069 8.52316 23.903C10.3877 25.7752 12.2621 27.6376 14.1316 29.505C14.1954 29.5687 14.2444 29.6422 14.3671 29.7991V29.7942Z" fill="white"/>
<path d="M10.4268 20.6241C7.53668 22.0993 4.63187 23.5795 1.62402 25.1135C1.94787 24.349 2.22756 23.6824 2.51215 23.0208C3.42481 20.8986 4.34728 18.7763 5.25013 16.6492C5.46603 16.1395 5.80459 15.9582 6.34924 15.8896C7.21774 15.7817 7.67407 16.1052 8.08624 16.8796C8.76828 18.1588 9.61715 19.3498 10.4268 20.629V20.6241Z" fill="white"/>
<path d="M17.6934 29.9608C21.2164 28.1376 24.6512 26.3584 28.1252 24.5597C28.4539 25.3243 28.7728 26.0644 29.0918 26.7996C29.3666 27.4465 29.661 28.0837 29.9161 28.7355C30.1811 29.4119 29.7886 29.9902 29.0623 29.9902C25.3381 29.9951 21.6139 29.9902 17.8896 29.9902C17.8651 29.9902 17.8406 29.9804 17.6934 29.9559V29.9608Z" fill="white"/>
</g>
<defs>
<clipPath id="clip0_856_1012">
<rect width="30" height="30" fill="white"/>
</clipPath>
</defs>
</svg>
