<svg width="30" height="23" viewBox="0 0 30 23" fill="none" xmlns="http://www.w3.org/2000/svg">
<g clip-path="url(#clip0_856_1008)">
<path d="M8.49798 1.77759V22.7762C5.93787 22.158 3.45989 21.6306 1.04261 20.9111C0.578434 20.7749 0.0535587 19.8982 0.0499881 19.3568C-0.0214235 13.4295 0.00714116 7.49877 0 1.56802C0 0.40492 0.428469 -0.237752 1.72816 0.0835839C3.97048 0.638937 6.20567 1.20477 8.49798 1.78108V1.77759Z" fill="white"/>
<path d="M21.5338 0.240997C24.0511 0.848742 26.4791 1.36917 28.8535 2.07122C29.3427 2.21442 29.9354 3.03523 29.9426 3.55216C30.0175 9.5353 29.9925 15.5219 29.989 21.5051C29.989 22.7136 29.407 23.22 28.1716 22.9092C25.9899 22.3608 23.8083 21.8125 21.5303 21.2396V0.240997H21.5338Z" fill="white"/>
<path d="M19.1845 21.2047C16.3351 21.7496 13.6215 22.2665 10.79 22.8079V1.8931C13.5322 1.35172 16.2923 0.806843 19.1845 0.237518V21.2047Z" fill="white"/>
</g>
<defs>
<clipPath id="clip0_856_1008">
<rect width="30" height="23" fill="white"/>
</clipPath>
</defs>
</svg>
