<svg width="133" height="172" viewBox="0 0 133 172" fill="none" xmlns="http://www.w3.org/2000/svg">
<g style="mix-blend-mode:multiply">
<path opacity="0.02" d="M73.5217 95.3624L130.238 128.386L60.116 169.585C55.5983 172.249 49.2514 171.832 44.7215 169.192L3.47308 145.18C0.404001 143.387 -0.0747678 138.685 2.98203 136.881L73.5217 95.3747V95.3624Z" fill="#235E83"/>
<path opacity="0.03" d="M71.8514 97.032L127.488 129.429L59.5137 169.315C55.3643 171.758 48.7597 170.911 44.598 168.492L4.44218 145.118C1.61863 143.473 0.685645 138.87 3.49692 137.212L71.8392 97.0443L71.8514 97.032Z" fill="#245E83"/>
<path opacity="0.05" d="M70.1706 98.7016L124.727 130.473L58.9133 169.057C55.1445 171.279 48.2697 170.002 44.4886 167.805L5.43767 145.057C2.87192 143.559 1.4724 139.054 4.02587 137.556L70.1829 98.7139L70.1706 98.7016Z" fill="#255D84"/>
<path opacity="0.06" d="M68.4883 100.371L121.964 131.504L58.299 168.775C54.9108 170.776 47.7659 169.069 44.3654 167.093L6.40703 144.983C4.09908 143.645 2.23309 139.226 4.52876 137.875L68.4883 100.371Z" fill="#265D85"/>
<path opacity="0.08" d="M66.8062 102.041L119.201 132.547L57.6849 168.505C54.6649 170.273 47.2623 168.149 44.2423 166.393L7.37658 144.922C5.32644 143.731 2.99395 139.422 5.04409 138.219L66.8185 102.041H66.8062Z" fill="#275C85"/>
<path opacity="0.09" d="M65.1245 103.71L116.439 133.591L57.0713 168.247C54.4319 169.794 46.7592 167.24 44.1075 165.706L8.33429 144.873C6.54195 143.829 3.74295 139.619 5.53529 138.563L65.1245 103.723V103.71Z" fill="#285C86"/>
<path opacity="0.11" d="M63.4424 105.392L113.677 134.647L56.4694 167.989C54.2106 169.315 46.2678 166.332 43.9967 165.006L9.3161 144.811C7.78156 143.915 4.5161 139.803 6.05064 138.894L63.4424 105.38V105.392Z" fill="#285B87"/>
<path opacity="0.12" d="M61.7608 107.062L110.915 135.69L55.8559 167.719C53.9654 168.824 45.7648 165.411 43.8743 164.306L10.2863 144.75C9.00954 144.001 5.27753 139.987 6.55427 139.238L61.7608 107.062Z" fill="#295B88"/>
<path opacity="0.14" d="M60.0786 108.731L108.153 136.721L55.2417 167.449C53.7317 168.333 45.2611 164.49 43.7388 163.606L11.2434 144.689C10.2245 144.087 6.02601 140.171 7.05722 139.569L60.0663 108.719L60.0786 108.731Z" fill="#2A5A88"/>
<path opacity="0.15" d="M58.4104 110.401L105.404 137.765L54.6416 167.179C53.5122 167.842 44.7715 163.57 43.6298 162.907L12.227 144.615C11.4536 144.173 6.81312 140.355 7.57425 139.901L58.3982 110.389L58.4104 110.401Z" fill="#2B5A89"/>
<path opacity="0.17" d="M56.7273 112.07L102.641 138.808L54.0388 166.909C53.29 167.351 44.2669 162.649 43.518 162.207L13.2078 144.554C12.6922 144.259 7.58523 140.539 8.08856 140.232L56.7273 112.058V112.07Z" fill="#2C598A"/>
<path opacity="0.18" d="M55.0456 113.74L99.8787 139.852L53.4252 166.651C53.0446 166.872 43.7637 161.741 43.3954 161.52L14.1778 144.505C13.92 144.357 8.34657 140.736 8.60438 140.588L55.0456 113.74Z" fill="#2D598A"/>
<path opacity="0.2" d="M9.10742 140.932L52.8111 166.381L97.1163 140.895L53.3635 115.41L9.10742 140.932Z" fill="#2E588B"/>
</g>
<path d="M52.7637 56.4956V170.174L101.893 141.926V28.2478L52.7637 56.4956Z" fill="url(#paint0_linear_847_10583)"/>
<path d="M52.8007 56.4956V170.174L4.3584 141.926V28.2846L52.8007 56.4956Z" fill="url(#paint1_linear_847_10583)"/>
<path d="M4.3584 28.2846L52.8007 56.4956L101.894 28.2478L53.4022 0L4.3584 28.2846Z" fill="url(#paint2_linear_847_10583)"/>
<g opacity="0.8">
<path d="M8.79004 46.8341L13.5164 49.7314V40.475L8.79004 37.5778V46.8219V46.8341ZM17.408 51.7938L22.1344 54.691V45.4347L17.408 42.5374V51.7815V51.7938ZM26.026 56.7657L30.7524 59.6629V50.4066L26.026 47.5094V56.7534V56.7657Z" fill="#347EA9"/>
<path d="M8.79004 70.4292L13.5164 73.3264V54.7401L8.79004 51.8429V70.4292ZM17.408 75.3888L22.1344 78.286V59.6997L17.408 56.8025V75.3888ZM26.026 80.3607L30.7524 83.258V64.6716L26.026 61.7744V80.3607Z" fill="#347EA9"/>
<path d="M37.2832 53.9667V160.869L44.0966 165.055V58.1529L37.2832 53.9667Z" fill="#347EA9"/>
<path d="M8.79004 138.735L13.5164 141.632V79.0962L8.79004 76.199V138.735Z" fill="#347EA9"/>
<path d="M17.4072 143.694L22.1336 146.604V84.056L17.4072 81.1588V143.694Z" fill="#347EA9"/>
<path d="M26.0254 148.666L30.7395 151.563V89.0278L26.0254 86.1306V148.666Z" fill="#347EA9"/>
</g>
<g style="mix-blend-mode:multiply">
<path d="M30.7395 82.46L26.8602 80.0784V62.29L26.0254 61.7744V80.3607L30.7395 83.258V82.46Z" fill="#9EBFE6"/>
<path d="M30.7395 58.8649L26.8602 56.4833V48.0249L26.0254 47.5093V56.7656L30.7395 59.6629V58.8649Z" fill="#9EBFE6"/>
<path d="M22.1336 53.9054L18.242 51.5115V43.0654L17.4072 42.5498V51.7939L22.1336 54.7033V53.9054Z" fill="#9EBFE6"/>
<path d="M18.242 143.412V81.6744L17.4072 81.1588V143.694L22.1336 146.604V145.806L18.242 143.412Z" fill="#9EBFE6"/>
<path d="M13.5164 72.5284L9.63711 70.1468V52.3585L8.79004 51.8429V70.4292L13.5164 73.3264V72.5284Z" fill="#9EBFE6"/>
<path d="M22.1336 77.5005L18.242 75.1189V57.3305L17.4072 56.8149V75.3889L22.1336 78.2984V77.5005Z" fill="#9EBFE6"/>
<path d="M26.8602 148.384V86.6462L26.0254 86.1306V148.666L30.7395 151.563V150.765L26.8602 148.384Z" fill="#9EBFE6"/>
<path d="M38.1303 160.586V54.4823L37.2832 53.9667V160.869L44.0966 165.055V164.257L38.1303 160.586Z" fill="#9EBFE6"/>
<path d="M9.63711 138.452V76.7146L8.79004 76.199V138.735L13.5164 141.632V140.834L9.63711 138.452Z" fill="#9EBFE6"/>
<path d="M13.5164 48.9334L9.63711 46.5518V38.0934L8.79004 37.5778V46.8341L13.5164 49.7314V48.9334Z" fill="#9EBFE6"/>
</g>
<path d="M97.227 37.5777L92.5006 40.4749V49.7313L97.227 46.834V37.59V37.5777ZM88.6091 42.5496L83.8827 45.4468V54.7031L88.6091 51.806V42.5619V42.5496ZM79.9911 47.5092L75.2647 50.4064V59.6628L79.9911 56.7656V47.5215V47.5092ZM58.041 60.338V69.5943L62.7674 66.6971V57.453L58.041 60.3503V60.338ZM71.3731 52.4811L66.6467 55.3783V64.6347L71.3731 61.7375V52.4934V52.4811Z" fill="#195F84"/>
<path d="M97.227 51.8427L92.5006 54.7399V73.3263L97.227 70.429V51.8427ZM88.6091 56.8146L83.8827 59.7118V78.2981L88.6091 75.401V56.8146ZM79.9911 61.7742L75.2647 64.6714V83.2578L79.9911 80.3606V61.7742ZM58.041 74.603V93.1893L62.7674 90.2921V71.7058L58.041 74.603ZM71.3731 66.7461L66.6467 69.6434V88.2297L71.3731 85.3325V66.7461Z" fill="#195F84"/>
<path d="M97.227 76.1989L92.5006 79.096V141.644L97.227 138.747V76.2111V76.1989ZM88.6091 81.1585L83.8827 84.0557V146.603L88.6091 143.706V81.1707V81.1585ZM79.9911 86.1304L75.2647 89.0276V151.575L79.9911 148.678V86.1427V86.1304ZM58.041 98.9591V161.507L62.7674 158.61V96.0742L58.041 98.9714V98.9591ZM71.3731 91.09L66.6467 93.9872V156.535L71.3731 153.638V91.1023V91.09Z" fill="#195F84"/>
<g style="mix-blend-mode:multiply">
<path d="M70.3907 85.1852L66.6465 87.4809V88.2298L71.3729 85.3203V66.7462L70.3907 67.3477V85.1852Z" fill="#9EBFE6"/>
<path d="M70.3907 61.5902L66.6465 63.8858V64.6347L71.3729 61.7252V52.4811L70.3907 53.0827V61.5902Z" fill="#9EBFE6"/>
<path d="M79.0089 80.2132L75.2646 82.5212V83.2578L79.991 80.3605V61.7742L79.0089 62.3758V80.2132Z" fill="#9EBFE6"/>
<path d="M79.0089 148.519L75.2646 150.827V151.563L79.991 148.666V86.1306L79.0089 86.7321V148.519Z" fill="#9EBFE6"/>
<path d="M61.773 66.5498L58.041 68.8577V69.5943L62.7551 66.6971V57.4408L61.773 58.0423V66.5498Z" fill="#9EBFE6"/>
<path d="M61.773 90.1448L58.041 92.4528V93.1894L62.7551 90.2921V71.7058L61.773 72.3073V90.1448Z" fill="#9EBFE6"/>
<path d="M70.3907 153.491L66.6465 155.786V156.535L71.3729 153.626V91.0901L70.3907 91.6916V153.491Z" fill="#9EBFE6"/>
<path d="M61.773 158.45L58.041 160.758V161.495L62.7551 158.598V96.0621L61.773 96.6636V158.45Z" fill="#9EBFE6"/>
<path d="M79.0089 56.6182L75.2646 58.9261V59.6627L79.991 56.7655V47.5092L79.0089 48.1107V56.6182Z" fill="#9EBFE6"/>
<path d="M96.2453 46.6867L92.501 48.9946V49.7312L97.2274 46.834V37.5776L96.2453 38.1792V46.6867Z" fill="#9EBFE6"/>
<path d="M96.2453 70.2817L92.501 72.5897V73.3263L97.2274 70.429V51.8427L96.2453 52.4442V70.2817Z" fill="#9EBFE6"/>
<path d="M96.2453 138.587L92.501 140.895V141.632L97.2274 138.734V76.1989L96.2453 76.8004V138.587Z" fill="#9EBFE6"/>
<path d="M87.6261 143.559L83.8818 145.855V146.604L88.6082 143.694V81.1586L87.6261 81.7601V143.559Z" fill="#9EBFE6"/>
<path d="M87.6261 51.6586L83.8818 53.9543V54.7032L88.6082 51.7937V42.5496L87.6261 43.1511V51.6586Z" fill="#9EBFE6"/>
<path d="M87.6261 75.2537L83.8818 77.5494V78.2982L88.6082 75.3888V56.8147L87.6261 57.4162V75.2537Z" fill="#9EBFE6"/>
</g>
<path d="M52.7998 43.3722V49.8787L90.3653 28.2724V21.7782L52.7998 43.3722Z" fill="#5697BC"/>
<path d="M52.8126 43.3722V49.8787L15.7627 28.2724V21.8027L52.8126 43.3722Z" fill="#9EBFE6"/>
<path d="M15.7627 21.8027L52.8126 43.3722L90.3659 21.7782L53.2791 0.171875L15.7627 21.8027Z" fill="url(#paint3_linear_847_10583)"/>
<path d="M82.349 22.0605L52.7017 4.79999L23.0176 21.8886L52.6894 39.1737L82.349 22.0605Z" fill="url(#paint4_linear_847_10583)"/>
<path d="M52.714 9.89465V4.79999H52.7017L23.0176 21.8886L27.4248 24.4544L52.714 9.89465Z" fill="#5697BC"/>
<path d="M52.7012 9.89465L77.9413 24.6017L82.3485 22.0605L52.7012 4.79999V9.89465Z" fill="#8CB9DE"/>
<path d="M27.6211 24.3439L52.5052 38.8422L77.7453 24.3316L52.8244 9.82098L27.6211 24.3439Z" fill="#9EBFE6"/>
<path style="mix-blend-mode:screen" opacity="0.3" d="M52.5049 38.8422L77.745 24.3316L52.824 9.82098L52.5049 38.8422Z" fill="url(#paint5_radial_847_10583)"/>
<defs>
<linearGradient id="paint0_linear_847_10583" x1="65.0645" y1="102.875" x2="226.437" y2="54.556" gradientUnits="userSpaceOnUse">
<stop stop-color="#5697BC"/>
<stop offset="0.08" stop-color="#5C9BBF"/>
<stop offset="0.19" stop-color="#6EA6C8"/>
<stop offset="0.32" stop-color="#8CB8D7"/>
<stop offset="0.47" stop-color="#B6D2EC"/>
<stop offset="0.58" stop-color="#DBE9FF"/>
<stop offset="0.86" stop-color="#EAF1F6"/>
<stop offset="1" stop-color="#F4F6F2"/>
</linearGradient>
<linearGradient id="paint1_linear_847_10583" x1="-50.1484" y1="80.8272" x2="57.8708" y2="106.08" gradientUnits="userSpaceOnUse">
<stop stop-color="#5697BC"/>
<stop offset="0.08" stop-color="#5C9BBF"/>
<stop offset="0.19" stop-color="#6EA6C8"/>
<stop offset="0.32" stop-color="#8CB8D7"/>
<stop offset="0.47" stop-color="#B6D2EC"/>
<stop offset="0.58" stop-color="#DBE9FF"/>
<stop offset="0.86" stop-color="#EAF1F6"/>
<stop offset="1" stop-color="#F4F6F2"/>
</linearGradient>
<linearGradient id="paint2_linear_847_10583" x1="103.944" y1="-68.5877" x2="49.2774" y2="35.6013" gradientUnits="userSpaceOnUse">
<stop stop-color="#5697BC"/>
<stop offset="0.08" stop-color="#5C9BBF"/>
<stop offset="0.19" stop-color="#6EA6C8"/>
<stop offset="0.32" stop-color="#8CB8D7"/>
<stop offset="0.47" stop-color="#B6D2EC"/>
<stop offset="0.58" stop-color="#DBE9FF"/>
<stop offset="0.86" stop-color="#EAF1F6"/>
<stop offset="1" stop-color="#F4F6F2"/>
</linearGradient>
<linearGradient id="paint3_linear_847_10583" x1="91.9372" y1="-52.2848" x2="50.1241" y2="27.4007" gradientUnits="userSpaceOnUse">
<stop stop-color="#5697BC"/>
<stop offset="0.08" stop-color="#5C9BBF"/>
<stop offset="0.19" stop-color="#6EA6C8"/>
<stop offset="0.32" stop-color="#8CB8D7"/>
<stop offset="0.47" stop-color="#B6D2EC"/>
<stop offset="0.58" stop-color="#DBE9FF"/>
<stop offset="0.86" stop-color="#EAF1F6"/>
<stop offset="1" stop-color="#F4F6F2"/>
</linearGradient>
<linearGradient id="paint4_linear_847_10583" x1="21.925" y1="80.5939" x2="55.0096" y2="17.5305" gradientUnits="userSpaceOnUse">
<stop stop-color="#5697BC"/>
<stop offset="0.08" stop-color="#5C9BBF"/>
<stop offset="0.19" stop-color="#6EA6C8"/>
<stop offset="0.32" stop-color="#8CB8D7"/>
<stop offset="0.47" stop-color="#B6D2EC"/>
<stop offset="0.58" stop-color="#DBE9FF"/>
<stop offset="0.86" stop-color="#EAF1F6"/>
<stop offset="1" stop-color="#F4F6F2"/>
</linearGradient>
<radialGradient id="paint5_radial_847_10583" cx="0" cy="0" r="1" gradientUnits="userSpaceOnUse" gradientTransform="translate(49.7304 18.9668) scale(21.8518 21.8518)">
<stop stop-color="white"/>
<stop offset="1"/>
</radialGradient>
</defs>
</svg>
